<svg width="688" height="984" viewBox="0 0 688 984" fill="none" xmlns="http://www.w3.org/2000/svg">
<g clip-path="url(#clip0_2_9302)">
<rect width="688" height="984" rx="32" fill="#0A65E4"/>
<rect x="-78" y="26.167" width="136" height="267" transform="rotate(-45 -78 26.167)" fill="url(#paint0_linear_2_9302)" fill-opacity="0.08"/>
<rect x="209" y="122.167" width="136" height="267" transform="rotate(-45 209 122.167)" fill="url(#paint1_linear_2_9302)" fill-opacity="0.08"/>
<rect x="18" y="311.166" width="136" height="267" transform="rotate(-45 18 311.166)" fill="url(#paint2_linear_2_9302)" fill-opacity="0.08"/>
<rect x="111" y="596.166" width="136" height="267" transform="rotate(-45 111 596.166)" fill="url(#paint3_linear_2_9302)" fill-opacity="0.08"/>
<rect x="305" y="404.166" width="136" height="267" transform="rotate(-45 305 404.166)" fill="url(#paint4_linear_2_9302)" fill-opacity="0.08"/>
<rect x="590" y="500.167" width="136" height="267" transform="rotate(-45 590 500.167)" fill="url(#paint5_linear_2_9302)" fill-opacity="0.08"/>
<rect x="399" y="692.166" width="136" height="267" transform="rotate(-45 399 692.166)" fill="url(#paint6_linear_2_9302)" fill-opacity="0.08"/>
<rect x="-171" y="500.166" width="136" height="267" transform="rotate(-45 -171 500.166)" fill="url(#paint7_linear_2_9302)" fill-opacity="0.08"/>
<rect x="200" y="881.166" width="136" height="267" transform="rotate(-45 200 881.166)" fill="url(#paint8_linear_2_9302)" fill-opacity="0.08"/>
<rect x="-87" y="785.166" width="136" height="267" transform="rotate(-45 -87 785.166)" fill="url(#paint9_linear_2_9302)" fill-opacity="0.08"/>
<rect x="499" y="215.167" width="136" height="267" transform="rotate(-45 499 215.167)" fill="url(#paint10_linear_2_9302)" fill-opacity="0.08"/>
<rect x="403" y="-66.833" width="136" height="267" transform="rotate(-45 403 -66.833)" fill="url(#paint11_linear_2_9302)" fill-opacity="0.08"/>
<rect x="499" y="974.166" width="136" height="267" transform="rotate(-45 499 974.166)" fill="url(#paint12_linear_2_9302)" fill-opacity="0.08"/>
<rect x="114" y="-140.833" width="136" height="267" transform="rotate(-45 114 -140.833)" fill="url(#paint13_linear_2_9302)" fill-opacity="0.08"/>
<path d="M-8.62389 721.798C22.3072 723.094 53.1815 718.131 82.1488 707.209C111.116 696.286 137.58 679.628 159.955 658.232C182.33 636.837 200.156 611.144 212.363 582.695C224.571 554.245 230.91 523.624 230.999 492.666C231.089 461.707 224.928 431.05 212.885 402.53C200.842 374.01 183.166 348.215 160.915 326.69C138.664 305.166 112.297 288.354 83.3934 277.264C54.4898 266.174 23.6448 261.033 -7.2933 262.149L-3.76833 359.844C14.02 359.202 31.7549 362.158 48.3734 368.534C64.992 374.911 80.1523 384.576 92.9457 396.952C105.739 409.328 115.903 424.16 122.827 440.558C129.751 456.956 133.293 474.583 133.242 492.383C133.19 510.182 129.546 527.789 122.527 544.146C115.508 560.504 105.259 575.276 92.3939 587.578C79.529 599.879 64.3131 609.457 47.6578 615.738C31.0026 622.018 13.251 624.871 -4.53337 624.126L-8.62389 721.798Z" fill="#FDB022"/>
<path d="M391.525 332.715H380.697V362H373.424V332.715H362.568V326.098H391.525V332.715ZM415.698 336.898V362H409.026V358.801C408.17 360.004 406.957 360.961 405.39 361.672C403.822 362.383 402.108 362.738 400.249 362.738C397.934 362.738 395.874 362.201 394.069 361.125C392.283 360.031 390.888 358.5 389.886 356.531C388.883 354.544 388.382 352.238 388.382 349.613C388.382 346.934 388.901 344.573 389.94 342.531C390.98 340.471 392.447 338.885 394.343 337.773C396.257 336.643 398.426 336.078 400.851 336.078C402.71 336.078 404.369 336.397 405.827 337.035C407.286 337.655 408.47 338.566 409.382 339.77L409.929 336.898H415.698ZM402.026 356.395C404.013 356.395 405.618 355.757 406.839 354.48C408.079 353.186 408.698 351.473 408.698 349.34C408.698 347.207 408.088 345.503 406.866 344.227C405.663 342.932 404.068 342.285 402.081 342.285C400.058 342.285 398.454 342.941 397.269 344.254C396.084 345.548 395.491 347.243 395.491 349.34C395.491 351.436 396.093 353.141 397.296 354.453C398.517 355.747 400.094 356.395 402.026 356.395ZM436.863 346.195L445.395 362H437.492L431.942 351.363L428.031 355.383V362H421.031V323.582H428.031V346.824L437.274 336.898H445.832L436.863 346.195ZM471.564 354.043C470.999 356.668 469.577 358.773 467.298 360.359C465.02 361.945 462.312 362.738 459.177 362.738C456.57 362.738 454.264 362.182 452.259 361.07C450.254 359.94 448.704 358.363 447.611 356.34C446.517 354.298 445.97 351.965 445.97 349.34C445.97 346.697 446.517 344.372 447.611 342.367C448.704 340.344 450.245 338.794 452.232 337.719C454.219 336.625 456.479 336.078 459.013 336.078C461.474 336.078 463.643 336.589 465.521 337.609C467.417 338.63 468.884 340.061 469.923 341.902C470.98 343.725 471.509 345.794 471.509 348.109C471.509 349.039 471.409 350.124 471.208 351.363H452.861C452.934 353.077 453.544 354.462 454.693 355.52C455.859 356.559 457.354 357.078 459.177 357.078C460.526 357.078 461.693 356.805 462.677 356.258C463.661 355.711 464.363 354.973 464.783 354.043H471.564ZM464.372 346.715C464.336 345.184 463.798 343.98 462.759 343.105C461.72 342.23 460.398 341.793 458.794 341.793C457.117 341.793 455.732 342.24 454.638 343.133C453.562 344.026 452.988 345.22 452.915 346.715H464.372ZM512.746 336.898L501.179 366.266C500.25 368.617 499.01 370.513 497.46 371.953C495.929 373.411 493.66 374.141 490.652 374.141C489.194 374.141 487.599 373.94 485.867 373.539L485.921 367.879C487.489 368.134 488.674 368.262 489.476 368.262C491.226 368.262 492.466 367.934 493.195 367.277C493.924 366.639 494.544 365.664 495.054 364.352L495.574 362.957L484.828 336.898H492.375L498.828 354.453L505.418 336.898H512.746ZM513.048 349.395C513.048 346.824 513.622 344.536 514.77 342.531C515.937 340.508 517.568 338.931 519.665 337.801C521.779 336.652 524.176 336.078 526.856 336.078C529.536 336.078 531.933 336.652 534.048 337.801C536.162 338.931 537.794 340.508 538.942 342.531C540.109 344.536 540.692 346.824 540.692 349.395C540.692 351.965 540.109 354.262 538.942 356.285C537.794 358.309 536.162 359.895 534.048 361.043C531.951 362.173 529.554 362.738 526.856 362.738C524.176 362.738 521.788 362.173 519.692 361.043C517.614 359.895 515.982 358.318 514.798 356.312C513.631 354.289 513.048 351.983 513.048 349.395ZM520.157 349.395C520.157 351.454 520.777 353.168 522.016 354.535C523.274 355.884 524.887 356.559 526.856 356.559C528.843 356.559 530.456 355.884 531.696 354.535C532.954 353.168 533.583 351.454 533.583 349.395C533.583 347.298 532.963 345.594 531.723 344.281C530.502 342.951 528.88 342.285 526.856 342.285C524.869 342.285 523.256 342.951 522.016 344.281C520.777 345.612 520.157 347.316 520.157 349.395ZM567.845 336.898V362H562.076L561.611 359.02C560.718 360.259 559.606 361.189 558.275 361.809C556.963 362.428 555.468 362.738 553.791 362.738C550.801 362.738 548.495 361.845 546.873 360.059C545.25 358.254 544.439 355.839 544.439 352.812V336.898H551.439V351.691C551.439 353.478 551.84 354.754 552.642 355.52C553.444 356.285 554.593 356.668 556.088 356.668C557.582 356.668 558.758 356.185 559.615 355.219C560.472 354.253 560.9 352.967 560.9 351.363V336.898H567.845ZM586.003 336.625C586.969 336.625 587.735 336.716 588.3 336.898V342.914C588.008 342.878 587.561 342.859 586.96 342.859C584.718 342.859 582.995 343.47 581.792 344.691C580.607 345.895 580.015 347.599 580.015 349.805V362H573.015V336.898H579.331L579.905 340.508C580.27 339.232 580.999 338.266 582.093 337.609C583.205 336.953 584.508 336.625 586.003 336.625ZM178.975 402.078C181.363 402.078 183.486 402.634 185.346 403.746C187.223 404.84 188.682 406.408 189.721 408.449C190.76 410.473 191.279 412.788 191.279 415.395C191.279 418.001 190.76 420.316 189.721 422.34C188.682 424.363 187.214 425.94 185.318 427.07C183.441 428.182 181.308 428.738 178.92 428.738C177.206 428.738 175.657 428.465 174.272 427.918C172.886 427.371 171.747 426.596 170.854 425.594V439.703H163.908V402.898H169.678L170.115 406.152C170.972 404.876 172.184 403.883 173.752 403.172C175.32 402.443 177.061 402.078 178.975 402.078ZM177.553 422.449C179.54 422.449 181.135 421.802 182.338 420.508C183.559 419.195 184.17 417.491 184.17 415.395C184.17 413.298 183.559 411.603 182.338 410.309C181.135 408.996 179.567 408.34 177.635 408.34C175.648 408.34 174.035 408.987 172.795 410.281C171.574 411.557 170.963 413.28 170.963 415.449C170.963 417.582 171.565 419.286 172.768 420.562C173.989 421.82 175.584 422.449 177.553 422.449ZM208.261 402.625C209.227 402.625 209.993 402.716 210.558 402.898V408.914C210.266 408.878 209.82 408.859 209.218 408.859C206.976 408.859 205.253 409.47 204.05 410.691C202.865 411.895 202.273 413.599 202.273 415.805V428H195.273V402.898H201.589L202.163 406.508C202.528 405.232 203.257 404.266 204.351 403.609C205.463 402.953 206.766 402.625 208.261 402.625ZM212.063 415.395C212.063 412.824 212.637 410.536 213.785 408.531C214.952 406.508 216.584 404.931 218.68 403.801C220.795 402.652 223.192 402.078 225.871 402.078C228.551 402.078 230.948 402.652 233.063 403.801C235.177 404.931 236.809 406.508 237.957 408.531C239.124 410.536 239.707 412.824 239.707 415.395C239.707 417.965 239.124 420.262 237.957 422.285C236.809 424.309 235.177 425.895 233.063 427.043C230.966 428.173 228.569 428.738 225.871 428.738C223.192 428.738 220.804 428.173 218.707 427.043C216.629 425.895 214.998 424.318 213.813 422.312C212.646 420.289 212.063 417.983 212.063 415.395ZM219.172 415.395C219.172 417.454 219.792 419.168 221.032 420.535C222.289 421.884 223.903 422.559 225.871 422.559C227.858 422.559 229.472 421.884 230.711 420.535C231.969 419.168 232.598 417.454 232.598 415.395C232.598 413.298 231.978 411.594 230.739 410.281C229.517 408.951 227.895 408.285 225.871 408.285C223.884 408.285 222.271 408.951 221.032 410.281C219.792 411.612 219.172 413.316 219.172 415.395ZM269.814 389.582V428H264.044L263.607 424.637C262.75 425.876 261.538 426.87 259.97 427.617C258.402 428.365 256.68 428.738 254.802 428.738C252.414 428.738 250.281 428.191 248.404 427.098C246.544 425.986 245.095 424.418 244.056 422.395C243.017 420.353 242.498 418.02 242.498 415.395C242.498 412.788 243.017 410.473 244.056 408.449C245.095 406.408 246.544 404.84 248.404 403.746C250.281 402.634 252.414 402.078 254.802 402.078C256.552 402.078 258.129 402.352 259.533 402.898C260.936 403.427 262.067 404.193 262.923 405.195V389.582H269.814ZM256.142 422.395C258.129 422.395 259.733 421.757 260.955 420.48C262.194 419.186 262.814 417.473 262.814 415.34C262.814 413.207 262.203 411.503 260.982 410.227C259.779 408.932 258.184 408.285 256.197 408.285C254.173 408.285 252.569 408.941 251.384 410.254C250.199 411.548 249.607 413.243 249.607 415.34C249.607 417.436 250.208 419.141 251.412 420.453C252.633 421.747 254.21 422.395 256.142 422.395ZM298.006 402.898V428H292.237L291.772 425.02C290.879 426.259 289.767 427.189 288.436 427.809C287.124 428.428 285.629 428.738 283.952 428.738C280.962 428.738 278.656 427.845 277.034 426.059C275.411 424.254 274.6 421.839 274.6 418.812V402.898H281.6V417.691C281.6 419.478 282.001 420.754 282.803 421.52C283.605 422.285 284.754 422.668 286.249 422.668C287.743 422.668 288.919 422.185 289.776 421.219C290.633 420.253 291.061 418.967 291.061 417.363V402.898H298.006ZM301.726 415.395C301.726 412.751 302.282 410.427 303.394 408.422C304.524 406.398 306.101 404.84 308.125 403.746C310.166 402.634 312.509 402.078 315.152 402.078C318.707 402.078 321.642 403.017 323.957 404.895C326.272 406.754 327.575 409.251 327.867 412.387H320.758C320.429 411.038 319.755 410.008 318.734 409.297C317.731 408.586 316.501 408.23 315.043 408.23C313.183 408.23 311.679 408.887 310.531 410.199C309.401 411.493 308.836 413.243 308.836 415.449C308.836 417.618 309.392 419.359 310.504 420.672C311.634 421.966 313.147 422.613 315.043 422.613C316.537 422.613 317.795 422.23 318.816 421.465C319.855 420.699 320.502 419.706 320.758 418.484H327.867C327.539 421.547 326.208 424.026 323.875 425.922C321.541 427.799 318.634 428.738 315.152 428.738C312.509 428.738 310.166 428.191 308.125 427.098C306.101 425.986 304.524 424.427 303.394 422.422C302.282 420.398 301.726 418.056 301.726 415.395ZM353.571 398.332C352.24 398.332 351.119 397.895 350.208 397.02C349.315 396.126 348.868 395.051 348.868 393.793C348.868 392.48 349.315 391.396 350.208 390.539C351.119 389.682 352.24 389.254 353.571 389.254C354.92 389.254 356.05 389.691 356.962 390.566C357.873 391.441 358.329 392.517 358.329 393.793C358.329 395.069 357.873 396.145 356.962 397.02C356.05 397.895 354.92 398.332 353.571 398.332ZM341.266 402.898H357.044V428H350.098V408.613H341.266V428H334.321V408.613H329.563V402.898H334.321V396.363H341.266V402.898ZM367.381 402.898L370.06 410.473C370.662 412.186 371.318 414.128 372.029 416.297C372.74 418.466 373.187 419.888 373.369 420.562C373.588 419.852 374.098 418.384 374.9 416.16C375.702 413.936 376.404 412.04 377.006 410.473L379.932 402.898H387.15L376.678 428H369.787L359.889 402.898H367.381ZM393.413 398.551C392.064 398.551 390.934 398.113 390.023 397.238C389.111 396.345 388.655 395.27 388.655 394.012C388.655 392.736 389.111 391.66 390.023 390.785C390.934 389.91 392.064 389.473 393.413 389.473C394.799 389.473 395.929 389.901 396.804 390.758C397.679 391.615 398.116 392.699 398.116 394.012C398.116 395.288 397.67 396.363 396.776 397.238C395.883 398.113 394.762 398.551 393.413 398.551ZM442.851 402.898L431.257 432.266C430.291 434.617 429.051 436.513 427.538 437.953C426.025 439.411 423.756 440.141 420.73 440.141C419.308 440.141 417.704 439.94 415.917 439.539L416.026 433.879C417.594 434.134 418.752 434.262 419.499 434.262C421.249 434.262 422.498 433.934 423.245 433.277C423.993 432.639 424.612 431.664 425.105 430.352L425.651 428.957L417.257 408.613H411.651V428H404.733V408.613H396.886V428H389.94V402.898H404.733V396.363H411.651V402.898H422.425L428.851 420.371L435.468 402.898H442.851ZM471.865 408.613H467.107V428H460.161V408.613H455.458V402.898H460.161V396.363H467.107V402.898H471.865V408.613ZM473.233 415.395C473.233 412.824 473.807 410.536 474.955 408.531C476.122 406.508 477.754 404.931 479.85 403.801C481.965 402.652 484.362 402.078 487.041 402.078C489.721 402.078 492.118 402.652 494.233 403.801C496.347 404.931 497.979 406.508 499.127 408.531C500.294 410.536 500.877 412.824 500.877 415.395C500.877 417.965 500.294 420.262 499.127 422.285C497.979 424.309 496.347 425.895 494.233 427.043C492.136 428.173 489.739 428.738 487.041 428.738C484.362 428.738 481.974 428.173 479.877 427.043C477.799 425.895 476.168 424.318 474.983 422.312C473.816 420.289 473.233 417.983 473.233 415.395ZM480.342 415.395C480.342 417.454 480.962 419.168 482.202 420.535C483.459 421.884 485.073 422.559 487.041 422.559C489.028 422.559 490.642 421.884 491.881 420.535C493.139 419.168 493.768 417.454 493.768 415.395C493.768 413.298 493.148 411.594 491.909 410.281C490.687 408.951 489.065 408.285 487.041 408.285C485.054 408.285 483.441 408.951 482.202 410.281C480.962 411.612 480.342 413.316 480.342 415.395ZM531.286 408.613H526.528V428H519.583V408.613H514.88V402.898H519.583V396.363H526.528V402.898H531.286V408.613ZM534.322 389.582H541.322V405.605C542.069 404.493 543.118 403.628 544.467 403.008C545.834 402.388 547.301 402.078 548.869 402.078C551.822 402.078 554.11 403.008 555.732 404.867C557.355 406.708 558.166 409.233 558.166 412.441V428H551.22V414.055C551.22 411.849 550.737 410.345 549.771 409.543C548.805 408.741 547.757 408.34 546.627 408.34C545.314 408.34 544.093 408.732 542.963 409.516C541.832 410.299 541.267 411.721 541.267 413.781V428H534.322V389.582ZM587.589 420.043C587.024 422.668 585.602 424.773 583.323 426.359C581.045 427.945 578.337 428.738 575.202 428.738C572.595 428.738 570.289 428.182 568.284 427.07C566.279 425.94 564.729 424.363 563.636 422.34C562.542 420.298 561.995 417.965 561.995 415.34C561.995 412.697 562.542 410.372 563.636 408.367C564.729 406.344 566.27 404.794 568.257 403.719C570.244 402.625 572.504 402.078 575.038 402.078C577.499 402.078 579.668 402.589 581.546 403.609C583.442 404.63 584.909 406.061 585.948 407.902C587.005 409.725 587.534 411.794 587.534 414.109C587.534 415.039 587.434 416.124 587.233 417.363H568.886C568.959 419.077 569.569 420.462 570.718 421.52C571.884 422.559 573.379 423.078 575.202 423.078C576.551 423.078 577.718 422.805 578.702 422.258C579.686 421.711 580.388 420.973 580.808 420.043H587.589ZM580.397 412.715C580.361 411.184 579.823 409.98 578.784 409.105C577.745 408.23 576.423 407.793 574.819 407.793C573.142 407.793 571.757 408.24 570.663 409.133C569.587 410.026 569.013 411.22 568.94 412.715H580.397ZM375.993 468.078C378.946 468.078 381.261 469.017 382.938 470.895C384.615 472.754 385.454 475.27 385.454 478.441V494H378.454V480.055C378.454 476.245 376.923 474.34 373.86 474.34C372.183 474.34 370.907 474.841 370.032 475.844C369.157 476.828 368.72 478.141 368.72 479.781V494H361.774V468.898H367.598L368.036 471.824C368.82 470.676 369.923 469.764 371.345 469.09C372.766 468.415 374.316 468.078 375.993 468.078ZM414.822 486.043C414.257 488.668 412.835 490.773 410.557 492.359C408.278 493.945 405.571 494.738 402.435 494.738C399.829 494.738 397.523 494.182 395.518 493.07C393.512 491.94 391.963 490.363 390.869 488.34C389.775 486.298 389.228 483.965 389.228 481.34C389.228 478.697 389.775 476.372 390.869 474.367C391.963 472.344 393.503 470.794 395.49 469.719C397.477 468.625 399.738 468.078 402.271 468.078C404.732 468.078 406.902 468.589 408.779 469.609C410.675 470.63 412.143 472.061 413.182 473.902C414.239 475.725 414.768 477.794 414.768 480.109C414.768 481.039 414.667 482.124 414.467 483.363H396.119C396.192 485.077 396.803 486.462 397.951 487.52C399.118 488.559 400.613 489.078 402.435 489.078C403.784 489.078 404.951 488.805 405.935 488.258C406.92 487.711 407.622 486.973 408.041 486.043H414.822ZM407.631 478.715C407.594 477.184 407.057 475.98 406.018 475.105C404.978 474.23 403.657 473.793 402.053 473.793C400.376 473.793 398.99 474.24 397.896 475.133C396.821 476.026 396.247 477.22 396.174 478.715H407.631ZM423.355 494H415.698L423.929 481.723L415.425 468.898H423.409L428.523 476.965L433.335 468.898H441.128L432.651 481.613L440.882 494H432.898C430.838 490.755 429.489 488.604 428.851 487.547C428.286 486.617 428.021 486.189 428.058 486.262L423.355 494ZM458.492 474.613H453.735V494H446.789V474.613H442.086V468.898H446.789V462.363H453.735V468.898H458.492V474.613ZM473.752 455.582H480.752V494H473.752V455.582ZM510.394 486.043C509.829 488.668 508.407 490.773 506.128 492.359C503.85 493.945 501.143 494.738 498.007 494.738C495.401 494.738 493.095 494.182 491.089 493.07C489.084 491.94 487.535 490.363 486.441 488.34C485.347 486.298 484.8 483.965 484.8 481.34C484.8 478.697 485.347 476.372 486.441 474.367C487.535 472.344 489.075 470.794 491.062 469.719C493.049 468.625 495.309 468.078 497.843 468.078C500.304 468.078 502.474 468.589 504.351 469.609C506.247 470.63 507.714 472.061 508.753 473.902C509.811 475.725 510.339 477.794 510.339 480.109C510.339 481.039 510.239 482.124 510.039 483.363H491.691C491.764 485.077 492.375 486.462 493.523 487.52C494.69 488.559 496.184 489.078 498.007 489.078C499.356 489.078 500.523 488.805 501.507 488.258C502.492 487.711 503.194 486.973 503.613 486.043H510.394ZM503.203 478.715C503.166 477.184 502.628 475.98 501.589 475.105C500.55 474.23 499.229 473.793 497.625 473.793C495.947 473.793 494.562 474.24 493.468 475.133C492.393 476.026 491.819 477.22 491.746 478.715H503.203ZM517.723 468.898L520.403 476.473C521.005 478.186 521.661 480.128 522.372 482.297C523.083 484.466 523.529 485.888 523.712 486.562C523.93 485.852 524.441 484.384 525.243 482.16C526.045 479.936 526.747 478.04 527.348 476.473L530.274 468.898H537.493L527.02 494H520.13L510.231 468.898H517.723ZM563.224 486.043C562.659 488.668 561.237 490.773 558.959 492.359C556.68 493.945 553.973 494.738 550.838 494.738C548.231 494.738 545.925 494.182 543.92 493.07C541.914 491.94 540.365 490.363 539.271 488.34C538.177 486.298 537.631 483.965 537.631 481.34C537.631 478.697 538.177 476.372 539.271 474.367C540.365 472.344 541.905 470.794 543.892 469.719C545.879 468.625 548.14 468.078 550.674 468.078C553.135 468.078 555.304 468.589 557.181 469.609C559.077 470.63 560.545 472.061 561.584 473.902C562.641 475.725 563.17 477.794 563.17 480.109C563.17 481.039 563.069 482.124 562.869 483.363H544.521C544.594 485.077 545.205 486.462 546.353 487.52C547.52 488.559 549.015 489.078 550.838 489.078C552.187 489.078 553.353 488.805 554.338 488.258C555.322 487.711 556.024 486.973 556.443 486.043H563.224ZM556.033 478.715C555.997 477.184 555.459 475.98 554.42 475.105C553.381 474.23 552.059 473.793 550.455 473.793C548.778 473.793 547.392 474.24 546.299 475.133C545.223 476.026 544.649 477.22 544.576 478.715H556.033ZM566.89 455.582H573.89V494H566.89V455.582ZM581.848 494.684C580.553 494.684 579.478 494.273 578.621 493.453C577.783 492.615 577.363 491.603 577.363 490.418C577.363 489.215 577.783 488.185 578.621 487.328C579.478 486.471 580.553 486.043 581.848 486.043C583.124 486.043 584.181 486.471 585.02 487.328C585.858 488.185 586.277 489.215 586.277 490.418C586.277 491.566 585.867 492.569 585.047 493.426C584.227 494.264 583.16 494.684 581.848 494.684Z" fill="white"/>
<path d="M294.256 872.244C292.993 872.244 291.87 871.964 290.887 871.404C289.91 870.844 289.148 870.06 288.602 869.051C288.055 868.042 287.781 866.886 287.781 865.584C287.781 864.275 288.051 863.12 288.592 862.117C289.132 861.108 289.894 860.324 290.877 859.764C291.867 859.204 292.993 858.924 294.256 858.924C295.258 858.924 296.183 859.096 297.029 859.441C297.876 859.786 298.582 860.281 299.148 860.926C299.715 861.564 300.092 862.309 300.281 863.162H298.357C298.117 862.387 297.618 861.756 296.863 861.268C296.115 860.779 295.232 860.535 294.217 860.535C293.312 860.535 292.508 860.747 291.805 861.17C291.108 861.593 290.564 862.186 290.174 862.947C289.79 863.702 289.598 864.588 289.598 865.604C289.598 866.619 289.79 867.508 290.174 868.27C290.564 869.025 291.108 869.607 291.805 870.018C292.508 870.421 293.312 870.623 294.217 870.623C295.219 870.623 296.095 870.385 296.844 869.91C297.599 869.435 298.104 868.797 298.357 867.996H300.281C300.105 868.836 299.738 869.578 299.178 870.223C298.618 870.861 297.911 871.359 297.059 871.717C296.206 872.068 295.271 872.244 294.256 872.244ZM301.512 867.596C301.512 866.717 301.71 865.926 302.107 865.223C302.511 864.513 303.071 863.953 303.787 863.543C304.51 863.126 305.33 862.918 306.248 862.918C307.166 862.918 307.99 863.126 308.719 863.543C309.448 863.953 310.011 864.513 310.408 865.223C310.812 865.926 311.014 866.717 311.014 867.596C311.014 868.462 310.809 869.249 310.398 869.959C309.995 870.669 309.432 871.229 308.709 871.639C307.993 872.042 307.173 872.244 306.248 872.244C305.343 872.244 304.529 872.042 303.807 871.639C303.09 871.229 302.527 870.672 302.117 869.969C301.714 869.259 301.512 868.468 301.512 867.596ZM303.23 867.596C303.23 868.507 303.514 869.262 304.08 869.861C304.646 870.46 305.369 870.76 306.248 870.76C307.153 870.76 307.889 870.46 308.455 869.861C309.028 869.262 309.314 868.507 309.314 867.596C309.314 866.678 309.031 865.916 308.465 865.311C307.898 864.705 307.16 864.402 306.248 864.402C305.369 864.402 304.646 864.705 304.08 865.311C303.514 865.916 303.23 866.678 303.23 867.596ZM318.025 862.918C318.852 862.918 319.585 863.113 320.223 863.504C320.867 863.888 321.372 864.438 321.736 865.154C322.101 865.864 322.283 866.678 322.283 867.596C322.283 868.501 322.101 869.308 321.736 870.018C321.372 870.727 320.864 871.277 320.213 871.668C319.568 872.052 318.833 872.244 318.006 872.244C317.283 872.244 316.639 872.107 316.072 871.834C315.506 871.561 315.07 871.176 314.764 870.682V875.936H313.143V863.182H314.51L314.646 864.744C314.939 864.197 315.389 863.758 315.994 863.426C316.6 863.087 317.277 862.918 318.025 862.918ZM317.723 870.76C318.589 870.76 319.285 870.467 319.812 869.881C320.34 869.295 320.604 868.533 320.604 867.596C320.604 866.639 320.34 865.874 319.812 865.301C319.285 864.728 318.595 864.441 317.742 864.441C316.876 864.441 316.183 864.731 315.662 865.311C315.148 865.89 314.891 866.668 314.891 867.645C314.891 868.602 315.148 869.36 315.662 869.92C316.183 870.48 316.87 870.76 317.723 870.76ZM332.078 863.182L328.045 873.719C327.726 874.507 327.326 875.099 326.844 875.496C326.362 875.9 325.701 876.102 324.861 876.102C324.419 876.102 323.96 876.033 323.484 875.896V874.539C323.536 874.552 323.667 874.578 323.875 874.617C324.09 874.656 324.331 874.676 324.598 874.676C325.171 874.676 325.59 874.562 325.857 874.334C326.124 874.113 326.346 873.768 326.521 873.299L326.844 872.459L323.064 863.182H324.842L327.625 870.379L330.32 863.182H332.078ZM337.674 863.104C337.967 863.104 338.247 863.13 338.514 863.182V864.598C338.364 864.572 338.156 864.559 337.889 864.559C337.088 864.559 336.469 864.796 336.033 865.271C335.604 865.747 335.389 866.404 335.389 867.244V872H333.729V863.182H335.193L335.389 864.52C335.538 864.064 335.818 863.715 336.229 863.475C336.645 863.227 337.127 863.104 337.674 863.104ZM341.111 861.023C340.766 861.023 340.477 860.906 340.242 860.672C340.008 860.438 339.891 860.148 339.891 859.803C339.891 859.471 340.008 859.191 340.242 858.963C340.477 858.735 340.766 858.621 341.111 858.621C341.469 858.621 341.762 858.735 341.99 858.963C342.218 859.191 342.332 859.471 342.332 859.803C342.332 860.135 342.218 860.421 341.99 860.662C341.769 860.903 341.476 861.023 341.111 861.023ZM340.291 863.182H341.951V872H340.291V863.182ZM353.211 863.182V871.961C353.211 873.243 352.804 874.269 351.99 875.037C351.176 875.812 350.083 876.199 348.709 876.199C347.511 876.199 346.518 875.89 345.73 875.271C344.943 874.653 344.474 873.803 344.324 872.723H345.965C346.095 873.361 346.404 873.855 346.893 874.207C347.381 874.565 347.986 874.744 348.709 874.744C349.614 874.744 350.314 874.497 350.809 874.002C351.303 873.507 351.551 872.84 351.551 872V870.145C351.245 870.652 350.809 871.049 350.242 871.336C349.682 871.616 349.044 871.756 348.328 871.756C347.501 871.756 346.769 871.567 346.131 871.189C345.499 870.812 345.014 870.291 344.676 869.627C344.337 868.956 344.168 868.208 344.168 867.381C344.168 866.541 344.34 865.783 344.686 865.105C345.031 864.422 345.522 863.888 346.16 863.504C346.805 863.113 347.547 862.918 348.387 862.918C349.122 862.918 349.767 863.068 350.32 863.367C350.874 863.667 351.303 864.083 351.609 864.617L351.707 863.182H353.211ZM348.611 870.301C349.451 870.301 350.132 870.018 350.652 869.451C351.18 868.885 351.443 868.182 351.443 867.342C351.443 866.502 351.183 865.799 350.662 865.232C350.148 864.666 349.464 864.383 348.611 864.383C347.771 864.383 347.104 864.666 346.609 865.232C346.115 865.799 345.867 866.508 345.867 867.361C345.867 868.214 346.118 868.917 346.619 869.471C347.12 870.024 347.785 870.301 348.611 870.301ZM355.896 858.279H357.557V864.383C357.824 863.927 358.214 863.569 358.729 863.309C359.243 863.048 359.799 862.918 360.398 862.918C361.401 862.918 362.195 863.237 362.781 863.875C363.367 864.507 363.66 865.395 363.66 866.541V872H362V866.922C362 866.017 361.808 865.376 361.424 864.998C361.046 864.614 360.564 864.422 359.979 864.422C359.314 864.422 358.745 864.627 358.27 865.037C357.794 865.441 357.557 866.02 357.557 866.775V872H355.896V858.279ZM370.545 864.559H368.807V872H367.146V864.559H365.428V863.182H367.146V860.838H368.807V863.182H370.545V864.559ZM379.627 870.418H384.832V872H377.088V870.74L381.629 865.682C382.098 865.161 382.469 864.666 382.742 864.197C383.016 863.722 383.152 863.211 383.152 862.664C383.152 862.026 382.938 861.505 382.508 861.102C382.085 860.698 381.525 860.496 380.828 860.496C380.079 860.496 379.48 860.721 379.031 861.17C378.589 861.619 378.367 862.182 378.367 862.859L378.387 863.143H376.727L376.707 862.781C376.707 862.033 376.886 861.368 377.244 860.789C377.609 860.21 378.11 859.757 378.748 859.432C379.386 859.106 380.105 858.943 380.906 858.943C381.681 858.943 382.368 859.096 382.967 859.402C383.566 859.708 384.028 860.138 384.354 860.691C384.686 861.245 384.852 861.873 384.852 862.576C384.852 863.364 384.673 864.07 384.314 864.695C383.963 865.314 383.514 865.936 382.967 866.561L379.627 870.418ZM391.453 872.195C389.969 872.195 388.816 871.613 387.996 870.447C387.176 869.282 386.766 867.667 386.766 865.604C386.766 863.527 387.176 861.899 387.996 860.721C388.816 859.536 389.969 858.943 391.453 858.943C392.944 858.943 394.1 859.533 394.92 860.711C395.74 861.889 396.15 863.52 396.15 865.604C396.15 867.667 395.737 869.282 394.91 870.447C394.083 871.613 392.931 872.195 391.453 872.195ZM391.453 870.682C392.423 870.682 393.156 870.239 393.65 869.354C394.145 868.462 394.393 867.212 394.393 865.604C394.393 863.976 394.145 862.719 393.65 861.834C393.156 860.942 392.423 860.496 391.453 860.496C390.496 860.496 389.767 860.939 389.266 861.824C388.764 862.703 388.514 863.963 388.514 865.604C388.514 867.218 388.761 868.468 389.256 869.354C389.757 870.239 390.49 870.682 391.453 870.682ZM400.955 870.418H406.16V872H398.416V870.74L402.957 865.682C403.426 865.161 403.797 864.666 404.07 864.197C404.344 863.722 404.48 863.211 404.48 862.664C404.48 862.026 404.266 861.505 403.836 861.102C403.413 860.698 402.853 860.496 402.156 860.496C401.408 860.496 400.809 860.721 400.359 861.17C399.917 861.619 399.695 862.182 399.695 862.859L399.715 863.143H398.055L398.035 862.781C398.035 862.033 398.214 861.368 398.572 860.789C398.937 860.21 399.438 859.757 400.076 859.432C400.714 859.106 401.434 858.943 402.234 858.943C403.009 858.943 403.696 859.096 404.295 859.402C404.894 859.708 405.356 860.138 405.682 860.691C406.014 861.245 406.18 861.873 406.18 862.576C406.18 863.364 406.001 864.07 405.643 864.695C405.291 865.314 404.842 865.936 404.295 866.561L400.955 870.418ZM407.859 861.121C408.777 861.121 409.49 860.962 409.998 860.643C410.506 860.324 410.851 859.829 411.033 859.158H412.557V872H410.857V862.42H407.859V861.121ZM422.879 857.977V873.602H421.531V857.977H422.879ZM435.281 859.178H437.205L441.98 872H440.145L438.982 868.797H433.484L432.283 872H430.525L435.281 859.178ZM438.484 867.361L437.322 864.178C436.951 863.123 436.697 862.417 436.561 862.059L436.258 861.199C436.284 861.199 435.926 862.205 435.184 864.217L433.982 867.361H438.484ZM443.592 858.279H445.252V872H443.592V858.279ZM448.045 858.279H449.705V872H448.045V858.279ZM462.156 859.178H467.137C468.562 859.178 469.66 859.516 470.428 860.193C471.202 860.864 471.59 861.805 471.59 863.016C471.59 863.921 471.365 864.689 470.916 865.32C470.473 865.945 469.852 866.378 469.051 866.619L471.609 872H469.676L467.312 866.922H463.895V872H462.156V859.178ZM467.156 865.359C467.996 865.359 468.641 865.151 469.09 864.734C469.546 864.311 469.773 863.745 469.773 863.035C469.773 862.326 469.542 861.766 469.08 861.355C468.624 860.945 467.977 860.74 467.137 860.74H463.895V865.359H467.156ZM474.686 861.023C474.34 861.023 474.051 860.906 473.816 860.672C473.582 860.438 473.465 860.148 473.465 859.803C473.465 859.471 473.582 859.191 473.816 858.963C474.051 858.735 474.34 858.621 474.686 858.621C475.044 858.621 475.337 858.735 475.564 858.963C475.792 859.191 475.906 859.471 475.906 859.803C475.906 860.135 475.792 860.421 475.564 860.662C475.343 860.903 475.05 861.023 474.686 861.023ZM473.865 863.182H475.525V872H473.865V863.182ZM486.785 863.182V871.961C486.785 873.243 486.378 874.269 485.564 875.037C484.751 875.812 483.657 876.199 482.283 876.199C481.085 876.199 480.092 875.89 479.305 875.271C478.517 874.653 478.048 873.803 477.898 872.723H479.539C479.669 873.361 479.979 873.855 480.467 874.207C480.955 874.565 481.561 874.744 482.283 874.744C483.188 874.744 483.888 874.497 484.383 874.002C484.878 873.507 485.125 872.84 485.125 872V870.145C484.819 870.652 484.383 871.049 483.816 871.336C483.257 871.616 482.618 871.756 481.902 871.756C481.076 871.756 480.343 871.567 479.705 871.189C479.074 870.812 478.589 870.291 478.25 869.627C477.911 868.956 477.742 868.208 477.742 867.381C477.742 866.541 477.915 865.783 478.26 865.105C478.605 864.422 479.096 863.888 479.734 863.504C480.379 863.113 481.121 862.918 481.961 862.918C482.697 862.918 483.341 863.068 483.895 863.367C484.448 863.667 484.878 864.083 485.184 864.617L485.281 863.182H486.785ZM482.186 870.301C483.025 870.301 483.706 870.018 484.227 869.451C484.754 868.885 485.018 868.182 485.018 867.342C485.018 866.502 484.757 865.799 484.236 865.232C483.722 864.666 483.038 864.383 482.186 864.383C481.346 864.383 480.678 864.666 480.184 865.232C479.689 865.799 479.441 866.508 479.441 867.361C479.441 868.214 479.692 868.917 480.193 869.471C480.695 870.024 481.359 870.301 482.186 870.301ZM489.471 858.279H491.131V864.383C491.398 863.927 491.788 863.569 492.303 863.309C492.817 863.048 493.374 862.918 493.973 862.918C494.975 862.918 495.77 863.237 496.355 863.875C496.941 864.507 497.234 865.395 497.234 866.541V872H495.574V866.922C495.574 866.017 495.382 865.376 494.998 864.998C494.62 864.614 494.139 864.422 493.553 864.422C492.889 864.422 492.319 864.627 491.844 865.037C491.368 865.441 491.131 866.02 491.131 866.775V872H489.471V858.279ZM504.119 864.559H502.381V872H500.721V864.559H499.002V863.182H500.721V860.838H502.381V863.182H504.119V864.559ZM510.867 859.178H515.848C517.273 859.178 518.37 859.516 519.139 860.193C519.913 860.864 520.301 861.805 520.301 863.016C520.301 863.921 520.076 864.689 519.627 865.32C519.184 865.945 518.562 866.378 517.762 866.619L520.32 872H518.387L516.023 866.922H512.605V872H510.867V859.178ZM515.867 865.359C516.707 865.359 517.352 865.151 517.801 864.734C518.257 864.311 518.484 863.745 518.484 863.035C518.484 862.326 518.253 861.766 517.791 861.355C517.335 860.945 516.688 860.74 515.848 860.74H512.605V865.359H515.867ZM530.311 869.363C530.109 870.229 529.62 870.926 528.846 871.453C528.071 871.98 527.166 872.244 526.131 872.244C525.239 872.244 524.451 872.049 523.768 871.658C523.09 871.261 522.563 870.711 522.186 870.008C521.814 869.298 521.629 868.481 521.629 867.557C521.629 866.639 521.818 865.828 522.195 865.125C522.579 864.415 523.107 863.872 523.777 863.494C524.454 863.11 525.219 862.918 526.072 862.918C526.912 862.918 527.648 863.097 528.279 863.455C528.911 863.807 529.402 864.298 529.754 864.93C530.112 865.561 530.291 866.284 530.291 867.098C530.291 867.54 530.265 867.876 530.213 868.104H523.27C523.296 868.943 523.572 869.617 524.1 870.125C524.627 870.626 525.304 870.877 526.131 870.877C526.743 870.877 527.277 870.74 527.732 870.467C528.195 870.193 528.514 869.826 528.689 869.363H530.311ZM528.611 866.902C528.598 866.115 528.357 865.49 527.889 865.027C527.42 864.559 526.808 864.324 526.053 864.324C525.252 864.324 524.598 864.559 524.09 865.027C523.582 865.49 523.315 866.115 523.289 866.902H528.611ZM535.408 872.244C534.38 872.244 533.533 871.997 532.869 871.502C532.212 871.007 531.857 870.353 531.805 869.539H533.426C533.465 869.995 533.66 870.346 534.012 870.594C534.363 870.841 534.829 870.965 535.408 870.965C535.981 870.965 536.427 870.851 536.746 870.623C537.065 870.395 537.225 870.073 537.225 869.656C537.225 869.246 537.098 868.953 536.844 868.777C536.59 868.595 536.264 868.462 535.867 868.377L534.305 868.016C533.53 867.84 532.957 867.544 532.586 867.127C532.221 866.71 532.039 866.202 532.039 865.604C532.039 864.79 532.345 864.139 532.957 863.65C533.576 863.162 534.376 862.918 535.359 862.918C536.362 862.918 537.173 863.169 537.791 863.67C538.416 864.171 538.742 864.835 538.768 865.662H537.146C537.133 865.206 536.958 864.848 536.619 864.588C536.287 864.327 535.861 864.197 535.34 864.197C534.845 864.197 534.451 864.308 534.158 864.529C533.872 864.751 533.729 865.06 533.729 865.457C533.729 865.828 533.842 866.098 534.07 866.268C534.305 866.437 534.611 866.561 534.988 866.639L536.766 867.039C537.501 867.202 538.048 867.501 538.406 867.938C538.764 868.367 538.943 868.888 538.943 869.5C538.943 870.34 538.621 871.007 537.977 871.502C537.339 871.997 536.482 872.244 535.408 872.244ZM549.139 869.363C548.937 870.229 548.449 870.926 547.674 871.453C546.899 871.98 545.994 872.244 544.959 872.244C544.067 872.244 543.279 872.049 542.596 871.658C541.919 871.261 541.391 870.711 541.014 870.008C540.643 869.298 540.457 868.481 540.457 867.557C540.457 866.639 540.646 865.828 541.023 865.125C541.408 864.415 541.935 863.872 542.605 863.494C543.283 863.11 544.048 862.918 544.9 862.918C545.74 862.918 546.476 863.097 547.107 863.455C547.739 863.807 548.23 864.298 548.582 864.93C548.94 865.561 549.119 866.284 549.119 867.098C549.119 867.54 549.093 867.876 549.041 868.104H542.098C542.124 868.943 542.4 869.617 542.928 870.125C543.455 870.626 544.132 870.877 544.959 870.877C545.571 870.877 546.105 870.74 546.561 870.467C547.023 870.193 547.342 869.826 547.518 869.363H549.139ZM547.439 866.902C547.426 866.115 547.186 865.49 546.717 865.027C546.248 864.559 545.636 864.324 544.881 864.324C544.08 864.324 543.426 864.559 542.918 865.027C542.41 865.49 542.143 866.115 542.117 866.902H547.439ZM555.174 863.104C555.467 863.104 555.747 863.13 556.014 863.182V864.598C555.864 864.572 555.656 864.559 555.389 864.559C554.588 864.559 553.969 864.796 553.533 865.271C553.104 865.747 552.889 866.404 552.889 867.244V872H551.229V863.182H552.693L552.889 864.52C553.038 864.064 553.318 863.715 553.729 863.475C554.145 863.227 554.627 863.104 555.174 863.104ZM558.689 863.182L559.725 865.965C560.044 866.818 560.359 867.667 560.672 868.514C560.991 869.36 561.202 869.936 561.307 870.242C561.424 869.923 561.642 869.34 561.961 868.494C562.286 867.648 562.615 866.805 562.947 865.965L564.051 863.182H565.789L562.107 872H560.447L556.893 863.182H558.689ZM575.174 869.363C574.972 870.229 574.484 870.926 573.709 871.453C572.934 871.98 572.029 872.244 570.994 872.244C570.102 872.244 569.314 872.049 568.631 871.658C567.954 871.261 567.426 870.711 567.049 870.008C566.678 869.298 566.492 868.481 566.492 867.557C566.492 866.639 566.681 865.828 567.059 865.125C567.443 864.415 567.97 863.872 568.641 863.494C569.318 863.11 570.083 862.918 570.936 862.918C571.775 862.918 572.511 863.097 573.143 863.455C573.774 863.807 574.266 864.298 574.617 864.93C574.975 865.561 575.154 866.284 575.154 867.098C575.154 867.54 575.128 867.876 575.076 868.104H568.133C568.159 868.943 568.436 869.617 568.963 870.125C569.49 870.626 570.167 870.877 570.994 870.877C571.606 870.877 572.14 870.74 572.596 870.467C573.058 870.193 573.377 869.826 573.553 869.363H575.174ZM573.475 866.902C573.462 866.115 573.221 865.49 572.752 865.027C572.283 864.559 571.671 864.324 570.916 864.324C570.115 864.324 569.461 864.559 568.953 865.027C568.445 865.49 568.178 866.115 568.152 866.902H573.475ZM585.809 858.279V872H584.451L584.305 870.418C584.025 870.965 583.582 871.408 582.977 871.746C582.371 872.078 581.688 872.244 580.926 872.244C580.099 872.244 579.363 872.052 578.719 871.668C578.074 871.277 577.57 870.73 577.205 870.027C576.847 869.318 576.668 868.501 576.668 867.576C576.668 866.658 576.85 865.848 577.215 865.145C577.586 864.435 578.094 863.888 578.738 863.504C579.383 863.113 580.118 862.918 580.945 862.918C581.681 862.918 582.332 863.058 582.898 863.338C583.465 863.618 583.901 864.005 584.207 864.5V858.279H585.809ZM581.209 870.74C582.075 870.74 582.775 870.451 583.309 869.871C583.842 869.292 584.109 868.514 584.109 867.537C584.109 866.593 583.846 865.838 583.318 865.271C582.791 864.705 582.101 864.422 581.248 864.422C580.369 864.422 579.669 864.712 579.148 865.291C578.628 865.87 578.367 866.632 578.367 867.576C578.367 868.52 578.628 869.285 579.148 869.871C579.669 870.451 580.356 870.74 581.209 870.74Z" fill="white"/>
</g>
<defs>
<linearGradient id="paint0_linear_2_9302" x1="-10" y1="26.167" x2="-10" y2="293.167" gradientUnits="userSpaceOnUse">
<stop stop-color="white"/>
<stop offset="0.59375" stop-color="white" stop-opacity="0"/>
</linearGradient>
<linearGradient id="paint1_linear_2_9302" x1="277" y1="122.167" x2="277" y2="389.167" gradientUnits="userSpaceOnUse">
<stop stop-color="white"/>
<stop offset="0.59375" stop-color="white" stop-opacity="0"/>
</linearGradient>
<linearGradient id="paint2_linear_2_9302" x1="86" y1="311.166" x2="86" y2="578.166" gradientUnits="userSpaceOnUse">
<stop stop-color="white"/>
<stop offset="0.59375" stop-color="white" stop-opacity="0"/>
</linearGradient>
<linearGradient id="paint3_linear_2_9302" x1="179" y1="596.166" x2="179" y2="863.166" gradientUnits="userSpaceOnUse">
<stop stop-color="white"/>
<stop offset="0.59375" stop-color="white" stop-opacity="0"/>
</linearGradient>
<linearGradient id="paint4_linear_2_9302" x1="373" y1="404.166" x2="373" y2="671.166" gradientUnits="userSpaceOnUse">
<stop stop-color="white"/>
<stop offset="0.59375" stop-color="white" stop-opacity="0"/>
</linearGradient>
<linearGradient id="paint5_linear_2_9302" x1="658" y1="500.167" x2="658" y2="767.167" gradientUnits="userSpaceOnUse">
<stop stop-color="white"/>
<stop offset="0.59375" stop-color="white" stop-opacity="0"/>
</linearGradient>
<linearGradient id="paint6_linear_2_9302" x1="467" y1="692.166" x2="467" y2="959.166" gradientUnits="userSpaceOnUse">
<stop stop-color="white"/>
<stop offset="0.59375" stop-color="white" stop-opacity="0"/>
</linearGradient>
<linearGradient id="paint7_linear_2_9302" x1="-103" y1="500.166" x2="-103" y2="767.166" gradientUnits="userSpaceOnUse">
<stop stop-color="white"/>
<stop offset="0.59375" stop-color="white" stop-opacity="0"/>
</linearGradient>
<linearGradient id="paint8_linear_2_9302" x1="268" y1="881.166" x2="268" y2="1148.17" gradientUnits="userSpaceOnUse">
<stop stop-color="white"/>
<stop offset="0.59375" stop-color="white" stop-opacity="0"/>
</linearGradient>
<linearGradient id="paint9_linear_2_9302" x1="-19" y1="785.166" x2="-19" y2="1052.17" gradientUnits="userSpaceOnUse">
<stop stop-color="white"/>
<stop offset="0.59375" stop-color="white" stop-opacity="0"/>
</linearGradient>
<linearGradient id="paint10_linear_2_9302" x1="567" y1="215.167" x2="567" y2="482.167" gradientUnits="userSpaceOnUse">
<stop stop-color="white"/>
<stop offset="0.59375" stop-color="white" stop-opacity="0"/>
</linearGradient>
<linearGradient id="paint11_linear_2_9302" x1="471" y1="-66.833" x2="471" y2="200.167" gradientUnits="userSpaceOnUse">
<stop stop-color="white"/>
<stop offset="0.59375" stop-color="white" stop-opacity="0"/>
</linearGradient>
<linearGradient id="paint12_linear_2_9302" x1="567" y1="974.166" x2="567" y2="1241.17" gradientUnits="userSpaceOnUse">
<stop stop-color="white"/>
<stop offset="0.59375" stop-color="white" stop-opacity="0"/>
</linearGradient>
<linearGradient id="paint13_linear_2_9302" x1="182" y1="-140.833" x2="182" y2="126.167" gradientUnits="userSpaceOnUse">
<stop stop-color="white"/>
<stop offset="0.59375" stop-color="white" stop-opacity="0"/>
</linearGradient>
<clipPath id="clip0_2_9302">
<rect width="688" height="984" rx="32" fill="white"/>
</clipPath>
</defs>
</svg>
