<svg width="18" height="14" viewBox="0 0 18 14" fill="none" xmlns="http://www.w3.org/2000/svg">
<g clip-path="url(#clip0_24_15128)">
<path fill-rule="evenodd" clip-rule="evenodd" d="M3.74984 0.333328C1.90889 0.333328 0.416504 1.82571 0.416504 3.66666V10.3333C0.416504 12.1742 1.90889 13.6667 3.74984 13.6667H13.7498C15.5908 13.6667 17.0832 12.1742 17.0832 10.3333V3.66666C17.0832 1.82571 15.5908 0.333328 13.7498 0.333328H3.74984ZM10.4165 1.99999H7.08317V12H10.4165V1.99999ZM12.0832 1.99999V12H13.7498C14.6703 12 15.4165 11.2538 15.4165 10.3333V3.66666C15.4165 2.74619 14.6703 1.99999 13.7498 1.99999H12.0832ZM3.74984 12H5.4165V1.99999H3.74984C2.82936 1.99999 2.08317 2.74619 2.08317 3.66666V10.3333C2.08317 11.2538 2.82936 12 3.74984 12Z" fill="#5F5F5F"/>
</g>
<defs>
<clipPath id="clip0_24_15128">
<rect width="18" height="14" fill="white"/>
</clipPath>
</defs>
</svg>
