<svg width="18" height="12" viewBox="0 0 18 12" fill="none" xmlns="http://www.w3.org/2000/svg">
<path d="M6.33282 9.91978L2.41382 6.00078C2.22629 5.81331 1.97198 5.70799 1.70682 5.70799C1.44165 5.70799 1.18735 5.81331 0.999818 6.00078C0.812347 6.18831 0.707031 6.44262 0.707031 6.70778C0.707031 6.97294 0.812347 7.22725 0.999818 7.41478L4.91882 11.3338C5.10455 11.5196 5.32506 11.667 5.56776 11.7675C5.81047 11.8681 6.07061 11.9198 6.33332 11.9198C6.59603 11.9198 6.85617 11.8681 7.09887 11.7675C7.34158 11.667 7.56209 11.5196 7.74782 11.3338L16.9998 2.08178C17.1873 1.89426 17.2926 1.63995 17.2926 1.37479C17.2926 1.10962 17.1873 0.855313 16.9998 0.667786C16.8123 0.480315 16.558 0.375 16.2928 0.375C16.0277 0.375 15.7733 0.480315 15.5858 0.667786L6.33282 9.91978Z" fill="#202020"/>
</svg>
