<svg width="24" height="24" viewBox="0 0 24 24" fill="none" xmlns="http://www.w3.org/2000/svg">
<path d="M7.92913 3.21275H7.71484C7.8327 3.21275 7.92913 3.11632 7.92913 2.99847V3.21275H16.072V2.99847C16.072 3.11632 16.1684 3.21275 16.2863 3.21275H16.072V5.14132H18.0006V2.99847C18.0006 2.05293 17.2318 1.28418 16.2863 1.28418H7.71484C6.76931 1.28418 6.00056 2.05293 6.00056 2.99847V5.14132H7.92913V3.21275ZM21.4291 5.14132H2.57199C2.09788 5.14132 1.71484 5.52436 1.71484 5.99847V6.85561C1.71484 6.97347 1.81127 7.06989 1.92913 7.06989H3.54699L4.20859 21.0788C4.25145 21.9922 5.00681 22.7128 5.9202 22.7128H18.0809C18.997 22.7128 19.7497 21.9949 19.7925 21.0788L20.4541 7.06989H22.072C22.1898 7.06989 22.2863 6.97347 22.2863 6.85561V5.99847C22.2863 5.52436 21.9032 5.14132 21.4291 5.14132ZM17.8747 20.7842H6.12645L5.47824 7.06989H18.5229L17.8747 20.7842Z" fill="#B42318"/>
</svg>
