<svg width="24" height="24" viewBox="0 0 24 24" fill="none" xmlns="http://www.w3.org/2000/svg">
<g clip-path="url(#clip0_2_7575)">
<path d="M8.9994 10.0004C8.73418 10.0004 8.47983 10.1057 8.29229 10.2933C8.10475 10.4808 7.9994 10.7352 7.9994 11.0004V15.0004H9.99939V12.0004H12.9994V14.5004L16.4994 11.0004L12.9994 7.50037V10.0004H8.9994ZM12.7064 1.39337L22.6064 11.2934C22.7939 11.4809 22.8992 11.7352 22.8992 12.0004C22.8992 12.2655 22.7939 12.5198 22.6064 12.7074L12.7064 22.6074C12.5189 22.7948 12.2646 22.9002 11.9994 22.9002C11.7342 22.9002 11.4799 22.7948 11.2924 22.6074L1.3924 12.7074C1.20492 12.5198 1.09961 12.2655 1.09961 12.0004C1.09961 11.7352 1.20492 11.4809 1.3924 11.2934L11.2924 1.39337C11.4799 1.2059 11.7342 1.10059 11.9994 1.10059C12.2646 1.10059 12.5189 1.2059 12.7064 1.39337Z" fill="#202020"/>
</g>
<defs>
<clipPath id="clip0_2_7575">
<rect width="24" height="24" fill="white"/>
</clipPath>
</defs>
</svg>
