<svg width="24" height="24" viewBox="0 0 24 24" fill="none" xmlns="http://www.w3.org/2000/svg">
<g clip-path="url(#clip0_2_7441)">
<path d="M13.9993 18.0005C13.6587 18.0005 13.3206 18.0583 12.9993 18.1715V18.0005C12.9993 17.7353 13.1047 17.481 13.2922 17.2934C13.4797 17.1059 13.7341 17.0005 13.9993 17.0005C14.1414 16.9996 14.282 17.0294 14.4114 17.0879C14.5409 17.1465 14.6561 17.2323 14.7493 17.3395C14.8351 17.4417 14.9403 17.5256 15.059 17.5865C15.1777 17.6473 15.3073 17.6838 15.4403 17.6938C15.5732 17.7038 15.7069 17.6871 15.8333 17.6447C15.9597 17.6022 16.0764 17.535 16.1764 17.4468C16.2765 17.3586 16.3579 17.2514 16.4158 17.1313C16.4738 17.0112 16.5071 16.8807 16.5139 16.7475C16.5207 16.6144 16.5008 16.4812 16.4554 16.3558C16.4099 16.2304 16.3399 16.1154 16.2493 16.0175C15.8463 15.5606 15.3138 15.2372 14.7225 15.0903C14.1312 14.9435 13.5092 14.9801 12.9393 15.1954C12.3693 15.4107 11.8784 15.7944 11.5319 16.2955C11.1853 16.7966 10.9996 17.3913 10.9993 18.0005V21.0005C10.9995 21.6519 11.2117 22.2854 11.6038 22.8055C11.9959 23.3256 12.5466 23.704 13.1727 23.8834C13.7989 24.0629 14.4664 24.0337 15.0745 23.8003C15.6825 23.5669 16.1981 23.1419 16.5433 22.5895C16.8218 22.1412 16.9793 21.6283 17.0005 21.101C17.0217 20.5736 16.9059 20.0498 16.6643 19.5805C16.411 19.0954 16.0274 18.6904 15.5566 18.4113C15.0859 18.1322 14.5465 17.9899 13.9993 18.0005ZM14.8483 21.5295C14.7562 21.6773 14.6272 21.7984 14.4739 21.881C14.3206 21.9635 14.1485 22.0046 13.9744 22.0002C13.8004 21.9958 13.6305 21.9461 13.4816 21.8559C13.3327 21.7657 13.2099 21.6382 13.1254 21.486C13.0409 21.3338 12.9976 21.1622 12.9998 20.9881C13.0019 20.814 13.0495 20.6435 13.1378 20.4935C13.2261 20.3434 13.352 20.219 13.5031 20.1326C13.6542 20.0461 13.8252 20.0006 13.9993 20.0005C14.1713 19.9911 14.3426 20.0285 14.4951 20.1086C14.6475 20.1887 14.7755 20.3086 14.8653 20.4555C14.9576 20.6201 15.0046 20.8062 15.0017 20.9948C14.9987 21.1835 14.9458 21.368 14.8483 21.5295ZM20.9993 15.0005C20.2037 15.0005 19.4406 15.3166 18.878 15.8792C18.3154 16.4418 17.9993 17.2049 17.9993 18.0005V21.0005C17.9993 21.7962 18.3154 22.5592 18.878 23.1219C19.4406 23.6845 20.2037 24.0005 20.9993 24.0005C21.795 24.0005 22.558 23.6845 23.1206 23.1219C23.6832 22.5592 23.9993 21.7962 23.9993 21.0005V18.0005C23.9993 17.2049 23.6832 16.4418 23.1206 15.8792C22.558 15.3166 21.795 15.0005 20.9993 15.0005ZM21.9993 21.0005C21.9993 21.2658 21.894 21.5201 21.7064 21.7076C21.5189 21.8952 21.2645 22.0005 20.9993 22.0005C20.7341 22.0005 20.4797 21.8952 20.2922 21.7076C20.1047 21.5201 19.9993 21.2658 19.9993 21.0005V18.0005C19.9993 17.7353 20.1047 17.481 20.2922 17.2934C20.4797 17.1059 20.7341 17.0005 20.9993 17.0005C21.2645 17.0005 21.5189 17.1059 21.7064 17.2934C21.894 17.481 21.9993 17.7353 21.9993 18.0005V21.0005ZM11.9993 13.0005H7.99931C7.7341 13.0005 7.47974 12.8952 7.29221 12.7076C7.10467 12.5201 6.99931 12.2658 6.99931 12.0005C6.99931 11.7353 7.10467 11.481 7.29221 11.2934C7.47974 11.1059 7.7341 11.0005 7.99931 11.0005H10.9993V7.00054C10.9993 6.73532 11.1047 6.48097 11.2922 6.29343C11.4797 6.10589 11.7341 6.00054 11.9993 6.00054C12.2645 6.00054 12.5189 6.10589 12.7064 6.29343C12.894 6.48097 12.9993 6.73532 12.9993 7.00054V12.0005C12.9993 12.2658 12.894 12.5201 12.7064 12.7076C12.5189 12.8952 12.2645 13.0005 11.9993 13.0005ZM23.9993 3.00054V6.00054C23.9993 6.79619 23.6832 7.55925 23.1206 8.12186C22.558 8.68447 21.795 9.00054 20.9993 9.00054H17.9993C17.7341 9.00054 17.4797 8.89518 17.2922 8.70764C17.1047 8.52011 16.9993 8.26575 16.9993 8.00054C16.9993 7.73532 17.1047 7.48097 17.2922 7.29343C17.4797 7.10589 17.7341 7.00054 17.9993 7.00054H20.6363C19.8362 5.61967 18.7168 4.45057 17.3721 3.59113C16.0273 2.73169 14.4962 2.2069 12.907 2.0607C11.3177 1.91451 9.7166 2.15116 8.2376 2.75084C6.7586 3.35053 5.44478 4.29579 4.40613 5.50751C3.36748 6.71923 2.63422 8.16213 2.26774 9.71543C1.90126 11.2687 1.91222 12.8872 2.2997 14.4354C2.68718 15.9836 3.43991 17.4165 4.49487 18.614C5.54984 19.8115 6.87633 20.7389 8.36331 21.3185C8.6105 21.4151 8.8092 21.6059 8.91572 21.8489C9.02225 22.0919 9.02785 22.3674 8.93131 22.6145C8.83478 22.8617 8.644 23.0604 8.40095 23.1669C8.1579 23.2735 7.8825 23.2791 7.63531 23.1825C5.87797 22.4971 4.30697 21.4069 3.04979 20.0007C1.79261 18.5944 0.884662 16.9115 0.399613 15.0886C-0.085437 13.2658 -0.133923 11.3542 0.258088 9.5091C0.650098 7.66398 1.47156 5.93726 2.65583 4.46904C3.8401 3.00083 5.35381 1.83247 7.07415 1.05878C8.79448 0.28509 10.673 -0.0721468 12.5572 0.0160573C14.4415 0.104261 16.2784 0.635421 17.9189 1.56644C19.5594 2.49746 20.9574 3.80211 21.9993 5.37454V3.00054C21.9993 2.73532 22.1047 2.48097 22.2922 2.29343C22.4797 2.10589 22.7341 2.00054 22.9993 2.00054C23.2645 2.00054 23.5189 2.10589 23.7064 2.29343C23.894 2.48097 23.9993 2.73532 23.9993 3.00054Z" fill="#202020"/>
</g>
<defs>
<clipPath id="clip0_2_7441">
<rect width="24" height="24" fill="white"/>
</clipPath>
</defs>
</svg>
