<svg width="24" height="24" viewBox="0 0 24 24" fill="none" xmlns="http://www.w3.org/2000/svg">
<path d="M20 10.999H19V4.99902C19 3.93816 18.5786 2.92074 17.8284 2.1706C17.0783 1.42045 16.0609 0.999023 15 0.999023H4C2.93913 0.999023 1.92172 1.42045 1.17157 2.1706C0.421427 2.92074 0 3.93816 0 4.99902L0 15.999C0.0021456 16.6299 0.203551 17.2441 0.575468 17.7537C0.947384 18.2634 1.4708 18.6425 2.071 18.837C2.02573 19.0548 2.00195 19.2766 2 19.499C2 20.4273 2.36875 21.3175 3.02513 21.9739C3.6815 22.6303 4.57174 22.999 5.5 22.999C6.42826 22.999 7.3185 22.6303 7.97487 21.9739C8.63125 21.3175 9 20.4273 9 19.499C8.99843 19.3316 8.98473 19.1645 8.959 18.999H15.041C15.0153 19.1645 15.0016 19.3316 15 19.499C15 20.4273 15.3687 21.3175 16.0251 21.9739C16.6815 22.6303 17.5717 22.999 18.5 22.999C19.4283 22.999 20.3185 22.6303 20.9749 21.9739C21.6313 21.3175 22 20.4273 22 19.499C21.998 19.2766 21.9743 19.0548 21.929 18.837C22.5292 18.6425 23.0526 18.2634 23.4245 17.7537C23.7964 17.2441 23.9979 16.6299 24 15.999V14.999C24 13.9382 23.5786 12.9207 22.8284 12.1706C22.0783 11.4205 21.0609 10.999 20 10.999ZM2 10.999V6.99902H4V10.999H2ZM6 6.99902H8V10.999H6V6.99902ZM10 6.99902H13V16.999H10V6.99902ZM15 6.99902H17V10.999H15V6.99902ZM4 2.99902H15C15.5304 2.99902 16.0391 3.20974 16.4142 3.58481C16.7893 3.95988 17 4.46859 17 4.99902H2C2 4.46859 2.21071 3.95988 2.58579 3.58481C2.96086 3.20974 3.46957 2.99902 4 2.99902ZM2 12.999H8V16.999H3C2.73478 16.999 2.48043 16.8937 2.29289 16.7061C2.10536 16.5186 2 16.2642 2 15.999V12.999ZM7 19.499C7 19.8968 6.84196 20.2784 6.56066 20.5597C6.27936 20.841 5.89782 20.999 5.5 20.999C5.10218 20.999 4.72064 20.841 4.43934 20.5597C4.15804 20.2784 4 19.8968 4 19.499C4.00044 19.3281 4.03195 19.1587 4.093 18.999H6.907C6.96805 19.1587 6.99956 19.3281 7 19.499ZM18.5 20.999C18.1022 20.999 17.7206 20.841 17.4393 20.5597C17.158 20.2784 17 19.8968 17 19.499C17.0004 19.3281 17.0319 19.1587 17.093 18.999H19.907C19.9681 19.1587 19.9996 19.3281 20 19.499C20 19.8968 19.842 20.2784 19.5607 20.5597C19.2794 20.841 18.8978 20.999 18.5 20.999ZM22 15.999C22 16.2642 21.8946 16.5186 21.7071 16.7061C21.5196 16.8937 21.2652 16.999 21 16.999H15V12.999H20C20.5304 12.999 21.0391 13.2097 21.4142 13.5848C21.7893 13.9599 22 14.4686 22 14.999V15.999Z" fill="#202020"/>
</svg>
