<svg width="24" height="24" viewBox="0 0 24 24" fill="none" xmlns="http://www.w3.org/2000/svg">
<g clip-path="url(#clip0_2_6643)">
<path d="M20.5267 4.21787L14.4997 0.737874C13.7391 0.300495 12.877 0.0703125 11.9997 0.0703125C11.1223 0.0703125 10.2602 0.300495 9.49966 0.737874L3.47266 4.21787C2.71353 4.65779 2.08313 5.2892 1.64443 6.04902C1.20573 6.80885 0.974092 7.6705 0.972656 8.54787V15.5079C0.974119 16.3854 1.20576 17.2472 1.64445 18.0071C2.08314 18.7671 2.71352 19.3987 3.47266 19.8389L9.49966 23.3179C10.2601 23.7555 11.1222 23.9859 11.9997 23.9859C12.8771 23.9859 13.7392 23.7555 14.4997 23.3179L20.5267 19.8389C21.2858 19.3987 21.9162 18.7671 22.3549 18.0071C22.7936 17.2472 23.0252 16.3854 23.0267 15.5079V8.54787C23.0252 7.6705 22.7936 6.80885 22.3549 6.04902C21.9162 5.2892 21.2858 4.65779 20.5267 4.21787ZM10.4997 2.47087C10.9557 2.20757 11.473 2.06895 11.9997 2.06895C12.5263 2.06895 13.0436 2.20757 13.4997 2.47087L19.5267 5.94987C19.6795 6.04647 19.8231 6.15694 19.9557 6.27987L13.7627 9.85487C13.2265 10.164 12.6185 10.3266 11.9997 10.3266C11.3808 10.3266 10.7728 10.164 10.2367 9.85487L4.04366 6.27987C4.17622 6.15694 4.31983 6.04647 4.47266 5.94987L10.4997 2.47087ZM4.47266 18.1059C4.01686 17.8418 3.63841 17.4626 3.37517 17.0063C3.11193 16.5501 2.97313 16.0326 2.97266 15.5059V8.54787C2.9796 8.36772 3.00337 8.18861 3.04366 8.01287L9.23666 11.5879C9.7836 11.899 10.3799 12.1138 10.9997 12.2229V21.7919C10.8269 21.739 10.6595 21.67 10.4997 21.5859L4.47266 18.1059ZM21.0267 15.5059C21.0262 16.0326 20.8874 16.5501 20.6241 17.0063C20.3609 17.4626 19.9825 17.8418 19.5267 18.1059L13.4997 21.5859C13.3398 21.67 13.1724 21.739 12.9997 21.7919V12.2229C13.6194 12.1138 14.2157 11.899 14.7627 11.5879L20.9557 8.01287C20.9959 8.18861 21.0197 8.36772 21.0267 8.54787V15.5059Z" fill="#202020"/>
</g>
<defs>
<clipPath id="clip0_2_6643">
<rect width="24" height="24" fill="white"/>
</clipPath>
</defs>
</svg>
