<svg width="24" height="24" viewBox="0 0 24 24" fill="none" xmlns="http://www.w3.org/2000/svg">
<g clip-path="url(#clip0_2_7561)">
<path d="M14.5008 12.9991C14.2041 12.9991 13.9141 12.9111 13.6674 12.7463C13.4207 12.5814 13.2285 12.3472 13.1149 12.0731C13.0014 11.799 12.9717 11.4974 13.0296 11.2064C13.0875 10.9154 13.2303 10.6482 13.4401 10.4384C13.6499 10.2286 13.9171 10.0858 14.2081 10.0279C14.4991 9.97 14.8007 9.9997 15.0748 10.1132C15.3489 10.2268 15.5831 10.419 15.748 10.6657C15.9128 10.9124 16.0008 11.2024 16.0008 11.4991C16.0008 11.8969 15.8427 12.2784 15.5614 12.5597C15.2801 12.841 14.8986 12.9991 14.5008 12.9991ZM23.9257 18.1431C24.0505 18.8613 24.0168 19.5981 23.8268 20.3019C23.6369 21.0057 23.2954 21.6594 22.8262 22.2173C22.357 22.7752 21.7715 23.2237 21.1106 23.5315C20.4498 23.8393 19.7297 23.9989 19.0007 23.9991H15.0008C14.7355 23.9991 14.4812 23.8937 14.2936 23.7062C14.1061 23.5186 14.0008 23.2643 14.0008 22.9991V20.7361C13.3479 20.9082 12.6759 20.9966 12.0008 20.9991C11.3252 20.9956 10.653 20.9048 10.0008 20.7291V22.9991C10.0008 23.2643 9.8954 23.5186 9.70787 23.7062C9.52033 23.8937 9.26598 23.9991 9.00076 23.9991H5.00077C4.2718 23.9989 3.55168 23.8393 2.89087 23.5315C2.23006 23.2237 1.64455 22.7752 1.17535 22.2173C0.706146 21.6594 0.36461 21.0057 0.174668 20.3019C-0.0152744 19.5981 -0.049028 18.8613 0.0757717 18.1431L0.375771 16.4031C0.475529 15.8243 0.746365 15.2888 1.15335 14.8654C1.56034 14.4421 2.08482 14.1504 2.65915 14.0279C3.23349 13.9055 3.83134 13.9579 4.37561 14.1784C4.91988 14.3989 5.38562 14.7774 5.71277 15.2651C6.97676 17.1231 9.40976 18.9991 12.0008 18.9991C15.1308 18.9991 18.2148 16.2201 19.1307 13.6231C19.2043 13.4278 19.3353 13.2596 19.5065 13.1405C19.6778 13.0214 19.8812 12.957 20.0897 12.9561L20.5217 12.9631C20.7154 12.9654 20.9075 12.9293 21.0871 12.8568C21.2666 12.7842 21.4299 12.6767 21.5676 12.5405C21.7052 12.4043 21.8143 12.2421 21.8887 12.0633C21.9631 11.8845 22.0012 11.6927 22.0007 11.4991C22.0004 11.1483 21.8772 10.8088 21.6524 10.5395C21.4277 10.2702 21.1158 10.0882 20.7707 10.0251C20.558 9.98646 20.3635 9.87994 20.2163 9.72146C20.0692 9.56299 19.9774 9.36109 19.9548 9.14605C19.7492 7.18134 18.822 5.36278 17.3526 4.04247C15.8832 2.72216 13.9762 1.99403 12.0008 1.99905C6.42376 1.99905 4.89277 5.62705 3.66277 8.54305C3.43877 9.07005 3.22777 9.57305 3.00077 10.0261C5.01155 9.91973 6.97226 9.36005 8.73618 8.3889C10.5001 7.41776 12.0216 6.06028 13.1868 4.41805C13.2631 4.31116 13.3597 4.22033 13.4711 4.15077C13.5825 4.08121 13.7065 4.03427 13.836 4.01264C13.9655 3.991 14.0981 3.99509 14.226 4.02467C14.354 4.05426 14.4749 4.10875 14.5818 4.18505C14.6887 4.26135 14.7795 4.35796 14.849 4.46935C14.9186 4.58075 14.9655 4.70476 14.9872 4.8343C15.0088 4.96383 15.0047 5.09636 14.9751 5.22432C14.9455 5.35228 14.8911 5.47316 14.8148 5.58005C13.5168 7.42021 11.8234 8.94652 9.85876 10.0471C10.1582 10.1206 10.4278 10.2846 10.6307 10.5168C10.8336 10.749 10.96 11.0382 10.9927 11.3448C11.0253 11.6514 10.9627 11.9607 10.8133 12.2304C10.664 12.5002 10.4351 12.7174 10.1578 12.8524C9.88057 12.9874 9.56845 13.0337 9.26396 12.9849C8.95947 12.9362 8.67741 12.7948 8.45617 12.5799C8.23494 12.3651 8.08528 12.0873 8.02759 11.7844C7.9699 11.4815 8.00697 11.1681 8.13376 10.8871C5.83458 11.818 3.34857 12.1949 0.876771 11.9871C0.670743 11.9594 0.478441 11.8683 0.326608 11.7263C0.174776 11.5844 0.070962 11.3986 0.0296032 11.1949C-0.0117556 10.9912 0.011397 10.7796 0.0958413 10.5897C0.180285 10.3997 0.321824 10.2408 0.500771 10.1351C1.1053 9.44916 1.55515 8.6412 1.81977 7.76605C3.12477 4.67305 5.10077 -0.000948555 12.0008 -0.000948555C14.3551 -0.00652603 16.6355 0.8211 18.4383 2.33541C20.241 3.84973 21.4499 5.95306 21.8507 8.27305C22.4871 8.53909 23.0307 8.98723 23.4132 9.56118C23.7957 10.1351 24.0001 10.8093 24.0007 11.4991C23.999 12.33 23.6956 13.1321 23.1467 13.7561C23.1537 13.7821 23.1717 13.8031 23.1767 13.8311L23.9257 18.1431ZM8.00076 19.9391C6.41901 19.0914 5.06664 17.8725 4.05977 16.3871C3.97408 16.2575 3.85783 16.1511 3.72127 16.0772C3.58472 16.0032 3.43206 15.964 3.27677 15.9631H3.25977C3.04083 15.9677 2.83029 16.0482 2.66413 16.1908C2.49796 16.3334 2.38649 16.5293 2.34877 16.7451L2.04877 18.4841C1.9737 18.9148 1.99372 19.3568 2.10741 19.779C2.22109 20.2013 2.42571 20.5936 2.70693 20.9284C2.98814 21.2632 3.33916 21.5326 3.73539 21.7175C4.13162 21.9025 4.5635 21.9985 5.00077 21.9991H8.00076V19.9391ZM21.9557 18.4841L21.3277 14.8711C21.1376 14.9164 20.9439 14.9452 20.7487 14.9571C19.7399 17.0859 18.076 18.836 16.0008 19.9511V21.9991H19.0007C19.4382 21.999 19.8703 21.9032 20.2668 21.7185C20.6633 21.5338 21.0147 21.2647 21.2962 20.9299C21.5777 20.5951 21.7826 20.2028 21.8966 19.7805C22.0105 19.3581 22.0307 18.916 21.9557 18.4851V18.4841Z" fill="#202020"/>
</g>
<defs>
<clipPath id="clip0_2_7561">
<rect width="24" height="24" fill="white"/>
</clipPath>
</defs>
</svg>
