<svg width="24" height="24" viewBox="0 0 24 24" fill="none" xmlns="http://www.w3.org/2000/svg">
<path d="M18.0494 17.79C17.9565 17.6963 17.8459 17.6219 17.724 17.5711C17.6021 17.5203 17.4714 17.4942 17.3394 17.4942C17.2074 17.4942 17.0767 17.5203 16.9549 17.5711C16.833 17.6219 16.7224 17.6963 16.6294 17.79L12.9994 21.42V1C12.9994 0.734783 12.8941 0.480429 12.7065 0.292893C12.519 0.105357 12.2646 0 11.9994 0V0C11.7342 0 11.4799 0.105357 11.2923 0.292893C11.1048 0.480429 10.9994 0.734783 10.9994 1V21.41L7.37943 17.79C7.29371 17.6728 7.18351 17.5757 7.05647 17.5054C6.92944 17.4351 6.78861 17.3933 6.64379 17.3829C6.49897 17.3725 6.35363 17.3938 6.21786 17.4452C6.08209 17.4967 5.95915 17.5771 5.8576 17.6809C5.75604 17.7846 5.6783 17.9093 5.62977 18.0461C5.58124 18.183 5.5631 18.3287 5.5766 18.4733C5.59009 18.6178 5.63491 18.7577 5.70793 18.8832C5.78094 19.0087 5.88042 19.1168 5.99943 19.2L9.91943 23.12C10.4819 23.6818 11.2444 23.9974 12.0394 23.9974C12.8344 23.9974 13.5969 23.6818 14.1594 23.12L18.0794 19.2C18.2617 19.0087 18.3609 18.753 18.3553 18.4888C18.3497 18.2246 18.2397 17.9734 18.0494 17.79Z" fill="#202020"/>
</svg>
