<svg width="24" height="24" viewBox="0 0 24 24" fill="none" xmlns="http://www.w3.org/2000/svg">
<g clip-path="url(#clip0_2_7137)">
<path d="M23.2008 0.799744C22.83 0.425757 22.3584 0.167656 21.8435 0.0568665C21.3286 -0.053923 20.7926 -0.0126209 20.3008 0.175744L3.15581 6.92874C2.03544 7.37182 1.11387 8.20633 0.56216 9.27739C0.0104478 10.3484 -0.133933 11.5833 0.155817 12.7527C0.882849 15.4065 2.28801 17.8254 4.23314 19.7716C6.17827 21.7178 8.59641 23.1243 11.2498 23.8527C12.4205 24.1407 13.6558 23.9944 14.7269 23.4412C15.7979 22.8879 16.6321 21.9651 17.0748 20.8437L23.8328 3.67174C24.015 3.18298 24.0523 2.65201 23.9402 2.14256C23.8281 1.63312 23.5714 1.16686 23.2008 0.799744ZM11.7468 21.9107C9.43785 21.2771 7.33349 20.0535 5.64053 18.3604C3.94757 16.6673 2.72426 14.5628 2.09081 12.2537C1.94474 11.658 1.98809 11.0315 2.21483 10.4615C2.44157 9.89148 2.84041 9.40639 3.35581 9.07374C3.45919 12.1094 4.71115 14.9927 6.85868 17.1408C9.0062 19.2889 11.8891 20.5416 14.9248 20.6457C14.5925 21.161 14.1077 21.5597 13.5381 21.7865C12.9685 22.0132 12.3423 22.0567 11.7468 21.9107ZM15.7738 18.6837C9.58281 18.5837 5.41881 14.4187 5.31781 8.22674L21.0108 2.04674C21.1418 1.99651 21.2847 1.98585 21.4218 2.01607C21.5589 2.04628 21.684 2.11606 21.7818 2.21674C21.8815 2.31003 21.9518 2.43045 21.984 2.56318C22.0162 2.69591 22.0088 2.83515 21.9628 2.96374L21.3008 4.64474C15.5428 2.66474 12.3588 10.8537 17.8878 13.3127L15.7738 18.6837ZM18.6208 11.4517C17.9936 11.1752 17.4977 10.6668 17.237 10.0329C16.9762 9.39898 16.9708 8.68877 17.2219 8.05099C17.473 7.4132 17.9612 6.89729 18.5841 6.61131C19.207 6.32532 19.9164 6.29144 20.5638 6.51674L18.6208 11.4517Z" fill="#202020"/>
<path d="M11 9C10.4696 9 9.96086 9.21071 9.58579 9.58579C9.21071 9.96086 9 10.4696 9 11C9 11.5304 9.21071 12.0391 9.58579 12.4142C9.96086 12.7893 10.4696 13 11 13C11.5304 13 12.0391 12.7893 12.4142 12.4142C12.7893 12.0391 13 11.5304 13 11C13 10.4696 12.7893 9.96086 12.4142 9.58579C12.0391 9.21071 11.5304 9 11 9Z" fill="#202020"/>
</g>
<defs>
<clipPath id="clip0_2_7137">
<rect width="24" height="24" fill="white"/>
</clipPath>
</defs>
</svg>
