<svg width="24" height="24" viewBox="0 0 24 24" fill="none" xmlns="http://www.w3.org/2000/svg">
<g clip-path="url(#clip0_2_7462)">
<path d="M14.5993 21.3005C14.2993 21.5265 13.9803 21.7645 13.7093 22.0005H15.9993C16.2645 22.0005 16.5189 22.1059 16.7064 22.2934C16.894 22.481 16.9993 22.7353 16.9993 23.0005C16.9993 23.2658 16.894 23.5201 16.7064 23.7076C16.5189 23.8952 16.2645 24.0005 15.9993 24.0005H11.9993C11.7341 24.0005 11.4797 23.8952 11.2922 23.7076C11.1047 23.5201 10.9993 23.2658 10.9993 23.0005C10.9993 21.5005 12.2743 20.5445 13.3993 19.7005C14.1493 19.1385 14.9993 18.5005 14.9993 18.0005C14.9993 17.7353 14.894 17.481 14.7064 17.2934C14.5189 17.1059 14.2645 17.0005 13.9993 17.0005C13.7341 17.0005 13.4797 17.1059 13.2922 17.2934C13.1047 17.481 12.9993 17.7353 12.9993 18.0005C12.9993 18.2658 12.894 18.5201 12.7064 18.7076C12.5189 18.8952 12.2645 19.0005 11.9993 19.0005C11.7341 19.0005 11.4797 18.8952 11.2922 18.7076C11.1047 18.5201 10.9993 18.2658 10.9993 18.0005C10.9993 17.2049 11.3154 16.4418 11.878 15.8792C12.4406 15.3166 13.2037 15.0005 13.9993 15.0005C14.795 15.0005 15.558 15.3166 16.1206 15.8792C16.6832 16.4418 16.9993 17.2049 16.9993 18.0005C16.9993 19.5005 15.7243 20.4565 14.5993 21.3005ZM22.9993 15.0005C22.7341 15.0005 22.4797 15.1059 22.2922 15.2934C22.1047 15.481 21.9993 15.7353 21.9993 16.0005V19.0005H20.9993C20.7341 19.0005 20.4797 18.8952 20.2922 18.7076C20.1047 18.5201 19.9993 18.2658 19.9993 18.0005V16.0005C19.9993 15.7353 19.894 15.481 19.7064 15.2934C19.5189 15.1059 19.2645 15.0005 18.9993 15.0005C18.7341 15.0005 18.4797 15.1059 18.2922 15.2934C18.1047 15.481 17.9993 15.7353 17.9993 16.0005V18.0005C17.9993 18.7962 18.3154 19.5592 18.878 20.1219C19.4406 20.6845 20.2037 21.0005 20.9993 21.0005H21.9993V23.0005C21.9993 23.2658 22.1047 23.5201 22.2922 23.7076C22.4797 23.8952 22.7341 24.0005 22.9993 24.0005C23.2645 24.0005 23.5189 23.8952 23.7064 23.7076C23.894 23.5201 23.9993 23.2658 23.9993 23.0005V16.0005C23.9993 15.7353 23.894 15.481 23.7064 15.2934C23.5189 15.1059 23.2645 15.0005 22.9993 15.0005ZM12.9993 12.0005V7.00054C12.9993 6.73532 12.894 6.48097 12.7064 6.29343C12.5189 6.10589 12.2645 6.00054 11.9993 6.00054C11.7341 6.00054 11.4797 6.10589 11.2922 6.29343C11.1047 6.48097 10.9993 6.73532 10.9993 7.00054V11.0005H7.99931C7.7341 11.0005 7.47974 11.1059 7.29221 11.2934C7.10467 11.481 6.99931 11.7353 6.99931 12.0005C6.99931 12.2658 7.10467 12.5201 7.29221 12.7076C7.47974 12.8952 7.7341 13.0005 7.99931 13.0005H11.9993C12.2645 13.0005 12.5189 12.8952 12.7064 12.7076C12.894 12.5201 12.9993 12.2658 12.9993 12.0005ZM22.9993 2.00054C22.7341 2.00054 22.4797 2.10589 22.2922 2.29343C22.1047 2.48097 21.9993 2.73532 21.9993 3.00054V5.37454C20.9574 3.80211 19.5594 2.49746 17.9189 1.56644C16.2784 0.635421 14.4415 0.104261 12.5572 0.0160573C10.673 -0.0721468 8.79448 0.28509 7.07415 1.05878C5.35381 1.83247 3.8401 3.00083 2.65583 4.46904C1.47156 5.93726 0.650098 7.66398 0.258088 9.5091C-0.133923 11.3542 -0.085437 13.2658 0.399613 15.0886C0.884662 16.9115 1.79261 18.5944 3.04979 20.0007C4.30697 21.4069 5.87797 22.4971 7.63531 23.1825C7.75145 23.2273 7.87484 23.2504 7.99931 23.2505C8.23267 23.2509 8.45881 23.1696 8.63856 23.0208C8.81832 22.872 8.94036 22.665 8.98357 22.4357C9.02678 22.2064 8.98842 21.9691 8.87514 21.7651C8.76187 21.5611 8.58081 21.4031 8.36331 21.3185C6.87134 20.7416 5.53953 19.8152 4.4797 18.617C3.41986 17.4189 2.66292 15.984 2.27242 14.4327C1.88192 12.8815 1.86926 11.2592 2.23549 9.70208C2.60172 8.14493 3.33616 6.69837 4.37716 5.48381C5.41816 4.26925 6.73534 3.32215 8.21812 2.72201C9.70091 2.12187 11.306 1.8862 12.8987 2.03478C14.4915 2.18337 16.0253 2.71187 17.3715 3.57593C18.7177 4.43999 19.8369 5.61439 20.6353 7.00054H17.9993C17.7341 7.00054 17.4797 7.10589 17.2922 7.29343C17.1047 7.48097 16.9993 7.73532 16.9993 8.00054C16.9993 8.26575 17.1047 8.52011 17.2922 8.70764C17.4797 8.89518 17.7341 9.00054 17.9993 9.00054H20.9993C21.795 9.00054 22.558 8.68447 23.1206 8.12186C23.6832 7.55925 23.9993 6.79619 23.9993 6.00054V3.00054C23.9993 2.73532 23.894 2.48097 23.7064 2.29343C23.5189 2.10589 23.2645 2.00054 22.9993 2.00054Z" fill="#202020"/>
</g>
<defs>
<clipPath id="clip0_2_7462">
<rect width="24" height="24" fill="white"/>
</clipPath>
</defs>
</svg>
