<svg width="24" height="24" viewBox="0 0 24 24" fill="none" xmlns="http://www.w3.org/2000/svg">
<g clip-path="url(#clip0_2_6568)">
<path d="M10.4996 16.9993C10.2366 16.9995 9.97619 16.9479 9.73321 16.8473C9.49024 16.7468 9.26948 16.5993 9.08357 16.4133L5.29957 12.7143C5.10994 12.5287 5.00182 12.2753 4.99901 12.0099C4.9962 11.7446 5.09891 11.4889 5.28457 11.2993C5.47022 11.1097 5.7236 11.0016 5.98896 10.9988C6.25432 10.9959 6.50994 11.0987 6.69957 11.2843L10.4926 14.9913L17.2986 8.29131C17.4905 8.12244 17.7398 8.03348 17.9953 8.04272C18.2508 8.05196 18.493 8.1587 18.6722 8.341C18.8515 8.5233 18.9541 8.76731 18.959 9.02291C18.9639 9.27851 18.8707 9.52628 18.6986 9.71531L11.9056 16.4223C11.7207 16.6062 11.5013 16.7518 11.26 16.8509C11.0188 16.9499 10.7604 17.0003 10.4996 16.9993ZM23.9996 18.9993V12.3393C24.0369 9.25676 22.9067 6.2742 20.8359 3.99048C18.7651 1.70676 15.9071 0.290948 12.8356 0.0273102C11.1212 -0.0926321 9.4011 0.15705 7.7916 0.759463C6.1821 1.36188 4.72077 2.30297 3.50648 3.51906C2.29219 4.73515 1.35327 6.19788 0.75324 7.80827C0.153213 9.41866 -0.0939187 11.1391 0.028565 12.8533C0.470565 19.2073 6.08157 23.9993 13.0826 23.9993H18.9996C20.3252 23.9977 21.596 23.4704 22.5333 22.5331C23.4707 21.5958 23.998 20.3249 23.9996 18.9993ZM12.6996 2.02331C15.266 2.25035 17.6515 3.44022 19.3767 5.35386C21.1018 7.26751 22.0389 9.76313 21.9996 12.3393V18.9993C21.9996 19.795 21.6835 20.558 21.1209 21.1206C20.5583 21.6832 19.7952 21.9993 18.9996 21.9993H13.0826C7.04857 21.9993 2.39957 18.0993 2.02457 12.7153C1.92612 11.3439 2.11154 9.96691 2.56925 8.67038C3.02696 7.37385 3.74712 6.18564 4.68474 5.17998C5.62236 4.17432 6.75729 3.37282 8.01863 2.82556C9.27997 2.27829 10.6406 1.99702 12.0156 1.99931C12.2426 1.99931 12.4716 2.00831 12.6996 2.02331Z" fill="#202020"/>
</g>
<defs>
<clipPath id="clip0_2_6568">
<rect width="24" height="24" fill="white"/>
</clipPath>
</defs>
</svg>
