<svg width="24" height="24" viewBox="0 0 24 24" fill="none" xmlns="http://www.w3.org/2000/svg">
<g clip-path="url(#clip0_2_6645)">
<path d="M23.6796 11.4086C22.8952 9.567 21.6647 7.94961 20.0991 6.70241C18.5334 5.4552 16.6819 4.61741 14.7116 4.26464C14.9254 3.80835 15.0206 3.30546 14.9884 2.80258C14.9562 2.29969 14.7976 1.81307 14.5272 1.3878C14.2569 0.962534 13.8836 0.612382 13.4419 0.369786C13.0002 0.12719 12.5045 0 12.0006 0C11.4966 0 11.0009 0.12719 10.5592 0.369786C10.1175 0.612382 9.7442 0.962534 9.47386 1.3878C9.20352 1.81307 9.0449 2.29969 9.01268 2.80258C8.98046 3.30546 9.07569 3.80835 9.28955 4.26464C7.31976 4.61795 5.46888 5.45598 3.90381 6.70316C2.33873 7.95033 1.10868 9.56743 0.324552 11.4086C0.0637754 12.0235 -0.040476 12.6935 0.0211275 13.3586C0.082731 14.0237 0.308267 14.6631 0.677552 15.2196C1.03401 15.7541 1.5143 16.1946 2.07755 16.5036L2.67755 19.8756C2.88177 21.0325 3.48735 22.0803 4.38777 22.8348C5.2882 23.5892 6.42582 24.0021 7.60055 24.0006H16.4006C17.5752 24.0022 18.7128 23.5894 19.6131 22.8349C20.5134 22.0804 21.1187 21.0325 21.3226 19.8756L21.9226 16.5046C22.4861 16.1961 22.9665 15.7555 23.3226 15.2206C23.6924 14.6642 23.9186 14.0248 23.9809 13.3596C24.0432 12.6944 23.9397 12.0241 23.6796 11.4086ZM12.0006 2.00064C12.2658 2.00064 12.5201 2.10599 12.7077 2.29353C12.8952 2.48107 13.0006 2.73542 13.0006 3.00064C13.0006 3.26585 12.8952 3.52021 12.7077 3.70774C12.5201 3.89528 12.2658 4.00064 12.0006 4.00064C11.7353 4.00064 11.481 3.89528 11.2934 3.70774C11.1059 3.52021 11.0006 3.26585 11.0006 3.00064C11.0006 2.73542 11.1059 2.48107 11.2934 2.29353C11.481 2.10599 11.7353 2.00064 12.0006 2.00064ZM19.3576 19.5256C19.2341 20.2199 18.8701 20.8485 18.3294 21.3012C17.7886 21.7538 17.1057 22.0014 16.4006 22.0006H7.60055C6.8959 22.0007 6.21371 21.7527 5.67358 21.3002C5.13346 20.8476 4.76987 20.2194 4.64655 19.5256L4.27555 17.4456C4.83061 17.8343 5.5009 18.0237 6.17729 17.9828C6.85368 17.942 7.49632 17.6733 8.00055 17.2206C8.54956 17.7147 9.26199 17.988 10.0006 17.988C10.7391 17.988 11.4515 17.7147 12.0006 17.2206C12.5496 17.7147 13.262 17.988 14.0006 17.988C14.7391 17.988 15.4515 17.7147 16.0006 17.2206C16.505 17.6741 17.1482 17.9431 17.8253 17.984C18.5023 18.0249 19.1732 17.8351 19.7286 17.4456L19.3576 19.5256ZM21.6576 14.1126C21.4782 14.3879 21.2323 14.6136 20.9427 14.7688C20.6531 14.924 20.3291 15.0037 20.0006 15.0006C19.7642 15.011 19.5329 15.0721 19.3223 15.18C19.1118 15.2879 18.927 15.4399 18.7806 15.6256C18.6858 15.7408 18.5667 15.8336 18.4319 15.8973C18.297 15.961 18.1497 15.994 18.0006 15.994C17.8514 15.994 17.7041 15.961 17.5692 15.8973C17.4344 15.8336 17.3153 15.7408 17.2206 15.6256C17.078 15.437 16.8937 15.2839 16.682 15.1785C16.4703 15.0731 16.237 15.0183 16.0006 15.0183C15.7641 15.0183 15.5308 15.0731 15.3191 15.1785C15.1075 15.2839 14.9231 15.437 14.7806 15.6256C14.6858 15.7408 14.5667 15.8336 14.4319 15.8973C14.297 15.961 14.1497 15.994 14.0006 15.994C13.8514 15.994 13.7041 15.961 13.5692 15.8973C13.4344 15.8336 13.3153 15.7408 13.2206 15.6256C13.078 15.437 12.8937 15.2839 12.682 15.1785C12.4703 15.0731 12.237 15.0183 12.0006 15.0183C11.7641 15.0183 11.5308 15.0731 11.3191 15.1785C11.1075 15.2839 10.9231 15.437 10.7806 15.6256C10.6858 15.7408 10.5667 15.8336 10.4319 15.8973C10.297 15.961 10.1497 15.994 10.0006 15.994C9.85141 15.994 9.70411 15.961 9.56925 15.8973C9.43439 15.8336 9.3153 15.7408 9.22055 15.6256C9.07801 15.437 8.89365 15.2839 8.68196 15.1785C8.47027 15.0731 8.23702 15.0183 8.00055 15.0183C7.76408 15.0183 7.53083 15.0731 7.31914 15.1785C7.10745 15.2839 6.92309 15.437 6.78055 15.6256C6.6858 15.7408 6.56672 15.8336 6.43186 15.8973C6.29699 15.961 6.1497 15.994 6.00055 15.994C5.85141 15.994 5.70411 15.961 5.56925 15.8973C5.43439 15.8336 5.3153 15.7408 5.22055 15.6256C5.07419 15.4398 4.88941 15.2877 4.67885 15.1798C4.46829 15.072 4.23691 15.0108 4.00055 15.0006C3.67215 15.0036 3.34829 14.9238 3.05887 14.7686C2.76944 14.6134 2.52378 14.3878 2.34455 14.1126C2.15563 13.8319 2.04039 13.5082 2.00946 13.1713C1.97852 12.8343 2.03289 12.495 2.16755 12.1846C5.43455 3.98464 18.5676 3.98464 21.8356 12.1846C21.9702 12.495 22.0246 12.8343 21.9936 13.1713C21.9627 13.5082 21.8475 13.8319 21.6586 14.1126H21.6576Z" fill="#202020"/>
</g>
<defs>
<clipPath id="clip0_2_6645">
<rect width="24" height="24" fill="white"/>
</clipPath>
</defs>
</svg>
