<svg width="24" height="24" viewBox="0 0 24 24" fill="none" xmlns="http://www.w3.org/2000/svg">
<g clip-path="url(#clip0_2_7129)">
<path d="M22.5626 1.43814C20.1886 -0.935855 16.6436 -0.356856 11.9996 3.13814C7.35662 -0.356856 3.81262 -0.936855 1.43662 1.43814C-0.939379 3.81314 -0.358379 7.35713 3.13662 12.0011C-0.358379 16.6441 -0.938379 20.1891 1.43662 22.5641C1.88192 23.0258 2.41701 23.3915 3.00897 23.6387C3.60092 23.8858 4.2372 24.0092 4.87862 24.0011C6.84962 24.0011 9.22962 22.9491 11.9996 20.8651C14.7686 22.9491 17.1486 24.0011 19.1206 24.0011C19.762 24.0092 20.3983 23.8858 20.9903 23.6387C21.5822 23.3915 22.1173 23.0258 22.5626 22.5641C24.9376 20.1891 24.3626 16.6451 20.8626 12.0011C24.3576 7.35713 24.9376 3.81314 22.5626 1.43814ZM19.0846 2.02914C19.4668 2.01763 19.8473 2.08435 20.2027 2.22518C20.5581 2.36602 20.8811 2.57801 21.1516 2.84814C22.8976 4.59514 21.6076 7.56113 19.5636 10.3871C18.7256 9.39913 17.7816 8.37213 16.7056 7.29514C15.6296 6.21814 14.5996 5.27414 13.6116 4.43514C15.5096 3.06214 17.4716 2.02914 19.0846 2.02914ZM18.3106 12.0011C17.2996 13.2211 16.2286 14.3621 15.2946 15.3011C14.3606 16.2401 13.2196 17.3011 11.9996 18.3121C10.7796 17.3011 9.63862 16.2301 8.70462 15.3011C7.77062 14.3721 6.69962 13.2211 5.68862 12.0011C6.69962 10.7811 7.77062 9.63913 8.70462 8.70613C9.63862 7.77313 10.7796 6.70114 11.9996 5.68914C13.2196 6.69914 14.3606 7.77213 15.2996 8.70613C16.2386 9.64013 17.2996 10.7811 18.3106 12.0011ZM2.84762 2.84914C3.11789 2.57854 3.44073 2.36618 3.79623 2.22515C4.15173 2.08412 4.53235 2.01741 4.91462 2.02914C6.52762 2.02914 8.48962 3.06214 10.3876 4.43514C9.39962 5.27414 8.37162 6.21814 7.29362 7.29514C6.21562 8.37213 5.27362 9.39513 4.43462 10.3871C2.39162 7.56113 1.09962 4.59514 2.84762 2.84914ZM2.84762 21.1491C1.10162 19.4031 2.39162 16.4361 4.43462 13.6111C5.27362 14.5991 6.21762 15.6261 7.29362 16.7031C8.36962 17.7801 9.39362 18.7261 10.3826 19.5641C7.55762 21.6101 4.59162 22.9011 2.84762 21.1531V21.1491ZM21.1476 21.1491C19.4026 22.8931 16.4376 21.6061 13.6126 19.5641C14.5986 18.7261 15.6266 17.7771 16.7016 16.7031C17.7766 15.6291 18.7216 14.6031 19.5596 13.6111C21.6076 16.4411 22.8996 19.4071 21.1516 21.1531L21.1476 21.1491Z" fill="#202020"/>
<path d="M12 14C13.1046 14 14 13.1046 14 12C14 10.8954 13.1046 10 12 10C10.8954 10 10 10.8954 10 12C10 13.1046 10.8954 14 12 14Z" fill="#202020"/>
</g>
<defs>
<clipPath id="clip0_2_7129">
<rect width="24" height="24" fill="white"/>
</clipPath>
</defs>
</svg>
