<svg width="24" height="24" viewBox="0 0 24 24" fill="none" xmlns="http://www.w3.org/2000/svg">
<g clip-path="url(#clip0_2_6822)">
<path d="M23.1461 9.471L22.3591 8.4C21.8138 7.65793 21.1019 7.0542 20.2807 6.63736C19.4596 6.22052 18.552 6.00222 17.6311 6H6.38214C5.48017 6.00236 4.59077 6.21176 3.7825 6.61209C2.97422 7.01241 2.26864 7.59296 1.72014 8.309L0.899142 9.383C0.232624 10.2623 -0.0807491 11.3592 0.0206633 12.4579C0.122076 13.5566 0.630933 14.5776 1.44714 15.32L9.43714 23.027C10.1389 23.6528 11.0469 23.9979 11.9871 23.996C12.9474 23.9941 13.8731 23.638 14.5871 22.996L22.5231 15.363C23.344 14.6361 23.8632 13.6283 23.9785 12.5379C24.0938 11.4476 23.7969 10.3535 23.1461 9.471ZM20.7461 9.578L21.5331 10.652C21.6122 10.7619 21.6818 10.8783 21.7411 11H16.9501C16.8778 10.5211 16.753 10.0516 16.5781 9.6L15.9381 8H17.6311C18.2376 8.00115 18.8353 8.1445 19.3763 8.41856C19.9173 8.69261 20.3865 9.08973 20.7461 9.578ZM11.9891 20.088L9.22014 13.818C9.11999 13.5528 9.04434 13.279 8.99414 13H14.9461C14.9042 13.2199 14.8454 13.4362 14.7701 13.647L11.9891 20.088ZM9.09914 11C9.14096 10.8207 9.19339 10.6441 9.25614 10.471L10.2401 8H13.7841L14.7211 10.343C14.8034 10.5569 14.8702 10.7765 14.9211 11H9.09914ZM3.31014 9.521C3.6717 9.04935 4.13668 8.66695 4.66927 8.40326C5.20185 8.13957 5.78785 8.00161 6.38214 8H8.08214L7.39914 9.729C7.23436 10.1392 7.1114 10.5651 7.03214 11H2.24414C2.31273 10.8587 2.39549 10.7246 2.49114 10.6L3.31014 9.521ZM2.81014 13.854C2.54927 13.6174 2.34432 13.3257 2.21014 13H6.98214C7.04846 13.5388 7.17837 14.0678 7.36914 14.576L10.1961 20.976L2.81014 13.854ZM13.7701 21.014L16.6241 14.4C16.7898 13.9474 16.9052 13.4779 16.9681 13H21.7991C21.6576 13.3433 21.4414 13.6507 21.1661 13.9L13.7701 21.014Z" fill="#202020"/>
<path d="M12 4C12.2652 4 12.5196 3.89464 12.7071 3.70711C12.8947 3.51957 13 3.26522 13 3V1C13 0.734784 12.8947 0.48043 12.7071 0.292893C12.5196 0.105357 12.2652 0 12 0C11.7348 0 11.4804 0.105357 11.2929 0.292893C11.1054 0.48043 11 0.734784 11 1V3C11 3.26522 11.1054 3.51957 11.2929 3.70711C11.4804 3.89464 11.7348 4 12 4Z" fill="#202020"/>
<path d="M16.5535 3.90042C16.6716 3.95978 16.8003 3.99515 16.9321 4.00449C17.0639 4.01383 17.1963 3.99695 17.3215 3.95483C17.4468 3.9127 17.5624 3.84617 17.6618 3.75908C17.7612 3.67199 17.8423 3.56606 17.9005 3.44742L18.9005 1.44742C19.0191 1.21005 19.0385 0.935308 18.9545 0.683634C18.8705 0.43196 18.6899 0.22397 18.4525 0.105418C18.2152 -0.013134 17.9404 -0.0325358 17.6888 0.0514805C17.4371 0.135497 17.2291 0.316049 17.1105 0.553418L16.1105 2.55342C16.0508 2.67088 16.0149 2.79899 16.0049 2.93037C15.9948 3.06176 16.0108 3.19384 16.052 3.31901C16.0932 3.44419 16.1587 3.55999 16.2447 3.65977C16.3308 3.75955 16.4358 3.84133 16.5535 3.90042Z" fill="#202020"/>
<path d="M6.10432 3.44742C6.22288 3.68545 6.43113 3.86664 6.68327 3.95112C6.93542 4.03561 7.21079 4.01647 7.44882 3.89792C7.68686 3.77937 7.86804 3.57111 7.95253 3.31897C8.03701 3.06683 8.01788 2.79145 7.89932 2.55342L6.89932 0.553418C6.84062 0.435885 6.75935 0.331065 6.66014 0.244942C6.56093 0.158819 6.44572 0.0930811 6.32111 0.0514805C6.06943 -0.0325358 5.79469 -0.013134 5.55732 0.105418C5.31996 0.22397 5.1394 0.43196 5.05539 0.683634C4.97137 0.935308 4.99077 1.21005 5.10932 1.44742L6.10432 3.44742Z" fill="#202020"/>
</g>
<defs>
<clipPath id="clip0_2_6822">
<rect width="24" height="24" fill="white"/>
</clipPath>
</defs>
</svg>
