<svg width="24" height="24" viewBox="0 0 24 24" fill="none" xmlns="http://www.w3.org/2000/svg">
<g clip-path="url(#clip0_2_7100)">
<path d="M23.099 0.899297C22.5154 0.34332 21.7402 0.0332031 20.934 0.0332031C20.1279 0.0332031 19.3527 0.34332 18.769 0.899297L7.56205 12.0993C7.21339 12.0322 6.8591 11.9987 6.50405 11.9993C5.78225 11.9972 5.06721 12.1384 4.40034 12.4145C3.73347 12.6907 3.12802 13.0965 2.61905 13.6083C1.26705 14.9613 0.313046 18.5913 0.0300459 20.5623C-0.0327343 20.9887 -0.00290607 21.4236 0.1175 21.8374C0.237906 22.2512 0.446063 22.6342 0.727801 22.9604C1.00954 23.2865 1.35824 23.5481 1.75017 23.7274C2.1421 23.9067 2.56806 23.9994 2.99905 23.9993C3.14593 23.9993 3.29263 23.989 3.43805 23.9683C5.40905 23.6853 9.03805 22.7313 10.392 21.3793C11.0278 20.7417 11.4971 19.9576 11.7587 19.096C12.0203 18.2344 12.0661 17.3217 11.892 16.4383L23.099 5.22929C23.6717 4.65429 23.9932 3.87582 23.9932 3.06429C23.9932 2.25277 23.6717 1.4743 23.099 0.899297ZM8.97605 19.9653C8.25105 20.6903 5.47605 21.6543 3.15205 21.9883C2.99673 22.0107 2.83833 21.9968 2.68928 21.9477C2.54024 21.8986 2.40461 21.8156 2.29305 21.7053C2.18188 21.5943 2.09842 21.4587 2.04943 21.3095C2.00043 21.1602 1.98728 21.0015 2.01105 20.8463C2.34405 18.5233 3.31105 15.7463 4.03305 15.0223C4.69929 14.4222 5.57042 14.1007 6.46674 14.1242C7.36307 14.1476 8.21622 14.5141 8.85024 15.1481C9.48425 15.7821 9.85076 16.6353 9.87417 17.5316C9.89758 18.4279 9.5761 19.299 8.97605 19.9653ZM21.687 3.81529L11.066 14.4373C10.6714 13.8398 10.1615 13.3271 9.56605 12.9293L20.183 2.3113C20.3851 2.11837 20.6537 2.01072 20.933 2.01072C21.2124 2.01072 21.481 2.11837 21.683 2.3113C21.7822 2.40969 21.861 2.52668 21.9149 2.65558C21.9688 2.78448 21.9968 2.92275 21.9972 3.06246C21.9975 3.20218 21.9703 3.34059 21.9171 3.46978C21.8639 3.59896 21.7857 3.71638 21.687 3.81529Z" fill="#202020"/>
</g>
<defs>
<clipPath id="clip0_2_7100">
<rect width="24" height="24" fill="white"/>
</clipPath>
</defs>
</svg>
