<svg width="24" height="24" viewBox="0 0 24 24" fill="none" xmlns="http://www.w3.org/2000/svg">
<g clip-path="url(#clip0_2_6752)">
<path d="M6.96169 5.81833C7.30687 5.81833 7.58667 5.53848 7.58667 5.19334C7.58667 4.8482 7.30683 4.56836 6.96169 4.56836H4.7617C4.41652 4.56836 4.13672 4.8482 4.13672 5.19334V10.4073C4.13672 10.7525 4.41656 11.0323 4.7617 11.0323H6.96169C7.30687 11.0323 7.58667 10.7525 7.58667 10.4073C7.58667 10.0622 7.30683 9.78236 6.96169 9.78236H5.39067V8.42537H6.79969C7.14487 8.42537 7.42467 8.14553 7.42467 7.80039C7.42467 7.4552 7.14483 7.17541 6.79969 7.17541H5.39067V5.81842H6.96169V5.81833Z" fill="#202020"/>
<path d="M8.85185 5.17002V10.432C8.85185 10.7772 9.13169 11.057 9.47683 11.057C9.82202 11.057 10.1018 10.7772 10.1018 10.432V8.76903H10.9408C12.1061 8.76903 13.0508 7.82436 13.0508 6.65905C13.0508 5.49374 12.1061 4.54907 10.9408 4.54907L10.9398 4.54508H9.47584C9.43952 4.5441 9.18531 4.54152 9.00264 4.74758C8.84885 4.92102 8.85039 5.12436 8.85185 5.17002ZM10.9398 7.51503H10.1079V5.79102H10.9449C11.4198 5.79102 11.8049 6.17605 11.8049 6.65103C11.8049 7.12602 11.4198 7.51105 10.9449 7.51105L10.9398 7.51503Z" fill="#202020"/>
<path d="M19 0H5.00002C2.23997 0.00332812 0.00332812 2.23997 0 5.00002V19C0.00332812 21.76 2.23997 23.9967 5.00002 24H16.343C17.6699 24.0038 18.9432 23.4766 19.879 22.536L22.535 19.878C23.4757 18.9426 24.0033 17.6697 24 16.343V5.00002C23.9967 2.23997 21.76 0.00332812 19 0ZM2.00002 19V5.00002C2.00002 3.34317 3.34317 2.00002 5.00002 2.00002H19C20.6569 2.00002 22 3.34317 22 5.00002V15H18C16.3432 15 15 16.3432 15 18V22H5.00002C3.34312 22 2.00002 20.6569 2.00002 19ZM18.465 21.122C18.063 21.523 17.5547 21.8006 17 21.922V18C17 17.4477 17.4477 17 18 17H21.925C21.8013 17.5535 21.524 18.0609 21.125 18.464L18.465 21.122Z" fill="#202020"/>
<path d="M16.8577 7.25452C16.5847 7.16152 16.3017 7.11052 16.0227 7.03754C15.8013 6.99286 15.5961 6.88922 15.4287 6.73754C15.2616 6.579 15.2022 6.33755 15.2767 6.11954C15.3715 5.93166 15.5579 5.80721 15.7677 5.79155C15.974 5.77871 16.1808 5.80904 16.3747 5.88057C16.6535 5.96747 16.927 6.07064 17.1937 6.18957C17.4887 6.31857 17.8347 6.39558 18.0727 6.11555C18.2476 5.9049 18.2606 5.60358 18.1047 5.37854C18.001 5.22793 17.8611 5.10582 17.6977 5.02355C16.9657 4.59375 16.0922 4.47455 15.2717 4.69257C14.8383 4.82972 14.4722 5.12447 14.2457 5.51855C14.1395 5.70549 14.0693 5.91071 14.0387 6.12357C13.9829 6.50639 14.0659 6.89658 14.2727 7.22358C14.506 7.56521 14.8429 7.82283 15.2337 7.95858C15.6427 8.12658 16.0507 8.28957 16.4657 8.44158C16.6444 8.49779 16.8088 8.59191 16.9477 8.71758C17.1044 8.86599 17.1626 9.0908 17.0977 9.29658C17.0134 9.4936 16.846 9.64304 16.6407 9.70458C16.3285 9.82196 15.9865 9.83424 15.6667 9.7396C15.3555 9.62696 15.0679 9.45741 14.8187 9.23958C14.7927 9.21858 14.7077 9.1546 14.6917 9.1396C14.4587 8.973 14.1404 8.99433 13.9317 9.1906C13.676 9.42249 13.6567 9.81774 13.8886 10.0734C13.8886 10.0735 13.8887 10.0735 13.8887 10.0736C14.4853 10.7071 15.3185 11.064 16.1887 11.0586C17.22 11.1039 18.1364 10.4059 18.3667 9.39961C18.4638 8.79066 18.2364 8.17519 17.7667 7.77563C17.5012 7.54341 17.1922 7.36632 16.8577 7.25452Z" fill="#202020"/>
</g>
<defs>
<clipPath id="clip0_2_6752">
<rect width="24" height="24" fill="white"/>
</clipPath>
</defs>
</svg>
