<svg width="24" height="24" viewBox="0 0 24 24" fill="none" xmlns="http://www.w3.org/2000/svg">
<g clip-path="url(#clip0_2_6548)">
<path d="M18.7458 20.3348C18.8334 20.4328 18.9007 20.5472 18.9441 20.6713C18.9874 20.7954 19.0058 20.9268 18.9983 21.0581C18.9908 21.1893 18.9574 21.3178 18.9002 21.4361C18.843 21.5545 18.763 21.6604 18.6648 21.7478L17.0788 23.1618C16.8071 23.4308 16.4848 23.6434 16.1306 23.7874C15.7764 23.9314 15.3972 24.0039 15.0148 24.0008C14.6183 24.0016 14.2254 23.924 13.8589 23.7727C13.4924 23.6213 13.1593 23.3991 12.8788 23.1188L11.3348 21.7448C11.2367 21.6574 11.1568 21.5516 11.0996 21.4334C11.0424 21.3152 11.009 21.1869 11.0014 21.0558C10.986 20.791 11.0764 20.5309 11.2528 20.3328C11.4292 20.1347 11.677 20.0147 11.9418 19.9993C12.0729 19.9917 12.2043 20.01 12.3283 20.0531C12.4524 20.0963 12.5667 20.1634 12.6648 20.2508L13.9998 21.4448V14.0008C13.9998 13.7356 14.1052 13.4812 14.2927 13.2937C14.4802 13.1061 14.7346 13.0008 14.9998 13.0008C15.265 13.0008 15.5194 13.1061 15.7069 13.2937C15.8945 13.4812 15.9998 13.7356 15.9998 14.0008V21.4458L17.3348 20.2538C17.5327 20.0776 17.7925 19.9871 18.0571 20.0023C18.3216 20.0175 18.5694 20.1371 18.7458 20.3348ZM18.3558 7.36177C18.1841 7.30845 18.0283 7.21341 17.9023 7.08515C17.7763 6.95688 17.6841 6.7994 17.6338 6.62677C17.1043 4.92686 16.0229 3.45216 14.5608 2.43618C13.0986 1.4202 11.3394 0.921014 9.56151 1.01766C7.78367 1.1143 6.08888 1.80126 4.74549 2.96975C3.40211 4.13824 2.48691 5.72148 2.14482 7.46877C1.7938 9.23578 2.07708 11.07 2.94482 12.6488C1.93326 13.171 1.11072 13.997 0.592733 15.0108C0.0747427 16.0245 -0.112671 17.175 0.0568164 18.3008C0.317468 19.6086 1.01763 20.7879 2.04103 21.6428C3.06444 22.4978 4.3495 22.977 5.68282 23.0008H7.99982C8.26503 23.0008 8.51939 22.8954 8.70692 22.7079C8.89446 22.5203 8.99982 22.266 8.99982 22.0008C8.99982 21.7356 8.89446 21.4812 8.70692 21.2937C8.51939 21.1061 8.26503 21.0008 7.99982 21.0008H5.68282C4.82877 20.9844 4.00502 20.6815 3.34381 20.1407C2.6826 19.5999 2.2223 18.8526 2.03682 18.0188C1.92823 17.3023 2.04671 16.5699 2.37564 15.9242C2.70457 15.2786 3.22742 14.7521 3.87082 14.4188C4.32941 14.1653 4.66974 13.7415 4.81816 13.239C4.96657 12.7364 4.91112 12.1957 4.66382 11.7338C4.27553 10.9932 4.04631 10.1797 3.99087 9.34535C3.93544 8.51102 4.055 7.67431 4.3419 6.8889C4.6288 6.10349 5.0767 5.38671 5.65686 4.78456C6.23702 4.1824 6.93664 3.70816 7.71084 3.39225C8.48504 3.07634 9.31672 2.92574 10.1525 2.95011C10.9884 2.97448 11.8099 3.17328 12.5643 3.53376C13.3188 3.89424 13.9896 4.40845 14.5337 5.04338C15.0778 5.67832 15.4832 6.41997 15.7238 7.22077C15.8718 7.70347 16.1355 8.14273 16.4919 8.50035C16.8483 8.85797 17.2866 9.12312 17.7688 9.27277C19.0751 9.67026 20.2057 10.5035 20.9722 11.6335C21.7386 12.7635 22.0946 14.1221 21.9808 15.4828C21.9055 16.5408 21.519 17.5529 20.8698 18.3918C20.7082 18.6021 20.6367 18.868 20.6711 19.131C20.7055 19.394 20.843 19.6326 21.0533 19.7943C21.2636 19.9559 21.5296 20.0274 21.7926 19.993C22.0556 19.9586 22.2942 19.8211 22.4558 19.6108C23.3368 18.4621 23.8649 17.0821 23.9758 15.6388C24.1268 13.8245 23.6514 12.0132 22.6287 10.507C21.606 9.0008 20.0979 7.89069 18.3558 7.36177Z" fill="#202020"/>
</g>
<defs>
<clipPath id="clip0_2_6548">
<rect width="24" height="24" fill="white"/>
</clipPath>
</defs>
</svg>
