<svg width="24" height="24" viewBox="0 0 24 24" fill="none" xmlns="http://www.w3.org/2000/svg">
<g clip-path="url(#clip0_2_7500)">
<path d="M23.7165 9.549C22.7675 7.45173 21.2719 5.64831 19.3864 4.32773C17.5008 3.00714 15.2948 2.218 12.9995 2.043V1C12.9995 0.734784 12.8941 0.48043 12.7066 0.292893C12.5191 0.105357 12.2647 0 11.9995 0C11.7343 0 11.4799 0.105357 11.2924 0.292893C11.1049 0.48043 10.9995 0.734784 10.9995 1V2.043C8.70164 2.21616 6.4927 3.00439 4.60429 4.32502C2.71589 5.64566 1.21759 7.45005 0.266503 9.549C0.0274505 10.149 -0.0606358 10.7985 0.00997959 11.4405C0.0805949 12.0825 0.307752 12.6973 0.671503 13.231C1.0391 13.7757 1.53478 14.2218 2.11503 14.5303C2.69528 14.8387 3.34237 15 3.9995 15H10.9995V21C10.9995 21.2652 10.8941 21.5196 10.7066 21.7071C10.5191 21.8946 10.2647 22 9.9995 22C9.73429 22 9.47993 21.8946 9.2924 21.7071C9.10486 21.5196 8.9995 21.2652 8.9995 21C8.9995 20.7348 8.89415 20.4804 8.70661 20.2929C8.51907 20.1054 8.26472 20 7.9995 20C7.73429 20 7.47993 20.1054 7.2924 20.2929C7.10486 20.4804 6.9995 20.7348 6.9995 21C6.9995 21.7956 7.31557 22.5587 7.87818 23.1213C8.44079 23.6839 9.20385 24 9.9995 24C10.7952 24 11.5582 23.6839 12.1208 23.1213C12.6834 22.5587 12.9995 21.7956 12.9995 21V15H19.9825C20.6398 15 21.287 14.8387 21.8674 14.5303C22.4478 14.2218 22.9437 13.7757 23.3115 13.231C23.675 12.6972 23.902 12.0824 23.9726 11.4404C24.0432 10.7985 23.9553 10.149 23.7165 9.549ZM21.6555 12.11C21.4724 12.3855 21.2236 12.6112 20.9315 12.7666C20.6395 12.9219 20.3133 13.0022 19.9825 13H3.9995C3.66858 13.0021 3.34233 12.9218 3.05023 12.7662C2.75814 12.6107 2.50941 12.3848 2.3265 12.109C2.14518 11.8462 2.03198 11.5426 1.99707 11.2252C1.96216 10.9079 2.00664 10.5869 2.1265 10.291C3.5805 6.646 7.7335 4 11.9995 4C14.0732 3.99242 16.1052 4.5815 17.8533 5.69695C19.6014 6.81241 20.9918 8.40716 21.8585 10.291C21.9785 10.5872 22.0227 10.9086 21.9873 11.2262C21.9518 11.5438 21.8378 11.8475 21.6555 12.11Z" fill="#202020"/>
</g>
<defs>
<clipPath id="clip0_2_7500">
<rect width="24" height="24" fill="white"/>
</clipPath>
</defs>
</svg>
