<svg width="24" height="24" viewBox="0 0 24 24" fill="none" xmlns="http://www.w3.org/2000/svg">
<g clip-path="url(#clip0_2_6503)">
<path d="M18.7136 12.0008H14.0006C13.4702 12.0008 12.9615 11.7901 12.5864 11.415C12.2114 11.0399 12.0006 10.5312 12.0006 10.0008V5.27478C12.002 4.81476 11.8976 4.36059 11.6954 3.94738C11.4932 3.53418 11.1987 3.173 10.8346 2.89178C10.4897 2.61859 10.0865 2.42835 9.65635 2.33576C9.22616 2.24317 8.78045 2.2507 8.35364 2.35778C5.9293 2.95959 3.78297 4.37084 2.26961 6.35814C0.756255 8.34544 -0.0334836 10.7898 0.0310018 13.2868C0.0954873 15.7839 1.01033 18.1842 2.62425 20.0908C4.23816 21.9973 6.45447 23.2959 8.90664 23.7718C11.6637 24.2995 14.5183 23.7532 16.8857 22.2447C19.2531 20.7362 20.9542 18.3797 21.6406 15.6578C21.7481 15.2304 21.7559 14.7841 21.6635 14.3532C21.5711 13.9223 21.3809 13.5185 21.1076 13.1728C20.8231 12.8092 20.4598 12.5149 20.0452 12.3119C19.6306 12.1089 19.1753 12.0025 18.7136 12.0008ZM19.7016 15.1688C19.3188 16.7106 18.5332 18.1231 17.4253 19.2618C16.3174 20.4004 14.927 21.2244 13.3962 21.6494C11.8654 22.0743 10.2492 22.0851 8.71284 21.6805C7.17653 21.2759 5.77526 20.4704 4.65235 19.3466C3.52944 18.2228 2.72519 16.8208 2.32186 15.2842C1.91854 13.7475 1.93061 12.1313 2.35684 10.6009C2.78307 9.07043 3.60817 7.68066 4.74774 6.57372C5.88731 5.46677 7.30046 4.68238 8.84264 4.30078C8.97457 4.26781 9.11239 4.2662 9.24506 4.29607C9.37773 4.32594 9.50156 4.38646 9.60664 4.47278C9.73073 4.56738 9.83136 4.6893 9.90073 4.82908C9.9701 4.96886 10.0063 5.12273 10.0066 5.27878V10.0008C10.0066 11.0616 10.4281 12.0791 11.1782 12.8292C11.9284 13.5793 12.9458 14.0008 14.0066 14.0008H18.7186C18.876 14.0014 19.0313 14.0377 19.1726 14.107C19.3139 14.1763 19.4377 14.2767 19.5346 14.4008C19.6196 14.5073 19.6789 14.6321 19.7077 14.7653C19.7365 14.8985 19.7341 15.0366 19.7006 15.1688H19.7016Z" fill="#202020"/>
<path d="M23.6515 7.44687C23.1911 5.75434 22.2968 4.21137 21.0569 2.97065C19.8171 1.72993 18.2747 0.834463 16.5825 0.372872C16.4051 0.325181 16.2222 0.300974 16.0385 0.300872C15.7743 0.298361 15.5122 0.348239 15.2673 0.447624C15.0225 0.547009 14.7998 0.69393 14.612 0.879898C14.4243 1.06587 14.2753 1.28719 14.1736 1.53109C14.0719 1.77499 14.0195 2.03662 14.0195 2.30087V7.00087C14.0195 7.79652 14.3356 8.55958 14.8982 9.12219C15.4608 9.6848 16.2239 10.0009 17.0195 10.0009H21.7385C22.0472 9.9979 22.351 9.92381 22.6264 9.78435C22.9018 9.64489 23.1413 9.44382 23.3264 9.19676C23.5114 8.9497 23.637 8.6633 23.6934 8.35981C23.7498 8.05632 23.7355 7.74392 23.6515 7.44687ZM21.1535 8.00087H17.0155C16.7503 8.00087 16.496 7.89551 16.3084 7.70798C16.1209 7.52044 16.0155 7.26609 16.0155 7.00087L16.0075 2.30787C16.0149 2.30258 16.0235 2.29946 16.0325 2.29887H16.0585C17.4206 2.66996 18.6616 3.39178 19.6576 4.39231C20.6535 5.39285 21.3697 6.63709 21.7345 8.00087H21.1535Z" fill="#202020"/>
</g>
<defs>
<clipPath id="clip0_2_6503">
<rect width="24" height="24" fill="white"/>
</clipPath>
</defs>
</svg>
