<svg width="24" height="24" viewBox="0 0 24 24" fill="none" xmlns="http://www.w3.org/2000/svg">
<g clip-path="url(#clip0_2_6933)">
<path d="M7.49521 24C5.68496 23.9989 3.93622 23.343 2.57167 22.1535C1.20712 20.9639 0.318848 19.321 0.0707749 17.5278C-0.177299 15.7346 0.231563 13.9122 1.22191 12.3969C2.21226 10.8816 3.71727 9.7756 5.45921 9.28302C6.72534 8.92045 8.06551 8.90387 9.34021 9.23502L17.2482 1.32902C17.668 0.906302 18.1676 0.571153 18.7179 0.343015C19.2683 0.114877 19.8585 -0.0017098 20.4542 1.89472e-05C21.3918 0.000813379 22.2907 0.37361 22.9537 1.03657C23.6166 1.69952 23.9894 2.59846 23.9902 3.53602C23.9918 4.13181 23.8752 4.722 23.6473 5.27246C23.4193 5.82292 23.0845 6.32274 22.6622 6.74302L21.9902 7.41502C21.6142 7.78846 21.1062 7.99865 20.5762 8.00002H18.9902V9.00002C18.9902 9.53045 18.7795 10.0392 18.4044 10.4142C18.0294 10.7893 17.5206 11 16.9902 11H15.9902V12.586C15.9909 12.8488 15.9395 13.109 15.8389 13.3517C15.7383 13.5945 15.5906 13.8148 15.4042 14L14.7542 14.65C15.0872 15.9241 15.0709 17.2644 14.7072 18.53C14.2979 19.972 13.4675 21.259 12.3224 22.2262C11.1772 23.1934 9.76937 23.7968 8.27921 23.959C8.01875 23.9861 7.75707 23.9998 7.49521 24ZM7.49521 11C6.47136 10.999 5.46756 11.2838 4.5968 11.8224C3.72604 12.361 3.02289 13.1319 2.56651 14.0484C2.11013 14.9649 1.91864 15.9906 2.01359 17.0101C2.10853 18.0295 2.48615 19.0022 3.10393 19.8187C3.72171 20.6351 4.55513 21.2629 5.51037 21.6314C6.46561 21.9999 7.50474 22.0945 8.5108 21.9044C9.51686 21.7144 10.4499 21.2473 11.2049 20.5557C11.9599 19.8642 12.5068 18.9756 12.7842 17.99C13.0962 16.9066 13.0612 15.7526 12.6842 14.69C12.6227 14.5126 12.6124 14.3214 12.6545 14.1383C12.6966 13.9553 12.7893 13.7878 12.9222 13.655L13.9902 12.586V11C13.9902 10.4696 14.2009 9.96088 14.576 9.58581C14.9511 9.21073 15.4598 9.00002 15.9902 9.00002H16.9902V8.00002C16.9902 7.46959 17.2009 6.96088 17.576 6.58581C17.9511 6.21073 18.4598 6.00002 18.9902 6.00002H20.5762L21.2482 5.32802C21.4842 5.09317 21.6712 4.81388 21.7986 4.5063C21.926 4.19871 21.9911 3.86893 21.9902 3.53602C21.9899 3.1289 21.8282 2.73852 21.5404 2.45055C21.2526 2.16258 20.8623 2.00055 20.4552 2.00002C20.1221 1.9992 19.7921 2.06445 19.4843 2.19198C19.1765 2.31951 18.8971 2.5068 18.6622 2.74302L10.3312 11.073C10.1983 11.2059 10.0305 11.2986 9.8473 11.3405C9.66406 11.3825 9.47272 11.3719 9.29521 11.31C8.71528 11.1058 8.10504 11.001 7.49021 11H7.49521ZM4.99021 18C4.99021 18.1978 5.04886 18.3911 5.15874 18.5556C5.26862 18.72 5.4248 18.8482 5.60753 18.9239C5.79025 18.9996 5.99132 19.0194 6.1853 18.9808C6.37928 18.9422 6.55747 18.847 6.69732 18.7071C6.83717 18.5673 6.93241 18.3891 6.971 18.1951C7.00958 18.0011 6.98978 17.8001 6.91409 17.6173C6.8384 17.4346 6.71023 17.2784 6.54578 17.1685C6.38133 17.0587 6.18799 17 5.99021 17C5.725 17 5.47064 17.1054 5.28311 17.2929C5.09557 17.4804 4.99021 17.7348 4.99021 18Z" fill="#202020"/>
</g>
<defs>
<clipPath id="clip0_2_6933">
<rect width="24" height="24" fill="white"/>
</clipPath>
</defs>
</svg>
