<svg width="24" height="24" viewBox="0 0 24 24" fill="none" xmlns="http://www.w3.org/2000/svg">
<g clip-path="url(#clip0_2_7509)">
<path d="M17 8.00136H7V7.00136C6.99969 5.89276 7.36782 4.8155 8.04652 3.93893C8.72521 3.06237 9.67597 2.43622 10.7493 2.15892C11.8227 1.88162 12.9578 1.9689 13.9761 2.40704C14.9944 2.84519 15.8383 3.60934 16.375 4.57936C16.4388 4.6942 16.5245 4.79536 16.6274 4.87706C16.7302 4.95876 16.8481 5.0194 16.9744 5.05553C17.1007 5.09165 17.2329 5.10254 17.3634 5.08759C17.4939 5.07263 17.6202 5.03212 17.735 4.96836C17.8498 4.9046 17.951 4.81885 18.0327 4.716C18.1144 4.61315 18.175 4.49521 18.2112 4.36893C18.2473 4.24264 18.2582 4.11047 18.2432 3.97997C18.2283 3.84948 18.1878 3.7232 18.124 3.60836C17.3723 2.25068 16.1907 1.18128 14.765 0.568274C13.3393 -0.0447317 11.7504 -0.166589 10.2479 0.221856C8.74538 0.610301 7.41457 1.48702 6.46463 2.71421C5.51469 3.9414 4.99948 5.44947 5 7.00136V8.42536C4.10936 8.81407 3.35129 9.45389 2.8185 10.2666C2.28571 11.0793 2.00128 12.0296 2 13.0014V19.0014C2.00159 20.327 2.52888 21.5978 3.46622 22.5351C4.40356 23.4725 5.67441 23.9998 7 24.0014H17C18.3256 23.9998 19.5964 23.4725 20.5338 22.5351C21.4711 21.5978 21.9984 20.327 22 19.0014V13.0014C21.9984 11.6758 21.4711 10.4049 20.5338 9.46758C19.5964 8.53024 18.3256 8.00295 17 8.00136ZM20 19.0014C20 19.797 19.6839 20.5601 19.1213 21.1227C18.5587 21.6853 17.7956 22.0014 17 22.0014H7C6.20435 22.0014 5.44129 21.6853 4.87868 21.1227C4.31607 20.5601 4 19.797 4 19.0014V13.0014C4 12.2057 4.31607 11.4426 4.87868 10.88C5.44129 10.3174 6.20435 10.0014 7 10.0014H17C17.7956 10.0014 18.5587 10.3174 19.1213 10.88C19.6839 11.4426 20 12.2057 20 13.0014V19.0014Z" fill="#202020"/>
<path d="M12 14.001C11.7348 14.001 11.4804 14.1063 11.2929 14.2939C11.1054 14.4814 11 14.7358 11 15.001V17.001C11 17.2662 11.1054 17.5205 11.2929 17.7081C11.4804 17.8956 11.7348 18.001 12 18.001C12.2652 18.001 12.5196 17.8956 12.7071 17.7081C12.8947 17.5205 13 17.2662 13 17.001V15.001C13 14.7358 12.8947 14.4814 12.7071 14.2939C12.5196 14.1063 12.2652 14.001 12 14.001Z" fill="#202020"/>
</g>
<defs>
<clipPath id="clip0_2_7509">
<rect width="24" height="24" fill="white"/>
</clipPath>
</defs>
</svg>
