<svg width="24" height="24" viewBox="0 0 24 24" fill="none" xmlns="http://www.w3.org/2000/svg">
<g clip-path="url(#clip0_2_6870)">
<path d="M22.1396 17.7774L13.5926 5.53339C14.997 4.65415 15.4226 2.80297 14.5434 1.39864C13.6642 -0.00568894 11.813 -0.431361 10.4087 0.447921C9.00433 1.3272 8.57866 3.17834 9.45794 4.58267C9.69883 4.96742 10.0239 5.2925 10.4087 5.53339L1.86161 17.7774C0.931473 18.9954 0.753911 20.6289 1.4006 22.0184C2.16325 23.3357 3.60907 24.1042 5.12763 23.9994H18.8736C20.3922 24.1042 21.838 23.3357 22.6006 22.0184C23.2473 20.6289 23.0697 18.9954 22.1396 17.7774ZM11.7316 21.9994L17.1896 14.1804L18.6006 16.2074L14.5616 21.9994H11.7316V21.9994ZM6.53965 21.9994L14.5937 10.4614L15.9697 12.4333L9.29261 21.9994H6.53965ZM3.17065 21.0934C2.87407 20.3636 3.00072 19.5301 3.50065 18.9214L12.0006 6.74637L13.3816 8.72436C13.3676 8.74236 13.3476 8.75136 13.3346 8.76936L4.20063 21.8584C3.76755 21.7541 3.39565 21.4778 3.17065 21.0934ZM20.8306 21.0934C20.402 21.7411 19.6448 22.0917 18.8736 21.9994H17.0006L19.8227 17.9554L20.4977 18.9214C20.9986 19.5295 21.1264 20.3631 20.8306 21.0934Z" fill="#202020"/>
</g>
<defs>
<clipPath id="clip0_2_6870">
<rect width="24" height="24" fill="white"/>
</clipPath>
</defs>
</svg>
