<svg width="24" height="24" viewBox="0 0 24 24" fill="none" xmlns="http://www.w3.org/2000/svg">
<g clip-path="url(#clip0_2_7502)">
<path d="M12 20C14.121 19.9976 16.1544 19.154 17.6542 17.6542C19.154 16.1544 19.9976 14.121 20 12V1C20 0.734784 19.8946 0.48043 19.7071 0.292893C19.5196 0.105357 19.2652 0 19 0C18.7348 0 18.4804 0.105357 18.2929 0.292893C18.1054 0.48043 18 0.734784 18 1V12C18 13.5913 17.3679 15.1174 16.2426 16.2426C15.1174 17.3679 13.5913 18 12 18C10.4087 18 8.88258 17.3679 7.75736 16.2426C6.63214 15.1174 6 13.5913 6 12V1C6 0.734784 5.89464 0.48043 5.70711 0.292893C5.51957 0.105357 5.26522 0 5 0C4.73478 0 4.48043 0.105357 4.29289 0.292893C4.10536 0.48043 4 0.734784 4 1V12C4.00238 14.121 4.846 16.1544 6.34578 17.6542C7.84555 19.154 9.879 19.9976 12 20Z" fill="#202020"/>
<path d="M23 21.999H1C0.734784 21.999 0.48043 22.1044 0.292893 22.2919C0.105357 22.4794 0 22.7338 0 22.999C0 23.2642 0.105357 23.5186 0.292893 23.7061C0.48043 23.8936 0.734784 23.999 1 23.999H23C23.2652 23.999 23.5196 23.8936 23.7071 23.7061C23.8946 23.5186 24 23.2642 24 22.999C24 22.7338 23.8946 22.4794 23.7071 22.2919C23.5196 22.1044 23.2652 21.999 23 21.999Z" fill="#202020"/>
</g>
<defs>
<clipPath id="clip0_2_7502">
<rect width="24" height="24" fill="white"/>
</clipPath>
</defs>
</svg>
