<svg width="24" height="24" viewBox="0 0 24 24" fill="none" xmlns="http://www.w3.org/2000/svg">
<g clip-path="url(#clip0_2_7230)">
<path d="M22.0991 1.90083C18.6631 -1.53017 9.37114 -0.0661712 4.65114 4.65283C-0.0688615 9.37183 -1.53186 18.6648 1.89914 22.1008C3.50573 23.4502 5.57294 24.1241 7.66614 23.9808C12.0002 23.9425 16.1646 22.2912 19.3471 19.3488C24.0651 14.6298 25.5301 5.33683 22.0991 1.90083ZM16.3321 2.00083C17.8962 1.87548 19.4499 2.34471 20.6831 3.31483C21.6991 4.33183 22.1101 6.30083 21.9581 8.54583L15.4581 2.04583C15.7531 2.02683 16.0491 2.00083 16.3321 2.00083ZM3.31514 20.6848C2.29914 19.6698 1.88814 17.7008 2.04014 15.4558L8.54014 21.9558C6.29914 22.1108 4.33014 21.7008 3.31514 20.6848ZM17.9331 17.9348C15.9973 19.7588 13.6024 21.0228 11.0041 21.5918L2.40414 12.9918C2.97444 10.3944 4.23986 8.00079 6.06514 6.06683C8.00416 4.24341 10.4035 2.98291 13.0051 2.42083L21.5911 11.0068C21.0222 13.605 19.7578 15.9997 17.9331 17.9348ZM17.7061 11.7078C17.5186 11.8953 17.2643 12.0006 16.9991 12.0006C16.734 12.0006 16.4797 11.8953 16.2921 11.7078L14.9991 10.4148L13.4131 12.0008L14.7061 13.2938C14.8016 13.3861 14.8778 13.4964 14.9302 13.6184C14.9826 13.7404 15.0102 13.8717 15.0114 14.0044C15.0125 14.1372 14.9872 14.2689 14.937 14.3918C14.8867 14.5147 14.8124 14.6263 14.7185 14.7202C14.6246 14.8141 14.513 14.8884 14.3901 14.9387C14.2672 14.9889 14.1355 15.0142 14.0027 15.0131C13.87 15.0119 13.7387 14.9843 13.6167 14.9319C13.4947 14.8795 13.3844 14.8033 13.2921 14.7078L11.9991 13.4148L10.4131 15.0008L11.7061 16.2938C11.8016 16.3861 11.8778 16.4964 11.9302 16.6184C11.9826 16.7404 12.0102 16.8716 12.0114 17.0044C12.0125 17.1372 11.9872 17.2689 11.937 17.3918C11.8867 17.5147 11.8124 17.6263 11.7185 17.7202C11.6246 17.8141 11.513 17.8884 11.3901 17.9387C11.2672 17.9889 11.1355 18.0142 11.0027 18.0131C10.87 18.0119 10.7387 17.9843 10.6167 17.9319C10.4947 17.8795 10.3844 17.8033 10.2921 17.7078L6.29214 13.7078C6.10998 13.5192 6.00919 13.2666 6.01146 13.0044C6.01374 12.7422 6.11891 12.4914 6.30432 12.306C6.48973 12.1206 6.74054 12.0154 7.00274 12.0132C7.26493 12.0109 7.51754 12.1117 7.70614 12.2938L8.99914 13.5868L10.5851 12.0008L9.29214 10.7078C9.10998 10.5192 9.00919 10.2666 9.01146 10.0044C9.01374 9.74223 9.11891 9.49142 9.30432 9.30601C9.48973 9.1206 9.74054 9.01543 10.0027 9.01316C10.2649 9.01088 10.5175 9.11167 10.7061 9.29383L11.9991 10.5868L13.5851 9.00083L12.2921 7.70783C12.11 7.51923 12.0092 7.26662 12.0115 7.00443C12.0137 6.74223 12.1189 6.49142 12.3043 6.30601C12.4897 6.1206 12.7405 6.01543 13.0027 6.01315C13.2649 6.01088 13.5175 6.11167 13.7061 6.29383L17.7061 10.2938C17.8936 10.4814 17.9989 10.7357 17.9989 11.0008C17.9989 11.266 17.8936 11.5203 17.7061 11.7078Z" fill="#202020"/>
</g>
<defs>
<clipPath id="clip0_2_7230">
<rect width="24" height="24" fill="white"/>
</clipPath>
</defs>
</svg>
