<svg width="24" height="24" viewBox="0 0 24 24" fill="none" xmlns="http://www.w3.org/2000/svg">
<g clip-path="url(#clip0_2_7074)">
<path d="M19.9994 8C18.9385 8 17.9211 7.57857 17.1709 6.82843C16.4208 6.07828 15.9994 5.06087 15.9994 4C15.9994 2.93913 16.4208 1.92172 17.1709 1.17157C17.9211 0.421427 18.9385 0 19.9994 0C21.0602 0 22.0776 0.421427 22.8278 1.17157C23.5779 1.92172 23.9994 2.93913 23.9994 4C23.9994 5.06087 23.5779 6.07828 22.8278 6.82843C22.0776 7.57857 21.0602 8 19.9994 8ZM19.9994 2C19.4689 2 18.9602 2.21071 18.5851 2.58579C18.2101 2.96086 17.9994 3.46957 17.9994 4C17.9994 4.53043 18.2101 5.03914 18.5851 5.41421C18.9602 5.78929 19.4689 6 19.9994 6C20.5298 6 21.0385 5.78929 21.4136 5.41421C21.7886 5.03914 21.9994 4.53043 21.9994 4C21.9994 3.46957 21.7886 2.96086 21.4136 2.58579C21.0385 2.21071 20.5298 2 19.9994 2ZM21.4514 24H12.5884C12.14 24.004 11.6986 23.8895 11.3086 23.6683C10.9187 23.4471 10.594 23.1269 10.3674 22.74C10.1453 22.3672 10.0256 21.9423 10.0205 21.5084C10.0154 21.0745 10.1251 20.6469 10.3384 20.269L14.7744 12.31C15.0028 11.9155 15.3309 11.588 15.7258 11.3604C16.1207 11.1327 16.5685 11.0129 17.0244 11.0129C17.4802 11.0129 17.928 11.1327 18.3229 11.3604C18.7178 11.588 19.0459 11.9155 19.2744 12.31L23.6994 20.263C23.913 20.6415 24.023 21.0697 24.0181 21.5043C24.0131 21.9389 23.8935 22.3645 23.6714 22.738C23.4448 23.1249 23.1204 23.4452 22.7306 23.6668C22.3409 23.8883 21.8997 24.0033 21.4514 24ZM17.0224 13C16.9212 12.9976 16.8213 13.0227 16.7333 13.0725C16.6453 13.1223 16.5724 13.1951 16.5224 13.283L12.0864 21.242C12.0435 21.3159 12.0214 21.3999 12.0225 21.4853C12.0235 21.5707 12.0477 21.6542 12.0924 21.727C12.1436 21.8131 12.217 21.8839 12.305 21.932C12.3929 21.98 12.4922 22.0035 12.5924 22H21.4554C21.5557 22.003 21.6549 21.979 21.7429 21.9307C21.8308 21.8823 21.9042 21.8113 21.9554 21.725C21.9993 21.651 22.0225 21.5665 22.0225 21.4805C22.0225 21.3945 21.9993 21.31 21.9554 21.236L17.5234 13.284C17.4736 13.1956 17.4006 13.1224 17.3123 13.0724C17.224 13.0223 17.1238 12.9973 17.0224 13ZM7.99935 23C7.99935 22.7348 7.89399 22.4804 7.70646 22.2929C7.51892 22.1054 7.26457 22 6.99935 22H3.34935C3.11549 21.9999 2.88568 21.9389 2.68247 21.8232C2.47926 21.7074 2.30963 21.5408 2.19023 21.3397C2.07083 21.1387 2.00576 20.91 2.0014 20.6762C1.99703 20.4423 2.05353 20.2114 2.16535 20.006L8.81735 7.706C8.93112 7.49161 9.10143 7.31246 9.3098 7.18801C9.51817 7.06355 9.75665 6.99853 9.99935 7C10.2423 6.99801 10.4811 7.06281 10.6897 7.18731C10.8984 7.31181 11.0688 7.49124 11.1824 7.706L12.4094 9.973C12.4719 10.0886 12.5565 10.1907 12.6585 10.2735C12.7605 10.3564 12.8778 10.4183 13.0037 10.4558C13.1296 10.4934 13.2617 10.5057 13.3924 10.4922C13.523 10.4786 13.6498 10.4395 13.7654 10.377C13.8809 10.3145 13.983 10.2298 14.0659 10.1279C14.1487 10.0259 14.2107 9.90859 14.2482 9.78267C14.2857 9.65675 14.2981 9.52468 14.2845 9.39399C14.271 9.26331 14.2319 9.13656 14.1694 9.021L12.9434 6.755C12.6568 6.22424 12.232 5.78088 11.714 5.47187C11.196 5.16286 10.604 4.99972 10.0009 4.99972C9.39768 4.99972 8.80573 5.16286 8.28772 5.47187C7.76971 5.78088 7.34492 6.22424 7.05835 6.755L0.405351 19.055C0.129455 19.5652 -0.00929733 20.1382 0.00266621 20.7181C0.0146297 21.298 0.176899 21.8649 0.473603 22.3632C0.770307 22.8616 1.19128 23.2744 1.69536 23.5613C2.19944 23.8482 2.76935 23.9994 3.34935 24H6.99935C7.26457 24 7.51892 23.8946 7.70646 23.7071C7.89399 23.5196 7.99935 23.2652 7.99935 23Z" fill="#202020"/>
</g>
<defs>
<clipPath id="clip0_2_7074">
<rect width="24" height="24" fill="white"/>
</clipPath>
</defs>
</svg>
