<svg width="24" height="24" viewBox="0 0 24 24" fill="none" xmlns="http://www.w3.org/2000/svg">
<g clip-path="url(#clip0_2_7248)">
<path d="M23.7188 22.3L17.7584 16.3396C21.2548 12.0633 20.6227 5.76229 16.3464 2.26588C12.0702 -1.23052 5.76917 -0.598462 2.27272 3.6778C-1.22374 7.95407 -0.591579 14.2551 3.68469 17.7516C7.36803 20.7632 12.6631 20.7632 16.3465 17.7516L22.3069 23.7119C22.7036 24.0951 23.3357 24.0841 23.7188 23.6874C24.0925 23.3004 24.0925 22.6869 23.7188 22.3ZM2.04303 10.0247C2.04303 5.61276 5.61959 2.03619 10.0315 2.03619C14.4434 2.03619 18.02 5.61276 18.02 10.0247C18.02 14.4366 14.4434 18.0132 10.0315 18.0132C5.62165 18.0082 2.048 14.4345 2.04303 10.0247ZM12.0287 6.03041C11.2827 6.03379 10.567 6.32577 10.0316 6.84524C9.49616 6.32582 8.78042 6.03379 8.03445 6.03041C6.32666 6.08957 4.98772 7.51776 5.03876 9.22579C5.03876 11.2229 7.07684 13.283 8.78736 14.6579C9.51547 15.2378 10.5477 15.2378 11.2758 14.6579C12.9863 13.2829 15.0244 11.2229 15.0244 9.22579C15.0754 7.51776 13.7365 6.08957 12.0287 6.03041ZM10.0375 13.1002C8.18619 11.6124 7.03583 10.1245 7.03583 9.22583C6.986 8.62087 7.43033 8.08762 8.0344 8.02757C8.63844 8.08762 9.08281 8.62087 9.03298 9.22583C9.03298 9.77732 9.48003 10.2244 10.0316 10.2244C10.583 10.2244 11.0301 9.77737 11.0301 9.22583C10.9803 8.62087 11.4246 8.08762 12.0287 8.02757C12.6327 8.08762 13.0771 8.62087 13.0273 9.22583C13.0272 10.1245 11.8769 11.6124 10.0375 13.1002Z" fill="#202020"/>
</g>
<defs>
<clipPath id="clip0_2_7248">
<rect width="24" height="24" fill="white"/>
</clipPath>
</defs>
</svg>
