<svg width="24" height="24" viewBox="0 0 24 24" fill="none" xmlns="http://www.w3.org/2000/svg">
<g clip-path="url(#clip0_2_6789)">
<path d="M11.9991 16.001C10.9382 16.001 9.92083 15.5795 9.17068 14.8294C8.42054 14.0792 7.99911 13.0618 7.99911 12.001C7.99911 10.9401 8.42054 9.92267 9.17068 9.17252C9.92083 8.42238 10.9382 8.00095 11.9991 8.00095C13.06 8.00095 14.0774 8.42238 14.8275 9.17252C15.5777 9.92267 15.9991 10.9401 15.9991 12.001C15.9991 13.0618 15.5777 14.0792 14.8275 14.8294C14.0774 15.5795 13.06 16.001 11.9991 16.001ZM11.9991 10.001C11.4687 10.001 10.96 10.2117 10.5849 10.5867C10.2098 10.9618 9.99911 11.4705 9.99911 12.001C9.99911 12.5314 10.2098 13.0401 10.5849 13.4152C10.96 13.7902 11.4687 14.001 11.9991 14.001C12.5295 14.001 13.0383 13.7902 13.4133 13.4152C13.7884 13.0401 13.9991 12.5314 13.9991 12.001C13.9991 11.4705 13.7884 10.9618 13.4133 10.5867C13.0383 10.2117 12.5295 10.001 11.9991 10.001ZM11.9991 24.001C10.9083 23.9998 9.84764 23.6425 8.97852 22.9833C8.10939 22.3241 7.47932 21.3991 7.18411 20.349C6.12878 20.582 5.02661 20.472 4.03817 20.0349C3.04973 19.5979 2.22665 18.8567 1.68885 17.9192C1.15105 16.9818 0.926623 15.8971 1.04826 14.8232C1.1699 13.7493 1.63126 12.7424 2.36511 11.949C-1.03489 8.43795 2.37411 2.34895 7.19911 3.59995C7.51034 2.56911 8.14516 1.66585 9.00964 1.02383C9.87411 0.381814 10.9223 0.0351562 11.9991 0.0351562C13.0759 0.0351562 14.1241 0.381814 14.9886 1.02383C15.8531 1.66585 16.4879 2.56911 16.7991 3.59995C21.6991 2.38395 24.9991 8.41295 21.6281 11.992C25.0361 15.53 21.6391 21.434 16.8141 20.349C16.5189 21.3991 15.8888 22.3241 15.0197 22.9833C14.1506 23.6425 13.0899 23.9998 11.9991 24.001ZM7.99911 18.001C8.26433 18.001 8.51868 18.1063 8.70622 18.2938C8.89375 18.4814 8.99911 18.7357 8.99911 19.001C8.99911 19.7966 9.31518 20.5597 9.87779 21.1223C10.4404 21.6849 11.2035 22.001 11.9991 22.001C12.7948 22.001 13.5578 21.6849 14.1204 21.1223C14.683 20.5597 14.9991 19.7966 14.9991 19.001C14.999 18.8248 15.0455 18.6517 15.1338 18.4993C15.2221 18.3468 15.3491 18.2204 15.5019 18.1328C15.6548 18.0453 15.828 17.9996 16.0042 18.0005C16.1804 18.0014 16.3532 18.0488 16.5051 18.138C19.9711 19.813 22.9051 14.956 19.5211 12.879C19.365 12.7916 19.2349 12.6642 19.1444 12.5099C19.0539 12.3555 19.0062 12.1799 19.0062 12.001C19.0062 11.822 19.0539 11.6464 19.1444 11.492C19.2349 11.3377 19.365 11.2103 19.5211 11.123C22.8341 9.11395 20.0431 3.90395 16.5021 5.86895C16.3499 5.95755 16.1769 6.00437 16.0008 6.00467C15.8246 6.00496 15.6515 5.95873 15.499 5.87063C15.3465 5.78254 15.2199 5.65572 15.1321 5.50301C15.0443 5.35029 14.9985 5.1771 14.9991 5.00095C14.9991 4.2053 14.683 3.44224 14.1204 2.87963C13.5578 2.31702 12.7948 2.00095 11.9991 2.00095C11.2035 2.00095 10.4404 2.31702 9.87779 2.87963C9.31518 3.44224 8.99911 4.2053 8.99911 5.00095C8.99946 5.17666 8.95351 5.34935 8.86588 5.50164C8.77825 5.65394 8.65205 5.78046 8.49997 5.86846C8.34789 5.95646 8.17531 6.00284 7.99961 6.00293C7.8239 6.00301 7.65128 5.9568 7.49911 5.86895C3.99911 3.90895 1.13711 9.08095 4.47711 11.071C4.63324 11.1584 4.76323 11.2859 4.85371 11.4403C4.94419 11.5948 4.99188 11.7705 4.99188 11.9495C4.99188 12.1284 4.94419 12.3041 4.85371 12.4586C4.76323 12.613 4.63324 12.7405 4.47711 12.828C1.12911 14.941 3.96311 19.801 7.49311 18.138C7.6466 18.0481 7.82126 18.0008 7.99911 18.001Z" fill="#202020"/>
</g>
<defs>
<clipPath id="clip0_2_6789">
<rect width="24" height="24" fill="white"/>
</clipPath>
</defs>
</svg>
