<svg width="24" height="24" viewBox="0 0 24 24" fill="none" xmlns="http://www.w3.org/2000/svg">
<g clip-path="url(#clip0_2_6916)">
<path d="M23.7076 22.2918L22.6306 21.2148L20.9006 19.4878L23.6896 16.6988C23.8083 16.5799 23.8952 16.433 23.9421 16.2716C23.989 16.1103 23.9946 15.9398 23.9582 15.7757C23.9218 15.6117 23.8447 15.4595 23.734 15.3331C23.6232 15.2068 23.4824 15.1103 23.3246 15.0528L14.3556 11.7988C13.9983 11.6696 13.6117 11.6449 13.2409 11.7275C12.8701 11.8101 12.5305 11.9966 12.2618 12.2652C11.9932 12.5338 11.8066 12.8733 11.7238 13.244C11.6411 13.6148 11.6656 14.0015 11.7946 14.3588L15.0576 23.3278C15.1149 23.4858 15.2111 23.6268 15.3373 23.7377C15.4635 23.8487 15.6156 23.9261 15.7796 23.9628C15.8509 23.9783 15.9236 23.986 15.9966 23.9858C16.2618 23.9857 16.5161 23.8803 16.7036 23.6928L19.4896 20.8988L21.2166 22.6258L22.2936 23.7028C22.4822 23.8849 22.7348 23.9857 22.997 23.9834C23.2592 23.9812 23.51 23.876 23.6954 23.6906C23.8808 23.5052 23.986 23.2544 23.9883 22.9922C23.9906 22.73 23.8898 22.4774 23.7076 22.2888V22.2918ZM16.4006 21.1638L13.6766 13.6738L21.1666 16.3978L16.4006 21.1638Z" fill="#202020"/>
<path d="M10 20C8.02219 20 6.08879 19.4135 4.4443 18.3147C2.79981 17.2159 1.51809 15.6541 0.761209 13.8268C0.00433284 11.9996 -0.193701 9.98891 0.192152 8.0491C0.578004 6.10929 1.53041 4.32746 2.92894 2.92894C4.32746 1.53041 6.10929 0.578004 8.0491 0.192152C9.98891 -0.193701 11.9996 0.00433284 13.8268 0.761209C15.6541 1.51809 17.2159 2.79981 18.3147 4.4443C19.4135 6.08879 20 8.02219 20 10C20 10.2652 19.8946 10.5196 19.7071 10.7071C19.5196 10.8946 19.2652 11 19 11C18.7348 11 18.4804 10.8946 18.2929 10.7071C18.1054 10.5196 18 10.2652 18 10C18 8.41775 17.5308 6.87104 16.6518 5.55544C15.7727 4.23985 14.5233 3.21447 13.0615 2.60897C11.5997 2.00347 9.99113 1.84504 8.43928 2.15372C6.88743 2.4624 5.46197 3.22433 4.34315 4.34315C3.22433 5.46197 2.4624 6.88743 2.15372 8.43928C1.84504 9.99113 2.00347 11.5997 2.60897 13.0615C3.21447 14.5233 4.23985 15.7727 5.55544 16.6518C6.87104 17.5308 8.41775 18 10 18C10.2652 18 10.5196 18.1054 10.7071 18.2929C10.8946 18.4804 11 18.7348 11 19C11 19.2652 10.8946 19.5196 10.7071 19.7071C10.5196 19.8946 10.2652 20 10 20Z" fill="#202020"/>
<path d="M8.08355 15.621C7.95213 15.621 7.82198 15.5952 7.70055 15.545C6.7894 15.1665 5.98563 14.5693 5.36043 13.806C4.73523 13.0428 4.30788 12.1372 4.11624 11.1694C3.92459 10.2016 3.97456 9.20141 4.26173 8.25752C4.5489 7.31363 5.06439 6.45512 5.76256 5.75802C6.46073 5.06092 7.32003 4.54674 8.26436 4.26102C9.20869 3.9753 10.2089 3.92685 11.1764 4.11998C12.144 4.3131 13.0489 4.74184 13.8112 5.36821C14.5735 5.99458 15.1695 6.79926 15.5465 7.71098C15.5994 7.83279 15.6275 7.9639 15.6291 8.09667C15.6307 8.22944 15.6059 8.36121 15.5561 8.48428C15.5062 8.60735 15.4324 8.71927 15.3388 8.8135C15.2453 8.90773 15.1339 8.98239 15.0112 9.03312C14.8885 9.08385 14.7569 9.10963 14.6242 9.10897C14.4914 9.1083 14.3601 9.0812 14.2379 9.02925C14.1157 8.97729 14.0051 8.90152 13.9125 8.80636C13.8199 8.7112 13.7471 8.59854 13.6985 8.47498C13.4466 7.86771 13.0489 7.33191 12.5405 6.91498C12.0322 6.49805 11.4289 6.21285 10.7841 6.08462C10.1393 5.95638 9.47277 5.98906 8.84359 6.17978C8.2144 6.37049 7.64193 6.71334 7.17681 7.17801C6.7117 7.64268 6.3683 8.21482 6.17699 8.84382C5.98567 9.47282 5.95235 10.1393 6.07997 10.7842C6.20759 11.4292 6.49221 12.0327 6.90866 12.5415C7.3251 13.0502 7.86052 13.4485 8.46755 13.701C8.68147 13.7895 8.85805 13.9495 8.96716 14.1537C9.07626 14.3579 9.11113 14.5937 9.06582 14.8207C9.0205 15.0477 8.89781 15.252 8.71868 15.3987C8.53954 15.5454 8.31507 15.6253 8.08355 15.625V15.621Z" fill="#202020"/>
</g>
<defs>
<clipPath id="clip0_2_6916">
<rect width="24" height="24" fill="white"/>
</clipPath>
</defs>
</svg>
