<svg width="24" height="24" viewBox="0 0 24 24" fill="none" xmlns="http://www.w3.org/2000/svg">
<path d="M16.0394 4.00098C15.3836 4.00255 14.7463 4.21832 14.2244 4.61545C13.7026 5.01258 13.3247 5.56933 13.1484 6.20098L9.09943 20.769C9.00262 21.1202 8.79414 21.4303 8.5055 21.6526C8.21685 21.8749 7.86371 21.9971 7.49943 22.001C7.14314 21.9963 6.7968 21.8827 6.50689 21.6755C6.21697 21.4684 5.99733 21.1775 5.87743 20.842L3.08443 13.162C2.90241 12.6387 2.59741 12.1668 2.19509 11.7858C1.79277 11.4049 1.30488 11.1262 0.772437 10.973C0.514647 10.9105 0.292227 10.7482 0.154106 10.5218C0.0159858 10.2953 -0.0265206 10.0233 0.0359378 9.76548C0.0983962 9.50769 0.260703 9.28527 0.487153 9.14715C0.713603 9.00902 0.985646 8.96652 1.24344 9.02898C2.09756 9.25788 2.88292 9.69176 3.53136 10.293C4.1798 10.8942 4.67172 11.6446 4.96443 12.479L7.43843 19.279L11.2224 5.66298C11.5171 4.61132 12.147 3.6846 13.0164 3.02364C13.8858 2.36268 14.9473 2.0036 16.0394 2.00098H22.9994C23.2646 2.00098 23.519 2.10633 23.7065 2.29387C23.8941 2.48141 23.9994 2.73576 23.9994 3.00098C23.9994 3.26619 23.8941 3.52055 23.7065 3.70808C23.519 3.89562 23.2646 4.00098 22.9994 4.00098H16.0394ZM23.5994 12.201C23.3872 12.0418 23.1205 11.9735 22.858 12.011C22.5954 12.0485 22.3585 12.1888 22.1994 12.401L19.9994 15.334L17.7994 12.401C17.6403 12.1888 17.4034 12.0485 17.1408 12.011C16.8783 11.9735 16.6116 12.0418 16.3994 12.201C16.1872 12.3601 16.047 12.597 16.0095 12.8596C15.972 13.1221 16.0403 13.3888 16.1994 13.601L18.7494 17.001L16.1994 20.401C16.1206 20.506 16.0633 20.6256 16.0307 20.7528C15.9981 20.88 15.9909 21.0124 16.0095 21.1424C16.028 21.2724 16.072 21.3975 16.1389 21.5105C16.2059 21.6235 16.2944 21.7222 16.3994 21.801C16.5045 21.8798 16.624 21.9371 16.7512 21.9697C16.8785 22.0023 17.0108 22.0095 17.1408 21.9909C17.2708 21.9724 17.3959 21.9284 17.5089 21.8615C17.6219 21.7945 17.7206 21.706 17.7994 21.601L19.9994 18.668L22.1994 21.601C22.2782 21.706 22.3769 21.7945 22.4899 21.8615C22.6029 21.9284 22.728 21.9724 22.858 21.9909C22.988 22.0095 23.1204 22.0023 23.2476 21.9697C23.3748 21.9371 23.4944 21.8798 23.5994 21.801C23.7045 21.7222 23.793 21.6235 23.8599 21.5105C23.9268 21.3975 23.9708 21.2724 23.9894 21.1424C24.0079 21.0124 24.0007 20.88 23.9681 20.7528C23.9355 20.6256 23.8782 20.506 23.7994 20.401L21.2494 17.001L23.7994 13.601C23.8782 13.4959 23.9355 13.3764 23.9681 13.2492C24.0007 13.1219 24.0079 12.9896 23.9894 12.8596C23.9708 12.7296 23.9268 12.6045 23.8599 12.4915C23.793 12.3785 23.7045 12.2798 23.5994 12.201Z" fill="#202020"/>
</svg>
