<svg width="24" height="24" viewBox="0 0 24 24" fill="none" xmlns="http://www.w3.org/2000/svg">
<g clip-path="url(#clip0_2_7357)">
<path d="M21.7707 8.94875C21.6075 8.8904 21.4584 8.79845 21.333 8.67884C21.2076 8.55923 21.1087 8.41463 21.0427 8.25438C20.9767 8.09414 20.9451 7.92182 20.9499 7.74859C20.9548 7.57536 20.9959 7.40508 21.0707 7.24875C21.3577 6.6448 21.4507 5.96684 21.337 5.30791C21.2234 4.64898 20.9085 4.04138 20.4358 3.56851C19.963 3.09563 19.3555 2.78067 18.6966 2.66684C18.0377 2.55301 17.3597 2.64589 16.7557 2.93275C16.5993 3.00737 16.4291 3.04838 16.2559 3.05312C16.0827 3.05786 15.9104 3.02622 15.7502 2.96026C15.59 2.89429 15.4455 2.79546 15.3258 2.67015C15.2062 2.54484 15.1142 2.39583 15.0557 2.23275C14.8309 1.60383 14.4171 1.05978 13.8711 0.675117C13.3251 0.290454 12.6736 0.0839844 12.0057 0.0839844C11.3378 0.0839844 10.6862 0.290454 10.1402 0.675117C9.59423 1.05978 9.1805 1.60383 8.95568 2.23275C8.89734 2.39593 8.80539 2.54504 8.68578 2.67044C8.56617 2.79584 8.42156 2.89473 8.26132 2.96071C8.10108 3.0267 7.92876 3.0583 7.75553 3.05348C7.5823 3.04867 7.41201 3.00753 7.25568 2.93275C6.65136 2.64362 5.97225 2.54899 5.3119 2.6619C4.65156 2.77481 4.04247 3.0897 3.56854 3.56319C3.09461 4.03668 2.77916 4.64548 2.66564 5.30572C2.55212 5.96596 2.64612 6.64515 2.93468 7.24975C3.00963 7.40605 3.05089 7.57636 3.05579 7.74964C3.06069 7.92291 3.02911 8.09528 2.96311 8.25557C2.89711 8.41586 2.79816 8.56048 2.67267 8.68007C2.54718 8.79966 2.39796 8.89154 2.23468 8.94975C1.60621 9.17501 1.06267 9.58892 0.678401 10.1349C0.29413 10.6808 0.0878906 11.3321 0.0878906 11.9997C0.0878906 12.6674 0.29413 13.3187 0.678401 13.8646C1.06267 14.4106 1.60621 14.8245 2.23468 15.0497C2.3983 15.1076 2.54794 15.1991 2.67388 15.3185C2.79983 15.4379 2.89926 15.5825 2.96574 15.7428C3.03222 15.9031 3.06425 16.0755 3.05976 16.249C3.05527 16.4225 3.01436 16.5931 2.93968 16.7497C2.65252 17.3533 2.55918 18.031 2.67247 18.6897C2.78575 19.3484 3.10012 19.9559 3.57241 20.4289C4.04471 20.9019 4.65181 21.2171 5.31037 21.3313C5.96894 21.4455 6.64672 21.3531 7.25068 21.0667C7.40701 20.992 7.5773 20.9508 7.75053 20.946C7.92376 20.9412 8.09608 20.9728 8.25632 21.0388C8.41656 21.1048 8.56117 21.2037 8.68078 21.3291C8.80039 21.4545 8.89234 21.6036 8.95068 21.7667C9.1755 22.3957 9.58923 22.9397 10.1352 23.3244C10.6812 23.709 11.3328 23.9155 12.0007 23.9155C12.6686 23.9155 13.3201 23.709 13.8661 23.3244C14.4121 22.9397 14.8259 22.3957 15.0507 21.7667C15.109 21.6036 15.201 21.4545 15.3206 21.3291C15.4402 21.2037 15.5848 21.1048 15.7451 21.0388C15.9053 20.9728 16.0776 20.9412 16.2508 20.946C16.4241 20.9508 16.5944 20.992 16.7507 21.0667C17.3546 21.3537 18.0326 21.4468 18.6915 21.3331C19.3505 21.2194 19.9581 20.9046 20.4309 20.4318C20.9038 19.9591 21.2188 19.3516 21.3326 18.6926C21.4464 18.0337 21.3535 17.3558 21.0667 16.7517C20.9921 16.5954 20.9511 16.4251 20.9463 16.2519C20.9416 16.0788 20.9732 15.9065 21.0392 15.7463C21.1051 15.5861 21.204 15.4415 21.3293 15.3219C21.4546 15.2022 21.6036 15.1102 21.7667 15.0517C22.3956 14.8269 22.9397 14.4132 23.3243 13.8672C23.709 13.3212 23.9154 12.6696 23.9154 12.0017C23.9154 11.3339 23.709 10.6823 23.3243 10.1363C22.9397 9.59029 22.3956 9.17656 21.7667 8.95175L21.7707 8.94875ZM21.1007 13.1677C20.6737 13.3196 20.2834 13.5594 19.9549 13.8715C19.6264 14.1837 19.3671 14.5613 19.1937 14.9799C19.0203 15.3986 18.9366 15.8489 18.9482 16.3019C18.9597 16.7549 19.0662 17.2005 19.2607 17.6097C19.3708 17.8409 19.4065 18.1005 19.363 18.3528C19.3196 18.6051 19.199 18.8378 19.0179 19.0188C18.8368 19.1998 18.604 19.3202 18.3517 19.3635C18.0994 19.4069 17.8398 19.371 17.6087 19.2607C17.1995 19.0663 16.754 18.9598 16.3011 18.9483C15.8482 18.9367 15.3978 19.0204 14.9793 19.1938C14.5607 19.3672 14.1832 19.6266 13.8711 19.955C13.5591 20.2835 13.3194 20.6738 13.1677 21.1007C13.0823 21.342 12.9242 21.5508 12.7152 21.6985C12.5062 21.8462 12.2566 21.9255 12.0007 21.9255C11.7448 21.9255 11.4952 21.8462 11.2862 21.6985C11.0772 21.5508 10.9191 21.342 10.8337 21.1007C10.6817 20.6739 10.4419 20.2837 10.1297 19.9553C9.81752 19.6269 9.43994 19.3676 9.02133 19.1942C8.60273 19.0208 8.15241 18.9371 7.69945 18.9486C7.2465 18.9601 6.80099 19.0664 6.39168 19.2607C6.16055 19.3705 5.90112 19.406 5.64901 19.3623C5.3969 19.3187 5.16448 19.1981 4.98367 19.0171C4.80286 18.836 4.68253 18.6035 4.6392 18.3513C4.59587 18.0991 4.63167 17.8397 4.74168 17.6087C4.93616 17.1995 5.04257 16.7539 5.05403 16.301C5.0655 15.848 4.98176 15.3976 4.80824 14.9791C4.63472 14.5605 4.37527 14.183 4.04669 13.871C3.7181 13.559 3.32768 13.3194 2.90068 13.1677C2.6599 13.0819 2.45158 12.9236 2.30427 12.7147C2.15697 12.5058 2.0779 12.2564 2.0779 12.0007C2.0779 11.7451 2.15697 11.4957 2.30427 11.2868C2.45158 11.0779 2.6599 10.9196 2.90068 10.8337C3.32782 10.6822 3.71836 10.4425 4.04702 10.1304C4.37568 9.81834 4.63513 9.4407 4.80858 9.02196C4.98203 8.60323 5.06562 8.15273 5.05392 7.69964C5.04223 7.24656 4.93551 6.80097 4.74068 6.39175C4.63081 6.16068 4.59517 5.90127 4.63865 5.64913C4.68213 5.397 4.80261 5.1645 4.98352 4.98359C5.16444 4.80267 5.39693 4.6822 5.64907 4.63871C5.90121 4.59523 6.16062 4.63087 6.39168 4.74075C6.80096 4.93525 7.2465 5.04171 7.6995 5.05325C8.15249 5.06479 8.60287 4.98115 9.02152 4.80773C9.44017 4.63432 9.81777 4.37499 10.1299 4.0465C10.4421 3.71802 10.6818 3.32769 10.8337 2.90075C10.9191 2.65951 11.0772 2.45068 11.2862 2.30298C11.4952 2.15528 11.7448 2.07597 12.0007 2.07597C12.2566 2.07597 12.5062 2.15528 12.7152 2.30298C12.9242 2.45068 13.0823 2.65951 13.1677 2.90075C13.3195 3.32769 13.5593 3.71802 13.8714 4.0465C14.1836 4.37499 14.5612 4.63432 14.9798 4.80773C15.3985 4.98115 15.8489 5.06479 16.3019 5.05325C16.7549 5.04171 17.2004 4.93525 17.6097 4.74075C17.8409 4.63067 18.1004 4.59491 18.3528 4.63839C18.6051 4.68188 18.8377 4.80246 19.0187 4.98356C19.1997 5.16466 19.3202 5.39738 19.3635 5.64973C19.4068 5.90207 19.3709 6.16164 19.2607 6.39275C19.0662 6.80195 18.9597 7.24742 18.9482 7.70035C18.9367 8.15328 19.0203 8.60358 19.1937 9.02216C19.3672 9.44073 19.6265 9.81824 19.955 10.1303C20.2835 10.4424 20.6738 10.682 21.1007 10.8337C21.3419 10.9192 21.5508 11.0772 21.6985 11.2862C21.8462 11.4952 21.9255 11.7448 21.9255 12.0007C21.9255 12.2567 21.8462 12.5063 21.6985 12.7153C21.5508 12.9243 21.3419 13.0823 21.1007 13.1677Z" fill="#202020"/>
</g>
<defs>
<clipPath id="clip0_2_7357">
<rect width="24" height="24" fill="white"/>
</clipPath>
</defs>
</svg>
