<svg width="24" height="24" viewBox="0 0 24 24" fill="none" xmlns="http://www.w3.org/2000/svg">
<path d="M17.7928 7.21123C17.3484 5.30051 16.2175 3.61967 14.615 2.48821C13.0124 1.35675 11.05 0.853546 9.10075 1.07425C7.15149 1.29494 5.35127 2.22416 4.04227 3.68527C2.73327 5.14638 2.00676 7.03753 2.00082 8.99923C1.99995 10.2776 2.30876 11.5372 2.90082 12.6702C1.82194 13.2484 0.967215 14.1705 0.472434 15.29C-0.0223463 16.4096 -0.1288 17.6624 0.169987 18.8494C0.468774 20.0364 1.15566 21.0894 2.12152 21.8413C3.08738 22.5932 4.2768 23.0008 5.50082 22.9992H16.0008C17.9599 22.9901 19.8476 22.2625 21.3058 20.9543C22.7641 19.646 23.6917 17.8482 23.9126 15.9016C24.1336 13.9549 23.6326 11.9949 22.5046 10.3931C21.3766 8.79136 19.7 7.65916 17.7928 7.21123ZM16.0008 20.9992H5.50082C4.64924 21.0018 3.8261 20.693 3.18633 20.1309C2.54657 19.5689 2.1343 18.7924 2.02713 17.9476C1.91996 17.1028 2.12528 16.2479 2.60445 15.5439C3.08362 14.84 3.80358 14.3354 4.62882 14.1252C4.78753 14.0844 4.93377 14.0051 5.05466 13.8945C5.17556 13.7838 5.26741 13.6452 5.32213 13.4907C5.37685 13.3362 5.39276 13.1707 5.36847 13.0086C5.34418 12.8465 5.28042 12.6929 5.18282 12.5612C4.41397 11.533 3.99923 10.2831 4.00082 8.99923C4.01222 7.48521 4.5956 6.03149 5.63396 4.92958C6.67231 3.82768 8.08886 3.15908 9.59953 3.05786C11.1102 2.95664 12.6033 3.43029 13.7794 4.38383C14.9554 5.33736 15.7275 6.70027 15.9408 8.19923C15.9696 8.41688 16.0692 8.61902 16.2243 8.77445C16.3793 8.92987 16.5812 9.02995 16.7988 9.05923C18.2976 9.27247 19.6604 10.0444 20.614 11.2203C21.5675 12.3961 22.0413 13.889 21.9404 15.3995C21.8394 16.9101 21.1712 18.3266 20.0696 19.3651C18.9681 20.4036 17.5147 20.9873 16.0008 20.9992Z" fill="#202020"/>
</svg>
