<svg width="24" height="24" viewBox="0 0 24 24" fill="none" xmlns="http://www.w3.org/2000/svg">
<g clip-path="url(#clip0_2_6339)">
<path d="M17.2454 6.19228C18.2393 5.10403 18.8495 3.72013 18.9824 2.25227C19.0209 1.94959 18.9897 1.6421 18.8911 1.35335C18.7925 1.06459 18.6292 0.802217 18.4136 0.586316C18.1979 0.370415 17.9358 0.20671 17.6472 0.107731C17.3585 0.00875248 17.0511 -0.022875 16.7484 0.0152698C15.8379 0.0867716 14.9538 0.354802 14.1569 0.800895C13.36 1.24699 12.6693 1.86054 12.1324 2.59927C11.7924 1.74864 11.3117 0.961306 10.7104 0.27027C10.5238 0.0852988 10.2719 -0.0188025 10.0091 -0.0195274C9.74638 -0.0202523 9.49391 0.0824575 9.3063 0.266396C9.11868 0.450335 9.01099 0.700724 9.00651 0.963429C9.00204 1.22613 9.10113 1.48005 9.28237 1.67027C10.2737 2.9047 10.8538 4.41847 10.9414 5.99928H8.49937C6.18027 6.07015 3.98373 7.05701 2.39064 8.74381C0.797548 10.4306 -0.0622907 12.6799 -0.000631098 14.9993C-0.161631 20.5993 5.64337 25.7723 10.7494 23.3843C11.1393 23.1363 11.5926 23.0062 12.0547 23.0096C12.5168 23.013 12.9681 23.1497 13.3544 23.4033C14.0072 23.7807 14.7454 23.9858 15.4994 23.9993C25.7634 23.7153 27.0654 8.58128 17.2454 6.19228ZM14.2224 3.16727C14.9981 2.48897 15.9721 2.07931 16.9994 1.99927C16.9174 3.02443 16.5083 3.99615 15.8324 4.77128C15.056 5.44916 14.0819 5.85875 13.0544 5.93928C13.1356 4.91374 13.5452 3.94169 14.2224 3.16727ZM15.4994 21.9993C15.0587 21.9824 14.63 21.8511 14.2554 21.6183C13.5689 21.2218 12.792 21.0087 11.9994 20.9993C11.2489 21.0167 10.5145 21.2205 9.86237 21.5923C6.00437 23.2603 1.89937 19.1403 1.99937 14.9993C1.9377 13.2103 2.58684 11.4697 3.80487 10.158C5.0229 8.84624 6.71074 8.07012 8.49937 7.99928H15.4994C24.0994 8.32028 24.0994 21.6813 15.4994 21.9993Z" fill="#202020"/>
</g>
<defs>
<clipPath id="clip0_2_6339">
<rect width="24" height="24" fill="white"/>
</clipPath>
</defs>
</svg>
