<svg width="24" height="24" viewBox="0 0 24 24" fill="none" xmlns="http://www.w3.org/2000/svg">
<path d="M13.2907 18.5909L7.71071 13.0009C7.52446 12.8135 7.41992 12.5601 7.41992 12.2959C7.41992 12.0317 7.52446 11.7783 7.71071 11.5909L13.2907 6.00089C13.4306 5.85986 13.6093 5.76368 13.804 5.72461C13.9988 5.68554 14.2008 5.70536 14.3842 5.78152C14.5676 5.85769 14.7242 5.98676 14.834 6.15228C14.9438 6.3178 15.0019 6.51227 15.0007 6.71089V17.8809C15.0019 18.0795 14.9438 18.274 14.834 18.4395C14.7242 18.605 14.5676 18.7341 14.3842 18.8103C14.2008 18.8864 13.9988 18.9062 13.804 18.8672C13.6093 18.8281 13.4306 18.7319 13.2907 18.5909Z" fill="#202020"/>
</svg>
