<svg width="24" height="24" viewBox="0 0 24 24" fill="none" xmlns="http://www.w3.org/2000/svg">
<g clip-path="url(#clip0_2_7395)">
<path d="M22.9993 11C23.2645 11 23.5188 10.8946 23.7064 10.7071C23.8939 10.5196 23.9993 10.2652 23.9993 10C23.9993 9.73478 23.8939 9.48043 23.7064 9.29289C23.5188 9.10536 23.2645 9 22.9993 9H21.5993L20.8293 6.519C20.5481 5.60459 20.0088 4.7909 19.2761 4.17582C18.5434 3.56074 17.6485 3.17049 16.6993 3.052C16.3199 2.14915 15.6828 1.37814 14.8677 0.835324C14.0526 0.292507 13.0956 0.00196172 12.1163 0L11.8823 0C10.9029 0.00196172 9.94593 0.292507 9.13082 0.835324C8.3157 1.37814 7.67864 2.14915 7.29926 3.052C6.35046 3.17077 5.45616 3.56105 4.72385 4.17591C3.99155 4.79078 3.45242 5.60406 3.17126 6.518L2.39926 9H0.999263C0.734047 9 0.479693 9.10536 0.292157 9.29289C0.10462 9.48043 -0.000736734 9.73478 -0.000736734 10C-0.000736734 10.2652 0.10462 10.5196 0.292157 10.7071C0.479693 10.8946 0.734047 11 0.999263 11H1.78026L1.06526 13.3C0.656733 13.7368 0.352512 14.2606 0.175456 14.8318C-0.00159959 15.4031 -0.0468847 16.0071 0.0430033 16.5984C0.132891 17.1897 0.355615 17.7529 0.694439 18.2458C1.03326 18.7386 1.47938 19.1483 1.99926 19.444V21C1.99926 21.7956 2.31533 22.5587 2.87794 23.1213C3.44055 23.6839 4.20361 24 4.99926 24C5.79491 24 6.55798 23.6839 7.12058 23.1213C7.68319 22.5587 7.99926 21.7956 7.99926 21V20H15.9993V21C15.9993 21.7956 16.3153 22.5587 16.8779 23.1213C17.4406 23.6839 18.2036 24 18.9993 24C19.7949 24 20.558 23.6839 21.1206 23.1213C21.6832 22.5587 21.9993 21.7956 21.9993 21V19.444C22.5188 19.1483 22.9646 18.7387 23.3032 18.246C23.6418 17.7533 23.8644 17.1903 23.9543 16.5993C24.0442 16.0083 23.999 15.4045 23.8221 14.8335C23.6453 14.2624 23.3414 13.7388 22.9333 13.302L22.2183 11H22.9993ZM11.8823 2H12.1163C12.5367 2.00085 12.9523 2.09035 13.3359 2.26266C13.7194 2.43497 14.0624 2.68621 14.3423 3H9.65626C9.93604 2.68606 10.2789 2.43472 10.6625 2.2624C11.0461 2.09008 11.4618 2.00066 11.8823 2ZM5.08226 7.11C5.27018 6.49762 5.65005 5.96191 6.16576 5.58196C6.68148 5.20202 7.30571 4.99799 7.94626 5H16.0523C16.6931 4.99784 17.3177 5.20191 17.8336 5.58207C18.3495 5.96222 18.7295 6.49827 18.9173 7.111L20.4493 12.045C20.3003 12.0214 20.15 12.0064 19.9993 12H3.99926C3.84853 12.0064 3.69828 12.0214 3.54926 12.045L5.08226 7.11ZM5.99926 21C5.99926 21.2652 5.89391 21.5196 5.70637 21.7071C5.51883 21.8946 5.26448 22 4.99926 22C4.73405 22 4.47969 21.8946 4.29216 21.7071C4.10462 21.5196 3.99926 21.2652 3.99926 21V20H5.99926V21ZM19.9993 21C19.9993 21.2652 19.8939 21.5196 19.7064 21.7071C19.5188 21.8946 19.2645 22 18.9993 22C18.734 22 18.4797 21.8946 18.2922 21.7071C18.1046 21.5196 17.9993 21.2652 17.9993 21V20H19.9993V21ZM19.9993 18H3.99926C3.46883 18 2.96012 17.7893 2.58505 17.4142C2.20998 17.0391 1.99926 16.5304 1.99926 16C1.99926 15.4696 2.20998 14.9609 2.58505 14.5858C2.96012 14.2107 3.46883 14 3.99926 14V15C3.99926 15.2652 4.10462 15.5196 4.29216 15.7071C4.47969 15.8946 4.73405 16 4.99926 16C5.26448 16 5.51883 15.8946 5.70637 15.7071C5.89391 15.5196 5.99926 15.2652 5.99926 15V14H17.9993V15C17.9993 15.2652 18.1046 15.5196 18.2922 15.7071C18.4797 15.8946 18.734 16 18.9993 16C19.2645 16 19.5188 15.8946 19.7064 15.7071C19.8939 15.5196 19.9993 15.2652 19.9993 15V14C20.5297 14 21.0384 14.2107 21.4135 14.5858C21.7886 14.9609 21.9993 15.4696 21.9993 16C21.9993 16.5304 21.7886 17.0391 21.4135 17.4142C21.0384 17.7893 20.5297 18 19.9993 18Z" fill="#202020"/>
</g>
<defs>
<clipPath id="clip0_2_7395">
<rect width="24" height="24" fill="white"/>
</clipPath>
</defs>
</svg>
