<svg width="24" height="24" viewBox="0 0 24 24" fill="none" xmlns="http://www.w3.org/2000/svg">
<g clip-path="url(#clip0_2_7125)">
<path d="M19.9805 7.02349V1.02349C19.9805 0.758273 20.0858 0.503919 20.2733 0.316382C20.4609 0.128846 20.7152 0.023489 20.9805 0.023489C21.2457 0.023489 21.5 0.128846 21.6876 0.316382C21.8751 0.503919 21.9805 0.758273 21.9805 1.02349V7.02349C21.9805 7.28871 21.8751 7.54306 21.6876 7.7306C21.5 7.91813 21.2457 8.02349 20.9805 8.02349C20.7152 8.02349 20.4609 7.91813 20.2733 7.7306C20.0858 7.54306 19.9805 7.28871 19.9805 7.02349ZM16.9805 8.02349C17.2457 8.02349 17.5 7.91813 17.6876 7.7306C17.8751 7.54306 17.9805 7.28871 17.9805 7.02349V1.02349C17.9805 0.758273 17.8751 0.503919 17.6876 0.316382C17.5 0.128846 17.2457 0.023489 16.9805 0.023489C16.7152 0.023489 16.4609 0.128846 16.2733 0.316382C16.0858 0.503919 15.9805 0.758273 15.9805 1.02349V7.02349C15.9805 7.28871 16.0858 7.54306 16.2733 7.7306C16.4609 7.91813 16.7152 8.02349 16.9805 8.02349ZM23.0755 21.1395L22.1635 22.1895C13.9735 30.0295 -5.95655 10.1055 1.76345 1.88949L2.91345 0.889489C3.49528 0.325753 4.27578 0.0139486 5.08587 0.0216227C5.89597 0.0292969 6.67042 0.355832 7.24145 0.930489C7.27245 0.960489 9.12345 3.36749 9.12345 3.36749C9.67326 3.94481 9.97951 4.71176 9.97858 5.50899C9.97765 6.30623 9.66961 7.07246 9.11845 7.64849L7.95845 9.10049C8.59929 10.658 9.5416 12.0735 10.7312 13.2657C11.9208 14.4579 13.3343 15.4033 14.8905 16.0475L16.3545 14.8825C16.9303 14.3308 17.6966 14.0222 18.4941 14.0209C19.2915 14.0196 20.0588 14.3257 20.6365 14.8755C20.6365 14.8755 23.0435 16.7285 23.0745 16.7595C23.6547 17.3406 23.9807 18.1281 23.9809 18.9493C23.9811 19.7705 23.6554 20.5582 23.0755 21.1395ZM21.6995 18.2165C21.6995 18.2165 19.2995 16.3745 19.2745 16.3445C19.0659 16.1452 18.7885 16.0339 18.5 16.0339C18.2114 16.0339 17.934 16.1452 17.7255 16.3445C17.6995 16.3715 15.6815 17.9795 15.6815 17.9795C15.5454 18.0875 15.3836 18.1582 15.212 18.1847C15.0403 18.2112 14.8647 18.1925 14.7025 18.1305C12.6859 17.3804 10.8542 16.2052 9.33186 14.6848C7.80951 13.1643 6.63207 11.3342 5.87945 9.31849C5.81374 9.15452 5.79263 8.97608 5.81828 8.8013C5.84392 8.62653 5.91541 8.46167 6.02545 8.32349C6.02545 8.32349 7.63245 6.30649 7.66045 6.27949C7.86503 6.07343 7.97983 5.79485 7.97983 5.50449C7.97983 5.21413 7.86503 4.93555 7.66045 4.72949C7.62845 4.70049 5.78745 2.30649 5.78745 2.30649C5.57848 2.11887 5.30566 2.01828 5.0249 2.02534C4.74415 2.03241 4.47673 2.14659 4.27745 2.34449L3.12645 3.34949C-2.51355 10.1285 14.7575 26.4425 20.6995 20.8265L21.6115 19.7765C21.826 19.5789 21.9552 19.3055 21.9716 19.0143C21.9881 18.7231 21.8904 18.4369 21.6995 18.2165Z" fill="#202020"/>
</g>
<defs>
<clipPath id="clip0_2_7125">
<rect width="24" height="24" fill="white"/>
</clipPath>
</defs>
</svg>
