<svg width="24" height="24" viewBox="0 0 24 24" fill="none" xmlns="http://www.w3.org/2000/svg">
<g clip-path="url(#clip0_2_7304)">
<path d="M7 22H5C4.20435 22 3.44129 21.6839 2.87868 21.1213C2.31607 20.5587 2 19.7956 2 19V5C2 4.20435 2.31607 3.44129 2.87868 2.87868C3.44129 2.31607 4.20435 2 5 2H7C7.26522 2 7.51957 1.89464 7.70711 1.70711C7.89464 1.51957 8 1.26522 8 1C8 0.734784 7.89464 0.48043 7.70711 0.292893C7.51957 0.105357 7.26522 0 7 0L5 0C3.67441 0.00158786 2.40356 0.528882 1.46622 1.46622C0.528882 2.40356 0.00158786 3.67441 0 5L0 19C0.00158786 20.3256 0.528882 21.5964 1.46622 22.5338C2.40356 23.4711 3.67441 23.9984 5 24H7C7.26522 24 7.51957 23.8946 7.70711 23.7071C7.89464 23.5196 8 23.2652 8 23C8 22.7348 7.89464 22.4804 7.70711 22.2929C7.51957 22.1054 7.26522 22 7 22Z" fill="#202020"/>
<path d="M22.9991 11.0006L7.22208 11.0326C7.30979 10.8697 7.41948 10.7196 7.54808 10.5866L11.4271 6.70757C11.5226 6.61532 11.5988 6.50498 11.6512 6.38297C11.7036 6.26097 11.7312 6.12975 11.7323 5.99697C11.7335 5.86419 11.7082 5.73251 11.6579 5.60962C11.6076 5.48672 11.5334 5.37507 11.4395 5.28117C11.3456 5.18728 11.2339 5.11303 11.111 5.06275C10.9881 5.01247 10.8565 4.98717 10.7237 4.98832C10.5909 4.98947 10.4597 5.01706 10.3377 5.06947C10.2157 5.12188 10.1053 5.19806 10.0131 5.29357L6.13208 9.17257C5.3822 9.92268 4.96094 10.9399 4.96094 12.0006C4.96094 13.0612 5.3822 14.0785 6.13208 14.8286L10.0111 18.7076C10.1033 18.8031 10.2137 18.8793 10.3357 18.9317C10.4577 18.9841 10.5889 19.0117 10.7217 19.0128C10.8545 19.014 10.9861 18.9887 11.109 18.9384C11.2319 18.8881 11.3436 18.8139 11.4375 18.72C11.5314 18.6261 11.6056 18.5144 11.6559 18.3915C11.7062 18.2686 11.7315 18.1369 11.7303 18.0042C11.7292 17.8714 11.7016 17.7402 11.6492 17.6182C11.5968 17.4962 11.5206 17.3858 11.4251 17.2936L7.54608 13.4146C7.43417 13.2993 7.33647 13.1711 7.25508 13.0326L22.9991 13.0006C23.2643 13.0006 23.5187 12.8952 23.7062 12.7077C23.8937 12.5201 23.9991 12.2658 23.9991 12.0006C23.9991 11.7354 23.8937 11.481 23.7062 11.2935C23.5187 11.1059 23.2643 11.0006 22.9991 11.0006Z" fill="#202020"/>
</g>
<defs>
<clipPath id="clip0_2_7304">
<rect width="24" height="24" fill="white"/>
</clipPath>
</defs>
</svg>
