<svg width="24" height="24" viewBox="0 0 24 24" fill="none" xmlns="http://www.w3.org/2000/svg">
<path d="M17.7108 9.8794L13.4108 5.5894C13.0361 5.2169 12.5292 5.00781 12.0008 5.00781C11.4724 5.00781 10.9655 5.2169 10.5908 5.5894L6.29079 9.8794C6.10454 10.0668 6 10.3202 6 10.5844C6 10.8486 6.10454 11.102 6.29079 11.2894C6.38376 11.3831 6.49436 11.4575 6.61622 11.5083C6.73807 11.5591 6.86878 11.5852 7.00079 11.5852C7.1328 11.5852 7.26351 11.5591 7.38537 11.5083C7.50723 11.4575 7.61783 11.3831 7.71079 11.2894L11.0008 7.9994V18.9994C11.0008 19.2646 11.1061 19.519 11.2937 19.7065C11.4812 19.894 11.7356 19.9994 12.0008 19.9994C12.266 19.9994 12.5204 19.894 12.7079 19.7065C12.8954 19.519 13.0008 19.2646 13.0008 18.9994V7.9994L16.2908 11.2894C16.4778 11.4777 16.7319 11.584 16.9973 11.585C17.2626 11.5859 17.5175 11.4814 17.7058 11.2944C17.8941 11.1074 18.0004 10.8533 18.0013 10.5879C18.0023 10.3226 17.8978 10.0677 17.7108 9.8794Z" fill="#202020"/>
</svg>
