<svg width="24" height="24" viewBox="0 0 24 24" fill="none" xmlns="http://www.w3.org/2000/svg">
<g clip-path="url(#clip0_2_6366)">
<path d="M18.0005 22.0007H13.0005V2.82371L17.3005 7.12371C17.4891 7.30587 17.7417 7.40666 18.0039 7.40439C18.2661 7.40211 18.5169 7.29694 18.7023 7.11153C18.8877 6.92612 18.9929 6.67531 18.9952 6.41311C18.9975 6.15092 18.8967 5.89832 18.7145 5.70971L13.7685 0.763716C13.5363 0.5315 13.2607 0.347292 12.9574 0.221614C12.654 0.0959362 12.3289 0.03125 12.0005 0.03125C11.6721 0.03125 11.347 0.0959362 11.0436 0.221614C10.7403 0.347292 10.4647 0.5315 10.2325 0.763716L5.2825 5.71371C5.09499 5.90175 4.98986 6.15658 4.99024 6.42213C4.99061 6.68768 5.09646 6.9422 5.2845 7.12971C5.47254 7.31722 5.72736 7.42235 5.99291 7.42198C6.25846 7.4216 6.51299 7.31575 6.7005 7.12771L11.0005 2.82771V22.0007H6.0005C5.73528 22.0007 5.48093 22.1061 5.29339 22.2936C5.10586 22.4811 5.0005 22.7355 5.0005 23.0007C5.0005 23.2659 5.10586 23.5203 5.29339 23.7078C5.48093 23.8953 5.73528 24.0007 6.0005 24.0007H18.0005C18.2657 24.0007 18.5201 23.8953 18.7076 23.7078C18.8951 23.5203 19.0005 23.2659 19.0005 23.0007C19.0005 22.7355 18.8951 22.4811 18.7076 22.2936C18.5201 22.1061 18.2657 22.0007 18.0005 22.0007Z" fill="#202020"/>
</g>
<defs>
<clipPath id="clip0_2_6366">
<rect width="24" height="24" fill="white"/>
</clipPath>
</defs>
</svg>
