<svg width="24" height="24" viewBox="0 0 24 24" fill="none" xmlns="http://www.w3.org/2000/svg">
<g clip-path="url(#clip0_2_6398)">
<path d="M23.9997 22.9996C23.9997 23.2648 23.8943 23.5191 23.7068 23.7067C23.5192 23.8942 23.2649 23.9996 22.9997 23.9996H0.999659C0.734442 23.9996 0.480088 23.8942 0.292552 23.7067C0.105015 23.5191 -0.000341587 23.2648 -0.000341587 22.9996C-0.000341587 22.7344 0.105015 22.48 0.292552 22.2925C0.480088 22.1049 0.734442 21.9996 0.999659 21.9996H22.9997C23.2649 21.9996 23.5192 22.1049 23.7068 22.2925C23.8943 22.48 23.9997 22.7344 23.9997 22.9996ZM0.290658 8.55157C0.0751807 8.15189 -0.0246469 7.70007 0.00237884 7.24682C0.0294046 6.79356 0.182214 6.35681 0.443658 5.98557C0.870917 5.35868 1.4431 4.84413 2.11166 4.48557L9.61266 0.581567C10.3499 0.198198 11.1687 -0.00195313 11.9997 -0.00195312C12.8306 -0.00195313 13.6494 0.198198 14.3867 0.581567L21.8867 4.48857C22.5552 4.84713 23.1274 5.36168 23.5547 5.98857C23.8161 6.35981 23.9689 6.79656 23.9959 7.24982C24.023 7.70307 23.9231 8.15489 23.7077 8.55457C23.4757 8.9934 23.1277 9.36017 22.7017 9.61496C22.2758 9.86974 21.788 10.0028 21.2917 9.99957H20.9997V17.9996H21.9997C22.2649 17.9996 22.5192 18.1049 22.7068 18.2925C22.8943 18.48 22.9997 18.7344 22.9997 18.9996C22.9997 19.2648 22.8943 19.5191 22.7068 19.7067C22.5192 19.8942 22.2649 19.9996 21.9997 19.9996H1.99966C1.73444 19.9996 1.48009 19.8942 1.29255 19.7067C1.10502 19.5191 0.999659 19.2648 0.999659 18.9996C0.999659 18.7344 1.10502 18.48 1.29255 18.2925C1.48009 18.1049 1.73444 17.9996 1.99966 17.9996H2.99966V9.99957H2.70766C2.21082 10.0027 1.72266 9.86928 1.29645 9.61393C0.87023 9.35859 0.522317 8.99111 0.290658 8.55157ZM4.99966 17.9996H7.99966V9.99957H4.99966V17.9996ZM9.99966 9.99957V17.9996H13.9997V9.99957H9.99966ZM18.9997 9.99957H15.9997V17.9996H18.9997V9.99957ZM2.06266 7.62457C2.1254 7.74025 2.21877 7.83643 2.33254 7.90257C2.44631 7.96872 2.57609 8.00227 2.70766 7.99957H21.2917C21.4232 8.00227 21.553 7.96872 21.6668 7.90257C21.7805 7.83643 21.8739 7.74025 21.9367 7.62457C21.9824 7.54813 22.0045 7.4599 22.0002 7.37094C21.9959 7.28199 21.9655 7.19628 21.9127 7.12457C21.6704 6.76448 21.3448 6.46811 20.9637 6.26057L13.4637 2.35357C13.0117 2.11899 12.5099 1.99654 12.0007 1.99654C11.4914 1.99654 10.9897 2.11899 10.5377 2.35357L3.03766 6.26057C2.65664 6.46878 2.33119 6.76542 2.08866 7.12557C2.03575 7.19697 2.00506 7.2824 2.00044 7.37115C1.99581 7.4599 2.01745 7.54805 2.06266 7.62457Z" fill="#202020"/>
</g>
<defs>
<clipPath id="clip0_2_6398">
<rect width="24" height="24" fill="white"/>
</clipPath>
</defs>
</svg>
