<svg width="24" height="24" viewBox="0 0 24 24" fill="none" xmlns="http://www.w3.org/2000/svg">
<g clip-path="url(#clip0_2_6996)">
<path d="M17.9994 9.0642C17.9995 8.66196 17.9201 8.26366 17.7656 7.89227C17.6112 7.52087 17.3847 7.1837 17.0994 6.9002C16.5155 6.34304 15.7395 6.03219 14.9324 6.03219C14.1253 6.03219 13.3493 6.34304 12.7654 6.9002L0.899398 18.7692C0.357817 19.3499 0.06284 20.1182 0.0766348 20.9122C0.0904296 21.7061 0.411919 22.4637 0.973347 23.0253C1.53478 23.5868 2.29229 23.9085 3.08624 23.9225C3.88018 23.9364 4.64855 23.6416 5.2294 23.1002L17.0994 11.2312C17.3852 10.9474 17.6119 10.6098 17.7664 10.2378C17.9208 9.86585 18 9.46696 17.9994 9.0642ZM3.8154 21.6882C3.61325 21.8809 3.34468 21.9884 3.0654 21.9884C2.78612 21.9884 2.51755 21.8809 2.3154 21.6882C2.11681 21.4891 2.00529 21.2194 2.00529 20.9382C2.00529 20.657 2.11681 20.3873 2.3154 20.1882L10.0844 12.4182L11.5894 13.9232L3.8154 21.6882ZM15.6874 9.8162L12.9994 12.5052L11.4994 11.0002L14.1884 8.3122C14.2843 8.20269 14.4016 8.11403 14.5331 8.05172C14.6646 7.98941 14.8075 7.95476 14.953 7.94994C15.0984 7.94511 15.2433 7.9702 15.3787 8.02365C15.514 8.07711 15.637 8.15779 15.7399 8.2607C15.8428 8.3636 15.9235 8.48655 15.9769 8.62191C16.0304 8.75727 16.0555 8.90216 16.0507 9.04762C16.0458 9.19307 16.0112 9.33598 15.9489 9.4675C15.8866 9.59902 15.7979 9.71634 15.6884 9.8122L15.6874 9.8162ZM4.8624 2.8552L6.4124 2.4132L6.8544 0.863195C6.9256 0.61448 7.07586 0.395712 7.28244 0.239975C7.48902 0.0842378 7.74069 0 7.9994 0C8.25811 0 8.50978 0.0842378 8.71636 0.239975C8.92294 0.395712 9.07319 0.61448 9.1444 0.863195L9.5864 2.4132L11.1364 2.8552C11.3851 2.9264 11.6039 3.07665 11.7596 3.28323C11.9154 3.48981 11.9996 3.74149 11.9996 4.0002C11.9996 4.2589 11.9154 4.51058 11.7596 4.71716C11.6039 4.92374 11.3851 5.07399 11.1364 5.1452L9.5864 5.58719L9.1444 7.1372C9.07319 7.38591 8.92294 7.60468 8.71636 7.76042C8.50978 7.91615 8.25811 8.00039 7.9994 8.00039C7.74069 8.00039 7.48902 7.91615 7.28244 7.76042C7.07586 7.60468 6.9256 7.38591 6.8544 7.1372L6.4124 5.58719L4.8624 5.1452C4.61368 5.07399 4.39492 4.92374 4.23918 4.71716C4.08344 4.51058 3.9992 4.2589 3.9992 4.0002C3.9992 3.74149 4.08344 3.48981 4.23918 3.28323C4.39492 3.07665 4.61368 2.9264 4.8624 2.8552ZM23.1364 17.1452L21.5864 17.5872L21.1444 19.1372C21.0732 19.3859 20.9229 19.6047 20.7164 19.7604C20.5098 19.9162 20.2581 20.0004 19.9994 20.0004C19.7407 20.0004 19.489 19.9162 19.2824 19.7604C19.0759 19.6047 18.9256 19.3859 18.8544 19.1372L18.4124 17.5872L16.8624 17.1452C16.6137 17.074 16.3949 16.9237 16.2392 16.7172C16.0834 16.5106 15.9992 16.2589 15.9992 16.0002C15.9992 15.7415 16.0834 15.4898 16.2392 15.2832C16.3949 15.0767 16.6137 14.9264 16.8624 14.8552L18.4124 14.4132L18.8544 12.8632C18.9256 12.6145 19.0759 12.3957 19.2824 12.24C19.489 12.0842 19.7407 12 19.9994 12C20.2581 12 20.5098 12.0842 20.7164 12.24C20.9229 12.3957 21.0732 12.6145 21.1444 12.8632L21.5864 14.4132L23.1364 14.8552C23.3851 14.9264 23.6039 15.0767 23.7596 15.2832C23.9154 15.4898 23.9996 15.7415 23.9996 16.0002C23.9996 16.2589 23.9154 16.5106 23.7596 16.7172C23.6039 16.9237 23.3851 17.074 23.1364 17.1452ZM17.7544 2.5002L19.1104 2.1132L19.4994 0.755195C19.5627 0.539012 19.6944 0.349167 19.8747 0.214108C20.0549 0.0790491 20.2741 0.00605009 20.4994 0.00605009C20.7247 0.00605009 20.9439 0.0790491 21.1241 0.214108C21.3044 0.349167 21.4361 0.539012 21.4994 0.755195L21.8864 2.1112L23.2424 2.4982C23.4586 2.56151 23.6484 2.69317 23.7835 2.87345C23.9185 3.05374 23.9915 3.27293 23.9915 3.4982C23.9915 3.72346 23.9185 3.94265 23.7835 4.12294C23.6484 4.30322 23.4586 4.43489 23.2424 4.4982L21.8864 4.8852L21.4994 6.24419C21.4361 6.46038 21.3044 6.65022 21.1241 6.78528C20.9439 6.92034 20.7247 6.99334 20.4994 6.99334C20.2741 6.99334 20.0549 6.92034 19.8747 6.78528C19.6944 6.65022 19.5627 6.46038 19.4994 6.24419L19.1124 4.88919L17.7544 4.5002C17.5382 4.43688 17.3484 4.30522 17.2133 4.12494C17.0783 3.94465 17.0053 3.72546 17.0053 3.5002C17.0053 3.27493 17.0783 3.05574 17.2133 2.87545C17.3484 2.69517 17.5382 2.56351 17.7544 2.5002Z" fill="#202020"/>
</g>
<defs>
<clipPath id="clip0_2_6996">
<rect width="24" height="24" fill="white"/>
</clipPath>
</defs>
</svg>
