<svg width="24" height="24" viewBox="0 0 24 24" fill="none" xmlns="http://www.w3.org/2000/svg">
<g clip-path="url(#clip0_2_6544)">
<path d="M11.6926 22.9989C11.2986 22.9999 10.9082 22.9227 10.5441 22.7718C10.18 22.621 9.8495 22.3994 9.57165 22.1199L6.18465 18.6989C6.07796 18.6095 5.9911 18.4988 5.92965 18.3739C5.8682 18.249 5.8335 18.1126 5.82778 17.9735C5.82206 17.8344 5.84544 17.6957 5.89642 17.5662C5.9474 17.4366 6.02487 17.3192 6.12386 17.2213C6.22285 17.1234 6.34118 17.0473 6.47128 16.9978C6.60138 16.9483 6.74038 16.9265 6.8794 16.9338C7.01841 16.9411 7.15436 16.9773 7.27856 17.0402C7.40276 17.1031 7.51246 17.1912 7.60065 17.2989L10.9846 20.7129C11.1751 20.8936 11.4276 20.9943 11.6901 20.9943C11.9527 20.9943 12.2052 20.8936 12.3957 20.7129L17.8097 15.2989C17.9972 15.1112 18.2515 15.0058 18.5168 15.0057C18.7821 15.0056 19.0365 15.1109 19.2241 15.2984C19.4118 15.4859 19.5173 15.7403 19.5174 16.0055C19.5174 16.2708 19.4122 16.5252 19.2247 16.7129L13.8097 22.1269C13.5318 22.4048 13.2017 22.6249 12.8384 22.7746C12.475 22.9243 12.0856 23.0005 11.6926 22.9989ZM7.00065 21.9989C7.00065 21.7337 6.89529 21.4793 6.70776 21.2918C6.52022 21.1042 6.26587 20.9989 6.00065 20.9989H5.68365C4.82961 20.9825 4.00585 20.6796 3.34464 20.1388C2.68343 19.598 2.22313 18.8507 2.03765 18.0169C1.92899 17.3003 2.04756 16.5677 2.37669 15.922C2.70582 15.2763 3.22897 14.75 3.87265 14.4169C4.33114 14.1631 4.67128 13.739 4.81949 13.2363C4.96771 12.7336 4.91208 12.1928 4.66465 11.7309C4.27636 10.9903 4.04714 10.1768 3.99171 9.34247C3.93627 8.50813 4.05583 7.67143 4.34273 6.88601C4.62963 6.1006 5.07753 5.38383 5.65769 4.78167C6.23786 4.17951 6.93748 3.70527 7.71168 3.38936C8.48588 3.07345 9.31756 2.92285 10.1534 2.94722C10.9892 2.97159 11.8107 3.17039 12.5652 3.53088C13.3196 3.89136 13.9904 4.40556 14.5345 5.0405C15.0786 5.67543 15.484 6.41709 15.7247 7.21788C15.8724 7.70066 16.1359 8.14004 16.4921 8.49784C16.8483 8.85563 17.2865 9.121 17.7687 9.27088C19.0753 9.66822 20.2063 10.5015 20.9729 11.6317C21.7396 12.762 22.0956 14.1209 21.9817 15.4819C21.8665 16.6639 21.394 17.7828 20.6271 18.6897C19.8602 19.5965 18.8352 20.2481 17.6887 20.5579C17.4398 20.6431 17.2345 20.8229 17.1173 21.0584C17.0001 21.2939 16.9804 21.5661 17.0624 21.816C17.1445 22.0659 17.3218 22.2734 17.5558 22.3936C17.7898 22.5137 18.0617 22.5368 18.3127 22.4579C19.9514 21.9902 21.3937 21.0026 22.4221 19.6437C23.4505 18.2849 24.0093 16.6286 24.0143 14.9244C24.0192 13.2203 23.4701 11.5607 22.4496 10.1959C21.4291 8.83113 19.9926 7.83506 18.3567 7.35788C18.185 7.3044 18.0293 7.20931 17.9033 7.08107C17.7774 6.95283 17.6851 6.79543 17.6347 6.62288C17.1055 4.9225 16.0241 3.44728 14.5618 2.43092C13.0996 1.41455 11.3399 0.91514 9.56176 1.0118C7.78357 1.10846 6.08847 1.79566 4.74497 2.96454C3.40146 4.13342 2.48637 5.71716 2.14465 7.46488C1.7932 9.23188 2.0765 11.0662 2.94465 12.6449C1.93242 13.1668 1.10939 13.9931 0.591483 15.0074C0.0735721 16.0217 -0.113137 17.1729 0.0576489 18.2989C0.3183 19.6067 1.01846 20.786 2.04187 21.641C3.06527 22.4959 4.35033 22.9751 5.68365 22.9989H6.00065C6.26587 22.9989 6.52022 22.8935 6.70776 22.706C6.89529 22.5185 7.00065 22.2641 7.00065 21.9989Z" fill="#202020"/>
</g>
<defs>
<clipPath id="clip0_2_6544">
<rect width="24" height="24" fill="white"/>
</clipPath>
</defs>
</svg>
