<svg width="24" height="24" viewBox="0 0 24 24" fill="none" xmlns="http://www.w3.org/2000/svg">
<g clip-path="url(#clip0_2_6501)">
<path d="M19.9994 12.0005C19.386 12.0004 18.7807 12.1416 18.2306 12.4131C17.6805 12.6847 17.2004 13.0794 16.8274 13.5665L16.7574 13.5365C17.0325 12.6845 17.0737 11.7743 16.8768 10.9009C16.6799 10.0276 16.2522 9.2231 15.6382 8.57153C15.0242 7.91995 14.2465 7.44518 13.3864 7.19679C12.5263 6.94841 11.6152 6.93552 10.7484 7.15947L10.6574 6.98747C11.3838 6.3412 11.8496 5.45221 11.9674 4.48712C12.0853 3.52202 11.8472 2.54707 11.2977 1.74498C10.7482 0.942882 9.92506 0.368703 8.98254 0.130045C8.04003 -0.108613 7.04282 0.00463268 6.17782 0.448559C5.31282 0.892485 4.6394 1.63662 4.28376 2.5415C3.92812 3.44639 3.91468 4.44991 4.24595 5.364C4.57722 6.27808 5.23046 7.03999 6.08326 7.50693C6.93606 7.97387 7.92987 8.1138 8.87844 7.90047L8.95144 8.03747C7.95149 8.8048 7.27883 9.92199 7.06849 11.1647C6.85815 12.4075 7.1257 13.6838 7.81744 14.7375L5.93244 16.5005C5.08041 16.0297 4.08595 15.8858 3.13543 16.0958C2.18491 16.3057 1.34356 16.855 0.769036 17.6408C0.194515 18.4266 -0.0737405 19.395 0.0145365 20.3644C0.102813 21.3338 0.541564 22.2378 1.24857 22.9069C1.95558 23.576 2.88232 23.9643 3.85512 23.9991C4.82793 24.0339 5.78003 23.7127 6.53302 23.0958C7.28601 22.4789 7.7882 21.6086 7.94549 20.648C8.10278 19.6873 7.90437 18.7023 7.38744 17.8775L9.22544 16.1595C10.2349 16.8342 11.4557 17.118 12.6593 16.9576C13.8628 16.7973 14.9668 16.2039 15.7644 15.2885L16.0434 15.4075C15.9224 16.2149 16.0513 17.0401 16.413 17.7721C16.7746 18.5041 17.3516 19.108 18.0664 19.5025C18.7813 19.897 19.5997 20.0634 20.4118 19.9791C21.224 19.8949 21.9909 19.5642 22.6095 19.0314C23.2282 18.4986 23.669 17.7892 23.8727 16.9985C24.0764 16.2079 24.0333 15.3738 23.7492 14.6084C23.465 13.8429 22.9534 13.1828 22.2831 12.7166C21.6128 12.2504 20.8159 12.0005 19.9994 12.0005ZM5.99944 4.00047C5.99944 3.60491 6.11674 3.21823 6.3365 2.88933C6.55626 2.56043 6.86862 2.30409 7.23407 2.15271C7.59952 2.00134 8.00166 1.96173 8.38962 2.0389C8.77758 2.11607 9.13395 2.30655 9.41365 2.58626C9.69336 2.86596 9.88384 3.22233 9.96101 3.61029C10.0382 3.99825 9.99857 4.40039 9.8472 4.76584C9.69582 5.13129 9.43948 5.44365 9.11058 5.66341C8.78168 5.88317 8.395 6.00047 7.99944 6.00047C7.46901 6.00047 6.9603 5.78976 6.58523 5.41469C6.21015 5.03961 5.99944 4.53091 5.99944 4.00047ZM3.99944 22.0005C3.60388 22.0005 3.2172 21.8832 2.8883 21.6634C2.5594 21.4436 2.30305 21.1313 2.15168 20.7658C2.0003 20.4004 1.9607 19.9983 2.03787 19.6103C2.11504 19.2223 2.30552 18.866 2.58522 18.5863C2.86493 18.3066 3.2213 18.1161 3.60926 18.0389C3.99722 17.9617 4.39935 18.0013 4.76481 18.1527C5.13026 18.3041 5.44261 18.5604 5.66238 18.8893C5.88214 19.2182 5.99944 19.6049 5.99944 20.0005C5.99944 20.5309 5.78872 21.0396 5.41365 21.4147C5.03858 21.7898 4.52987 22.0005 3.99944 22.0005ZM11.9994 15.0005C11.3501 14.9992 10.7188 14.7873 10.2001 14.3966C9.68154 14.0059 9.30369 13.4575 9.12334 12.8337C8.943 12.21 8.9699 11.5445 9.2 10.9373C9.4301 10.3302 9.85099 9.81404 10.3994 9.46647L10.8064 9.24947C11.2154 9.07158 11.6589 8.9871 12.1046 9.00219C12.5503 9.01728 12.9871 9.13155 13.383 9.33669C13.779 9.54183 14.1243 9.83268 14.3937 10.1881C14.6632 10.5435 14.85 10.9544 14.9406 11.3911C15.0311 11.8278 15.0232 12.2792 14.9174 12.7124C14.8116 13.1456 14.6105 13.5498 14.3287 13.8956C14.047 14.2413 13.6918 14.5199 13.2888 14.711C12.8859 14.9021 12.4454 15.001 11.9994 15.0005ZM19.9994 18.0005C19.6039 18.0005 19.2172 17.8832 18.8883 17.6634C18.5594 17.4436 18.3031 17.1313 18.1517 16.7658C18.0003 16.4004 17.9607 15.9983 18.0379 15.6103C18.115 15.2223 18.3055 14.866 18.5852 14.5863C18.8649 14.3066 19.2213 14.1161 19.6093 14.0389C19.9972 13.9617 20.3994 14.0013 20.7648 14.1527C21.1303 14.3041 21.4426 14.5604 21.6624 14.8893C21.8821 15.2182 21.9994 15.6049 21.9994 16.0005C21.9994 16.5309 21.7887 17.0396 21.4137 17.4147C21.0386 17.7898 20.5299 18.0005 19.9994 18.0005Z" fill="#202020"/>
</g>
<defs>
<clipPath id="clip0_2_6501">
<rect width="24" height="24" fill="white"/>
</clipPath>
</defs>
</svg>
