<svg width="24" height="24" viewBox="0 0 24 24" fill="none" xmlns="http://www.w3.org/2000/svg">
<g clip-path="url(#clip0_2_6872)">
<path d="M19.8006 4.41983C18.6283 2.83123 17.0464 1.59089 15.2241 0.831258C13.4017 0.0716278 11.4072 -0.178762 9.45363 0.106828C7.55348 0.376977 5.75707 1.13959 4.24288 2.3189C2.72868 3.49821 1.5494 5.05318 0.822178 6.82933C0.094955 8.60548 -0.154895 10.541 0.0974496 12.4436C0.349794 14.3462 1.09555 16.1497 2.26063 17.6748C2.7567 18.3585 3.01648 19.1853 3.00063 20.0298V21.0008C3.00063 21.7965 3.3167 22.5595 3.87931 23.1221C4.44192 23.6848 5.20498 24.0008 6.00063 24.0008H13.0006C13.7963 24.0008 14.5593 23.6848 15.122 23.1221C15.6846 22.5595 16.0006 21.7965 16.0006 21.0008H16.4946C17.7064 20.9979 18.8762 20.5562 19.7875 19.7574C20.6988 18.9586 21.2899 17.8568 21.4516 16.6558L21.6706 15.0008H22.0006C22.2648 15.0064 22.5274 14.9585 22.7726 14.86C23.0177 14.7614 23.2404 14.6143 23.4273 14.4275C23.6141 14.2406 23.7612 14.0179 23.8598 13.7728C23.9583 13.5276 24.0062 13.265 24.0006 13.0008C24.0006 11.5808 21.0686 5.98583 19.8006 4.41983ZM20.7936 13.0008C20.5512 13.0009 20.317 13.0891 20.1347 13.249C19.9524 13.4088 19.8344 13.6295 19.8026 13.8698L19.4686 16.3948C19.3715 17.1152 19.0167 17.7761 18.47 18.2552C17.9233 18.7342 17.2216 18.9991 16.4946 19.0008H15.0006C14.7354 19.0008 14.4811 19.1062 14.2935 19.2937C14.106 19.4813 14.0006 19.7356 14.0006 20.0008V21.0008C14.0006 21.266 13.8953 21.5204 13.7077 21.7079C13.5202 21.8955 13.2658 22.0008 13.0006 22.0008H6.00063C5.73541 22.0008 5.48106 21.8955 5.29352 21.7079C5.10599 21.5204 5.00063 21.266 5.00063 21.0008V20.0298C5.01574 18.746 4.61163 17.4922 3.84963 16.4588C2.89749 15.2116 2.28798 13.7371 2.08156 12.1816C1.87515 10.6261 2.079 9.04368 2.67289 7.59128C3.26679 6.13889 4.23009 4.867 5.46724 3.90179C6.70439 2.93658 8.17239 2.3116 9.72563 2.08883C10.1498 2.02995 10.5774 2.00055 11.0056 2.00083C12.4108 1.99893 13.7966 2.32825 15.0507 2.96207C16.3048 3.59588 17.3918 4.51636 18.2236 5.64883C19.803 7.92122 21.0731 10.3936 22.0006 13.0008H20.7936ZM16.2006 8.01183C16.1352 7.89785 16.048 7.79789 15.9439 7.71765C15.8398 7.63742 15.721 7.57848 15.5941 7.54421C15.4672 7.50994 15.3349 7.50101 15.2046 7.51793C15.0742 7.53485 14.9485 7.57729 14.8346 7.64283L13.8526 8.20683C13.3433 7.69061 12.7031 7.32279 12.0006 7.14283V6.00083C12.0006 5.73561 11.8953 5.48126 11.7077 5.29372C11.5202 5.10618 11.2658 5.00083 11.0006 5.00083C10.7354 5.00083 10.4811 5.10618 10.2935 5.29372C10.106 5.48126 10.0006 5.73561 10.0006 6.00083V7.14283C9.29708 7.32229 8.65576 7.69014 8.14563 8.20683L7.16363 7.64283C7.04977 7.57717 6.9241 7.53457 6.79378 7.51748C6.66347 7.50039 6.53106 7.50913 6.40412 7.54321C6.27718 7.57729 6.1582 7.63604 6.05397 7.7161C5.94973 7.79616 5.86229 7.89597 5.79663 8.00983C5.73097 8.12368 5.68838 8.24936 5.67128 8.37967C5.65419 8.50999 5.66294 8.6424 5.69701 8.76934C5.73109 8.89627 5.78984 9.01526 5.8699 9.11949C5.94997 9.22372 6.04977 9.31117 6.16363 9.37683L7.15663 9.94783C7.05721 10.2901 7.00473 10.6444 7.00063 11.0008C7.00571 11.3574 7.0592 11.7116 7.15963 12.0538L6.16663 12.6248C5.93669 12.7574 5.76884 12.976 5.70001 13.2323C5.63119 13.4887 5.66702 13.7619 5.79963 13.9918C5.93224 14.2218 6.15076 14.3896 6.40712 14.4584C6.66348 14.5273 6.93669 14.4914 7.16663 14.3588L8.14863 13.7948C8.65792 14.311 9.29815 14.6789 10.0006 14.8588V16.0008C10.0006 16.266 10.106 16.5204 10.2935 16.7079C10.4811 16.8955 10.7354 17.0008 11.0006 17.0008C11.2658 17.0008 11.5202 16.8955 11.7077 16.7079C11.8953 16.5204 12.0006 16.266 12.0006 16.0008V14.8588C12.7042 14.6794 13.3455 14.3115 13.8556 13.7948L14.8376 14.3588C14.9515 14.4245 15.0772 14.4671 15.2075 14.4842C15.3378 14.5013 15.4702 14.4925 15.5971 14.4584C15.7241 14.4244 15.8431 14.3656 15.9473 14.2856C16.0515 14.2055 16.139 14.1057 16.2046 13.9918C16.2703 13.878 16.3129 13.7523 16.33 13.622C16.3471 13.4917 16.3383 13.3593 16.3042 13.2323C16.2702 13.1054 16.2114 12.9864 16.1314 12.8822C16.0513 12.7779 15.9515 12.6905 15.8376 12.6248L14.8446 12.0538C14.944 11.7115 14.9965 11.3573 15.0006 11.0008C14.9956 10.6442 14.9421 10.29 14.8416 9.94783L15.8346 9.37683C16.064 9.24422 16.2314 9.02598 16.3 8.77005C16.3687 8.51412 16.3329 8.24142 16.2006 8.01183ZM11.0006 13.0008C10.6051 13.0008 10.2184 12.8835 9.88949 12.6638C9.56059 12.444 9.30424 12.1316 9.15287 11.7662C9.0015 11.4007 8.96189 10.9986 9.03906 10.6106C9.11623 10.2227 9.30671 9.86632 9.58642 9.58661C9.86612 9.30691 10.2225 9.11643 10.6104 9.03926C10.9984 8.96209 11.4005 9.00169 11.766 9.15307C12.1314 9.30444 12.4438 9.56079 12.6636 9.88969C12.8833 10.2186 13.0006 10.6053 13.0006 11.0008C13.0006 11.5313 12.7899 12.04 12.4148 12.415C12.0398 12.7901 11.5311 13.0008 11.0006 13.0008Z" fill="#202020"/>
</g>
<defs>
<clipPath id="clip0_2_6872">
<rect width="24" height="24" fill="white"/>
</clipPath>
</defs>
</svg>
