<svg width="24" height="24" viewBox="0 0 24 24" fill="none" xmlns="http://www.w3.org/2000/svg">
<g clip-path="url(#clip0_2_6733)">
<path d="M23.1118 5.16583C23.3928 4.88491 23.6158 4.55138 23.7679 4.18427C23.92 3.81717 23.9983 3.4237 23.9983 3.02633C23.9983 2.62896 23.92 2.23549 23.7679 1.86838C23.6158 1.50128 23.3928 1.16774 23.1118 0.886828C22.5361 0.336451 21.7703 0.0292969 20.9738 0.0292969C20.1773 0.0292969 19.4115 0.336451 18.8358 0.886828L16.3998 3.32483C15.3878 4.33783 13.2768 4.11383 11.8208 3.31183C11.2694 3.01334 10.6288 2.92415 10.0168 3.06068C9.40489 3.19721 8.8629 3.55026 8.4907 4.05481C8.1185 4.55936 7.94116 5.18141 7.99134 5.80638C8.04152 6.43135 8.31585 7.01713 8.76379 7.45583L10.1798 8.87183L2.02479 17.0258C1.4895 17.5554 1.14189 18.2454 1.03484 18.9907C0.927799 19.7361 1.06718 20.496 1.43179 21.1548L0.292786 22.2938C0.105315 22.4814 0 22.7357 0 23.0008C0 23.266 0.105315 23.5203 0.292786 23.7078C0.480314 23.8953 0.734622 24.0006 0.999786 24.0006C1.26495 24.0006 1.51926 23.8953 1.70679 23.7078L2.84579 22.5688C3.50462 22.9334 4.26453 23.0728 5.00988 22.9658C5.75522 22.8587 6.44519 22.5111 6.97479 21.9758L15.1288 13.8208L16.5448 15.2368C16.9835 15.6848 17.5693 15.9591 18.1942 16.0093C18.8192 16.0595 19.4413 15.8821 19.9458 15.5099C20.4504 15.1377 20.8034 14.5957 20.9399 13.9838C21.0765 13.3719 20.9873 12.7312 20.6888 12.1798C19.8888 10.7238 19.6638 8.61183 20.6758 7.59983L23.1118 5.16583ZM5.55979 20.5618C5.27406 20.8345 4.89426 20.9867 4.49929 20.9867C4.10431 20.9867 3.72451 20.8345 3.43879 20.5618C3.15758 20.2805 2.99961 19.8991 2.99961 19.5013C2.99961 19.1036 3.15758 18.7221 3.43879 18.4408L11.5938 10.2868L13.7148 12.4078L5.55979 20.5618ZM19.2598 6.18583C17.5008 7.94483 17.7598 11.0178 18.9348 13.1438C18.9905 13.2548 19.009 13.3807 18.9876 13.503C18.9662 13.6253 18.9059 13.7374 18.8158 13.8228C18.7002 13.9335 18.5463 13.9953 18.3863 13.9953C18.2262 13.9953 18.0724 13.9335 17.9568 13.8228L10.1778 6.04183C10.0937 5.95634 10.0367 5.84805 10.0136 5.7304C9.99057 5.61276 10.0026 5.49093 10.0482 5.38005C10.0938 5.26917 10.1709 5.17413 10.27 5.10671C10.3692 5.03929 10.4859 5.00248 10.6058 5.00083C10.6934 5.00043 10.7797 5.02209 10.8568 5.06383C12.9828 6.23383 16.0568 6.49783 17.8148 4.73883L20.2538 2.30083C20.4483 2.11441 20.7073 2.01035 20.9768 2.01035C21.2462 2.01035 21.5052 2.11441 21.6998 2.30083C21.795 2.39593 21.8705 2.50887 21.9221 2.63318C21.9736 2.7575 22.0001 2.89075 22.0001 3.02533C22.0001 3.1599 21.9736 3.29316 21.9221 3.41747C21.8705 3.54179 21.795 3.65473 21.6998 3.74983L19.2598 6.18583Z" fill="#202020"/>
</g>
<defs>
<clipPath id="clip0_2_6733">
<rect width="24" height="24" fill="white"/>
</clipPath>
</defs>
</svg>
