<svg width="24" height="24" viewBox="0 0 24 24" fill="none" xmlns="http://www.w3.org/2000/svg">
<path d="M8.17391 22.4468C10.2765 24.5037 13.6347 24.5121 15.7476 22.4658L19.7294 18.7861C24.0429 14.5301 24.0895 7.58314 19.8334 3.2697C15.5774 -1.04374 8.63043 -1.09033 4.31699 3.16573C4.28212 3.20014 4.24743 3.23483 4.21302 3.2697C-0.0714921 7.55487 -0.0709295 14.502 4.21424 18.7865C4.2231 18.7954 4.23201 18.8042 4.24091 18.8131L8.17391 22.4468ZM5.6234 4.68012C9.12149 1.16661 14.8055 1.15409 18.319 4.65219C21.8325 8.15028 21.8451 13.8343 18.347 17.3478L14.3731 21.0205C13.0158 22.2979 10.8962 22.29 9.54838 21.0025L5.6234 17.3757C2.11762 13.87 2.11757 8.186 5.62331 4.68017C5.62335 4.68017 5.6234 4.68012 5.6234 4.68012ZM6.98395 11.0279C6.98395 10.4771 7.43052 10.0305 7.9814 10.0305H10.9738V7.03812C10.9738 6.48725 11.4203 6.04067 11.9712 6.04067C12.5221 6.04067 12.9687 6.48725 12.9687 7.03812V10.0305H15.961C16.5119 10.0305 16.9585 10.4771 16.9585 11.0279C16.9585 11.5788 16.5119 12.0254 15.961 12.0254H12.9687V15.0177C12.9687 15.5686 12.5221 16.0152 11.9712 16.0152C11.4203 16.0152 10.9738 15.5686 10.9738 15.0177V12.0254H7.9814C7.43052 12.0254 6.98395 11.5788 6.98395 11.0279Z" fill="#202020"/>
</svg>
