<svg width="24" height="24" viewBox="0 0 24 24" fill="none" xmlns="http://www.w3.org/2000/svg">
<g clip-path="url(#clip0_2_6954)">
<path d="M22.4845 10.9745L11.9995 17.2665L1.51451 10.9745C1.28709 10.8381 1.01477 10.7976 0.757474 10.8619C0.500174 10.9262 0.278965 11.0901 0.142511 11.3175C0.00605738 11.545 -0.0344642 11.8173 0.0298608 12.0746C0.0941857 12.3319 0.258088 12.5531 0.485511 12.6895L11.4855 19.2895C11.641 19.383 11.8191 19.4324 12.0005 19.4324C12.182 19.4324 12.36 19.383 12.5155 19.2895L23.5155 12.6895C23.7429 12.5531 23.9068 12.3319 23.9712 12.0746C24.0355 11.8173 23.995 11.545 23.8585 11.3175C23.7221 11.0901 23.5009 10.9262 23.2436 10.8619C22.9863 10.7976 22.7139 10.8381 22.4865 10.9745H22.4845Z" fill="#202020"/>
<path d="M22.4845 15.5429L11.9995 21.8339L1.51451 15.5429C1.4019 15.4753 1.27709 15.4306 1.14719 15.4113C1.0173 15.392 0.884873 15.3984 0.757471 15.4303C0.630069 15.4621 0.510188 15.5187 0.404672 15.5969C0.299157 15.6751 0.210073 15.7733 0.142508 15.8859C0.0749432 15.9985 0.0302196 16.1233 0.010891 16.2532C-0.00843766 16.3831 -0.00199272 16.5155 0.0298578 16.6429C0.0941828 16.9002 0.258085 17.1215 0.485508 17.2579L11.4855 23.8579C11.641 23.9514 11.8191 24.0007 12.0005 24.0007C12.182 24.0007 12.36 23.9514 12.5155 23.8579L23.5155 17.2579C23.7429 17.1215 23.9068 16.9002 23.9712 16.6429C24.0355 16.3856 23.995 16.1133 23.8585 15.8859C23.7221 15.6585 23.5008 15.4946 23.2435 15.4303C22.9862 15.3659 22.7139 15.4064 22.4865 15.5429H22.4845Z" fill="#202020"/>
<path d="M11.9997 14.774C11.4603 14.7737 10.9311 14.6268 10.4687 14.349L0.484684 8.35803C0.336831 8.26913 0.214494 8.14349 0.129564 7.99332C0.0446343 7.84315 0 7.67356 0 7.50103C0 7.32851 0.0446343 7.15892 0.129564 7.00875C0.214494 6.85858 0.336831 6.73294 0.484684 6.64403L10.4687 0.653032C10.9311 0.375261 11.4603 0.228516 11.9997 0.228516C12.5391 0.228516 13.0683 0.375261 13.5307 0.653032L23.5147 6.64403C23.6625 6.73294 23.7849 6.85858 23.8698 7.00875C23.9547 7.15892 23.9994 7.32851 23.9994 7.50103C23.9994 7.67356 23.9547 7.84315 23.8698 7.99332C23.7849 8.14349 23.6625 8.26913 23.5147 8.35803L13.5307 14.349C13.0683 14.6268 12.5391 14.7737 11.9997 14.774ZM2.94368 7.50103L11.4997 12.634C11.6508 12.7244 11.8236 12.7722 11.9997 12.7722C12.1758 12.7722 12.3486 12.7244 12.4997 12.634L21.0557 7.50103L12.4997 2.36803C12.3486 2.27764 12.1758 2.2299 11.9997 2.2299C11.8236 2.2299 11.6508 2.27764 11.4997 2.36803L2.94368 7.50103Z" fill="#202020"/>
</g>
<defs>
<clipPath id="clip0_2_6954">
<rect width="24" height="24" fill="white"/>
</clipPath>
</defs>
</svg>
