<svg width="24" height="24" viewBox="0 0 24 24" fill="none" xmlns="http://www.w3.org/2000/svg">
<g clip-path="url(#clip0_2_7171)">
<path d="M20.0362 23.9991H3.9642C3.28838 24.0006 2.62344 23.829 2.03281 23.5005C1.44219 23.1721 0.945575 22.6978 0.590365 22.1228C0.235154 21.5479 0.0331947 20.8915 0.00375493 20.2164C-0.0256848 19.5412 0.118377 18.8697 0.422197 18.2661L8.4592 2.18805C8.76558 1.5686 9.22981 1.04084 9.80512 0.657948C10.3804 0.275052 11.0465 0.050548 11.7362 0.007054C12.5144 -0.0424697 13.29 0.137871 13.9665 0.525648C14.643 0.913425 15.1906 1.49153 15.5412 2.18805L23.5782 18.2661C23.8802 18.8699 24.0229 19.541 23.9927 20.2155C23.9624 20.89 23.7603 21.5456 23.4054 22.12C23.0505 22.6944 22.5547 23.1685 21.965 23.4974C21.3753 23.8263 20.7114 23.999 20.0362 23.9991ZM2.0002 20.0421C2.0044 20.561 2.21289 21.0574 2.5805 21.4237C2.94812 21.79 3.44525 21.9967 3.9642 21.9991H20.0362C20.5551 21.9967 21.0523 21.79 21.4199 21.4237C21.7875 21.0574 21.996 20.561 22.0002 20.0421C21.9997 19.7358 21.9271 19.434 21.7882 19.1611L13.7532 3.08205C13.5907 2.75622 13.3405 2.48214 13.0309 2.29057C12.7212 2.09899 12.3643 1.99751 12.0002 1.99751C11.6361 1.99751 11.2792 2.09899 10.9695 2.29057C10.6599 2.48214 10.4097 2.75622 10.2472 3.08205L2.2102 19.1611C2.07202 19.4342 2.00008 19.736 2.0002 20.0421Z" fill="#202020"/>
</g>
<defs>
<clipPath id="clip0_2_7171">
<rect width="24" height="24" fill="white"/>
</clipPath>
</defs>
</svg>
