<svg width="24" height="24" viewBox="0 0 24 24" fill="none" xmlns="http://www.w3.org/2000/svg">
<g clip-path="url(#clip0_2_7045)">
<path d="M18.7572 15.9997C18.0686 15.9981 17.3864 16.1329 16.7502 16.3964C16.1139 16.6598 15.5362 17.0467 15.0502 17.5347C13.6383 18.9548 11.9586 20.0806 10.1086 20.847C8.25851 21.6135 6.27477 22.0052 4.27224 21.9997H3.12224C2.90035 22 2.68334 21.9345 2.49872 21.8114C2.3141 21.6883 2.17016 21.5132 2.08513 21.3082C2.00011 21.1033 1.97782 20.8777 2.0211 20.6601C2.06438 20.4424 2.17127 20.2425 2.32824 20.0857L3.02124 19.3927C4.94406 19.2936 6.76156 18.4839 8.12124 17.1207L12.4472 12.7997C12.8694 12.9132 13.3026 12.9802 13.7392 12.9997C13.8252 12.9997 13.9122 12.9997 14.0002 12.9997C15.5924 12.9985 17.1192 12.3663 18.2462 11.2417L19.2462 10.2417C19.8334 9.65347 20.2922 8.94985 20.5935 8.17529C20.8949 7.40074 21.0324 6.57209 20.9972 5.74171C20.9639 4.90767 20.7553 4.09 20.385 3.34191C20.0148 2.59382 19.4911 1.93207 18.8482 1.39971C17.6471 0.448377 16.1354 -0.0227505 14.6064 0.0777737C13.0775 0.178298 11.6405 0.843303 10.5742 1.94371L9.94124 2.57771C9.1762 3.34 8.61893 4.28535 8.32242 5.32383C8.02591 6.36232 8.00003 7.4594 8.24724 8.51071L3.87924 12.8787C2.51532 14.2379 1.70551 16.0557 1.60724 17.9787L0.914241 18.6717C0.477653 19.1082 0.180347 19.6645 0.0599349 20.27C-0.0604775 20.8755 0.00141336 21.5032 0.237778 22.0736C0.474143 22.6439 0.874362 23.1314 1.3878 23.4742C1.90125 23.8171 2.50485 24 3.12224 23.9997H4.27224C6.53741 24.0059 8.7813 23.5627 10.8741 22.6959C12.9668 21.829 14.8669 20.5558 16.4642 18.9497C16.9177 18.4963 17.4955 18.1875 18.1244 18.0623C18.7533 17.9372 19.4053 18.0013 19.9978 18.2467C20.5903 18.492 21.0968 18.9074 21.4532 19.4405C21.8096 19.9736 22 20.6004 22.0002 21.2417V22.9997C22.0002 23.2649 22.1056 23.5193 22.2931 23.7068C22.4807 23.8944 22.735 23.9997 23.0002 23.9997C23.2655 23.9997 23.5198 23.8944 23.7073 23.7068C23.8949 23.5193 24.0002 23.2649 24.0002 22.9997V21.2417C23.9984 19.8518 23.4454 18.5194 22.4625 17.5367C21.4796 16.5541 20.1471 16.0013 18.7572 15.9997ZM11.3572 3.98771L11.9902 3.35371C12.8116 2.52837 13.9259 2.06109 15.0902 2.05371C15.9917 2.04492 16.8671 2.35562 17.5612 2.93071C17.9907 3.28535 18.3408 3.72638 18.5887 4.22514C18.8366 4.72389 18.9768 5.26923 19.0002 5.82571C19.0233 6.37923 18.9316 6.93153 18.7307 7.44785C18.5299 7.96416 18.2243 8.43329 17.8332 8.82571L16.8332 9.82571C16.4403 10.2186 15.9699 10.5254 15.4519 10.7264C14.9339 10.9274 14.3797 11.0183 13.8246 10.9933C13.2695 10.9682 12.7257 10.8278 12.2279 10.581C11.7301 10.3342 11.2892 9.98638 10.9332 9.55971C10.3013 8.7435 9.99458 7.72186 10.0725 6.69254C10.1505 5.66322 10.6076 4.69942 11.3552 3.98771H11.3572ZM5.29324 14.2927L9.12924 10.4557C9.22024 10.5857 9.29324 10.7257 9.39624 10.8487C9.72817 11.2408 10.1082 11.5896 10.5272 11.8867L6.70724 15.7067C5.88507 16.5315 4.83327 17.0891 3.68924 17.3067C3.90875 16.1636 4.46773 15.1133 5.29324 14.2927Z" fill="#202020"/>
</g>
<defs>
<clipPath id="clip0_2_7045">
<rect width="24" height="24" fill="white"/>
</clipPath>
</defs>
</svg>
