<svg width="24" height="24" viewBox="0 0 24 24" fill="none" xmlns="http://www.w3.org/2000/svg">
<g clip-path="url(#clip0_2_7159)">
<path d="M15.0005 3.84949C15.0036 4.04836 15.0648 4.24197 15.1766 4.40649C15.2883 4.57101 15.4458 4.69928 15.6295 4.77549C17.2717 5.49807 18.6605 6.695 19.6175 8.2126C20.5745 9.73019 21.0561 11.4992 21.0005 13.2925C20.9617 15.6794 19.9764 17.9532 18.2612 19.6137C16.546 21.2741 14.2414 22.1852 11.8545 22.1465C9.46752 22.1078 7.19372 21.1224 5.53327 19.4072C3.87282 17.692 2.96175 15.3874 3.00047 13.0005C3.00278 11.2567 3.51161 9.55117 4.46512 8.09117C5.41863 6.63118 6.77573 5.47962 8.37147 4.77649C8.55526 4.69982 8.71267 4.57117 8.82441 4.40633C8.93614 4.24148 8.99733 4.04761 9.00047 3.84849C9.00073 3.6847 8.96075 3.52336 8.88405 3.37864C8.80735 3.23391 8.69627 3.11025 8.56058 3.01851C8.4249 2.92676 8.26875 2.86976 8.10588 2.85249C7.943 2.83523 7.77837 2.85824 7.62647 2.91949C5.30575 3.92563 3.40269 5.70083 2.23783 7.94608C1.07297 10.1913 0.717497 12.7694 1.23128 15.2461C1.74506 17.7229 3.0967 19.9468 5.05854 21.5435C7.02038 23.1401 9.47253 24.0118 12.002 24.0118C14.5314 24.0118 16.9836 23.1401 18.9454 21.5435C20.9072 19.9468 22.2589 17.7229 22.7727 15.2461C23.2864 12.7694 22.931 10.1913 21.7661 7.94608C20.6012 5.70083 18.6982 3.92563 16.3775 2.91949C16.2253 2.85757 16.0603 2.83407 15.8969 2.85108C15.7336 2.86808 15.5769 2.92507 15.4408 3.017C15.3047 3.10893 15.1933 3.23298 15.1165 3.37817C15.0397 3.52337 14.9998 3.68524 15.0005 3.84949Z" fill="#202020"/>
<path d="M13 1C13 0.447715 12.5523 0 12 0C11.4477 0 11 0.447715 11 1V7C11 7.55228 11.4477 8 12 8C12.5523 8 13 7.55228 13 7V1Z" fill="#202020"/>
</g>
<defs>
<clipPath id="clip0_2_7159">
<rect width="24" height="24" fill="white"/>
</clipPath>
</defs>
</svg>
