<svg width="24" height="24" viewBox="0 0 24 24" fill="none" xmlns="http://www.w3.org/2000/svg">
<path d="M17.0008 24H7.00582C6.42743 23.9994 5.85598 23.8741 5.33047 23.6325C4.80497 23.3908 4.33778 23.0387 3.96082 22.6C3.59 22.1705 3.3162 21.666 3.15812 21.121C3.00004 20.576 2.96139 20.0033 3.04482 19.442C3.58132 16.5173 5.14145 13.8792 7.44582 12C5.14142 10.1202 3.58161 7.48124 3.04582 4.556C2.96256 3.99509 3.00119 3.42283 3.15909 2.8782C3.31699 2.33357 3.59045 1.82939 3.96082 1.4C4.33778 0.961326 4.80497 0.60916 5.33047 0.367548C5.85598 0.125935 6.42743 0.000566288 7.00582 0L17.0008 0C17.5791 0.000512143 18.1504 0.125862 18.6758 0.367483C19.2011 0.609104 19.6681 0.9613 20.0448 1.4C20.4157 1.82895 20.6897 2.33285 20.8481 2.87732C21.0065 3.42179 21.0457 3.99403 20.9628 4.555C20.4211 7.48095 18.8579 10.1194 16.5518 12C18.8566 13.8822 20.418 16.5217 20.9578 19.448C21.0408 20.0091 21.0017 20.5815 20.8433 21.1262C20.6848 21.6708 20.4108 22.1749 20.0398 22.604C19.6633 23.0413 19.1969 23.3924 18.6725 23.6333C18.1481 23.8742 17.5779 23.9993 17.0008 24ZM17.0008 2H7.00582C6.71574 1.99976 6.42904 2.06218 6.16531 2.18299C5.90159 2.30381 5.66708 2.48016 5.47782 2.7C5.29292 2.91037 5.15636 3.15871 5.07775 3.42754C4.99914 3.69636 4.98039 3.97915 5.02282 4.256C5.39782 6.756 6.94482 9.096 9.62282 11.213C9.74107 11.3066 9.8366 11.4258 9.90227 11.5615C9.96795 11.6973 10.0021 11.8462 10.0021 11.997C10.0021 12.1478 9.96795 12.2967 9.90227 12.4325C9.8366 12.5682 9.74107 12.6874 9.62282 12.781C6.94482 14.9 5.40082 17.242 5.02282 19.741C4.97993 20.0183 4.99845 20.3017 5.07707 20.5711C5.15569 20.8404 5.2925 21.0893 5.47782 21.3C5.66708 21.5198 5.90159 21.6962 6.16531 21.817C6.42904 21.9378 6.71574 22.0002 7.00582 22H17.0008C17.2909 22.0002 17.5776 21.9378 17.8413 21.817C18.1051 21.6962 18.3396 21.5198 18.5288 21.3C18.7136 21.0899 18.8502 20.842 18.929 20.5735C19.0078 20.3051 19.0268 20.0226 18.9848 19.746C18.6118 17.259 17.0648 14.917 14.3848 12.784C14.2673 12.6903 14.1724 12.5714 14.1072 12.436C14.042 12.3006 14.0081 12.1523 14.0081 12.002C14.0081 11.8517 14.042 11.7034 14.1072 11.568C14.1724 11.4326 14.2673 11.3137 14.3848 11.22C17.0658 9.087 18.6128 6.745 18.9848 4.257C19.0267 3.97955 19.0071 3.69629 18.9274 3.42725C18.8478 3.1582 18.71 2.90994 18.5238 2.7C18.3351 2.4808 18.1014 2.30482 17.8386 2.18403C17.5758 2.06324 17.2901 2.00047 17.0008 2Z" fill="#202020"/>
</svg>
