<svg width="24" height="24" viewBox="0 0 24 24" fill="none" xmlns="http://www.w3.org/2000/svg">
<path d="M15.0006 17.0006C15.0006 17.2658 14.8952 17.5201 14.7077 17.7077C14.5201 17.8952 14.2658 18.0006 14.0006 18.0006H10.0006C9.73535 18.0006 9.481 17.8952 9.29346 17.7077C9.10593 17.5201 9.00057 17.2658 9.00057 17.0006C9.00057 16.7353 9.10593 16.481 9.29346 16.2934C9.481 16.1059 9.73535 16.0006 10.0006 16.0006H14.0006C14.2658 16.0006 14.5201 16.1059 14.7077 16.2934C14.8952 16.481 15.0006 16.7353 15.0006 17.0006ZM14.7076 7.29357C14.52 7.1061 14.2657 7.00078 14.0006 7.00078C13.7354 7.00078 13.4811 7.1061 13.2936 7.29357L12.0006 8.58657L10.7076 7.29357C10.6153 7.19806 10.505 7.12188 10.383 7.06947C10.261 7.01706 10.1297 6.98947 9.99697 6.98832C9.86419 6.98717 9.73251 7.01247 9.60962 7.06275C9.48672 7.11303 9.37507 7.18728 9.28117 7.28117C9.18728 7.37507 9.11303 7.48672 9.06275 7.60961C9.01247 7.73251 8.98716 7.86419 8.98832 7.99697C8.98947 8.12975 9.01706 8.26097 9.06947 8.38297C9.12188 8.50498 9.19806 8.61532 9.29357 8.70757L10.5866 10.0006L9.29357 11.2936C9.19806 11.3858 9.12188 11.4962 9.06947 11.6182C9.01706 11.7402 8.98947 11.8714 8.98832 12.0042C8.98716 12.1369 9.01247 12.2686 9.06275 12.3915C9.11303 12.5144 9.18728 12.6261 9.28117 12.72C9.37507 12.8138 9.48672 12.8881 9.60962 12.9384C9.73251 12.9887 9.86419 13.014 9.99697 13.0128C10.1297 13.0117 10.261 12.9841 10.383 12.9317C10.505 12.8793 10.6153 12.8031 10.7076 12.7076L12.0006 11.4146L13.2936 12.7076C13.4822 12.8897 13.7348 12.9905 13.997 12.9882C14.2592 12.986 14.51 12.8808 14.6954 12.6954C14.8808 12.51 14.986 12.2592 14.9882 11.997C14.9905 11.7348 14.8897 11.4822 14.7076 11.2936L13.4146 10.0006L14.7076 8.70757C14.895 8.52004 15.0004 8.26573 15.0004 8.00057C15.0004 7.7354 14.895 7.4811 14.7076 7.29357ZM22.0006 16.0006H18.0006C17.7354 16.0006 17.481 16.1059 17.2935 16.2934C17.1059 16.481 17.0006 16.7353 17.0006 17.0006C17.0006 17.2658 17.1059 17.5201 17.2935 17.7077C17.481 17.8952 17.7354 18.0006 18.0006 18.0006H22.0006C22.2658 18.0006 22.5201 17.8952 22.7077 17.7077C22.8952 17.5201 23.0006 17.2658 23.0006 17.0006C23.0006 16.7353 22.8952 16.481 22.7077 16.2934C22.5201 16.1059 22.2658 16.0006 22.0006 16.0006ZM21.4146 10.0006L22.7076 8.70757C22.8031 8.61532 22.8793 8.50498 22.9317 8.38297C22.9841 8.26097 23.0117 8.12975 23.0128 7.99697C23.014 7.86419 22.9887 7.73251 22.9384 7.60961C22.8881 7.48672 22.8139 7.37507 22.72 7.28117C22.6261 7.18728 22.5144 7.11303 22.3915 7.06275C22.2686 7.01247 22.1369 6.98717 22.0042 6.98832C21.8714 6.98947 21.7402 7.01706 21.6182 7.06947C21.4962 7.12188 21.3858 7.19806 21.2936 7.29357L20.0006 8.58657L18.7076 7.29357C18.6153 7.19806 18.505 7.12188 18.383 7.06947C18.261 7.01706 18.1298 6.98947 17.997 6.98832C17.8642 6.98717 17.7325 7.01247 17.6096 7.06275C17.4867 7.11303 17.3751 7.18728 17.2812 7.28117C17.1873 7.37507 17.113 7.48672 17.0627 7.60961C17.0125 7.73251 16.9872 7.86419 16.9883 7.99697C16.9895 8.12975 17.0171 8.26097 17.0695 8.38297C17.1219 8.50498 17.1981 8.61532 17.2936 8.70757L18.5866 10.0006L17.2936 11.2936C17.1981 11.3858 17.1219 11.4962 17.0695 11.6182C17.0171 11.7402 16.9895 11.8714 16.9883 12.0042C16.9872 12.1369 17.0125 12.2686 17.0627 12.3915C17.113 12.5144 17.1873 12.6261 17.2812 12.72C17.3751 12.8138 17.4867 12.8881 17.6096 12.9384C17.7325 12.9887 17.8642 13.014 17.997 13.0128C18.1298 13.0117 18.261 12.9841 18.383 12.9317C18.505 12.8793 18.6153 12.8031 18.7076 12.7076L20.0006 11.4146L21.2936 12.7076C21.4822 12.8897 21.7348 12.9905 21.997 12.9882C22.2592 12.986 22.51 12.8808 22.6954 12.6954C22.8808 12.51 22.986 12.2592 22.9882 11.997C22.9905 11.7348 22.8897 11.4822 22.7076 11.2936L21.4146 10.0006ZM6.00057 16.0006H2.00057C1.73535 16.0006 1.481 16.1059 1.29346 16.2934C1.10593 16.481 1.00057 16.7353 1.00057 17.0006C1.00057 17.2658 1.10593 17.5201 1.29346 17.7077C1.481 17.8952 1.73535 18.0006 2.00057 18.0006H6.00057C6.26579 18.0006 6.52014 17.8952 6.70768 17.7077C6.89521 17.5201 7.00057 17.2658 7.00057 17.0006C7.00057 16.7353 6.89521 16.481 6.70768 16.2934C6.52014 16.1059 6.26579 16.0006 6.00057 16.0006ZM6.70757 7.29357C6.52004 7.1061 6.26573 7.00078 6.00057 7.00078C5.7354 7.00078 5.4811 7.1061 5.29357 7.29357L4.00057 8.58657L2.70757 7.29357C2.61532 7.19806 2.50498 7.12188 2.38297 7.06947C2.26097 7.01706 2.12975 6.98947 1.99697 6.98832C1.86419 6.98717 1.73251 7.01247 1.60962 7.06275C1.48672 7.11303 1.37507 7.18728 1.28117 7.28117C1.18728 7.37507 1.11303 7.48672 1.06275 7.60961C1.01247 7.73251 0.987165 7.86419 0.988319 7.99697C0.989473 8.12975 1.01706 8.26097 1.06947 8.38297C1.12188 8.50498 1.19806 8.61532 1.29357 8.70757L2.58657 10.0006L1.29357 11.2936C1.19806 11.3858 1.12188 11.4962 1.06947 11.6182C1.01706 11.7402 0.989473 11.8714 0.988319 12.0042C0.987165 12.1369 1.01247 12.2686 1.06275 12.3915C1.11303 12.5144 1.18728 12.6261 1.28117 12.72C1.37507 12.8138 1.48672 12.8881 1.60962 12.9384C1.73251 12.9887 1.86419 13.014 1.99697 13.0128C2.12975 13.0117 2.26097 12.9841 2.38297 12.9317C2.50498 12.8793 2.61532 12.8031 2.70757 12.7076L4.00057 11.4146L5.29357 12.7076C5.38582 12.8031 5.49616 12.8793 5.61817 12.9317C5.74017 12.9841 5.87139 13.0117 6.00417 13.0128C6.13695 13.014 6.26863 12.9887 6.39152 12.9384C6.51442 12.8881 6.62607 12.8138 6.71996 12.72C6.81386 12.6261 6.88811 12.5144 6.93839 12.3915C6.98867 12.2686 7.01397 12.1369 7.01282 12.0042C7.01167 11.8714 6.98408 11.7402 6.93167 11.6182C6.87926 11.4962 6.80308 11.3858 6.70757 11.2936L5.41457 10.0006L6.70757 8.70757C6.89504 8.52004 7.00036 8.26573 7.00036 8.00057C7.00036 7.7354 6.89504 7.4811 6.70757 7.29357Z" fill="#202020"/>
</svg>
