<svg width="24" height="24" viewBox="0 0 24 24" fill="none" xmlns="http://www.w3.org/2000/svg">
<g clip-path="url(#clip0_2_7492)">
<path d="M20.468 17.3002C20.447 17.2702 18.911 15.4852 18.911 15.4852C19.4691 15.0741 19.8454 14.462 19.9604 13.7784C20.0753 13.0948 19.9199 12.3933 19.527 11.8222C19.502 11.7862 17.642 9.73122 17.642 9.73122C18.1073 9.49658 18.4867 9.12108 18.726 8.65822C18.9319 8.26174 19.0244 7.81614 18.9934 7.37046C18.9623 6.92478 18.8089 6.49632 18.55 6.13222C18.529 6.10022 13.887 0.84622 13.887 0.84622C13.6435 0.591411 13.3509 0.388601 13.0268 0.250039C12.7028 0.111477 12.354 0.0400391 12.0015 0.0400391C11.6491 0.0400391 11.3003 0.111477 10.9762 0.250039C10.6521 0.388601 10.3595 0.591411 10.116 0.84622C10.116 0.84622 5.47302 6.10022 5.45202 6.13022C5.19313 6.49432 5.03972 6.92278 5.00866 7.36846C4.97761 7.81414 5.07012 8.25974 5.27602 8.65622C5.51539 9.11908 5.89474 9.49459 6.36002 9.72922C6.36002 9.72922 4.50102 11.7842 4.47502 11.8202C4.08212 12.3913 3.92671 13.0928 4.04167 13.7764C4.15663 14.46 4.53294 15.0721 5.09102 15.4832C5.09102 15.4832 3.55502 17.2682 3.53402 17.3002C3.22447 17.7503 3.04369 18.2764 3.01118 18.8217C2.97867 19.367 3.09567 19.9108 3.34955 20.3945C3.60343 20.8782 3.98457 21.2834 4.45183 21.5663C4.91909 21.8493 5.45475 21.9993 6.00102 22.0002H11.001V23.0002C11.001 23.2654 11.1064 23.5198 11.2939 23.7073C11.4815 23.8949 11.7358 24.0002 12.001 24.0002C12.2662 24.0002 12.5206 23.8949 12.7081 23.7073C12.8957 23.5198 13.001 23.2654 13.001 23.0002V22.0002H18.001C18.5476 22.0001 19.0838 21.8506 19.5516 21.5679C20.0195 21.2852 20.4012 20.8801 20.6556 20.3963C20.9099 19.9125 21.0273 19.3683 20.9949 18.8227C20.9626 18.277 20.7818 17.7506 20.472 17.3002H20.468ZM18.883 19.4672C18.7996 19.6288 18.673 19.7642 18.5173 19.8583C18.3616 19.9523 18.1829 20.0015 18.001 20.0002H6.00102C5.8225 20.0005 5.64717 19.9529 5.49323 19.8625C5.33929 19.7721 5.21236 19.6421 5.12562 19.4861C5.03888 19.3301 4.99549 19.1537 4.99996 18.9752C5.00442 18.7967 5.05658 18.6227 5.15102 18.4712L7.28602 16.0002H13.001C13.2662 16.0002 13.5206 15.8949 13.7081 15.7073C13.8957 15.5198 14.001 15.2654 14.001 15.0002C14.001 14.735 13.8957 14.4806 13.7081 14.2931C13.5206 14.1056 13.2662 14.0002 13.001 14.0002H6.67102C6.55398 14.0002 6.439 13.9694 6.33762 13.911C6.23624 13.8525 6.15204 13.7683 6.09347 13.667C6.0349 13.5657 6.00403 13.4507 6.00395 13.3337C6.00387 13.2166 6.03459 13.1016 6.09302 13.0002L8.81502 10.0002H12.001C12.2662 10.0002 12.5206 9.89486 12.7081 9.70733C12.8957 9.51979 13.001 9.26544 13.001 9.00022C13.001 8.735 12.8957 8.48065 12.7081 8.29311C12.5206 8.10558 12.2662 8.00022 12.001 8.00022H7.50102C7.40855 8.0035 7.31706 7.98042 7.23721 7.93368C7.15735 7.88693 7.09243 7.81845 7.05002 7.73622C7.01464 7.67186 6.99693 7.59929 6.99869 7.52587C7.00045 7.45245 7.02161 7.38081 7.06002 7.31822L11.612 2.16922C11.6597 2.11331 11.719 2.06841 11.7857 2.03762C11.8524 2.00683 11.925 1.99089 11.9985 1.99089C12.072 1.99089 12.1446 2.00683 12.2114 2.03762C12.2781 2.06841 12.3373 2.11331 12.385 2.16922L16.935 7.31722C16.9737 7.37968 16.9951 7.45129 16.997 7.52473C16.9989 7.59817 16.9813 7.67081 16.946 7.73522C16.9042 7.8167 16.8403 7.88476 16.7616 7.93163C16.6829 7.97849 16.5926 8.00226 16.501 8.00022H15.633C15.4405 8.00288 15.2529 8.0607 15.0923 8.16684C14.9317 8.27297 14.8049 8.42295 14.727 8.59898C14.6491 8.77501 14.6233 8.96969 14.6527 9.15993C14.6822 9.35016 14.7656 9.52796 14.893 9.67222L17.909 13.0002C17.9675 13.1016 17.9982 13.2166 17.9981 13.3337C17.998 13.4507 17.9671 13.5657 17.9086 13.667C17.85 13.7683 17.7658 13.8525 17.6644 13.911C17.563 13.9694 17.4481 14.0002 17.331 14.0002H17.174C16.9838 14.0031 16.7983 14.0599 16.639 14.1639C16.4797 14.2678 16.3531 14.4148 16.2738 14.5878C16.1946 14.7608 16.166 14.9527 16.1914 15.1412C16.2167 15.3298 16.295 15.5073 16.417 15.6532L18.847 18.4712C18.9413 18.6186 18.9943 18.7885 19.0007 18.9633C19.007 19.1381 18.9664 19.3114 18.883 19.4652V19.4672Z" fill="#202020"/>
</g>
<defs>
<clipPath id="clip0_2_7492">
<rect width="24" height="24" fill="white"/>
</clipPath>
</defs>
</svg>
