<svg width="24" height="24" viewBox="0 0 24 24" fill="none" xmlns="http://www.w3.org/2000/svg">
<path d="M15.3993 9.88079L10.8093 5.29079C10.622 5.10454 10.3685 5 10.1043 5C9.84013 5 9.58668 5.10454 9.39931 5.29079C9.30559 5.38376 9.23119 5.49436 9.18042 5.61622C9.12965 5.73808 9.10352 5.86878 9.10352 6.00079C9.10352 6.1328 9.12965 6.26351 9.18042 6.38537C9.23119 6.50723 9.30559 6.61783 9.39931 6.71079L13.9993 11.2908C14.093 11.3838 14.1674 11.4944 14.2182 11.6162C14.269 11.7381 14.2951 11.8688 14.2951 12.0008C14.2951 12.1328 14.269 12.2635 14.2182 12.3854C14.1674 12.5072 14.093 12.6178 13.9993 12.7108L9.39931 17.2908C9.21101 17.4778 9.1047 17.7319 9.10376 17.9973C9.10282 18.2626 9.20734 18.5175 9.39431 18.7058C9.58129 18.8941 9.83541 19.0004 10.1008 19.0014C10.3661 19.0023 10.621 18.8978 10.8093 18.7108L15.3993 14.1208C15.9611 13.5583 16.2767 12.7958 16.2767 12.0008C16.2767 11.2058 15.9611 10.4433 15.3993 9.88079Z" fill="#202020"/>
</svg>
