<svg width="24" height="24" viewBox="0 0 24 24" fill="none" xmlns="http://www.w3.org/2000/svg">
<g clip-path="url(#clip0_2_7108)">
<path d="M23.1183 0.881404C22.7598 0.518531 22.3137 0.254259 21.8232 0.11412C21.3327 -0.0260189 20.8144 -0.0372872 20.3183 0.0814036L4.31828 3.4514C3.39685 3.57777 2.52901 3.95888 1.81248 4.55182C1.09595 5.14475 0.559191 5.92596 0.262653 6.80747C-0.0338854 7.68898 -0.0784249 8.63577 0.13405 9.54122C0.346525 10.4467 0.807574 11.2748 1.46528 11.9324L3.18328 13.6494C3.27626 13.7424 3.35 13.8527 3.40028 13.9742C3.45056 14.0957 3.47638 14.2259 3.47628 14.3574V17.5254C3.47848 17.9708 3.58102 18.41 3.77628 18.8104L3.76828 18.8174L3.79428 18.8434C4.08729 19.4325 4.56586 19.909 5.15628 20.1994L5.18228 20.2254L5.18928 20.2174C5.58964 20.4127 6.02885 20.5152 6.47428 20.5174H9.64228C9.90733 20.5172 10.1616 20.6222 10.3493 20.8094L12.0663 22.5264C12.5268 22.992 13.0749 23.3619 13.6791 23.6147C14.2832 23.8675 14.9314 23.9983 15.5863 23.9994C16.132 23.9987 16.6741 23.9096 17.1913 23.7354C18.0647 23.4486 18.8406 22.9234 19.4315 22.2191C20.0224 21.5148 20.4047 20.6594 20.5353 19.7494L23.9103 3.7144C24.0351 3.21404 24.0278 2.68982 23.8889 2.19317C23.7501 1.69651 23.4845 1.24447 23.1183 0.881404ZM4.59928 12.2374L2.88028 10.5204C2.48 10.1298 2.19945 9.63305 2.07156 9.08856C1.94368 8.54407 1.97376 7.9744 2.15828 7.4464C2.33717 6.90473 2.66788 6.42583 3.11107 6.06667C3.55427 5.7075 4.09129 5.48319 4.65828 5.4204L20.4993 2.0854L5.47428 17.1124V14.3574C5.47579 13.9637 5.39924 13.5737 5.24905 13.2098C5.09886 12.8459 4.87801 12.5154 4.59928 12.2374ZM18.5703 19.4074C18.4935 19.9597 18.2643 20.4797 17.9084 20.909C17.5525 21.3383 17.0839 21.6599 16.5554 21.8378C16.0269 22.0156 15.4592 22.0425 14.9162 21.9156C14.3732 21.7888 13.8763 21.513 13.4813 21.1194L11.7613 19.3994C11.4836 19.1202 11.1534 18.8989 10.7897 18.7482C10.426 18.5975 10.036 18.5204 9.64228 18.5214H6.88728L21.9143 3.4994L18.5703 19.4074Z" fill="#202020"/>
</g>
<defs>
<clipPath id="clip0_2_7108">
<rect width="24" height="24" fill="white"/>
</clipPath>
</defs>
</svg>
