<svg width="24" height="24" viewBox="0 0 24 24" fill="none" xmlns="http://www.w3.org/2000/svg">
<g clip-path="url(#clip0_2_6473)">
<path d="M23.9805 2.02243V6.02243C23.9805 6.28765 23.8752 6.542 23.6876 6.72954C23.5001 6.91708 23.2457 7.02243 22.9805 7.02243C22.7153 7.02243 22.4609 6.91708 22.2734 6.72954C22.0859 6.542 21.9805 6.28765 21.9805 6.02243V3.45943L16.6805 8.73143C16.4914 8.91313 16.2385 9.01327 15.9763 9.01028C15.714 9.00729 15.4635 8.90141 15.2786 8.71545C15.0937 8.52949 14.9892 8.27833 14.9877 8.01609C14.9862 7.75385 15.0878 7.50151 15.2705 7.31343L20.5905 2.02243H17.9805C17.7153 2.02243 17.4609 1.91708 17.2734 1.72954C17.0859 1.542 16.9805 1.28765 16.9805 1.02243C16.9805 0.757216 17.0859 0.502862 17.2734 0.315326C17.4609 0.12779 17.7153 0.0224328 17.9805 0.0224328H21.9805C22.511 0.0224328 23.0197 0.233147 23.3947 0.608219C23.7698 0.983292 23.9805 1.492 23.9805 2.02243ZM23.0755 16.7614C23.655 17.3425 23.9805 18.1297 23.9805 18.9504C23.9805 19.7711 23.655 20.5583 23.0755 21.1394L22.1635 22.1894C13.9725 30.0274 -5.95648 10.1044 1.76352 1.88943L2.91252 0.889433C3.49461 0.326204 4.27486 0.0144937 5.0848 0.0216034C5.89474 0.0287131 6.6694 0.354072 7.24152 0.927433C7.27152 0.958433 9.12452 3.36643 9.12452 3.36643C9.67419 3.94388 9.98026 4.7109 9.97914 5.50813C9.97802 6.30537 9.6698 7.07153 9.11852 7.64743L7.95952 9.10443C8.60036 10.6615 9.54258 12.0767 10.732 13.2685C11.9215 14.4604 13.3347 15.4054 14.8905 16.0494L16.3555 14.8844C16.9314 14.3334 17.6973 14.0254 18.4943 14.0243C19.2913 14.0232 20.0581 14.3291 20.6355 14.8784C20.6355 14.8784 23.0445 16.7314 23.0755 16.7614ZM21.7005 18.2154C21.7005 18.2154 19.3075 16.3734 19.2765 16.3434C19.0705 16.1392 18.7921 16.0246 18.502 16.0246C18.2119 16.0246 17.9335 16.1392 17.7275 16.3434C17.7005 16.3694 15.6835 17.9774 15.6835 17.9774C15.5476 18.0856 15.3858 18.1565 15.2142 18.1832C15.0425 18.2098 14.8668 18.1913 14.7045 18.1294C12.6877 17.3795 10.8559 16.2044 9.33337 14.6839C7.81083 13.1634 6.63324 11.3332 5.88052 9.31743C5.81467 9.15355 5.79339 8.97515 5.81886 8.80038C5.84433 8.62561 5.91563 8.4607 6.02552 8.32243C6.02552 8.32243 7.63252 6.30543 7.65952 6.27843C7.86378 6.07242 7.9784 5.79405 7.9784 5.50393C7.9784 5.21382 7.86378 4.93545 7.65952 4.72943C7.62952 4.69943 5.78752 2.30543 5.78752 2.30543C5.57854 2.11781 5.30572 2.01722 5.02496 2.02429C4.74421 2.03135 4.47679 2.14554 4.27752 2.34343L3.12852 3.34343C-2.51548 10.1254 14.7575 26.4414 20.7005 20.8254L21.6125 19.7754C21.8275 19.5781 21.957 19.3047 21.9735 19.0133C21.9899 18.7219 21.892 18.4357 21.7005 18.2154Z" fill="#202020"/>
</g>
<defs>
<clipPath id="clip0_2_6473">
<rect width="24" height="24" fill="white"/>
</clipPath>
</defs>
</svg>
