<svg width="24" height="24" viewBox="0 0 24 24" fill="none" xmlns="http://www.w3.org/2000/svg">
<g clip-path="url(#clip0_2_6878)">
<path d="M22.9994 16.9994C22.7342 16.9994 22.4799 17.1048 22.2923 17.2923C22.1048 17.4799 21.9994 17.7342 21.9994 17.9994V20.5854L19.0054 17.5914C21.1994 15.2494 22.9994 12.5464 22.9994 9.98643C23.0547 8.46934 22.5072 6.99205 21.4766 5.87735C20.4461 4.76265 19.0162 4.10117 17.4994 4.03743C16.5974 4.04918 15.7127 4.28714 14.9265 4.72952C14.1403 5.17189 13.4777 5.80452 12.9994 6.56943C12.5212 5.80452 11.8586 5.17189 11.0724 4.72952C10.2861 4.28714 9.40148 4.04918 8.49943 4.03743C7.65137 4.0399 6.81716 4.25258 6.07143 4.65643L1.70643 0.292431C1.51783 0.110273 1.26523 0.00947813 1.00303 0.0117566C0.740833 0.014035 0.49002 0.119204 0.304612 0.304612C0.119204 0.49002 0.014035 0.740833 0.0117566 1.00303C0.00947813 1.26523 0.110273 1.51783 0.292431 1.70643L4.49943 5.91443C3.52429 7.0462 2.9915 8.49253 2.99943 9.98643C2.99943 13.7774 6.95043 17.8864 10.2644 20.6624C11.0301 21.3067 11.9987 21.66 12.9994 21.66C14.0001 21.66 14.9687 21.3067 15.7344 20.6624C16.3424 20.1524 16.9724 19.5974 17.5954 19.0084L20.5854 21.9994H17.9994C17.7342 21.9994 17.4799 22.1048 17.2923 22.2923C17.1048 22.4799 16.9994 22.7342 16.9994 22.9994C16.9994 23.2646 17.1048 23.519 17.2923 23.7065C17.4799 23.8941 17.7342 23.9994 17.9994 23.9994H21.9994C22.5299 23.9994 23.0386 23.7887 23.4136 23.4136C23.7887 23.0386 23.9994 22.5299 23.9994 21.9994V17.9994C23.9994 17.7342 23.8941 17.4799 23.7065 17.2923C23.519 17.1048 23.2646 16.9994 22.9994 16.9994ZM14.4494 19.1314C14.0386 19.4624 13.527 19.6429 12.9994 19.6429C12.4719 19.6429 11.9602 19.4624 11.5494 19.1314C7.38643 15.6424 4.99943 12.3094 4.99943 9.98643C4.94463 8.99979 5.28159 8.03141 5.93702 7.29189C6.59245 6.55238 7.51335 6.10154 8.49943 6.03743C9.48551 6.10154 10.4064 6.55238 11.0618 7.29189C11.7173 8.03141 12.0542 8.99979 11.9994 9.98643C11.9994 10.2516 12.1048 10.506 12.2923 10.6935C12.4799 10.8811 12.7342 10.9864 12.9994 10.9864C13.2646 10.9864 13.519 10.8811 13.7065 10.6935C13.8941 10.506 13.9994 10.2516 13.9994 9.98643C13.9446 8.99979 14.2816 8.03141 14.937 7.29189C15.5925 6.55238 16.5133 6.10154 17.4994 6.03743C18.4855 6.10154 19.4064 6.55238 20.0618 7.29189C20.7173 8.03141 21.0542 8.99979 20.9994 9.98643C20.9994 12.3084 18.6114 15.6414 14.4494 19.1314Z" fill="#202020"/>
</g>
<defs>
<clipPath id="clip0_2_6878">
<rect width="24" height="24" fill="white"/>
</clipPath>
</defs>
</svg>
