<svg width="24" height="24" viewBox="0 0 24 24" fill="none" xmlns="http://www.w3.org/2000/svg">
<path d="M16 0H8C6.67441 0.00158786 5.40356 0.528882 4.46622 1.46622C3.52888 2.40356 3.00159 3.67441 3 5V19C3.00159 20.3256 3.52888 21.5964 4.46622 22.5338C5.40356 23.4711 6.67441 23.9984 8 24H16C17.3256 23.9984 18.5964 23.4711 19.5338 22.5338C20.4711 21.5964 20.9984 20.3256 21 19V5C20.9984 3.67441 20.4711 2.40356 19.5338 1.46622C18.5964 0.528882 17.3256 0.00158786 16 0V0ZM19 19C19 19.7956 18.6839 20.5587 18.1213 21.1213C17.5587 21.6839 16.7956 22 16 22H8C7.20435 22 6.44129 21.6839 5.87868 21.1213C5.31607 20.5587 5 19.7956 5 19V5C5 4.20435 5.31607 3.44129 5.87868 2.87868C6.44129 2.31607 7.20435 2 8 2H16C16.7956 2 17.5587 2.31607 18.1213 2.87868C18.6839 3.44129 19 4.20435 19 5V19Z" fill="#202020"/>
<path d="M12 7.5C12.8284 7.5 13.5 6.82843 13.5 6C13.5 5.17157 12.8284 4.5 12 4.5C11.1716 4.5 10.5 5.17157 10.5 6C10.5 6.82843 11.1716 7.5 12 7.5Z" fill="#202020"/>
<path d="M12 9.99902C11.0111 9.99902 10.0444 10.2923 9.22215 10.8417C8.39991 11.3911 7.75904 12.172 7.3806 13.0856C7.00217 13.9992 6.90315 15.0046 7.09608 15.9745C7.289 16.9444 7.76521 17.8353 8.46447 18.5346C9.16373 19.2338 10.0546 19.71 11.0246 19.903C11.9945 20.0959 12.9998 19.9969 13.9134 19.6184C14.827 19.24 15.6079 18.5991 16.1574 17.7769C16.7068 16.9546 17 15.9879 17 14.999C16.9984 13.6734 16.4711 12.4026 15.5338 11.4652C14.5964 10.5279 13.3256 10.0006 12 9.99902ZM12 17.999C11.4067 17.999 10.8266 17.8231 10.3333 17.4934C9.83994 17.1638 9.45543 16.6953 9.22836 16.1471C9.0013 15.5989 8.94189 14.9957 9.05765 14.4138C9.1734 13.8318 9.45912 13.2973 9.87868 12.8777C10.2982 12.4581 10.8328 12.1724 11.4147 12.0567C11.9967 11.9409 12.5999 12.0003 13.1481 12.2274C13.6962 12.4544 14.1648 12.839 14.4944 13.3323C14.8241 13.8257 15 14.4057 15 14.999C15 15.7947 14.6839 16.5577 14.1213 17.1203C13.5587 17.683 12.7957 17.999 12 17.999Z" fill="#202020"/>
<path d="M12 16.001C12.5523 16.001 13 15.5533 13 15.001C13 14.4487 12.5523 14.001 12 14.001C11.4477 14.001 11 14.4487 11 15.001C11 15.5533 11.4477 16.001 12 16.001Z" fill="#202020"/>
</svg>
