<svg width="24" height="24" viewBox="0 0 24 24" fill="none" xmlns="http://www.w3.org/2000/svg">
<g clip-path="url(#clip0_2_6412)">
<path d="M10.0007 7.99958C10.3963 7.99958 10.783 8.11688 11.1119 8.33664C11.4408 8.55641 11.6971 8.86876 11.8485 9.23422C11.9999 9.59967 12.0395 10.0018 11.9623 10.3898C11.8851 10.7777 11.6947 11.1341 11.415 11.4138C11.1353 11.6935 10.7789 11.884 10.3909 11.9612C10.003 12.0383 9.60083 11.9987 9.23538 11.8473C8.86993 11.696 8.55757 11.4396 8.33781 11.1107C8.11805 10.7818 8.00075 10.3951 8.00075 9.99958C8.00075 9.46915 8.21146 8.96044 8.58654 8.58537C8.96161 8.2103 9.47032 7.99958 10.0007 7.99958ZM24.0008 9.99958C23.9907 13.2932 22.8417 16.482 20.7485 19.0249C18.6554 21.5679 15.747 23.3086 12.5167 23.9516C12.089 24.0297 11.6492 24.0123 11.2289 23.9007C10.8087 23.789 10.4183 23.5858 10.0857 23.3056C9.74609 23.0228 9.47283 22.6687 9.28532 22.2684C9.09781 21.8682 9.00066 21.4316 9.00075 20.9896V19.9486C7.31793 19.7806 5.70521 19.1885 4.31341 18.2278C2.9216 17.2671 1.79618 15.9691 1.0424 14.4552C0.288611 12.9413 -0.0689163 11.261 0.00325088 9.57132C0.0754181 7.88168 0.574922 6.23794 1.45505 4.79383C2.33518 3.34971 3.56718 2.1524 5.03583 1.31386C6.50448 0.475318 8.16181 0.0229452 9.85282 -0.000954314C11.5438 -0.0248539 13.2133 0.3805 14.7051 1.1772C16.1968 1.9739 17.4622 3.13592 18.3827 4.55458C18.4544 4.66502 18.5036 4.7885 18.5275 4.91794C18.5514 5.04739 18.5496 5.18028 18.5222 5.30903C18.4947 5.43778 18.4422 5.55986 18.3676 5.66831C18.2929 5.77676 18.1977 5.86945 18.0872 5.94108C17.9768 6.01272 17.8533 6.0619 17.7239 6.08582C17.5944 6.10974 17.4615 6.10793 17.3328 6.08049C17.2041 6.05305 17.082 6.00052 16.9735 5.9259C16.8651 5.85128 16.7724 5.75602 16.7008 5.64558C15.7616 4.19798 14.3796 3.09282 12.7609 2.49502C11.1422 1.89721 9.37363 1.8388 7.71902 2.3285C6.06441 2.8182 4.61249 3.82976 3.57989 5.21224C2.54729 6.59473 1.98936 8.27403 1.98936 9.99958C1.98936 11.7251 2.54729 13.4044 3.57989 14.7869C4.61249 16.1694 6.06441 17.181 7.71902 17.6707C9.37363 18.1604 11.1422 18.102 12.7609 17.5041C14.3796 16.9063 15.7616 15.8012 16.7008 14.3536C16.7724 14.2435 16.865 14.1485 16.9733 14.0742C17.0817 13.9999 17.2036 13.9477 17.3321 13.9204C17.4606 13.8932 17.5932 13.8916 17.7223 13.9157C17.8515 13.9397 17.9746 13.9889 18.0847 14.0606C18.1949 14.1322 18.2898 14.2248 18.3641 14.3332C18.4384 14.4415 18.4907 14.5634 18.5179 14.6919C18.5451 14.8204 18.5467 14.953 18.5227 15.0822C18.4986 15.2113 18.4494 15.3345 18.3778 15.4446C17.5642 16.6991 16.4786 17.7543 15.2016 18.5319C13.9245 19.3095 12.4887 19.7896 11.0007 19.9366V20.9896C11.0009 21.1387 11.0338 21.286 11.0972 21.421C11.1606 21.556 11.253 21.6753 11.3677 21.7706C11.4753 21.863 11.6022 21.9301 11.7391 21.9669C11.8759 22.0038 12.0194 22.0095 12.1587 21.9836C14.4352 21.5324 16.5355 20.4408 18.213 18.8372C19.8906 17.2335 21.0755 15.1844 21.6287 12.9306C21.4225 12.976 21.2119 12.9991 21.0007 12.9996C20.4074 12.9996 19.8274 12.8236 19.334 12.494C18.8407 12.1643 18.4562 11.6958 18.2291 11.1476C18.002 10.5995 17.9426 9.99626 18.0584 9.41431C18.1741 8.83237 18.4599 8.29782 18.8794 7.87826C19.299 7.45871 19.8335 7.17298 20.4155 7.05723C20.9974 6.94147 21.6006 7.00088 22.1488 7.22794C22.697 7.45501 23.1655 7.83952 23.4952 8.33287C23.8248 8.82622 24.0008 9.40624 24.0008 9.99958ZM22.0007 9.99958C22.0007 9.8018 21.9421 9.60846 21.8322 9.44401C21.7223 9.27956 21.5662 9.15139 21.3834 9.0757C21.2007 9.00002 20.9996 8.98021 20.8057 9.0188C20.6117 9.05738 20.4335 9.15262 20.2936 9.29248C20.1538 9.43233 20.0585 9.61051 20.02 9.80449C19.9814 9.99847 20.0012 10.1995 20.0769 10.3823C20.1526 10.565 20.2807 10.7212 20.4452 10.8311C20.6096 10.9409 20.803 10.9996 21.0007 10.9996C21.266 10.9996 21.5203 10.8942 21.7079 10.7067C21.8954 10.5192 22.0007 10.2648 22.0007 9.99958Z" fill="#202020"/>
</g>
<defs>
<clipPath id="clip0_2_6412">
<rect width="24" height="24" fill="white"/>
</clipPath>
</defs>
</svg>
