<svg width="24" height="24" viewBox="0 0 24 24" fill="none" xmlns="http://www.w3.org/2000/svg">
<path d="M16.9008 4.02044C16.6635 2.89664 16.0472 1.88854 15.1551 1.16511C14.263 0.441677 13.1493 0.046875 12.0008 0.046875C10.8522 0.046875 9.73853 0.441677 8.84643 1.16511C7.95432 1.88854 7.338 2.89664 7.10075 4.02044C6.17252 4.09392 5.27809 4.40161 4.5011 4.91474C3.7241 5.42786 3.08993 6.12965 2.65789 6.95448C2.22584 7.77932 2.01003 8.70025 2.03065 9.63116C2.05126 10.5621 2.30762 11.4725 2.77575 12.2774L9.01976 22.3334C9.33684 22.8373 9.77651 23.2525 10.2977 23.5403C10.8188 23.8281 11.4044 23.9791 11.9998 23.9791C12.5951 23.9791 13.1807 23.8281 13.7018 23.5403C14.223 23.2525 14.6627 22.8373 14.9798 22.3334L21.2408 12.2534C21.7034 11.4481 21.9549 10.5388 21.9717 9.61021C21.9886 8.68159 21.7703 7.76379 21.3372 6.94218C20.9041 6.12058 20.2702 5.42186 19.4946 4.91102C18.7189 4.40018 17.8266 4.09382 16.9008 4.02044ZM20.0008 9.50044C19.9987 9.6927 19.9799 9.88441 19.9448 10.0734C17.7704 10.5808 15.5521 10.8768 13.3208 10.9574C11.3298 5.64744 19.5938 3.84244 20.0008 9.50044ZM12.0008 2.00044C12.6637 2.00297 13.3071 2.22503 13.8305 2.63192C14.3539 3.0388 14.7278 3.6076 14.8938 4.24944C13.7243 4.60706 12.7067 5.3429 12.0008 6.34144C11.2948 5.3429 10.2772 4.60706 9.10776 4.24944C9.27371 3.6076 9.64759 3.0388 10.171 2.63192C10.6944 2.22503 11.3378 2.00297 12.0008 2.00044ZM7.50075 6.00044C8.08519 6.00518 8.65924 6.15549 9.17099 6.4378C9.68275 6.7201 10.1161 7.12549 10.4318 7.61732C10.7476 8.10915 10.9358 8.67191 10.9794 9.25474C11.023 9.83756 10.9207 10.4221 10.6818 10.9554C8.45123 10.8683 6.23366 10.5737 4.05775 10.0754C3.97438 9.57485 4.00086 9.06212 4.13537 8.57278C4.26987 8.08345 4.50918 7.62921 4.8367 7.24157C5.16423 6.85392 5.57213 6.54214 6.03215 6.32783C6.49216 6.11352 6.99327 6.00181 7.50075 6.00044ZM13.2788 21.2864C13.1379 21.4964 12.9476 21.6685 12.7245 21.7875C12.5015 21.9064 12.2526 21.9687 11.9998 21.9687C11.7469 21.9687 11.498 21.9064 11.275 21.7875C11.0519 21.6685 10.8616 21.4964 10.7208 21.2864L5.17075 12.3464C9.68528 13.1724 14.3122 13.1724 18.8268 12.3464L13.2788 21.2864Z" fill="#202020"/>
</svg>
