<svg width="24" height="24" viewBox="0 0 24 24" fill="none" xmlns="http://www.w3.org/2000/svg">
<g clip-path="url(#clip0_2_6978)">
<path d="M4.00078 6.00054C3.60654 6.00158 3.216 5.92442 2.85176 5.77354C2.48752 5.62267 2.15682 5.40106 1.87878 5.12154L0.334784 3.74754C0.136667 3.57091 0.0168323 3.32281 0.00164182 3.05782C-0.0135486 2.79283 0.0771495 2.53266 0.253784 2.33454C0.430418 2.13643 0.678519 2.01659 0.943508 2.0014C1.2085 1.98621 1.46867 2.07691 1.66678 2.25354L3.25178 3.66754C3.34252 3.76944 3.45315 3.85169 3.57686 3.90923C3.70057 3.96677 3.83475 3.99839 3.97114 4.00214C4.10753 4.00589 4.24324 3.98168 4.36993 3.93102C4.49661 3.88036 4.61159 3.8043 4.70778 3.70754L8.31178 0.276543C8.50558 0.104013 8.75884 0.0135621 9.01809 0.0242941C9.27733 0.0350261 9.52225 0.146101 9.70113 0.334058C9.88 0.522015 9.97881 0.772137 9.97669 1.03159C9.97458 1.29105 9.8717 1.53953 9.68978 1.72454L6.10078 5.13854C5.82456 5.41316 5.49691 5.63064 5.13658 5.77855C4.77624 5.92646 4.39029 6.00189 4.00078 6.00054ZM24.0008 4.00054C24.0008 3.73533 23.8954 3.48097 23.7079 3.29344C23.5204 3.1059 23.266 3.00054 23.0008 3.00054H13.0008C12.7356 3.00054 12.4812 3.1059 12.2937 3.29344C12.1061 3.48097 12.0008 3.73533 12.0008 4.00054C12.0008 4.26576 12.1061 4.52011 12.2937 4.70765C12.4812 4.89519 12.7356 5.00054 13.0008 5.00054H23.0008C23.266 5.00054 23.5204 4.89519 23.7079 4.70765C23.8954 4.52011 24.0008 4.26576 24.0008 4.00054ZM6.10078 13.1385L9.68978 9.72454C9.78996 9.63536 9.87116 9.52694 9.92858 9.40574C9.98599 9.28453 10.0184 9.15301 10.024 9.01901C10.0295 8.88501 10.0081 8.75126 9.96087 8.62572C9.91367 8.50018 9.8417 8.38542 9.74924 8.28827C9.65678 8.19111 9.54573 8.11355 9.42268 8.06019C9.29963 8.00684 9.16711 7.97878 9.033 7.97768C8.89888 7.97659 8.76592 8.00248 8.64202 8.05383C8.51812 8.10517 8.40581 8.18091 8.31178 8.27654L4.71178 11.7075C4.52142 11.8896 4.26818 11.9912 4.00478 11.9912C3.74139 11.9912 3.48815 11.8896 3.29778 11.7075L1.70778 10.1225C1.51918 9.94039 1.26658 9.83959 1.00438 9.84187C0.742186 9.84415 0.491373 9.94932 0.305965 10.1347C0.120557 10.3201 0.0153881 10.5709 0.0131097 10.8331C0.0108312 11.0953 0.111626 11.3479 0.293784 11.5365L1.87878 13.1215C2.43846 13.6813 3.1967 13.9973 3.98828 14.0004C4.77986 14.0036 5.54063 13.6938 6.10478 13.1385H6.10078ZM24.0008 12.0005C24.0008 11.7353 23.8954 11.481 23.7079 11.2934C23.5204 11.1059 23.266 11.0005 23.0008 11.0005H13.0008C12.7356 11.0005 12.4812 11.1059 12.2937 11.2934C12.1061 11.481 12.0008 11.7353 12.0008 12.0005C12.0008 12.2658 12.1061 12.5201 12.2937 12.7077C12.4812 12.8952 12.7356 13.0005 13.0008 13.0005H23.0008C23.266 13.0005 23.5204 12.8952 23.7079 12.7077C23.8954 12.5201 24.0008 12.2658 24.0008 12.0005ZM6.10078 21.1385L9.68578 17.7245C9.78596 17.6354 9.86716 17.5269 9.92458 17.4057C9.98199 17.2845 10.0144 17.153 10.02 17.019C10.0255 16.885 10.0041 16.7513 9.95687 16.6257C9.90967 16.5002 9.8377 16.3854 9.74524 16.2883C9.65278 16.1911 9.54173 16.1136 9.41868 16.0602C9.29563 16.0068 9.16311 15.9788 9.029 15.9777C8.89489 15.9766 8.76192 16.0025 8.63802 16.0538C8.51412 16.1052 8.40181 16.1809 8.30778 16.2765L4.70778 19.7075C4.61159 19.8043 4.49661 19.8804 4.36993 19.931C4.24324 19.9817 4.10753 20.0059 3.97114 20.0021C3.83475 19.9984 3.70057 19.9668 3.57686 19.9092C3.45315 19.8517 3.34252 19.7694 3.25178 19.6675L1.66678 18.2535C1.46867 18.0769 1.2085 17.9862 0.943508 18.0014C0.678519 18.0166 0.430418 18.1364 0.253784 18.3345C0.0771495 18.5327 -0.0135486 18.7928 0.00164182 19.0578C0.0168323 19.3228 0.136667 19.5709 0.334784 19.7475L1.87878 21.1215C2.43846 21.6813 3.1967 21.9973 3.98828 22.0004C4.77986 22.0036 5.54063 21.6938 6.10478 21.1385H6.10078ZM24.0008 20.0005C24.0008 19.7353 23.8954 19.481 23.7079 19.2934C23.5204 19.1059 23.266 19.0005 23.0008 19.0005H13.0008C12.7356 19.0005 12.4812 19.1059 12.2937 19.2934C12.1061 19.481 12.0008 19.7353 12.0008 20.0005C12.0008 20.2658 12.1061 20.5201 12.2937 20.7077C12.4812 20.8952 12.7356 21.0005 13.0008 21.0005H23.0008C23.266 21.0005 23.5204 20.8952 23.7079 20.7077C23.8954 20.5201 24.0008 20.2658 24.0008 20.0005Z" fill="#202020"/>
</g>
<defs>
<clipPath id="clip0_2_6978">
<rect width="24" height="24" fill="white"/>
</clipPath>
</defs>
</svg>
