<svg width="24" height="24" viewBox="0 0 24 24" fill="none" xmlns="http://www.w3.org/2000/svg">
<path d="M5.99978 6.20932C6.18714 6.39557 6.44059 6.50011 6.70478 6.50011C6.96896 6.50011 7.22241 6.39557 7.40978 6.20932L10.9998 2.57932V22.9993C10.9998 23.2646 11.1051 23.5189 11.2927 23.7064C11.4802 23.894 11.7346 23.9993 11.9998 23.9993C12.265 23.9993 12.5193 23.894 12.7069 23.7064C12.8944 23.5189 12.9998 23.2646 12.9998 22.9993V2.58932L16.6198 6.20932C16.7127 6.30305 16.8233 6.37744 16.9452 6.42821C17.0671 6.47898 17.1978 6.50512 17.3298 6.50512C17.4618 6.50512 17.5925 6.47898 17.7144 6.42821C17.8362 6.37744 17.9468 6.30305 18.0398 6.20932C18.226 6.02196 18.3306 5.76851 18.3306 5.50432C18.3306 5.24013 18.226 4.98668 18.0398 4.79932L14.1298 0.879314C13.5673 0.317512 12.8048 0.00195312 12.0098 0.00195312C11.2148 0.00195312 10.4523 0.317512 9.88978 0.879314L5.99978 4.79932C5.81353 4.98668 5.70898 5.24013 5.70898 5.50432C5.70898 5.76851 5.81353 6.02196 5.99978 6.20932Z" fill="#202020"/>
</svg>
