<svg width="24" height="24" viewBox="0 0 24 24" fill="none" xmlns="http://www.w3.org/2000/svg">
<g clip-path="url(#clip0_2_6761)">
<path d="M14.9563 10.356C14.9575 10.7004 15.2369 10.979 15.5813 10.979C15.5813 10.979 16.6533 10.979 17.0673 10.967C18.5993 10.941 19.6993 9.609 19.6993 7.80103C19.6993 5.90105 18.6193 4.62305 17.0133 4.62305H15.5703C15.2248 4.62417 14.9453 4.90453 14.9453 5.25005L14.9563 10.356ZM17.0173 5.87297C18.0763 5.87297 18.4533 6.87295 18.4533 7.80098C18.4533 8.72902 18.0193 9.70097 17.0484 9.717C16.8483 9.717 16.5104 9.72398 16.2044 9.726L16.1994 5.87302L17.0173 5.87297Z" fill="#202020"/>
<path d="M12.1214 7.25452C11.8484 7.16152 11.5654 7.11052 11.2864 7.03754C11.065 6.99286 10.8598 6.88922 10.6924 6.73754C10.5252 6.579 10.4659 6.33755 10.5404 6.11954C10.6352 5.93166 10.8215 5.80721 11.0314 5.79155C11.2377 5.77871 11.4445 5.80904 11.6384 5.88057C11.9174 5.96766 12.1912 6.07083 12.4584 6.18957C12.7524 6.31857 13.0994 6.39558 13.3364 6.11555C13.5119 5.90518 13.525 5.60335 13.3684 5.37854C13.2649 5.22769 13.1249 5.10558 12.9614 5.02355C12.2293 4.59375 11.3558 4.47455 10.5354 4.69257C10.102 4.82972 9.73587 5.12447 9.50937 5.51855C9.40315 5.70549 9.33293 5.91071 9.30237 6.12357C9.24659 6.50639 9.3296 6.89658 9.53637 7.22358C9.76972 7.56521 10.1066 7.82283 10.4974 7.95858C10.9063 8.12658 11.3154 8.28957 11.7304 8.44158C11.9088 8.49825 12.0732 8.59233 12.2124 8.71758C12.3682 8.86646 12.426 9.09094 12.3614 9.29658C12.2771 9.4936 12.1097 9.64304 11.9044 9.70458C11.5922 9.82196 11.2502 9.83424 10.9304 9.7396C10.6191 9.62696 10.3316 9.45741 10.0824 9.23958C10.0564 9.21858 9.97137 9.1546 9.95539 9.1396C9.72237 8.973 9.40404 8.99433 9.1954 9.1906C8.9397 9.42249 8.92038 9.81774 9.15223 10.0734C9.15228 10.0735 9.15232 10.0735 9.15237 10.0736C9.749 10.7071 10.5822 11.064 11.4524 11.0586C12.4837 11.1039 13.4001 10.4059 13.6304 9.39961C13.7275 8.79066 13.5 8.17519 13.0304 7.77563C12.7648 7.54341 12.4559 7.36632 12.1214 7.25452Z" fill="#202020"/>
<path d="M4.12109 5.16791V10.4299C4.12109 10.7751 4.40094 11.0549 4.74608 11.0549C5.09122 11.0549 5.37106 10.775 5.37106 10.4299V8.76692H6.21107C7.37638 8.76692 8.32105 7.82225 8.32105 6.65694C8.32105 5.49162 7.37638 4.54695 6.21107 4.54695L6.20507 4.54297H4.74008C4.69766 4.54372 4.47397 4.55192 4.29711 4.73539C4.12794 4.91089 4.12142 5.12267 4.12109 5.16791ZM6.20507 7.51292H5.37308L5.36708 5.79294H6.20507C6.68005 5.7927 7.06527 6.17755 7.06551 6.65253C7.06574 7.12752 6.6809 7.51273 6.20591 7.51297C6.20568 7.51292 6.20535 7.51292 6.20507 7.51292Z" fill="#202020"/>
<path d="M19 0H5.00002C2.23997 0.00332812 0.00332812 2.23997 0 5.00002V19C0.00332812 21.76 2.23997 23.9967 5.00002 24H16.343C17.6699 24.0038 18.9432 23.4766 19.879 22.536L22.535 19.878C23.4757 18.9426 24.0033 17.6697 24 16.343V5.00002C23.9967 2.23997 21.76 0.00332812 19 0ZM2.00002 19V5.00002C2.00002 3.34317 3.34317 2.00002 5.00002 2.00002H19C20.6569 2.00002 22 3.34317 22 5.00002V15H18C16.3432 15 15 16.3432 15 18V22H5.00002C3.34312 22 2.00002 20.6569 2.00002 19ZM18.465 21.122C18.063 21.523 17.5547 21.8006 17 21.922V18C17 17.4477 17.4477 17 18 17H21.925C21.8013 17.5535 21.524 18.0609 21.125 18.464L18.465 21.122Z" fill="#202020"/>
</g>
<defs>
<clipPath id="clip0_2_6761">
<rect width="24" height="24" fill="white"/>
</clipPath>
</defs>
</svg>
