<svg width="24" height="24" viewBox="0 0 24 24" fill="none" xmlns="http://www.w3.org/2000/svg">
<g clip-path="url(#clip0_2_6492)">
<path d="M24.0005 11.9834C23.9984 11.1694 23.7476 10.3754 23.2817 9.70788C22.8157 9.04034 22.1569 8.53113 21.3935 8.24843L21.3555 8.15743C20.3635 5.73086 18.4643 3.78681 16.0615 2.73843L15.7325 2.59443C15.4493 1.83334 14.9401 1.17709 14.2732 0.713697C13.6063 0.250307 12.8136 0.00195312 12.0015 0.00195312C11.1895 0.00195312 10.3968 0.250307 9.72991 0.713697C9.06301 1.17709 8.55379 1.83334 8.27054 2.59443L7.85254 2.78243C5.47109 3.86408 3.59675 5.82005 2.61754 8.24543C1.85289 8.52402 1.19202 9.03033 0.723994 9.69612C0.255973 10.3619 0.00330135 11.1552 3.21294e-05 11.969C-0.0032371 12.7828 0.243054 13.5781 0.70571 14.2476C1.16837 14.9171 1.82515 15.4287 2.58754 15.7134L2.71554 16.0134C3.71889 18.3423 5.56158 20.2086 7.87754 21.2414L8.27054 21.4174C8.55459 22.1774 9.06401 22.8325 9.73061 23.295C10.3972 23.7575 11.1892 24.0054 12.0005 24.0054C12.8119 24.0054 13.6039 23.7575 14.2705 23.295C14.9371 22.8325 15.4465 22.1774 15.7305 21.4174L16.0975 21.2544C18.5201 20.1712 20.4247 18.1859 21.4065 15.7204C22.1673 15.4348 22.8231 14.9242 23.2865 14.2566C23.7499 13.589 23.999 12.7961 24.0005 11.9834ZM12.0005 2.00043C12.3961 2.00043 12.7828 2.11773 13.1117 2.33749C13.4406 2.55725 13.6969 2.86961 13.8483 3.23506C13.9997 3.60051 14.0393 4.00265 13.9621 4.39061C13.8849 4.77857 13.6945 5.13494 13.4148 5.41464C13.1351 5.69435 12.7787 5.88483 12.3907 5.962C12.0028 6.03917 11.6006 5.99956 11.2352 5.84819C10.8697 5.69681 10.5574 5.44047 10.3376 5.11157C10.1178 4.78267 10.0005 4.39599 10.0005 4.00043C10.0005 3.47 10.2113 2.96129 10.5863 2.58622C10.9614 2.21114 11.4701 2.00043 12.0005 2.00043ZM3.98854 9.98543L4.07054 10.0164L4.08054 9.99143C4.58164 10.0363 5.04488 10.2768 5.36983 10.6609C5.69477 11.045 5.85525 11.5416 5.81646 12.0432C5.77766 12.5449 5.54274 13.011 5.1626 13.3405C4.78246 13.6701 4.28775 13.8365 3.78572 13.8038C3.28368 13.771 2.81478 13.5417 2.48067 13.1656C2.14655 12.7895 1.97415 12.2968 2.00084 11.7944C2.02753 11.292 2.25115 10.8204 2.62323 10.4818C2.99531 10.1431 3.48586 9.9648 3.98854 9.98543ZM12.0005 22.0004C11.605 22.0004 11.2183 21.8831 10.8894 21.6634C10.5605 21.4436 10.3042 21.1313 10.1528 20.7658C10.0014 20.4003 9.9618 19.9982 10.039 19.6103C10.1161 19.2223 10.3066 18.8659 10.5863 18.5862C10.866 18.3065 11.2224 18.116 11.6104 18.0389C11.9983 17.9617 12.4005 18.0013 12.7659 18.1527C13.1314 18.304 13.4437 18.5604 13.6635 18.8893C13.8832 19.2182 14.0005 19.6049 14.0005 20.0004C14.0005 20.5309 13.7898 21.0396 13.4148 21.4146C13.0397 21.7897 12.531 22.0004 12.0005 22.0004ZM15.8935 19.1144C15.6945 18.2304 15.2005 17.4405 14.4929 16.8745C13.7853 16.3086 12.9062 16.0002 12 16.0002C11.0939 16.0002 10.2148 16.3086 9.50717 16.8745C8.79956 17.4405 8.30561 18.2304 8.10654 19.1144C6.74113 18.3693 5.61938 17.2465 4.87554 15.8804C5.75675 15.6813 6.54434 15.1891 7.10952 14.4843C7.6747 13.7795 7.98403 12.9038 7.98694 12.0004C7.98984 11.097 7.68614 10.2193 7.1255 9.51087C6.56486 8.80245 5.78046 8.3052 4.90054 8.10043C5.64711 6.75357 6.75829 5.64448 8.10654 4.90043C8.30644 5.78342 8.80062 6.57222 9.50794 7.13731C10.2153 7.70241 11.0937 8.01022 11.999 8.01022C12.9044 8.01022 13.7828 7.70241 14.4901 7.13731C15.1975 6.57222 15.6916 5.78342 15.8915 4.90043C17.2388 5.64365 18.3506 6.74989 19.1005 8.09343C18.2179 8.29502 17.4301 8.79072 16.8663 9.49913C16.3026 10.2075 15.9965 11.0866 15.9982 11.9919C16 12.8973 16.3095 13.7751 16.8759 14.4814C17.4424 15.1876 18.2322 15.6802 19.1155 15.8784C18.3693 17.2402 17.2521 18.3623 15.8935 19.1144ZM20.0005 13.9834C19.605 13.9834 19.2183 13.8661 18.8894 13.6464C18.5605 13.4266 18.3042 13.1143 18.1528 12.7488C18.0014 12.3833 17.9618 11.9812 18.039 11.5932C18.1161 11.2053 18.3066 10.8489 18.5863 10.5692C18.866 10.2895 19.2224 10.099 19.6104 10.0219C19.9983 9.94469 20.4005 9.9843 20.7659 10.1357C21.1314 10.287 21.4437 10.5434 21.6635 10.8723C21.8832 11.2012 22.0005 11.5879 22.0005 11.9834C22.0005 12.5139 21.7898 13.0226 21.4148 13.3976C21.0397 13.7727 20.531 13.9834 20.0005 13.9834Z" fill="#202020"/>
</g>
<defs>
<clipPath id="clip0_2_6492">
<rect width="24" height="24" fill="white"/>
</clipPath>
</defs>
</svg>
