<svg width="24" height="24" viewBox="0 0 24 24" fill="none" xmlns="http://www.w3.org/2000/svg">
<g clip-path="url(#clip0_2_6836)">
<path d="M12.9996 16.0001C14.5818 16.0001 16.1285 15.5309 17.4441 14.6519C18.7597 13.7728 19.7851 12.5234 20.3906 11.0616C20.9961 9.59977 21.1545 7.99123 20.8459 6.43939C20.5372 4.88754 19.7753 3.46207 18.6564 2.34325C17.5376 1.22443 16.1122 0.462507 14.5603 0.153826C13.0085 -0.154856 11.3999 0.00357062 9.93812 0.609072C8.47631 1.21457 7.22688 2.23995 6.34783 3.55555C5.46877 4.87114 4.99958 6.41786 4.99958 8.00011C5.00196 10.1211 5.84558 12.1546 7.34536 13.6543C8.84513 15.1541 10.8786 15.9977 12.9996 16.0001ZM12.9996 2.00011C14.1863 2.00011 15.3463 2.352 16.333 3.01129C17.3197 3.67058 18.0887 4.60765 18.5429 5.70401C18.997 6.80036 19.1158 8.00676 18.8843 9.17065C18.6528 10.3345 18.0813 11.4036 17.2422 12.2427C16.4031 13.0819 15.334 13.6533 14.1701 13.8848C13.0062 14.1163 11.7998 13.9975 10.7035 13.5434C9.60713 13.0893 8.67005 12.3202 8.01077 11.3335C7.35148 10.3468 6.99958 9.1868 6.99958 8.00011C7.00117 6.4093 7.63382 4.8841 8.7587 3.75922C9.88357 2.63435 11.4088 2.0017 12.9996 2.00011ZM22.9066 14.7731C21.8987 16.2416 20.5764 17.4671 19.0358 18.3607C17.4951 19.2543 15.7747 19.7935 13.9996 19.9391V22.0001H17.9996C18.2648 22.0001 18.5192 22.1055 18.7067 22.293C18.8942 22.4805 18.9996 22.7349 18.9996 23.0001C18.9996 23.2653 18.8942 23.5197 18.7067 23.7072C18.5192 23.8948 18.2648 24.0001 17.9996 24.0001H7.99958C7.73437 24.0001 7.48001 23.8948 7.29248 23.7072C7.10494 23.5197 6.99958 23.2653 6.99958 23.0001C6.99958 22.7349 7.10494 22.4805 7.29248 22.293C7.48001 22.1055 7.73437 22.0001 7.99958 22.0001H11.9996V19.9491C9.81703 19.7675 7.72585 18.9918 5.95286 17.7061C4.17987 16.4204 2.79276 14.6738 1.94198 12.6557C1.0912 10.6376 0.809227 8.42506 1.12664 6.25809C1.44406 4.09111 2.34875 2.05241 3.74258 0.363108C3.91152 0.158626 4.15478 0.0296315 4.41883 0.00450159C4.68288 -0.0206283 4.9461 0.060165 5.15058 0.229108C5.35506 0.398051 5.48406 0.641304 5.50919 0.905356C5.53432 1.16941 5.45352 1.43263 5.28458 1.63711C4.42613 2.67962 3.78773 3.88521 3.4079 5.18117C3.02806 6.47712 2.91465 7.83658 3.07452 9.17756C3.23438 10.5185 3.66421 11.8132 4.33806 12.9836C5.01192 14.1539 5.91584 15.1756 6.99532 15.9871C8.0748 16.7986 9.30746 17.383 10.6189 17.7052C11.9304 18.0273 13.2936 18.0804 14.6262 17.8614C15.9588 17.6423 17.2332 17.1556 18.3726 16.4307C19.5119 15.7057 20.4927 14.7574 21.2556 13.6431C21.4054 13.4242 21.6361 13.2737 21.8969 13.2249C22.1577 13.176 22.4271 13.2328 22.6461 13.3826C22.865 13.5325 23.0155 13.7631 23.0643 14.0239C23.1132 14.2847 23.0564 14.5542 22.9066 14.7731Z" fill="#202020"/>
</g>
<defs>
<clipPath id="clip0_2_6836">
<rect width="24" height="24" fill="white"/>
</clipPath>
</defs>
</svg>
