<svg width="24" height="24" viewBox="0 0 24 24" fill="none" xmlns="http://www.w3.org/2000/svg">
<g clip-path="url(#clip0_2_6478)">
<path d="M5.00519 23.9993H19.0002C19.8426 23.9992 20.6714 23.7862 21.4095 23.3802C22.1476 22.9741 22.7712 22.3882 23.2223 21.6767C23.6734 20.9652 23.9374 20.1513 23.9898 19.3105C24.0423 18.4697 23.8814 17.6293 23.5222 16.8673L16.5352 2.89931C16.1347 2.03723 15.4968 1.30717 14.6962 0.794707C13.8956 0.282243 12.9655 0.00860876 12.015 0.00587999C11.0644 0.00315121 10.1328 0.271441 9.32924 0.7793C8.52572 1.28716 7.88362 2.01355 7.47819 2.87331L0.478193 16.8733L0.470193 16.8993C0.117698 17.661 -0.0374001 18.4991 0.0191945 19.3365C0.0757891 20.1738 0.342255 20.9835 0.794033 21.6908C1.24581 22.3981 1.86836 22.9803 2.60431 23.3837C3.34026 23.7872 4.16592 23.9989 5.00519 23.9993ZM8.40519 21.9993L11.1222 16.5613C11.1987 16.3929 11.3223 16.2502 11.4781 16.1504C11.6339 16.0507 11.8152 15.9982 12.0002 15.9993C12.1902 15.9994 12.376 16.0552 12.5347 16.1597C12.6934 16.2642 12.818 16.4128 12.8932 16.5873L15.6002 21.9993H8.40519ZM2.27819 17.7473L9.27819 3.73531C9.52015 3.21441 9.90655 2.77391 10.3915 2.46615C10.8764 2.15839 11.4395 1.99631 12.0139 1.99915C12.5882 2.00199 13.1497 2.16965 13.6315 2.48219C14.1134 2.79474 14.4954 3.23904 14.7322 3.76231L21.7202 17.7353C21.9325 18.1924 22.0263 18.6956 21.9929 19.1985C21.9594 19.7014 21.7998 20.1878 21.5287 20.6127C21.2576 21.0376 20.8839 21.3874 20.442 21.6297C20.0001 21.8721 19.5042 21.9992 19.0002 21.9993H17.8362L14.7002 15.7193C14.4628 15.2078 14.0847 14.7745 13.6102 14.4699C13.1356 14.1653 12.5842 14.002 12.0203 13.9992C11.4564 13.9964 10.9033 14.1541 10.4257 14.4539C9.94814 14.7537 9.56573 15.1832 9.32319 15.6923L6.16819 21.9993H5.00519C4.50218 21.9994 4.00721 21.8731 3.5658 21.6319C3.1244 21.3906 2.75074 21.0423 2.47918 20.6189C2.20763 20.1955 2.0469 19.7106 2.01178 19.2088C1.97665 18.707 2.06827 18.2044 2.27819 17.7473Z" fill="#202020"/>
</g>
<defs>
<clipPath id="clip0_2_6478">
<rect width="24" height="24" fill="white"/>
</clipPath>
</defs>
</svg>
