<svg width="24" height="24" viewBox="0 0 24 24" fill="none" xmlns="http://www.w3.org/2000/svg">
<path d="M16.9995 23.0003H6.99952C5.67392 22.9987 4.40308 22.4714 3.46574 21.534C2.5284 20.5967 2.00111 19.3259 1.99952 18.0003V10.4463C1.99149 10.2946 1.95269 10.1462 1.88547 10.01C1.81825 9.87389 1.72402 9.75284 1.60852 9.65426C1.0009 9.09444 0.541818 8.39248 0.272501 7.61141C0.00318468 6.83034 -0.0679384 5.99461 0.0655181 5.17926C0.481518 2.60026 2.84952 1.00026 6.24152 1.00026H18.8475C20.0512 0.988154 21.2207 1.40037 22.1507 2.16456C23.0808 2.92875 23.712 3.99609 23.9335 5.17926C24.067 5.99532 23.9957 6.83178 23.7258 7.61342C23.4559 8.39506 22.9961 9.09739 22.3875 9.65726C22.2727 9.75561 22.1792 9.87627 22.1125 10.0119C22.0458 10.1475 22.0073 10.2953 21.9995 10.4463V18.0003C21.9979 19.3259 21.4706 20.5967 20.5333 21.534C19.596 22.4714 18.3251 22.9987 16.9995 23.0003ZM6.24152 3.00026C3.82752 3.00026 2.29652 3.91126 2.04152 5.50026C1.95731 5.9894 1.99783 6.49188 2.15934 6.9612C2.32085 7.43052 2.59813 7.85153 2.96552 8.18526C3.28591 8.46927 3.5434 8.81711 3.72147 9.20648C3.89954 9.59585 3.99424 10.0181 3.99952 10.4463V18.0003C3.99952 18.7959 4.31559 19.559 4.8782 20.1216C5.44081 20.6842 6.20387 21.0003 6.99952 21.0003H16.9995C17.7952 21.0003 18.5582 20.6842 19.1208 20.1216C19.6834 19.559 19.9995 18.7959 19.9995 18.0003V10.4463C20.0041 10.018 20.0985 9.59552 20.2766 9.20605C20.4547 8.81659 20.7126 8.46883 21.0335 8.18526C21.401 7.85158 21.6784 7.43061 21.8401 6.9613C22.0018 6.49199 22.0425 5.98948 21.9585 5.50026C21.8163 4.78447 21.4266 4.14161 20.8577 3.68447C20.2888 3.22732 19.5771 2.98509 18.8475 3.00026H6.24152ZM7.99952 12.0003C7.7343 12.0003 7.47995 12.1056 7.29241 12.2932C7.10488 12.4807 6.99952 12.735 6.99952 13.0003C6.99952 13.2655 7.10488 13.5198 7.29241 13.7074C7.47995 13.8949 7.7343 14.0003 7.99952 14.0003C8.26473 14.0003 8.51909 13.8949 8.70662 13.7074C8.89416 13.5198 8.99952 13.2655 8.99952 13.0003C8.99952 12.735 8.89416 12.4807 8.70662 12.2932C8.51909 12.1056 8.26473 12.0003 7.99952 12.0003ZM11.9995 16.0003C11.7343 16.0003 11.4799 16.1056 11.2924 16.2932C11.1049 16.4807 10.9995 16.735 10.9995 17.0003C10.9995 17.2655 11.1049 17.5198 11.2924 17.7074C11.4799 17.8949 11.7343 18.0003 11.9995 18.0003C12.2647 18.0003 12.5191 17.8949 12.7066 17.7074C12.8942 17.5198 12.9995 17.2655 12.9995 17.0003C12.9995 16.735 12.8942 16.4807 12.7066 16.2932C12.5191 16.1056 12.2647 16.0003 11.9995 16.0003ZM7.99952 16.0003C7.7343 16.0003 7.47995 16.1056 7.29241 16.2932C7.10488 16.4807 6.99952 16.735 6.99952 17.0003C6.99952 17.2655 7.10488 17.5198 7.29241 17.7074C7.47995 17.8949 7.7343 18.0003 7.99952 18.0003C8.26473 18.0003 8.51909 17.8949 8.70662 17.7074C8.89416 17.5198 8.99952 17.2655 8.99952 17.0003C8.99952 16.735 8.89416 16.4807 8.70662 16.2932C8.51909 16.1056 8.26473 16.0003 7.99952 16.0003Z" fill="#202020"/>
</svg>
