<svg width="24" height="24" viewBox="0 0 24 24" fill="none" xmlns="http://www.w3.org/2000/svg">
<g clip-path="url(#clip0_2_6557)">
<path d="M3.00046 21.1242C2.7979 21.124 2.60017 21.0622 2.43346 20.9472C1.64108 20.4326 0.998504 19.718 0.570597 18.8757C0.14269 18.0333 -0.055396 17.0929 -0.00366117 16.1495C0.0480737 15.2061 0.347797 14.2931 0.86525 13.5026C1.3827 12.712 2.09957 12.072 2.94346 11.6472C2.07522 10.0689 1.79191 8.23485 2.14346 6.46817C2.48532 4.7205 3.40052 3.13685 4.74409 1.96807C6.08766 0.799295 7.78279 0.112219 9.56097 0.0156763C11.3391 -0.0808662 13.0987 0.418645 14.5609 1.43509C16.0231 2.45153 17.1044 3.92678 17.6335 5.62717C17.6838 5.79956 17.776 5.95676 17.9021 6.08469C18.0281 6.21262 18.1839 6.30728 18.3555 6.36017C19.6136 6.74561 20.7569 7.4361 21.6837 8.37021C22.6105 9.30431 23.2919 10.453 23.6675 11.7142C23.737 11.9663 23.705 12.2357 23.5783 12.4646C23.4515 12.6934 23.2402 12.8635 22.9895 12.9383C22.7389 13.0131 22.4689 12.9867 22.2374 12.8648C22.006 12.7429 21.8315 12.5352 21.7515 12.2862C21.4696 11.3408 20.9585 10.4797 20.2636 9.77939C19.5688 9.07912 18.7116 8.56137 17.7685 8.27217C17.2866 8.12248 16.8485 7.85741 16.4923 7.49999C16.1361 7.14256 15.8725 6.70358 15.7245 6.22117C15.4841 5.42012 15.0789 4.67817 14.5349 4.04293C13.9909 3.40769 13.3201 2.89319 12.5656 2.53246C11.811 2.17172 10.9894 1.97271 10.1534 1.9482C9.31747 1.92369 8.4856 2.07423 7.71122 2.39014C6.93684 2.70605 6.23706 3.18037 5.65678 3.78264C5.07651 4.38492 4.62855 5.10186 4.34166 5.88746C4.05478 6.67305 3.93529 7.50995 3.99088 8.34443C4.04647 9.17892 4.27591 9.99257 4.66446 10.7332C4.91221 11.1952 4.96801 11.7363 4.81978 12.2392C4.67155 12.7421 4.33122 13.1664 3.87246 13.4202C3.33367 13.6852 2.87546 14.0893 2.54524 14.5908C2.21501 15.0923 2.02477 15.6729 1.99418 16.2725C1.96359 16.8722 2.09377 17.4691 2.37125 18.0016C2.64873 18.534 3.06343 18.9827 3.57246 19.3012C3.74825 19.4225 3.88057 19.5969 3.95005 19.7989C4.01952 20.0009 4.02251 20.2198 3.95857 20.4236C3.89462 20.6273 3.76711 20.8053 3.5947 20.9314C3.42229 21.0575 3.21405 21.125 3.00046 21.1242ZM19.1005 24.0012C19.4589 23.9844 19.8147 23.9315 20.1625 23.8432C21.0635 23.6341 21.8878 23.1766 22.5418 22.5225C23.1959 21.8685 23.6534 21.0442 23.8625 20.1432C24.1649 18.877 23.9628 17.5427 23.2989 16.4229C22.635 15.3031 21.5615 14.4855 20.3055 14.1432C20.3055 14.1432 19.6765 13.9982 19.5395 13.6722C19.0557 12.5051 18.2159 11.5205 17.1397 10.8587C16.0636 10.1969 14.806 9.89169 13.5462 9.98656C12.2864 10.0814 11.0887 10.5715 10.1238 11.387C9.15885 12.2025 8.47598 13.3018 8.17246 14.5282C7.95638 15.424 7.93693 16.3561 8.11546 17.2602C7.44944 17.5466 6.88879 18.0328 6.51098 18.6516C6.13317 19.2703 5.95684 19.9912 6.00635 20.7145C6.05586 21.4378 6.32876 22.1279 6.78736 22.6894C7.24596 23.2509 7.86762 23.6562 8.56646 23.8492C8.83792 23.9308 9.11766 23.9818 9.40046 24.0012H19.1005ZM17.7005 14.4452C17.8742 14.8769 18.1587 15.2552 18.5253 15.5419C18.8919 15.8286 19.3276 16.0135 19.7885 16.0782C20.5442 16.2868 21.1892 16.7811 21.5871 17.4567C21.9849 18.1323 22.1045 18.9361 21.9205 19.6982C21.7912 20.2309 21.5175 20.7177 21.1293 21.1048C20.7411 21.4919 20.2536 21.7644 19.7205 21.8922C19.5055 21.9415 19.286 21.969 19.0655 21.9742C17.4005 22.0072 10.7945 22.0122 9.46546 21.9742C9.33747 21.9701 9.21034 21.9516 9.08646 21.9192C8.84174 21.8526 8.61838 21.7239 8.43809 21.5455C8.25779 21.3671 8.12667 21.1452 8.05746 20.9012C7.95436 20.5498 7.98399 20.1728 8.14071 19.8418C8.29743 19.5109 8.57031 19.2491 8.90746 19.1062C9.34338 18.9215 9.70047 18.5894 9.9162 18.168C10.1319 17.7466 10.1926 17.2628 10.0875 16.8012C9.9618 16.2092 9.97241 15.5964 10.1185 15.0092C10.3222 14.1924 10.7783 13.4607 11.4221 12.9183C12.0658 12.3758 12.8642 12.0503 13.7037 11.988C14.5432 11.9258 15.3809 12.1299 16.0977 12.5715C16.8144 13.013 17.3735 13.6694 17.6955 14.4472L17.7005 14.4452Z" fill="#202020"/>
</g>
<defs>
<clipPath id="clip0_2_6557">
<rect width="24" height="24" fill="white"/>
</clipPath>
</defs>
</svg>
