<svg width="24" height="24" viewBox="0 0 24 24" fill="none" xmlns="http://www.w3.org/2000/svg">
<g clip-path="url(#clip0_2_7512)">
<path d="M11.0078 2.57836L11.0008 18.0164C11.0008 18.2816 11.1061 18.5359 11.2937 18.7235C11.4812 18.911 11.7356 19.0164 12.0008 19.0164C12.266 19.0164 12.5204 18.911 12.7079 18.7235C12.8954 18.5359 13.0008 18.2816 13.0008 18.0164L13.0078 2.59536L15.9198 5.50836C16.1073 5.69583 16.3616 5.80115 16.6268 5.80115C16.8919 5.80115 17.1463 5.69583 17.3338 5.50836C17.5213 5.32083 17.6266 5.06652 17.6266 4.80136C17.6266 4.5362 17.5213 4.28189 17.3338 4.09436L14.1228 0.87936C13.8442 0.60058 13.5134 0.37943 13.1493 0.228545C12.7852 0.077661 12.3949 0 12.0008 0C11.6067 0 11.2164 0.077661 10.8523 0.228545C10.4882 0.37943 10.1574 0.60058 9.87879 0.87936L6.66779 4.09136C6.48032 4.27889 6.375 4.5332 6.375 4.79836C6.375 5.06352 6.48032 5.31783 6.66779 5.50536C6.85531 5.69283 7.10962 5.79815 7.37479 5.79815C7.63995 5.79815 7.89426 5.69283 8.08179 5.50536L11.0078 2.57836Z" fill="#202020"/>
<path d="M22 16.999V20.999C22 21.2642 21.8946 21.5186 21.7071 21.7061C21.5196 21.8937 21.2652 21.999 21 21.999H3C2.73478 21.999 2.48043 21.8937 2.29289 21.7061C2.10536 21.5186 2 21.2642 2 20.999V16.999C2 16.7338 1.89464 16.4795 1.70711 16.2919C1.51957 16.1044 1.26522 15.999 1 15.999C0.734784 15.999 0.48043 16.1044 0.292893 16.2919C0.105357 16.4795 0 16.7338 0 16.999L0 20.999C0 21.7947 0.31607 22.5577 0.87868 23.1203C1.44129 23.6829 2.20435 23.999 3 23.999H21C21.7956 23.999 22.5587 23.6829 23.1213 23.1203C23.6839 22.5577 24 21.7947 24 20.999V16.999C24 16.7338 23.8946 16.4795 23.7071 16.2919C23.5196 16.1044 23.2652 15.999 23 15.999C22.7348 15.999 22.4804 16.1044 22.2929 16.2919C22.1054 16.4795 22 16.7338 22 16.999Z" fill="#202020"/>
</g>
<defs>
<clipPath id="clip0_2_7512">
<rect width="24" height="24" fill="white"/>
</clipPath>
</defs>
</svg>
