<svg width="24" height="24" viewBox="0 0 24 24" fill="none" xmlns="http://www.w3.org/2000/svg">
<path d="M19 4.99902H16.9C16.6679 3.87044 16.0538 2.85637 15.1613 2.12774C14.2687 1.39911 13.1522 1.00048 12 0.999023H5C3.67441 1.00061 2.40356 1.52791 1.46622 2.46524C0.528882 3.40258 0.00158786 4.67343 0 5.99902L0 14.999C0.0025138 15.8947 0.305538 16.7635 0.860536 17.4665C1.41553 18.1694 2.19039 18.6658 3.061 18.876C2.96676 19.3765 2.98287 19.8915 3.10819 20.385C3.23351 20.8786 3.46503 21.3389 3.7866 21.7338C4.10816 22.1287 4.51202 22.4486 4.96999 22.6713C5.42796 22.894 5.92901 23.0141 6.43817 23.0232C6.94733 23.0322 7.45234 22.9301 7.91796 22.7239C8.38357 22.5176 8.79858 22.2123 9.13401 21.8291C9.46944 21.4459 9.71722 20.9942 9.86006 20.5054C10.0029 20.0166 10.0373 19.5025 9.961 18.999H14.043C14.0173 19.1645 14.0036 19.3316 14.002 19.499C14.002 20.4273 14.3707 21.3175 15.0271 21.9739C15.6835 22.6303 16.5737 22.999 17.502 22.999C18.4303 22.999 19.3205 22.6303 19.9769 21.9739C20.6333 21.3175 21.002 20.4273 21.002 19.499C21.0009 19.2899 20.9804 19.0814 20.941 18.876C21.8112 18.6654 22.5856 18.1689 23.1403 17.466C23.6949 16.7631 23.9976 15.8944 24 14.999V9.99902C23.9984 8.67343 23.4711 7.40258 22.5338 6.46524C21.5964 5.52791 20.3256 5.00061 19 4.99902ZM22 9.99902V10.999H17V6.99902H19C19.7956 6.99902 20.5587 7.31509 21.1213 7.8777C21.6839 8.44031 22 9.20337 22 9.99902ZM2 14.999V5.99902C2 5.20337 2.31607 4.44031 2.87868 3.8777C3.44129 3.31509 4.20435 2.99902 5 2.99902H12C12.7956 2.99902 13.5587 3.31509 14.1213 3.8777C14.6839 4.44031 15 5.20337 15 5.99902V16.999H4C3.46957 16.999 2.96086 16.7883 2.58579 16.4132C2.21071 16.0382 2 15.5295 2 14.999ZM8 19.499C8 19.8969 7.84196 20.2784 7.56066 20.5597C7.27936 20.841 6.89782 20.999 6.5 20.999C6.10218 20.999 5.72064 20.841 5.43934 20.5597C5.15804 20.2784 5 19.8969 5 19.499C5.00061 19.3281 5.03212 19.1587 5.093 18.999H7.907C7.96788 19.1587 7.99939 19.3281 8 19.499ZM17.5 20.999C17.1022 20.999 16.7206 20.841 16.4393 20.5597C16.158 20.2784 16 19.8969 16 19.499C16.0004 19.3281 16.0319 19.1587 16.093 18.999H18.907C18.9681 19.1587 18.9996 19.3281 19 19.499C19 19.8969 18.842 20.2784 18.5607 20.5597C18.2794 20.841 17.8978 20.999 17.5 20.999ZM20 16.999H17V12.999H22V14.999C22 15.5295 21.7893 16.0382 21.4142 16.4132C21.0391 16.7883 20.5304 16.999 20 16.999Z" fill="#202020"/>
</svg>
