<svg width="24" height="24" viewBox="0 0 24 24" fill="none" xmlns="http://www.w3.org/2000/svg">
<g clip-path="url(#clip0_2_6799)">
<path d="M12.0029 -0.00195312C5.3653 -0.00195312 -0.015625 5.37897 -0.015625 12.0166C-0.015625 18.6542 5.3653 24.0351 12.0029 24.0351C18.6406 24.0351 24.0215 18.6542 24.0215 12.0166C24.0215 5.37897 18.6406 -0.00195312 12.0029 -0.00195312ZM19.4517 8.83825L20.2277 6.32927C21.2734 7.84497 21.8775 9.6213 21.9727 11.4602L19.8307 9.95125C19.4765 9.70155 19.3235 9.2522 19.4517 8.83825ZM14.5997 2.35323H14.5917L12.5916 3.80922C12.2411 4.06408 11.7662 4.06408 11.4156 3.80922L9.41562 2.35323C11.1116 1.88261 12.9037 1.88261 14.5997 2.35323ZM3.77164 6.33025L4.54766 8.83825C4.67581 9.2522 4.52277 9.70155 4.16867 9.95125L2.02667 11.4602C2.12188 9.62162 2.726 7.84558 3.77164 6.33025ZM4.00667 17.9843L6.75369 17.9933C7.18733 17.9942 7.571 18.2744 7.7037 18.6873L8.5677 21.3803C6.75163 20.7118 5.16762 19.5325 4.00667 17.9843ZM15.4326 21.3803L16.2957 18.6873C16.4282 18.2747 16.8114 17.9946 17.2446 17.9933L19.9926 17.9843C18.8323 19.5326 17.2486 20.7121 15.4326 21.3803ZM21.1686 15.9803L17.2386 15.9932C15.9374 15.9949 14.7865 16.8374 14.3916 18.0773L13.1566 21.9272C12.3883 22.0246 11.6109 22.0246 10.8426 21.9272L9.60763 18.0762C9.21228 16.8364 8.06094 15.9944 6.75964 15.9932L2.83063 15.9813C2.52823 15.2836 2.30712 14.5534 2.17161 13.8053L5.32062 11.5863C6.38506 10.8392 6.84505 9.49 6.45861 8.24823L5.32363 4.57623C5.89719 4.05503 6.52944 3.60231 7.20763 3.22722L10.2356 5.4272C11.2866 6.19398 12.7126 6.19398 13.7636 5.4272L16.7916 3.22722C17.4696 3.60255 18.1018 4.05522 18.6756 4.57623L17.5406 8.24823C17.1542 9.48995 17.6142 10.8391 18.6786 11.5863L21.8276 13.8053C21.6922 14.5532 21.4711 15.283 21.1686 15.9803Z" fill="#202020"/>
<path d="M15.3852 9.22477L13.4682 7.83277C12.5931 7.19377 11.4053 7.19377 10.5302 7.83277L8.61319 9.22477C7.73302 9.86072 7.36575 10.9933 7.70517 12.0248L8.43717 14.2778C8.77172 15.307 9.73191 16.003 10.8142 16.0007H13.1842C14.2675 16.0008 15.2276 15.3032 15.5622 14.2727L16.2932 12.0197C16.6305 10.9898 16.2634 9.85983 15.3852 9.22477ZM14.3912 11.4017L13.6601 13.6547C13.5933 13.8611 13.4011 14.0009 13.1841 14.0007H10.8141C10.5976 14.0004 10.4058 13.8608 10.3391 13.6547L9.60718 11.4008C9.53982 11.1944 9.61336 10.9681 9.78919 10.8407L11.7052 9.45075C11.8805 9.32335 12.1179 9.32335 12.2932 9.45075L14.2102 10.8428C14.3852 10.9703 14.4582 11.1959 14.3912 11.4017Z" fill="#202020"/>
</g>
<defs>
<clipPath id="clip0_2_6799">
<rect width="24" height="24" fill="white"/>
</clipPath>
</defs>
</svg>
