<svg width="24" height="24" viewBox="0 0 24 24" fill="none" xmlns="http://www.w3.org/2000/svg">
<path d="M19 0.999023H5C3.67441 1.00061 2.40356 1.52791 1.46622 2.46524C0.528882 3.40258 0.00158786 4.67343 0 5.99902L0 13.999C0.00158786 15.3246 0.528882 16.5955 1.46622 17.5328C2.40356 18.4701 3.67441 18.9974 5 18.999H11V20.999H7C6.73478 20.999 6.48043 21.1044 6.29289 21.2919C6.10536 21.4795 6 21.7338 6 21.999C6 22.2642 6.10536 22.5186 6.29289 22.7061C6.48043 22.8937 6.73478 22.999 7 22.999H17C17.2652 22.999 17.5196 22.8937 17.7071 22.7061C17.8946 22.5186 18 22.2642 18 21.999C18 21.7338 17.8946 21.4795 17.7071 21.2919C17.5196 21.1044 17.2652 20.999 17 20.999H13V18.999H19C20.3256 18.9974 21.5964 18.4701 22.5338 17.5328C23.4711 16.5955 23.9984 15.3246 24 13.999V5.99902C23.9984 4.67343 23.4711 3.40258 22.5338 2.46524C21.5964 1.52791 20.3256 1.00061 19 0.999023ZM22 13.999C22 14.7947 21.6839 15.5577 21.1213 16.1203C20.5587 16.683 19.7956 16.999 19 16.999H5C4.20435 16.999 3.44129 16.683 2.87868 16.1203C2.31607 15.5577 2 14.7947 2 13.999V5.99902C2 5.20337 2.31607 4.44031 2.87868 3.8777C3.44129 3.31509 4.20435 2.99902 5 2.99902H19C19.7956 2.99902 20.5587 3.31509 21.1213 3.8777C21.6839 4.44031 22 5.20337 22 5.99902V13.999ZM20 9.99902C20 10.2642 19.8946 10.5186 19.7071 10.7061C19.5196 10.8937 19.2652 10.999 19 10.999H16.035L14.335 13.554C14.2434 13.6914 14.1192 13.8039 13.9735 13.8815C13.8278 13.9592 13.6651 13.9995 13.5 13.999C13.479 13.999 13.458 13.999 13.438 13.999C13.263 13.9882 13.094 13.9317 12.9478 13.835C12.8016 13.7383 12.6834 13.6048 12.605 13.448L10.376 8.98702L9.332 10.554C9.24065 10.6909 9.11692 10.8032 8.97178 10.8808C8.82665 10.9584 8.66459 10.999 8.5 10.999H5C4.73478 10.999 4.48043 10.8937 4.29289 10.7061C4.10536 10.5186 4 10.2642 4 9.99902C4 9.73381 4.10536 9.47945 4.29289 9.29192C4.48043 9.10438 4.73478 8.99902 5 8.99902H7.965L9.665 6.44402C9.76123 6.29659 9.89516 6.17757 10.0529 6.09933C10.2106 6.02108 10.3864 5.98645 10.562 5.99902C10.737 6.0098 10.906 6.06638 11.0522 6.16308C11.1984 6.25979 11.3166 6.39323 11.395 6.55002L13.624 11.009L14.668 9.44202C14.7596 9.30548 14.8834 9.19362 15.0285 9.11635C15.1737 9.03908 15.3356 8.99878 15.5 8.99902H19C19.2652 8.99902 19.5196 9.10438 19.7071 9.29192C19.8946 9.47945 20 9.73381 20 9.99902Z" fill="#202020"/>
</svg>
