<svg width="24" height="24" viewBox="0 0 24 24" fill="none" xmlns="http://www.w3.org/2000/svg">
<g clip-path="url(#clip0_2_7507)">
<path d="M22.9994 23.9996C22.7342 23.9996 22.4798 23.8943 22.2923 23.7067C22.1048 23.5192 21.9994 23.2648 21.9994 22.9996C21.9978 21.4088 21.3652 19.8836 20.2403 18.7587C19.1154 17.6339 17.5902 17.0012 15.9994 16.9996H10.1694V18.5856C10.1693 18.9811 10.052 19.3677 9.83221 19.6965C9.61244 20.0253 9.30012 20.2816 8.93472 20.433C8.56932 20.5843 8.16725 20.6239 7.77934 20.5468C7.39144 20.4696 7.03511 20.2792 6.75541 19.9996L0.876406 14.1206C0.313993 13.558 -0.00195313 12.7951 -0.00195312 11.9996C-0.00195313 11.2041 0.313993 10.4412 0.876406 9.87863L6.75541 3.99964C7.03511 3.72002 7.39144 3.5296 7.77934 3.45247C8.16725 3.37533 8.56932 3.41494 8.93472 3.56628C9.30012 3.71762 9.61244 3.9739 9.83221 4.30272C10.052 4.63154 10.1693 5.01813 10.1694 5.41363V6.99963H14.9994C17.3855 7.00228 19.6732 7.95134 21.3604 9.63859C23.0477 11.3258 23.9968 13.6135 23.9994 15.9996V22.9996C23.9994 23.2648 23.8941 23.5192 23.7065 23.7067C23.519 23.8943 23.2646 23.9996 22.9994 23.9996ZM8.16941 5.41363L2.29041 11.2926C2.10294 11.4802 1.99762 11.7345 1.99762 11.9996C1.99762 12.2648 2.10294 12.5191 2.29041 12.7066L8.16941 18.5856V15.9996C8.16941 15.7344 8.27476 15.4801 8.4623 15.2925C8.64984 15.105 8.90419 14.9996 9.16941 14.9996H15.9994C17.135 14.9993 18.2576 15.2412 19.2923 15.7092C20.3269 16.1772 21.2498 16.8606 21.9994 17.7136V15.9996C21.9973 14.1438 21.2591 12.3645 19.9468 11.0522C18.6345 9.73992 16.8553 9.00175 14.9994 8.99963H9.16941C8.90419 8.99963 8.64984 8.89427 8.4623 8.70674C8.27476 8.5192 8.16941 8.26485 8.16941 7.99963V5.41363Z" fill="#202020"/>
</g>
<defs>
<clipPath id="clip0_2_7507">
<rect width="24" height="24" fill="white"/>
</clipPath>
</defs>
</svg>
