<svg width="24" height="24" viewBox="0 0 24 24" fill="none" xmlns="http://www.w3.org/2000/svg">
<g clip-path="url(#clip0_2_6508)">
<path d="M23.4137 18.2392L15.5937 2.27424C15.2645 1.60198 14.7534 1.03557 14.1183 0.639397C13.4832 0.243228 12.7497 0.0332031 12.0012 0.0332031C11.2527 0.0332031 10.5192 0.243228 9.88411 0.639397C9.24903 1.03557 8.73785 1.60198 8.4087 2.27424L0.587697 18.2392C0.288893 18.8491 0.15027 19.5249 0.184889 20.2032C0.219509 20.8814 0.426231 21.5396 0.785578 22.1158C1.14492 22.6921 1.64506 23.1673 2.23887 23.4968C2.83268 23.8263 3.5006 23.9992 4.1797 23.9992H19.8207C20.4999 23.9994 21.1679 23.8266 21.7619 23.4972C22.3558 23.1678 22.8561 22.6925 23.2156 22.1163C23.575 21.54 23.7818 20.8817 23.8165 20.2034C23.8512 19.5251 23.7125 18.8491 23.4137 18.2392ZM19.6007 14.9992H4.4007L6.8507 9.99924H17.1507L19.6007 14.9992ZM10.2007 3.15424C10.3653 2.81825 10.6209 2.53517 10.9384 2.33718C11.2559 2.13919 11.6225 2.03423 11.9967 2.03423C12.3709 2.03423 12.7375 2.13919 13.055 2.33718C13.3725 2.53517 13.6281 2.81825 13.7927 3.15424L16.1697 7.99924H7.8307L10.2007 3.15424ZM21.5147 21.0542C21.3374 21.3452 21.0874 21.5851 20.7894 21.7503C20.4913 21.9154 20.1554 22.0002 19.8147 21.9962H4.1797C3.83981 21.9969 3.50535 21.911 3.20791 21.7465C2.91046 21.582 2.65984 21.3445 2.47969 21.0562C2.29955 20.768 2.19584 20.4386 2.17834 20.0992C2.16085 19.7598 2.23015 19.4215 2.3797 19.1162L3.4217 16.9992H20.5787L21.6167 19.1192C21.7699 19.423 21.8414 19.7614 21.8242 20.1012C21.807 20.441 21.7017 20.7705 21.5187 21.0572L21.5147 21.0542Z" fill="#202020"/>
</g>
<defs>
<clipPath id="clip0_2_6508">
<rect width="24" height="24" fill="white"/>
</clipPath>
</defs>
</svg>
