<svg width="24" height="24" viewBox="0 0 24 24" fill="none" xmlns="http://www.w3.org/2000/svg">
<g clip-path="url(#clip0_2_7261)">
<path d="M18.581 2.14024L12.316 0.0512408C12.1109 -0.0170803 11.8891 -0.0170803 11.684 0.0512408L5.419 2.14024C4.42291 2.47112 3.55642 3.1075 2.94265 3.95895C2.32887 4.8104 1.99904 5.83363 2 6.88324V12.0002C2 19.5632 11.2 23.7402 11.594 23.9142C11.7218 23.971 11.8601 24.0004 12 24.0004C12.1399 24.0004 12.2782 23.971 12.406 23.9142C12.8 23.7402 22 19.5632 22 12.0002V6.88324C22.001 5.83363 21.6711 4.8104 21.0574 3.95895C20.4436 3.1075 19.5771 2.47112 18.581 2.14024ZM20 12.0002C20 17.4552 13.681 21.0332 12 21.8892C10.317 21.0362 4 17.4692 4 12.0002V6.88324C4.00006 6.25352 4.19828 5.63978 4.56657 5.12898C4.93486 4.61819 5.45455 4.23623 6.052 4.03724L12 2.05424L17.948 4.03724C18.5455 4.23623 19.0651 4.61819 19.4334 5.12898C19.8017 5.63978 19.9999 6.25352 20 6.88324V12.0002Z" fill="#202020"/>
<path d="M15.3008 8.30008L11.1128 12.5001L8.86877 10.1601C8.77871 10.0616 8.66986 9.98217 8.54863 9.92643C8.4274 9.87068 8.29623 9.83976 8.16287 9.83549C8.0295 9.83122 7.89663 9.85368 7.77207 9.90156C7.64752 9.94943 7.53381 10.0218 7.43764 10.1143C7.34147 10.2068 7.26478 10.3176 7.2121 10.4402C7.15942 10.5628 7.1318 10.6947 7.13088 10.8281C7.12996 10.9615 7.15576 11.0938 7.20675 11.2171C7.25773 11.3404 7.33288 11.4523 7.42777 11.5461L9.73377 13.9461C9.90574 14.1318 10.1136 14.2808 10.3448 14.3839C10.576 14.487 10.8257 14.5422 11.0788 14.5461H11.1118C11.3598 14.5469 11.6056 14.4984 11.8347 14.4035C12.0639 14.3086 12.272 14.1691 12.4468 13.9931L16.7188 9.72108C16.8121 9.62797 16.8861 9.5174 16.9367 9.39567C16.9873 9.27395 17.0134 9.14345 17.0135 9.01164C17.0136 8.87982 16.9878 8.74928 16.9375 8.62744C16.8872 8.50561 16.8134 8.39488 16.7203 8.30158C16.6272 8.20827 16.5166 8.13422 16.3949 8.08365C16.2731 8.03308 16.1426 8.00698 16.0108 8.00684C15.879 8.0067 15.7485 8.03252 15.6266 8.08284C15.5048 8.13315 15.3941 8.20697 15.3008 8.30008Z" fill="#202020"/>
</g>
<defs>
<clipPath id="clip0_2_7261">
<rect width="24" height="24" fill="white"/>
</clipPath>
</defs>
</svg>
