<svg width="24" height="24" viewBox="0 0 24 24" fill="none" xmlns="http://www.w3.org/2000/svg">
<path d="M19 5.00098H5C3.67392 5.00098 2.40215 5.52776 1.46447 6.46544C0.526784 7.40312 0 8.67489 0 10.001L0 14.001C0 15.3271 0.526784 16.5988 1.46447 17.5365C2.40215 18.4742 3.67392 19.001 5 19.001H19C19.6566 19.001 20.3068 18.8716 20.9134 18.6204C21.52 18.3691 22.0712 18.0008 22.5355 17.5365C22.9998 17.0722 23.3681 16.521 23.6194 15.9144C23.8707 15.3078 24 14.6576 24 14.001V10.001C24 9.34437 23.8707 8.69419 23.6194 8.08756C23.3681 7.48093 22.9998 6.92974 22.5355 6.46544C22.0712 6.00115 21.52 5.63285 20.9134 5.38158C20.3068 5.13031 19.6566 5.00098 19 5.00098ZM22 14.001C22 14.7966 21.6839 15.5597 21.1213 16.1223C20.5587 16.6849 19.7956 17.001 19 17.001H5C4.20435 17.001 3.44129 16.6849 2.87868 16.1223C2.31607 15.5597 2 14.7966 2 14.001V10.001C2 9.20533 2.31607 8.44227 2.87868 7.87966C3.44129 7.31705 4.20435 7.00098 5 7.00098H19C19.7956 7.00098 20.5587 7.31705 21.1213 7.87966C21.6839 8.44227 22 9.20533 22 10.001V14.001Z" fill="#202020"/>
</svg>
