<svg width="24" height="24" viewBox="0 0 24 24" fill="none" xmlns="http://www.w3.org/2000/svg">
<g clip-path="url(#clip0_2_6529)">
<path d="M20.0244 22.0268H19.0244V20.3718C19.0223 19.8357 18.9128 19.3055 18.7024 18.8124C18.492 18.3193 18.185 17.8733 17.7994 17.5008C15.8754 15.6418 15.0904 13.5118 15.0334 10.0248H16.0214C16.2866 10.0248 16.541 9.91946 16.7285 9.73193C16.916 9.54439 17.0214 9.29004 17.0214 9.02482C17.0214 8.7596 16.916 8.50525 16.7285 8.31771C16.541 8.13018 16.2866 8.02482 16.0214 8.02482H15.4654C15.8258 7.41967 16.0177 6.72914 16.0214 6.02482C16.0214 4.64982 14.8594 2.30782 14.1284 1.15482C13.9023 0.801368 13.5909 0.510503 13.2228 0.309029C12.8548 0.107555 12.442 0.00195312 12.0224 0.00195312C11.6028 0.00195312 11.19 0.107555 10.8219 0.309029C10.4539 0.510503 10.1425 0.801368 9.91639 1.15482C9.18439 2.30882 8.02239 4.65482 8.02239 6.02582C8.02654 6.73007 8.21847 7.42047 8.57839 8.02582H8.02539C7.76017 8.02582 7.50582 8.13118 7.31828 8.31871C7.13075 8.50625 7.02539 8.7606 7.02539 9.02582C7.02539 9.29104 7.13075 9.54539 7.31828 9.73293C7.50582 9.92046 7.76017 10.0258 8.02539 10.0258H9.01439C8.95639 13.5128 8.17039 15.6418 6.24839 17.5008C5.86353 17.8735 5.55708 18.3194 5.34705 18.8123C5.13703 19.3052 5.02766 19.8351 5.02539 20.3708V22.0258H4.02539C3.76017 22.0258 3.50582 22.1312 3.31828 22.3187C3.13075 22.5063 3.02539 22.7606 3.02539 23.0258C3.02539 23.291 3.13075 23.5454 3.31828 23.7329C3.50582 23.9205 3.76017 24.0258 4.02539 24.0258H20.0254C20.2906 24.0258 20.545 23.9205 20.7325 23.7329C20.92 23.5454 21.0254 23.291 21.0254 23.0258C21.0254 22.7606 20.92 22.5063 20.7325 22.3187C20.545 22.1312 20.2906 22.0258 20.0254 22.0258L20.0244 22.0268ZM11.6074 2.22682C11.6529 2.15771 11.7149 2.10099 11.7878 2.06174C11.8607 2.02249 11.9421 2.00195 12.0249 2.00195C12.1077 2.00195 12.1891 2.02249 12.262 2.06174C12.3349 2.10099 12.3968 2.15771 12.4424 2.22682C13.2095 3.37979 13.7467 4.67009 14.0244 6.02682C14.0244 6.55725 13.8137 7.06596 13.4386 7.44104C13.0635 7.81611 12.5548 8.02682 12.0244 8.02682C11.494 8.02682 10.9852 7.81611 10.6102 7.44104C10.2351 7.06596 10.0244 6.55725 10.0244 6.02682C10.3028 4.67045 10.8403 3.38054 11.6074 2.22782V2.22682ZM13.0374 10.0268C13.0914 13.5428 13.8374 15.9778 15.5594 18.0268H8.49039C10.2104 15.9778 10.9584 13.5418 11.0134 10.0268H13.0374ZM7.02539 20.3718C7.02687 20.256 7.03892 20.1405 7.06139 20.0268H16.9894C17.011 20.1406 17.0227 20.256 17.0244 20.3718V22.0268H7.02439L7.02539 20.3718Z" fill="#202020"/>
</g>
<defs>
<clipPath id="clip0_2_6529">
<rect width="24" height="24" fill="white"/>
</clipPath>
</defs>
</svg>
