<svg width="24" height="24" viewBox="0 0 24 24" fill="none" xmlns="http://www.w3.org/2000/svg">
<g clip-path="url(#clip0_2_6625)">
<path d="M23.6295 3.845C23.4424 3.584 23.196 3.37125 22.9105 3.22432C22.625 3.07739 22.3086 3.0005 21.9875 3H18.4435C18.9625 2.153 19.5435 0.108 17.9995 0C17.7343 0 17.4799 0.105357 17.2924 0.292893C17.1048 0.48043 16.9995 0.734784 16.9995 1C16.9995 1.53043 16.7888 2.03914 16.4137 2.41421C16.0386 2.78929 15.5299 3 14.9995 3H8.99949C8.46905 3 7.96035 2.78929 7.58527 2.41421C7.2102 2.03914 6.99949 1.53043 6.99949 1C6.99949 0.734784 6.89413 0.48043 6.70659 0.292893C6.51906 0.105357 6.2647 0 5.99949 0C4.45149 0.109 5.03749 2.152 5.55549 3H2.01149C1.69609 3.00037 1.38522 3.07503 1.10405 3.21794C0.82289 3.36084 0.579342 3.56796 0.393141 3.82253C0.20694 4.0771 0.0833229 4.37194 0.0323046 4.68319C-0.0187137 4.99443 0.00430161 5.31331 0.099486 5.614C0.643119 7.08687 1.67279 8.33031 3.01849 9.139C3.01849 9.174 6.01849 21.204 6.01849 21.204C6.06866 21.961 6.40434 22.6707 6.9577 23.1898C7.51106 23.7088 8.24082 23.9984 8.99949 24H14.9995C15.7585 23.9978 16.4883 23.7074 17.0413 23.1876C17.5943 22.6678 17.9293 21.9574 17.9785 21.2C17.9785 21.2 20.9785 9.17 20.9785 9.135C22.3241 8.32791 23.3544 7.08632 23.8995 5.615C24.0002 5.32001 24.0283 5.00508 23.9813 4.69693C23.9343 4.38879 23.8136 4.09654 23.6295 3.845ZM18.3795 7.962C17.692 7.92529 17.0042 8.02793 16.3574 8.26374C15.7106 8.49956 15.1182 8.8637 14.6157 9.33427C14.1131 9.80484 13.7109 10.3721 13.4332 11.0021C13.1555 11.632 13.0079 12.3116 12.9995 13V18H10.9995V13C10.991 12.3116 10.8435 11.632 10.5658 11.0021C10.288 10.3721 9.88584 9.80484 9.38332 9.33427C8.8808 8.8637 8.28835 8.49956 7.64155 8.26374C6.99475 8.02793 6.30695 7.92529 5.61949 7.962C6.31248 6.79446 7.23917 5.78265 8.34149 4.99L15.6415 5C16.7494 5.78706 17.6818 6.7957 18.3795 7.962ZM2.01149 5H5.33249C4.71737 5.67785 4.18065 6.42288 3.73249 7.221C2.94617 6.67305 2.34577 5.89822 2.01149 5ZM5.99949 10C6.35227 10.0029 6.70172 10.0686 7.03149 10.194C6.98265 10.4374 6.9947 10.6891 7.06657 10.9267C7.13844 11.1643 7.26789 11.3805 7.44343 11.5561C7.61897 11.7316 7.83516 11.861 8.07277 11.9329C8.31039 12.0048 8.56209 12.0168 8.80549 11.968C8.93085 12.2978 8.99654 12.6472 8.99949 13V18C8.43204 18.0015 7.87687 18.1652 7.39949 18.472L5.26249 9.929C5.50625 9.96942 5.75249 9.99314 5.99949 10ZM14.9995 22H8.99949C8.73427 22 8.47992 21.8946 8.29238 21.7071C8.10484 21.5196 7.99949 21.2652 7.99949 21C7.99949 20.7348 8.10484 20.4804 8.29238 20.2929C8.47992 20.1054 8.73427 20 8.99949 20H14.9995C15.2647 20 15.5191 20.1054 15.7066 20.2929C15.8941 20.4804 15.9995 20.7348 15.9995 21C15.9995 21.2652 15.8941 21.5196 15.7066 21.7071C15.5191 21.8946 15.2647 22 14.9995 22ZM16.5995 18.472C16.1221 18.1652 15.5669 18.0015 14.9995 18V13C15.0024 12.6472 15.0681 12.2978 15.1935 11.968C15.4369 12.0168 15.6886 12.0048 15.9262 11.9329C16.1638 11.861 16.38 11.7316 16.5555 11.5561C16.7311 11.3805 16.8605 11.1643 16.9324 10.9267C17.0043 10.6891 17.0163 10.4374 16.9675 10.194C17.545 10.0379 18.1386 9.94902 18.7365 9.929L16.5995 18.472ZM20.2635 7.215C19.8125 6.40909 19.2706 5.65752 18.6485 4.975L21.9995 4.97C21.6615 5.87685 21.0561 6.65971 20.2635 7.215Z" fill="#202020"/>
</g>
<defs>
<clipPath id="clip0_2_6625">
<rect width="24" height="24" fill="white"/>
</clipPath>
</defs>
</svg>
