<svg width="24" height="24" viewBox="0 0 24 24" fill="none" xmlns="http://www.w3.org/2000/svg">
<g clip-path="url(#clip0_2_6514)">
<path d="M22.2923 12.6996L21.2063 13.7856L17.6213 10.1996C17.0497 9.65439 16.2902 9.35023 15.5003 9.35023C14.7104 9.35023 13.9509 9.65439 13.3793 10.1996L13.2063 10.3726C13.0159 10.5546 12.7627 10.6562 12.4993 10.6562C12.2359 10.6562 11.9827 10.5546 11.7923 10.3726L6.71929 5.29357C6.62704 5.19806 6.5167 5.12188 6.39469 5.06947C6.27269 5.01706 6.14147 4.98947 6.00869 4.98832C5.87591 4.98717 5.74423 5.01247 5.62133 5.06275C5.49844 5.11303 5.38679 5.18728 5.29289 5.28117C5.199 5.37507 5.12475 5.48672 5.07447 5.60962C5.02419 5.73251 4.99888 5.86419 5.00004 5.99697C5.00119 6.12975 5.02878 6.26097 5.08119 6.38297C5.1336 6.50498 5.20978 6.61532 5.30529 6.70757L10.3773 11.7806C10.9487 12.326 11.7083 12.6303 12.4983 12.6303C13.2882 12.6303 14.0478 12.326 14.6193 11.7806L14.7923 11.6076C14.9827 11.4255 15.2359 11.3239 15.4993 11.3239C15.7627 11.3239 16.0159 11.4255 16.2063 11.6076L19.7923 15.1996L18.7063 16.2856C18.5665 16.4254 18.4713 16.6036 18.4327 16.7975C18.3941 16.9915 18.4139 17.1925 18.4896 17.3752C18.5653 17.5579 18.6934 17.7141 18.8578 17.824C19.0222 17.9339 19.2155 17.9925 19.4133 17.9926H22.4993C22.8971 17.9926 23.2786 17.8345 23.5599 17.5532C23.8413 17.2719 23.9993 16.8904 23.9993 16.4926V13.3996C23.9979 13.2024 23.9382 13.0101 23.8278 12.8467C23.7174 12.6834 23.5611 12.5563 23.3787 12.4815C23.1963 12.4067 22.9959 12.3875 22.8025 12.4263C22.6092 12.4651 22.4317 12.5602 22.2923 12.6996Z" fill="#202020"/>
<path d="M23 21.976H5C4.20435 21.976 3.44129 21.6599 2.87868 21.0973C2.31607 20.5347 2 19.7716 2 18.976V1C2 0.734784 1.89464 0.48043 1.70711 0.292893C1.51957 0.105357 1.26522 0 1 0C0.734784 0 0.48043 0.105357 0.292893 0.292893C0.105357 0.48043 0 0.734784 0 1L0 18.976C0.00158786 20.3016 0.528882 21.5724 1.46622 22.5098C2.40356 23.4471 3.67441 23.9744 5 23.976H23C23.2652 23.976 23.5196 23.8706 23.7071 23.6831C23.8946 23.4956 24 23.2412 24 22.976C24 22.7108 23.8946 22.4564 23.7071 22.2689C23.5196 22.0814 23.2652 21.976 23 21.976Z" fill="#202020"/>
</g>
<defs>
<clipPath id="clip0_2_6514">
<rect width="24" height="24" fill="white"/>
</clipPath>
</defs>
</svg>
