<svg width="24" height="24" viewBox="0 0 24 24" fill="none" xmlns="http://www.w3.org/2000/svg">
<path d="M8.33792 13.3227L10.6243 11.0364L8.33792 8.74999C7.94183 8.36744 7.93081 7.73618 8.31341 7.34008C8.69596 6.94399 9.32722 6.93297 9.72331 7.31557C9.73161 7.32358 9.73982 7.33178 9.74783 7.34008L12.0342 9.62646L14.3206 7.34008C14.7032 6.94399 15.3344 6.93302 15.7305 7.31561C16.1266 7.69821 16.1376 8.32942 15.755 8.72552C15.7469 8.73382 15.7388 8.74197 15.7305 8.74999L13.4441 11.0364L15.7305 13.3227C16.1266 13.7053 16.1376 14.3365 15.755 14.7326C15.3724 15.1287 14.7411 15.1397 14.345 14.7571C14.3368 14.7491 14.3286 14.7409 14.3206 14.7326L12.0342 12.4463L9.74783 14.7326C9.35174 15.1152 8.72052 15.1043 8.33792 14.7082C7.96471 14.3218 7.96471 13.7092 8.33792 13.3227ZM4.30663 18.8188C-0.0280446 14.5875 -0.111857 7.64332 4.1195 3.3086C8.35086 -1.02612 15.295 -1.10989 19.6297 3.12147C19.6835 3.17407 19.7369 3.22722 19.7897 3.28089C24.0728 7.56419 24.0728 14.5086 19.7897 18.7919L15.8092 22.4702C13.6971 24.5158 10.3401 24.5074 8.23822 22.4513L4.30663 18.8188ZM3.06027 11.0364C3.05375 13.4178 4.00021 15.7027 5.68864 17.382L9.61227 21.0074C10.9593 22.2948 13.0782 22.3031 14.4353 21.0264L18.4078 17.355C21.9049 13.8427 21.8926 8.16049 18.3803 4.66338C14.868 1.16627 9.1858 1.1785 5.68869 4.6908C4.00016 6.37005 3.05375 8.65507 3.06027 11.0364Z" fill="#202020"/>
</svg>
