<svg width="24" height="24" viewBox="0 0 24 24" fill="none" xmlns="http://www.w3.org/2000/svg">
<g clip-path="url(#clip0_2_6404)">
<path d="M12.0029 -0.00195312C5.3653 -0.00195312 -0.015625 5.37897 -0.015625 12.0166C-0.015625 18.6542 5.3653 24.0351 12.0029 24.0351C18.6406 24.0351 24.0215 18.6542 24.0215 12.0166C24.0215 5.37897 18.6406 -0.00195312 12.0029 -0.00195312ZM21.9426 10.9422L21.9376 10.9382C20.0018 10.7374 18.1675 9.97244 16.6626 8.73827L19.7326 5.66828C20.9695 7.17217 21.7378 9.00587 21.9426 10.9422ZM18.3147 4.25327L15.2487 7.32827C14.0141 5.82362 13.249 3.98927 13.0487 2.05328C14.9811 2.25672 16.8118 3.02148 18.3147 4.25327ZM11.0526 2.04827C11.2621 4.51698 12.2347 6.85933 13.8357 8.75027L11.9997 10.5863L5.67566 4.26227C7.20772 3.00559 9.07995 2.23473 11.0526 2.04827ZM4.2612 5.67681L4.25666 5.67227L4.26167 5.67625C4.26148 5.67644 4.26134 5.67662 4.2612 5.67681L10.5857 12.0002L8.74869 13.8372C6.85887 12.2357 4.51705 11.2626 2.0487 11.0532C2.2348 9.08087 3.00519 7.20887 4.2612 5.67681ZM2.05667 13.0583V13.0543C3.99266 13.2546 5.82702 14.0197 7.33166 15.2543L4.26167 18.3242C3.02811 16.822 2.26156 14.9913 2.05667 13.0583ZM5.67964 19.7382L8.74564 16.6683C9.98023 18.1729 10.7453 20.0072 10.9456 21.9432C9.01264 21.7383 7.18194 20.9718 5.67964 19.7382ZM12.9467 21.9522C12.7376 19.4835 11.7644 17.1413 10.1627 15.2512L11.9997 13.4142L18.3237 19.7382C16.7918 20.9953 14.9195 21.7662 12.9467 21.9522ZM19.7357 18.3242L13.4136 12.0002L15.2496 10.1642C17.14 11.7648 19.4816 12.7375 21.9496 12.9473C21.7632 14.92 20.9923 16.7922 19.7357 18.3242Z" fill="#202020"/>
</g>
<defs>
<clipPath id="clip0_2_6404">
<rect width="24" height="24" fill="white"/>
</clipPath>
</defs>
</svg>
