<svg width="24" height="24" viewBox="0 0 24 24" fill="none" xmlns="http://www.w3.org/2000/svg">
<path d="M16 24H8C6.67392 24 5.40215 23.4732 4.46447 22.5355C3.52678 21.5979 3 20.3261 3 19V5C3 4.34339 3.12933 3.69321 3.3806 3.08658C3.63188 2.47995 4.00017 1.92876 4.46447 1.46447C5.40215 0.526785 6.67392 0 8 0H16C16.6566 0 17.3068 0.129328 17.9134 0.380602C18.52 0.631876 19.0712 1.00017 19.5355 1.46447C19.9998 1.92876 20.3681 2.47995 20.6194 3.08658C20.8707 3.69321 21 4.34339 21 5V19C21 20.3261 20.4732 21.5979 19.5355 22.5355C18.5979 23.4732 17.3261 24 16 24V24ZM19 5C19 4.20435 18.6839 3.44129 18.1213 2.87868C17.5587 2.31607 16.7956 2 16 2H8C7.20435 2 6.44129 2.31607 5.87868 2.87868C5.31607 3.44129 5 4.20435 5 5V19C5 19.7956 5.31607 20.5587 5.87868 21.1213C6.44129 21.6839 7.20435 22 8 22H16C16.7956 22 17.5587 21.6839 18.1213 21.1213C18.6839 20.5587 19 19.7956 19 19V5Z" fill="#202020"/>
</svg>
