<svg width="24" height="24" viewBox="0 0 24 24" fill="none" xmlns="http://www.w3.org/2000/svg">
<g clip-path="url(#clip0_2_7006)">
<path d="M8.17454 22.4532C10.2785 24.5114 13.6388 24.5198 15.753 22.4722L19.7374 18.7902C24.0536 14.5315 24.1001 7.58018 19.8414 3.26397C15.5828 -1.05223 8.63138 -1.09882 4.31518 3.15991C4.28026 3.19437 4.24557 3.22905 4.21112 3.26397C-0.0760721 7.55187 -0.0755095 14.5034 4.21238 18.7906C4.22129 18.7995 4.23015 18.8083 4.2391 18.8171L8.17454 22.4532ZM5.62243 4.67524C9.12272 1.15924 14.8106 1.14649 18.3266 4.64679C21.8426 8.14708 21.8553 13.8349 18.355 17.3509L14.3776 21.0259C13.0194 22.3041 10.8985 22.2963 9.5499 21.0079L5.62243 17.3789C2.1144 13.8709 2.1144 8.18332 5.62233 4.67529C5.62238 4.67529 5.62238 4.67529 5.62243 4.67524ZM6.98382 11.0271C6.98382 10.4758 7.43068 10.029 7.98193 10.029H15.9666C16.5179 10.029 16.9647 10.4758 16.9647 11.0271C16.9647 11.5783 16.5179 12.0252 15.9666 12.0252H7.98193C7.43068 12.0251 6.98382 11.5783 6.98382 11.0271Z" fill="#202020"/>
</g>
<defs>
<clipPath id="clip0_2_7006">
<rect width="24" height="24" fill="white"/>
</clipPath>
</defs>
</svg>
