<svg width="24" height="24" viewBox="0 0 24 24" fill="none" xmlns="http://www.w3.org/2000/svg">
<g clip-path="url(#clip0_2_6829)">
<path d="M23.9541 21.3193C23.9151 21.1938 23.8518 21.0773 23.7677 20.9764C23.6837 20.8754 23.5806 20.792 23.4644 20.7309C23.3481 20.6698 23.2209 20.6322 23.0901 20.6203C22.9593 20.6083 22.8275 20.6222 22.7021 20.6613L21.4021 21.0613L20.4711 18.3243C21.4489 17.7755 22.2117 16.9113 22.6346 15.8728C23.0575 14.8343 23.1154 13.683 22.7991 12.6073L20.9561 7.13225C20.7241 6.38481 20.2113 5.75645 19.5255 5.37934C18.8398 5.00223 18.0345 4.90578 17.2791 5.11025L13.4271 6.18425C12.8747 6.33796 12.3786 6.64849 11.9991 7.07825C11.6195 6.64849 11.1235 6.33796 10.5711 6.18425L6.71806 5.11025C5.96813 4.90339 5.16722 4.99512 4.48347 5.36617C3.79973 5.73722 3.28633 6.35874 3.05106 7.10025L1.18406 12.6573C0.880078 13.7322 0.94816 14.8783 1.37726 15.9096C1.80637 16.941 2.57132 17.7972 3.54806 18.3393L2.60406 21.0673L1.29906 20.6613C1.17365 20.6219 1.0417 20.6075 0.91076 20.6191C0.779818 20.6307 0.652442 20.668 0.535904 20.7288C0.419367 20.7897 0.31595 20.8728 0.231559 20.9736C0.147168 21.0744 0.0834555 21.1908 0.0440589 21.3163C0.00466237 21.4417 -0.00964662 21.5736 0.00194895 21.7046C0.0135445 21.8355 0.0508176 21.9629 0.11164 22.0794C0.172462 22.1959 0.255643 22.2994 0.356432 22.3838C0.457222 22.4681 0.573647 22.5319 0.699059 22.5713L2.85906 23.2423C2.87406 23.2423 2.88306 23.2593 2.89806 23.2653C2.91306 23.2713 2.95006 23.2713 2.97606 23.2783L5.15706 23.9553C5.41034 24.034 5.68454 24.009 5.91934 23.8856C6.15413 23.7622 6.33029 23.5505 6.40906 23.2973C6.48783 23.044 6.46276 22.7698 6.33936 22.535C6.21596 22.3002 6.00434 22.124 5.75106 22.0453L4.51506 21.6603L5.45006 18.9603C5.63549 18.9841 5.82212 18.9974 6.00906 19.0003C7.09023 18.9976 8.1414 18.6445 9.00499 17.9941C9.86859 17.3436 10.4981 16.4307 10.7991 15.3923L11.9991 11.8363L13.1821 15.3363C13.4737 16.3879 14.1013 17.3153 14.9693 17.9768C15.8372 18.6384 16.8977 18.9978 17.9891 19.0003C18.1833 18.9984 18.3774 18.9851 18.5701 18.9603L19.4881 21.6603L18.2441 22.0463C17.9908 22.125 17.7792 22.3012 17.6558 22.536C17.5324 22.7708 17.5073 23.045 17.5861 23.2983C17.6648 23.5515 17.841 23.7632 18.0758 23.8866C18.3106 24.01 18.5848 24.035 18.8381 23.9563L21.0131 23.2813C21.0391 23.2743 21.0661 23.2813 21.0921 23.2683C21.1181 23.2553 21.1181 23.2493 21.1341 23.2433L23.2961 22.5723C23.4216 22.5333 23.5382 22.4699 23.6392 22.3858C23.7403 22.3017 23.8237 22.1985 23.8848 22.0822C23.946 21.9658 23.9835 21.8385 23.9954 21.7076C24.0073 21.5767 23.9932 21.4447 23.9541 21.3193ZM13.3561 8.59225C13.4197 8.47508 13.5063 8.37197 13.6108 8.28914C13.7153 8.20631 13.8355 8.14546 13.9641 8.11025L17.8151 7.03725C17.901 7.01319 17.9898 7.00075 18.0791 7.00025C18.299 7.00258 18.5123 7.07572 18.6874 7.20884C18.8625 7.34195 18.99 7.52795 19.0511 7.73925L19.8121 10.0003H13.4891L13.2741 9.36325C13.2357 9.23575 13.2232 9.10188 13.2373 8.96948C13.2514 8.83709 13.2918 8.70884 13.3561 8.59225ZM5.91706 7.00025C6.0066 7.00042 6.09572 7.01252 6.18206 7.03625L10.0341 8.11025C10.2885 8.18044 10.5049 8.3484 10.6361 8.57751C10.7672 8.80662 10.8024 9.07828 10.7341 9.33325L10.5091 10.0003H4.18606L4.95606 7.71025C5.01961 7.50491 5.14714 7.32525 5.32002 7.19752C5.49291 7.06979 5.70211 7.00067 5.91706 7.00025ZM8.89106 14.8003C8.73133 15.3711 8.40609 15.8818 7.95639 16.2679C7.50669 16.654 6.95268 16.8983 6.36428 16.9699C5.77588 17.0414 5.17946 16.9371 4.65031 16.67C4.12115 16.403 3.68297 15.9851 3.39106 15.4693C3.00458 14.7953 2.89965 13.9961 3.09906 13.2453L3.51306 12.0003H9.83506L8.89106 14.8003ZM16.5231 16.6083C16.1727 16.4094 15.8656 16.1425 15.6198 15.8233C15.3741 15.504 15.1946 15.1389 15.0921 14.7493L14.1631 12.0003H20.4861L20.8861 13.1943C21.0457 13.7661 21.032 14.3724 20.8468 14.9365C20.6616 15.5005 20.3133 15.997 19.8458 16.3629C19.3783 16.7289 18.8128 16.9479 18.2208 16.9923C17.6287 17.0367 17.0369 16.9044 16.5201 16.6123L16.5231 16.6083Z" fill="#202020"/>
<path d="M15.5535 3.90042C15.6716 3.95978 15.8003 3.99515 15.9321 4.00449C16.0639 4.01383 16.1963 3.99695 16.3215 3.95483C16.4468 3.9127 16.5624 3.84617 16.6618 3.75908C16.7612 3.67199 16.8423 3.56606 16.9005 3.44742L17.9005 1.44742C18.0191 1.21005 18.0385 0.935308 17.9545 0.683634C17.8705 0.43196 17.6899 0.22397 17.4525 0.105418C17.2152 -0.013134 16.9404 -0.0325358 16.6888 0.0514805C16.4371 0.135497 16.2291 0.316049 16.1105 0.553418L15.1105 2.55342C15.0508 2.67088 15.0149 2.79899 15.0049 2.93037C14.9948 3.06176 15.0108 3.19384 15.052 3.31901C15.0932 3.44419 15.1587 3.55999 15.2447 3.65977C15.3308 3.75955 15.4358 3.84133 15.5535 3.90042Z" fill="#202020"/>
<path d="M7.10432 3.44742C7.22288 3.68545 7.43113 3.86664 7.68327 3.95112C7.80812 3.99296 7.93999 4.00979 8.07134 4.00066C8.20269 3.99153 8.33096 3.95662 8.44882 3.89792C8.56669 3.83922 8.67183 3.75788 8.75826 3.65854C8.84468 3.5592 8.9107 3.44382 8.95253 3.31897C8.99436 3.19412 9.01119 3.06226 9.00207 2.9309C8.99294 2.79955 8.95802 2.67128 8.89932 2.55342L7.89932 0.553418C7.84062 0.435885 7.75935 0.331065 7.66014 0.244942C7.56093 0.158819 7.44572 0.0930811 7.32111 0.0514805C7.06943 -0.0325358 6.79469 -0.013134 6.55732 0.105418C6.31996 0.22397 6.1394 0.43196 6.05539 0.683634C5.97137 0.935308 5.99077 1.21005 6.10932 1.44742L7.10432 3.44742Z" fill="#202020"/>
<path d="M12 4C12.2652 4 12.5196 3.89464 12.7071 3.70711C12.8947 3.51957 13 3.26522 13 3V1C13 0.734784 12.8947 0.48043 12.7071 0.292893C12.5196 0.105357 12.2652 0 12 0C11.7348 0 11.4804 0.105357 11.2929 0.292893C11.1054 0.48043 11 0.734784 11 1V3C11 3.26522 11.1054 3.51957 11.2929 3.70711C11.4804 3.89464 11.7348 4 12 4Z" fill="#202020"/>
</g>
<defs>
<clipPath id="clip0_2_6829">
<rect width="24" height="24" fill="white"/>
</clipPath>
</defs>
</svg>
