<svg width="24" height="24" viewBox="0 0 24 24" fill="none" xmlns="http://www.w3.org/2000/svg">
<g clip-path="url(#clip0_2_6738)">
<path d="M22.8276 1.175C22.3424 0.68535 21.738 0.330552 21.0739 0.145557C20.4099 -0.0394372 19.7091 -0.0482458 19.0406 0.119999C13.8581 1.48055 9.1119 4.1491 5.25657 7.87C4.49817 8.63299 3.90676 9.54539 3.51992 10.5492C3.13309 11.5531 2.95929 12.6264 3.00957 13.701C3.0812 15.2609 3.62874 16.7615 4.57857 18.001L0.293569 22.294C0.198059 22.3862 0.121877 22.4966 0.0694681 22.6186C0.0170591 22.7406 -0.0105272 22.8718 -0.011681 23.0046C-0.0128348 23.1374 0.0124669 23.2691 0.0627478 23.392C0.113029 23.5149 0.187282 23.6265 0.281174 23.7204C0.375067 23.8143 0.486719 23.8885 0.609615 23.9388C0.732512 23.9891 0.864191 24.0144 0.996971 24.0133C1.12975 24.0121 1.26097 23.9845 1.38297 23.9321C1.50498 23.8797 1.61532 23.8035 1.70757 23.708L5.99157 19.424C7.30467 20.4492 8.92364 21.0045 10.5896 21.001C11.692 20.985 12.7804 20.7521 13.7927 20.3154C14.8051 19.8787 15.7215 19.2469 16.4896 18.456C20.8896 14.056 23.3726 7.01 23.8836 4.931C24.0497 4.26718 24.0397 3.57149 23.8544 2.91274C23.6692 2.25399 23.3153 1.655 22.8276 1.175ZM5.00757 13.609C4.96993 12.8117 5.09851 12.0154 5.38515 11.2704C5.67178 10.5255 6.11021 9.84839 6.67257 9.282C7.10057 8.857 7.54557 8.458 8.00057 8.068V14.587L6.01057 16.577C5.40417 15.7015 5.05657 14.6729 5.00757 13.609ZM15.0456 17.068C14.0932 18.1031 12.8027 18.7644 11.4063 18.9331C10.0098 19.1017 8.59901 18.7666 7.42757 17.988L9.70657 15.709L12.4146 13.001H18.1766C17.2708 14.4575 16.2219 15.8199 15.0456 17.068ZM21.9456 4.448C21.3428 6.72803 20.47 8.92793 19.3456 11.001H14.4146L17.7076 7.708C17.8031 7.61575 17.8793 7.50541 17.9317 7.3834C17.9841 7.2614 18.0117 7.13018 18.0128 6.9974C18.014 6.86462 17.9887 6.73294 17.9384 6.61005C17.8881 6.48715 17.8139 6.3755 17.72 6.28161C17.6261 6.18771 17.5144 6.11346 17.3915 6.06318C17.2686 6.0129 17.1369 5.9876 17.0042 5.98875C16.8714 5.9899 16.7402 6.01749 16.6182 6.0699C16.4962 6.12231 16.3858 6.19849 16.2936 6.294L11.2936 11.294L10.0006 12.587V6.513C12.8916 4.4869 16.1139 2.98065 19.5226 2.062C19.6808 2.02216 19.8434 2.00168 20.0066 2.001C20.2686 2.00156 20.528 2.05388 20.7698 2.15496C21.0116 2.25604 21.2311 2.40388 21.4156 2.59C21.6591 2.82593 21.836 3.12201 21.9284 3.44827C22.0208 3.77454 22.0253 4.11941 21.9416 4.448H21.9456Z" fill="#202020"/>
</g>
<defs>
<clipPath id="clip0_2_6738">
<rect width="24" height="24" fill="white"/>
</clipPath>
</defs>
</svg>
