<svg width="24" height="24" viewBox="0 0 24 24" fill="none" xmlns="http://www.w3.org/2000/svg">
<path d="M10 6H23C23.2652 6 23.5196 5.89464 23.7071 5.7071C23.8946 5.51957 24 5.26521 24 5C24 4.73478 23.8946 4.48043 23.7071 4.29289C23.5196 4.10536 23.2652 4 23 4H10C9.73478 4 9.48043 4.10536 9.29289 4.29289C9.10536 4.48043 9 4.73478 9 5C9 5.26521 9.10536 5.51957 9.29289 5.7071C9.48043 5.89464 9.73478 6 10 6Z" fill="#202020"/>
<path d="M23 11H10C9.73478 11 9.48043 11.1054 9.29289 11.2929C9.10536 11.4804 9 11.7348 9 12C9 12.2652 9.10536 12.5196 9.29289 12.7071C9.48043 12.8947 9.73478 13 10 13H23C23.2652 13 23.5196 12.8947 23.7071 12.7071C23.8946 12.5196 24 12.2652 24 12C24 11.7348 23.8946 11.4804 23.7071 11.2929C23.5196 11.1054 23.2652 11 23 11Z" fill="#202020"/>
<path d="M23 18H10C9.73478 18 9.48043 18.1054 9.29289 18.2929C9.10536 18.4804 9 18.7348 9 19C9 19.2652 9.10536 19.5196 9.29289 19.7071C9.48043 19.8947 9.73478 20 10 20H23C23.2652 20 23.5196 19.8947 23.7071 19.7071C23.8946 19.5196 24 19.2652 24 19C24 18.7348 23.8946 18.4804 23.7071 18.2929C23.5196 18.1054 23.2652 18 23 18Z" fill="#202020"/>
<path d="M6.08789 5.99985C6.18683 5.99983 6.28354 5.97046 6.36577 5.91545C6.44801 5.86045 6.51208 5.78228 6.54987 5.69085C6.58766 5.59942 6.59748 5.49883 6.57808 5.40181C6.55868 5.3048 6.51094 5.21572 6.4409 5.14585L4.0009 2.70685C3.81337 2.51938 3.55906 2.41406 3.29389 2.41406C3.02873 2.41406 2.77442 2.51938 2.58689 2.70685L0.147895 5.14585C0.0778485 5.21572 0.0301048 5.3048 0.0107063 5.40181C-0.0086922 5.49883 0.00112665 5.59942 0.0389201 5.69085C0.0767136 5.78228 0.140783 5.86045 0.223018 5.91545C0.305254 5.97046 0.401959 5.99983 0.500895 5.99985H2.29489V17.9998H0.500895C0.401874 17.9997 0.305031 18.0289 0.222642 18.0838C0.140252 18.1388 0.076028 18.2169 0.0381105 18.3084C0.000192974 18.3999 -0.00971013 18.5005 0.00965666 18.5976C0.0290234 18.6947 0.0767879 18.7839 0.146895 18.8538L2.58689 21.2928C2.77442 21.4803 3.02873 21.5856 3.29389 21.5856C3.55906 21.5856 3.81337 21.4803 4.0009 21.2928L6.4409 18.8538C6.51094 18.784 6.55868 18.6949 6.57808 18.5979C6.59748 18.5009 6.58766 18.4003 6.54987 18.3088C6.51208 18.2174 6.44801 18.1393 6.36577 18.0842C6.28354 18.0292 6.18683 17.9999 6.08789 17.9998H4.2949V5.99985H6.08789Z" fill="#202020"/>
</svg>
