<svg width="24" height="24" viewBox="0 0 24 24" fill="none" xmlns="http://www.w3.org/2000/svg">
<g clip-path="url(#clip0_2_7505)">
<path d="M22.535 8.45972C22.0715 7.99474 21.5205 7.62629 20.9137 7.37568C20.3069 7.12507 19.6565 6.99729 19 6.99972H2.79997L7.09997 2.69972C7.28721 2.51168 7.39209 2.25697 7.39152 1.9916C7.39096 1.72624 7.285 1.47197 7.09697 1.28472C6.90893 1.09748 6.65421 0.992604 6.38884 0.993166C6.12348 0.993729 5.86921 1.09968 5.68197 1.28772L0.731966 6.23672C0.263288 6.70554 0 7.34131 0 8.00422C0 8.66713 0.263288 9.3029 0.731966 9.77172L5.68197 14.7227C5.77481 14.8158 5.88508 14.8897 6.00649 14.9402C6.1279 14.9907 6.25806 15.0168 6.38955 15.017C6.52104 15.0172 6.65128 14.9915 6.77283 14.9413C6.89438 14.8912 7.00486 14.8176 7.09797 14.7247C7.19107 14.6319 7.26498 14.5216 7.31547 14.4002C7.36596 14.2788 7.39204 14.1486 7.39223 14.0171C7.39242 13.8856 7.3667 13.7554 7.31655 13.6339C7.26641 13.5123 7.19281 13.4018 7.09997 13.3087L2.78797 8.99972H19C19.7956 8.99972 20.5587 9.31579 21.1213 9.8784C21.6839 10.441 22 11.2041 22 11.9997V18.9997C22 19.7954 21.6839 20.5584 21.1213 21.121C20.5587 21.6837 19.7956 21.9997 19 21.9997H4.99997C4.73475 21.9997 4.4804 22.1051 4.29286 22.2926C4.10532 22.4802 3.99997 22.7345 3.99997 22.9997C3.99997 23.2649 4.10532 23.5193 4.29286 23.7068C4.4804 23.8944 4.73475 23.9997 4.99997 23.9997H19C20.3256 23.9981 21.5964 23.4708 22.5337 22.5335C23.4711 21.5962 23.9984 20.3253 24 18.9997V11.9997C24.0022 11.3421 23.8738 10.6905 23.6224 10.0829C23.3709 9.47518 23.0013 8.92348 22.535 8.45972Z" fill="#202020"/>
</g>
<defs>
<clipPath id="clip0_2_7505">
<rect width="24" height="24" fill="white"/>
</clipPath>
</defs>
</svg>
