<svg width="24" height="24" viewBox="0 0 24 24" fill="none" xmlns="http://www.w3.org/2000/svg">
<g clip-path="url(#clip0_2_6768)">
<path d="M22.3264 18.4214C23.0544 19.4554 23.9994 20.6504 23.9994 21.4994C23.9994 22.1625 23.736 22.7984 23.2672 23.2672C22.7984 23.736 22.1625 23.9994 21.4994 23.9994C20.8364 23.9994 20.2005 23.736 19.7317 23.2672C19.2628 22.7984 18.9994 22.1625 18.9994 21.4994C18.9994 20.7244 19.9604 19.4914 20.6914 18.4304C20.783 18.2989 20.9049 18.1913 21.0467 18.1167C21.1886 18.0421 21.3463 18.0027 21.5066 18.0018C21.6669 18.001 21.825 18.0386 21.9677 18.1116C22.1104 18.1847 22.2334 18.2909 22.3264 18.4214ZM21.4494 13.8634L12.7774 22.5354C11.839 23.4716 10.5675 23.9974 9.24193 23.9974C7.91635 23.9974 6.64489 23.4716 5.70643 22.5354L1.46443 18.2924C0.526771 17.3548 0 16.083 0 14.7569C0 13.4309 0.526771 12.1591 1.46443 11.2214L7.17343 5.51143L4.31743 2.62143C4.13605 2.43185 4.03644 2.17859 4.04008 1.91624C4.04372 1.6539 4.15032 1.40349 4.33689 1.21902C4.52346 1.03455 4.77506 0.93079 5.03743 0.930119C5.2998 0.929447 5.55192 1.03192 5.73943 1.21543L8.58743 4.09943L10.1354 2.54943L9.29243 1.70643C9.11028 1.51783 9.00948 1.26523 9.01176 1.00303C9.01404 0.740833 9.11921 0.49002 9.30462 0.304612C9.49002 0.119204 9.74084 0.014035 10.003 0.0117566C10.2652 0.00947813 10.5178 0.110273 10.7064 0.292431L23.7064 13.2924C23.8019 13.3847 23.8781 13.495 23.9305 13.617C23.9829 13.739 24.0105 13.8703 24.0117 14.003C24.0128 14.1358 23.9875 14.2675 23.9373 14.3904C23.887 14.5133 23.8127 14.6249 23.7188 14.7188C23.6249 14.8127 23.5133 14.887 23.3904 14.9373C23.2675 14.9875 23.1358 15.0128 23.003 15.0117C22.8703 15.0105 22.739 14.9829 22.617 14.9305C22.495 14.8781 22.3847 14.8019 22.2924 14.7064L21.4494 13.8634ZM20.0354 12.4494L11.5494 3.96343L9.99243 5.52143L14.7104 10.2994C14.8128 10.3904 14.8955 10.5014 14.9532 10.6256C15.0109 10.7498 15.0425 10.8845 15.0461 11.0214C15.0496 11.1583 15.0249 11.2945 14.9737 11.4215C14.9224 11.5485 14.8456 11.6636 14.748 11.7597C14.6504 11.8558 14.5341 11.9308 14.4063 11.9801C14.2785 12.0294 14.142 12.0519 14.0051 12.0463C13.8683 12.0406 13.734 12.0069 13.6108 11.9473C13.4875 11.8876 13.3778 11.8032 13.2884 11.6994L8.57943 6.93443L2.87943 12.6344C2.6008 12.913 2.37978 13.2438 2.22898 13.6078C2.07819 13.9718 2.00057 14.3619 2.00057 14.7559C2.00057 15.1499 2.07819 15.5401 2.22898 15.9041C2.37978 16.2681 2.6008 16.5989 2.87943 16.8774L7.12143 21.1204C7.6847 21.6819 8.4476 21.9972 9.24293 21.9972C10.0383 21.9972 10.8012 21.6819 11.3644 21.1204L20.0354 12.4494Z" fill="#202020"/>
</g>
<defs>
<clipPath id="clip0_2_6768">
<rect width="24" height="24" fill="white"/>
</clipPath>
</defs>
</svg>
