<svg width="24" height="24" viewBox="0 0 24 24" fill="none" xmlns="http://www.w3.org/2000/svg">
<g clip-path="url(#clip0_2_7443)">
<path d="M21 15C20.2044 15 19.4413 15.3161 18.8787 15.8787C18.3161 16.4413 18 17.2044 18 18V21C18 21.7956 18.3161 22.5587 18.8787 23.1213C19.4413 23.6839 20.2044 24 21 24C21.7956 24 22.5587 23.6839 23.1213 23.1213C23.6839 22.5587 24 21.7956 24 21V18C24 17.2044 23.6839 16.4413 23.1213 15.8787C22.5587 15.3161 21.7956 15 21 15ZM22 21C22 21.2652 21.8946 21.5196 21.7071 21.7071C21.5196 21.8946 21.2652 22 21 22C20.7348 22 20.4804 21.8946 20.2929 21.7071C20.1054 21.5196 20 21.2652 20 21V18C20 17.7348 20.1054 17.4804 20.2929 17.2929C20.4804 17.1054 20.7348 17 21 17C21.2652 17 21.5196 17.1054 21.7071 17.2929C21.8946 17.4804 22 17.7348 22 18V21Z" fill="#202020"/>
<path d="M13 12V7C13 6.73478 12.8946 6.48043 12.7071 6.29289C12.5196 6.10536 12.2652 6 12 6C11.7348 6 11.4804 6.10536 11.2929 6.29289C11.1054 6.48043 11 6.73478 11 7V11H8C7.73478 11 7.48043 11.1054 7.29289 11.2929C7.10536 11.4804 7 11.7348 7 12C7 12.2652 7.10536 12.5196 7.29289 12.7071C7.48043 12.8946 7.73478 13 8 13H12C12.2652 13 12.5196 12.8946 12.7071 12.7071C12.8946 12.5196 13 12.2652 13 12Z" fill="#202020"/>
<path d="M22.9993 2.00054C22.7341 2.00054 22.4797 2.10589 22.2922 2.29343C22.1047 2.48097 21.9993 2.73532 21.9993 3.00054V5.37454C20.9574 3.80211 19.5594 2.49746 17.9189 1.56644C16.2784 0.635421 14.4415 0.104261 12.5572 0.0160573C10.673 -0.0721468 8.79448 0.28509 7.07415 1.05878C5.35381 1.83247 3.8401 3.00083 2.65583 4.46904C1.47156 5.93726 0.650098 7.66398 0.258088 9.5091C-0.133923 11.3542 -0.085437 13.2658 0.399613 15.0886C0.884662 16.9115 1.79261 18.5944 3.04979 20.0007C4.30697 21.4069 5.87797 22.4971 7.63531 23.1825C7.75145 23.2273 7.87484 23.2504 7.99931 23.2505C8.23267 23.2509 8.45881 23.1696 8.63856 23.0208C8.81832 22.872 8.94036 22.665 8.98357 22.4357C9.02678 22.2064 8.98842 21.9691 8.87514 21.7651C8.76187 21.5611 8.58081 21.4031 8.36331 21.3185C6.87134 20.7416 5.53953 19.8152 4.4797 18.617C3.41986 17.4189 2.66292 15.984 2.27242 14.4327C1.88192 12.8815 1.86926 11.2592 2.23549 9.70208C2.60172 8.14493 3.33616 6.69837 4.37716 5.48381C5.41816 4.26925 6.73534 3.32215 8.21812 2.72201C9.70091 2.12187 11.306 1.8862 12.8987 2.03478C14.4915 2.18337 16.0253 2.71187 17.3715 3.57593C18.7177 4.43999 19.8369 5.61439 20.6353 7.00054H17.9993C17.7341 7.00054 17.4797 7.10589 17.2922 7.29343C17.1047 7.48097 16.9993 7.73532 16.9993 8.00054C16.9993 8.26575 17.1047 8.52011 17.2922 8.70764C17.4797 8.89518 17.7341 9.00054 17.9993 9.00054H20.9993C21.795 9.00054 22.558 8.68447 23.1206 8.12186C23.6832 7.55925 23.9993 6.79619 23.9993 6.00054V3.00054C23.9993 2.73532 23.894 2.48097 23.7064 2.29343C23.5189 2.10589 23.2645 2.00054 22.9993 2.00054Z" fill="#202020"/>
<path d="M15.3824 15.0751C15.1997 14.9994 14.9985 14.9796 14.8045 15.0183C14.6105 15.0569 14.4323 15.1522 14.2924 15.2921L11.2924 18.2921C11.1103 18.4808 11.0095 18.7334 11.0118 18.9956C11.014 19.2578 11.1192 19.5086 11.3046 19.694C11.49 19.8794 11.7408 19.9846 12.003 19.9868C12.2652 19.9891 12.5178 19.8883 12.7064 19.7062L13.9994 18.4131V22.9992C13.9994 23.2644 14.1048 23.5187 14.2923 23.7063C14.4799 23.8938 14.7342 23.9992 14.9994 23.9992C15.2646 23.9992 15.519 23.8938 15.7065 23.7063C15.8941 23.5187 15.9994 23.2644 15.9994 22.9992V15.9991C15.9995 15.8014 15.9409 15.608 15.8311 15.4436C15.7212 15.2791 15.5651 15.1509 15.3824 15.0751Z" fill="#202020"/>
</g>
<defs>
<clipPath id="clip0_2_7443">
<rect width="24" height="24" fill="white"/>
</clipPath>
</defs>
</svg>
