<svg width="24" height="24" viewBox="0 0 24 24" fill="none" xmlns="http://www.w3.org/2000/svg">
<path d="M19 22.001H5C3.67441 21.9994 2.40356 21.4721 1.46622 20.5348C0.528882 19.5974 0.00158786 18.3266 0 17.001L0 7.00098C0.00158786 5.67538 0.528882 4.40453 1.46622 3.4672C2.40356 2.52986 3.67441 2.00256 5 2.00098H19C20.3256 2.00256 21.5964 2.52986 22.5338 3.4672C23.4711 4.40453 23.9984 5.67538 24 7.00098V17.001C23.9984 18.3266 23.4711 19.5974 22.5338 20.5348C21.5964 21.4721 20.3256 21.9994 19 22.001ZM5 4.00098C4.20435 4.00098 3.44129 4.31705 2.87868 4.87966C2.31607 5.44227 2 6.20533 2 7.00098V17.001C2 17.7966 2.31607 18.5597 2.87868 19.1223C3.44129 19.6849 4.20435 20.001 5 20.001H19C19.7956 20.001 20.5587 19.6849 21.1213 19.1223C21.6839 18.5597 22 17.7966 22 17.001V7.00098C22 6.20533 21.6839 5.44227 21.1213 4.87966C20.5587 4.31705 19.7956 4.00098 19 4.00098H5Z" fill="#202020"/>
<path d="M19 13.001H11C10.7348 13.001 10.4804 12.8956 10.2929 12.7081C10.1054 12.5206 10 12.2662 10 12.001C10 11.7358 10.1054 11.4814 10.2929 11.2939C10.4804 11.1063 10.7348 11.001 11 11.001H19C19.2652 11.001 19.5196 11.1063 19.7071 11.2939C19.8946 11.4814 20 11.7358 20 12.001C20 12.2662 19.8946 12.5206 19.7071 12.7081C19.5196 12.8956 19.2652 13.001 19 13.001Z" fill="#202020"/>
<path d="M6.99999 13.001H5C4.73478 13.001 4.48043 12.8956 4.29289 12.7081C4.10536 12.5206 4 12.2662 4 12.001C4 11.7358 4.10536 11.4814 4.29289 11.2939C4.48043 11.1063 4.73478 11.001 5 11.001H6.99999C7.26521 11.001 7.51956 11.1063 7.7071 11.2939C7.89464 11.4814 7.99999 11.7358 7.99999 12.001C7.99999 12.2662 7.89464 12.5206 7.7071 12.7081C7.51956 12.8956 7.26521 13.001 6.99999 13.001Z" fill="#202020"/>
<path d="M13 17.999H5C4.73478 17.999 4.48043 17.8937 4.29289 17.7061C4.10536 17.5186 4 17.2642 4 16.999C4 16.7338 4.10536 16.4795 4.29289 16.2919C4.48043 16.1044 4.73478 15.999 5 15.999H13C13.2652 15.999 13.5196 16.1044 13.7071 16.2919C13.8946 16.4795 14 16.7338 14 16.999C14 17.2642 13.8946 17.5186 13.7071 17.7061C13.5196 17.8937 13.2652 17.999 13 17.999Z" fill="#202020"/>
<path d="M19 17.999H17C16.7348 17.999 16.4804 17.8937 16.2929 17.7061C16.1054 17.5186 16 17.2642 16 16.999C16 16.7338 16.1054 16.4795 16.2929 16.2919C16.4804 16.1044 16.7348 15.999 17 15.999H19C19.2652 15.999 19.5196 16.1044 19.7071 16.2919C19.8946 16.4795 20 16.7338 20 16.999C20 17.2642 19.8946 17.5186 19.7071 17.7061C19.5196 17.8937 19.2652 17.999 19 17.999Z" fill="#202020"/>
</svg>
