<svg width="24" height="24" viewBox="0 0 24 24" fill="none" xmlns="http://www.w3.org/2000/svg">
<g clip-path="url(#clip0_2_6782)">
<path d="M10.2062 0.0675533H10.1992C9.97517 0.0169427 9.74056 0.0449831 9.53478 0.146962C9.329 0.248942 9.16459 0.418645 9.06919 0.627553L0.374184 19.7586C0.166563 20.2155 0.0769046 20.7172 0.113419 21.2178C0.149934 21.7184 0.311456 22.2018 0.583191 22.6238C0.854926 23.0458 1.22819 23.3928 1.6688 23.6332C2.10941 23.8735 2.60328 23.9995 3.10518 23.9996H9.99919C10.2644 23.9996 10.5188 23.8942 10.7063 23.7067C10.8938 23.5191 10.9992 23.2648 10.9992 22.9996V1.04555C10.9973 0.81683 10.9178 0.595527 10.7737 0.417861C10.6297 0.240195 10.4296 0.116689 10.2062 0.0675533ZM8.99919 21.9996H3.10518C2.93778 21.9997 2.77303 21.9578 2.62603 21.8777C2.47903 21.7976 2.35449 21.6819 2.26382 21.5412C2.17316 21.4004 2.11927 21.2392 2.10711 21.0722C2.09494 20.9053 2.12488 20.7379 2.19418 20.5856L8.99919 5.61555V21.9996Z" fill="#202020"/>
<path d="M23.625 19.7589L14.93 0.627929C14.8301 0.417823 14.6614 0.248106 14.452 0.146829C14.2425 0.0455515 14.0047 0.0187765 13.778 0.0709293C13.557 0.12124 13.3597 0.245117 13.2183 0.422259C13.077 0.599401 13 0.819303 13 1.04593V22.9999C13 23.2651 13.1054 23.5195 13.2929 23.707C13.4804 23.8946 13.7348 23.9999 14 23.9999H20.894C21.3959 23.9999 21.8898 23.8739 22.3304 23.6336C22.771 23.3932 23.1442 23.0461 23.416 22.6242C23.6877 22.2022 23.8492 21.7188 23.8858 21.2182C23.9223 20.7176 23.8326 20.2159 23.625 19.7589Z" fill="#202020"/>
</g>
<defs>
<clipPath id="clip0_2_6782">
<rect width="24" height="24" fill="white"/>
</clipPath>
</defs>
</svg>
