<svg width="24" height="24" viewBox="0 0 24 24" fill="none" xmlns="http://www.w3.org/2000/svg">
<path d="M13.0993 19.0008C12.9016 19 12.7085 18.9405 12.5445 18.8299C12.3805 18.7194 12.253 18.5627 12.1781 18.3796C12.1031 18.1966 12.0842 17.9955 12.1235 17.8017C12.1629 17.6078 12.2589 17.4301 12.3993 17.2908L16.9993 12.7108C17.0931 12.6178 17.1675 12.5072 17.2182 12.3854C17.269 12.2635 17.2951 12.1328 17.2951 12.0008C17.2951 11.8688 17.269 11.7381 17.2182 11.6162C17.1675 11.4944 17.0931 11.3838 16.9993 11.2908L12.3993 6.71079C12.3056 6.61783 12.2312 6.50723 12.1804 6.38537C12.1297 6.26351 12.1035 6.1328 12.1035 6.00079C12.1035 5.86878 12.1297 5.73808 12.1804 5.61622C12.2312 5.49436 12.3056 5.38376 12.3993 5.29079C12.5867 5.10454 12.8401 5 13.1043 5C13.3685 5 13.622 5.10454 13.8093 5.29079L18.3993 9.88079C18.9611 10.4433 19.2767 11.2058 19.2767 12.0008C19.2767 12.7958 18.9611 13.5583 18.3993 14.1208L13.8093 18.7108C13.7159 18.8035 13.6051 18.8768 13.4832 18.9266C13.3614 18.9763 13.2309 19.0016 13.0993 19.0008Z" fill="#202020"/>
<path d="M6.09932 19.0008C5.90155 19 5.70846 18.9405 5.54448 18.8299C5.3805 18.7194 5.25298 18.5627 5.17806 18.3796C5.10313 18.1966 5.08416 17.9955 5.12355 17.8017C5.16293 17.6078 5.2589 17.4301 5.39932 17.2908L10.6893 12.0008L5.39932 6.71079C5.30559 6.61783 5.2312 6.50723 5.18043 6.38537C5.12966 6.26351 5.10352 6.1328 5.10352 6.00079C5.10352 5.86878 5.12966 5.73808 5.18043 5.61622C5.2312 5.49436 5.30559 5.38376 5.39932 5.29079C5.58669 5.10454 5.84014 5 6.10432 5C6.36851 5 6.62196 5.10454 6.80932 5.29079L12.8093 11.2908C12.9031 11.3838 12.9774 11.4944 13.0282 11.6162C13.079 11.7381 13.1051 11.8688 13.1051 12.0008C13.1051 12.1328 13.079 12.2635 13.0282 12.3854C12.9774 12.5072 12.9031 12.6178 12.8093 12.7108L6.80932 18.7108C6.71588 18.8035 6.60507 18.8768 6.48323 18.9266C6.36139 18.9763 6.23093 19.0016 6.09932 19.0008Z" fill="#202020"/>
</svg>
