<svg width="24" height="24" viewBox="0 0 24 24" fill="none" xmlns="http://www.w3.org/2000/svg">
<g clip-path="url(#clip0_2_6570)">
<path d="M14.5005 6.99924C13.5689 6.98475 12.6696 7.34085 12.0005 7.98924C11.4861 7.50885 10.841 7.1914 10.1465 7.07686C9.45206 6.96231 8.73922 7.05578 8.09775 7.34551C7.45629 7.63524 6.91488 8.10827 6.54169 8.70505C6.16849 9.30182 5.9802 9.99568 6.00051 10.6992C6.00051 13.9552 10.8745 17.4352 11.4305 17.8202C11.5979 17.9364 11.7968 17.9986 12.0005 17.9986C12.2042 17.9986 12.4031 17.9364 12.5705 17.8202C13.1265 17.4352 18.0005 13.9552 18.0005 10.6992C18.0253 9.74495 17.6708 8.81974 17.0148 8.12624C16.3588 7.43275 15.4547 7.02749 14.5005 6.99924ZM12.0005 15.7612C10.2595 14.4312 8.00051 12.2012 8.00051 10.6992C7.92451 8.69324 10.9135 8.29924 11.0005 10.4532V10.9992C11.0005 11.2645 11.1059 11.5188 11.2934 11.7063C11.4809 11.8939 11.7353 11.9992 12.0005 11.9992C12.2657 11.9992 12.5201 11.8939 12.7076 11.7063C12.8952 11.5188 13.0005 11.2645 13.0005 10.9992V10.4532C13.0875 8.30124 16.0765 8.69324 16.0005 10.6992C16.0005 12.1992 13.7415 14.4312 12.0005 15.7612ZM12.8365 0.0272399C11.1222 -0.0925521 9.40224 0.157241 7.79286 0.759722C6.18349 1.3622 4.72228 2.30331 3.5081 3.51939C2.29392 4.73547 1.35509 6.19814 0.755123 7.80845C0.155155 9.41877 -0.091954 11.1392 0.0305131 12.8532C0.470513 19.2072 6.08251 23.9992 13.0835 23.9992H19.0005C20.3261 23.9977 21.597 23.4704 22.5343 22.533C23.4716 21.5957 23.9989 20.3248 24.0005 18.9992V12.3392C24.0376 9.25675 22.9073 6.27433 20.8366 3.99066C18.7658 1.70698 15.9079 0.291105 12.8365 0.0272399ZM22.0005 18.9992C22.0005 19.7949 21.6844 20.558 21.1218 21.1206C20.5592 21.6832 19.7962 21.9992 19.0005 21.9992H13.0835C7.04951 21.9992 2.40051 18.0992 2.02551 12.7152C1.92285 11.2862 2.12844 9.85187 2.62836 8.50924C3.12828 7.16662 3.91086 5.94708 4.92311 4.93322C5.93537 3.91936 7.15365 3.13484 8.49548 2.63278C9.83731 2.13072 11.2714 1.92285 12.7005 2.02324C15.267 2.25028 17.6524 3.44015 19.3776 5.35379C21.1028 7.26744 22.0398 9.76306 22.0005 12.3392V18.9992Z" fill="#202020"/>
</g>
<defs>
<clipPath id="clip0_2_6570">
<rect width="24" height="24" fill="white"/>
</clipPath>
</defs>
</svg>
