<svg width="16" height="16" viewBox="0 0 16 16" fill="none" xmlns="http://www.w3.org/2000/svg">
<g clip-path="url(#clip0_24_16789)">
<path d="M8.00004 9.66668C8.92051 9.66668 9.66671 8.92048 9.66671 8.00001C9.66671 7.07954 8.92051 6.33334 8.00004 6.33334C7.07957 6.33334 6.33337 7.07954 6.33337 8.00001C6.33337 8.92048 7.07957 9.66668 8.00004 9.66668Z" fill="#5F5F5F"/>
<path d="M3.00004 9.66668C3.92051 9.66668 4.66671 8.92048 4.66671 8.00001C4.66671 7.07954 3.92051 6.33334 3.00004 6.33334C2.07957 6.33334 1.33337 7.07954 1.33337 8.00001C1.33337 8.92048 2.07957 9.66668 3.00004 9.66668Z" fill="#5F5F5F"/>
<path d="M8.00004 14.6667C8.92051 14.6667 9.66671 13.9205 9.66671 13C9.66671 12.0795 8.92051 11.3333 8.00004 11.3333C7.07957 11.3333 6.33337 12.0795 6.33337 13C6.33337 13.9205 7.07957 14.6667 8.00004 14.6667Z" fill="#5F5F5F"/>
<path d="M3.00004 14.6667C3.92051 14.6667 4.66671 13.9205 4.66671 13C4.66671 12.0795 3.92051 11.3333 3.00004 11.3333C2.07957 11.3333 1.33337 12.0795 1.33337 13C1.33337 13.9205 2.07957 14.6667 3.00004 14.6667Z" fill="#5F5F5F"/>
<path d="M8.00004 4.66668C8.92051 4.66668 9.66671 3.92048 9.66671 3.00001C9.66671 2.07954 8.92051 1.33334 8.00004 1.33334C7.07957 1.33334 6.33337 2.07954 6.33337 3.00001C6.33337 3.92048 7.07957 4.66668 8.00004 4.66668Z" fill="#5F5F5F"/>
<path d="M3.00004 4.66668C3.92051 4.66668 4.66671 3.92048 4.66671 3.00001C4.66671 2.07954 3.92051 1.33334 3.00004 1.33334C2.07957 1.33334 1.33337 2.07954 1.33337 3.00001C1.33337 3.92048 2.07957 4.66668 3.00004 4.66668Z" fill="#5F5F5F"/>
</g>
<defs>
<clipPath id="clip0_24_16789">
<rect width="16" height="16" fill="white"/>
</clipPath>
</defs>
</svg>
