<svg width="18" height="19" viewBox="0 0 18 19" fill="none" xmlns="http://www.w3.org/2000/svg">
<path d="M0 4.5C0 2.29086 1.79086 0.5 4 0.5H14C16.2091 0.5 18 2.29086 18 4.5V14.5C18 16.7091 16.2091 18.5 14 18.5H4C1.79086 18.5 0 16.7091 0 14.5V4.5Z" fill="#4AAAE3"/>
<g clip-path="url(#clip0_3124_8103)">
<path d="M13.7295 6.03091L7.39583 12.3642C7.35324 12.4069 7.30264 12.4408 7.24691 12.464C7.19119 12.4871 7.13144 12.499 7.0711 12.499C7.01076 12.499 6.95101 12.4871 6.89528 12.464C6.83956 12.4408 6.78895 12.4069 6.74637 12.3642L4.29704 9.91253C4.25445 9.86978 4.20385 9.83586 4.14812 9.81271C4.0924 9.78957 4.03265 9.77765 3.97231 9.77765C3.91197 9.77765 3.85222 9.78957 3.79649 9.81271C3.74077 9.83586 3.69016 9.86978 3.64758 9.91253C3.60483 9.95512 3.5709 10.0057 3.54776 10.0615C3.52461 10.1172 3.5127 10.1769 3.5127 10.2373C3.5127 10.2976 3.52461 10.3574 3.54776 10.4131C3.5709 10.4688 3.60483 10.5194 3.64758 10.562L6.09783 13.0118C6.3563 13.2698 6.70658 13.4147 7.07179 13.4147C7.43699 13.4147 7.78727 13.2698 8.04574 13.0118L14.379 6.67991C14.4217 6.63733 14.4555 6.58676 14.4786 6.53107C14.5018 6.47539 14.5136 6.4157 14.5136 6.35541C14.5136 6.29512 14.5018 6.23543 14.4786 6.17974C14.4555 6.12406 14.4217 6.07348 14.379 6.03091C14.3364 5.98816 14.2858 5.95424 14.2301 5.93109C14.1744 5.90794 14.1146 5.89603 14.0543 5.89603C13.9939 5.89603 13.9342 5.90794 13.8785 5.93109C13.8227 5.95424 13.7721 5.98816 13.7295 6.03091Z" fill="white"/>
</g>
<defs>
<clipPath id="clip0_3124_8103">
<rect width="11" height="11" fill="white" transform="translate(3.5 4)"/>
</clipPath>
</defs>
</svg>
