<svg width="16" height="16" viewBox="0 0 16 16" fill="none" xmlns="http://www.w3.org/2000/svg">
<path d="M11.9998 10.3333C11.9121 10.3338 11.8251 10.317 11.7439 10.2838C11.6627 10.2507 11.5888 10.2018 11.5265 10.14L8.47317 7.07999C8.4112 7.0175 8.33746 6.96791 8.25622 6.93406C8.17498 6.90022 8.08785 6.88279 7.99984 6.88279C7.91183 6.88279 7.82469 6.90022 7.74345 6.93406C7.66221 6.96791 7.58848 7.0175 7.52651 7.07999L4.47317 10.14C4.34764 10.2655 4.17737 10.336 3.99984 10.336C3.8223 10.336 3.65204 10.2655 3.52651 10.14C3.40097 10.0144 3.33044 9.84418 3.33044 9.66665C3.33044 9.57874 3.34776 9.4917 3.3814 9.41048C3.41504 9.32927 3.46435 9.25548 3.52651 9.19332L6.58651 6.13999C6.96647 5.77495 7.47293 5.57108 7.99984 5.57108C8.52674 5.57108 9.03321 5.77495 9.41317 6.13999L12.4732 9.19332C12.5357 9.25529 12.5853 9.32903 12.6191 9.41027C12.6529 9.4915 12.6704 9.57864 12.6704 9.66665C12.6704 9.75466 12.6529 9.84179 12.6191 9.92303C12.5853 10.0043 12.5357 10.078 12.4732 10.14C12.4109 10.2018 12.337 10.2507 12.2558 10.2838C12.1746 10.317 12.0876 10.3338 11.9998 10.3333Z" fill="#DC6803"/>
</svg>
