<svg width="16" height="16" viewBox="0 0 16 16" fill="none" xmlns="http://www.w3.org/2000/svg">
<path d="M3.33337 6.9867C3.33411 6.8118 3.40355 6.6442 3.52671 6.52003L6.58671 3.46003C6.96171 3.08549 7.47004 2.87512 8.00004 2.87512C8.53004 2.87512 9.03837 3.08549 9.41337 3.46003L12.4734 6.52003C12.5975 6.64494 12.6672 6.81391 12.6672 6.99003C12.6672 7.16615 12.5975 7.33512 12.4734 7.46003C12.4114 7.52251 12.3377 7.57211 12.2564 7.60596C12.1752 7.6398 12.088 7.65723 12 7.65723C11.912 7.65723 11.8249 7.6398 11.7437 7.60596C11.6624 7.57211 11.5887 7.52251 11.5267 7.46003L8.47337 4.40003C8.4114 4.33754 8.33767 4.28795 8.25643 4.2541C8.17519 4.22026 8.08805 4.20283 8.00004 4.20283C7.91203 4.20283 7.8249 4.22026 7.74366 4.2541C7.66242 4.28795 7.58868 4.33754 7.52671 4.40003L4.47337 7.46003C4.4114 7.52251 4.33767 7.57211 4.25643 7.60596C4.17519 7.6398 4.08805 7.65723 4.00004 7.65723C3.91203 7.65723 3.8249 7.6398 3.74366 7.60596C3.66242 7.57211 3.58868 7.52251 3.52671 7.46003C3.46492 7.39774 3.41604 7.32386 3.38286 7.24263C3.34968 7.16141 3.33287 7.07443 3.33337 6.9867Z" fill="#DC6803"/>
<path d="M3.33337 11.6532C3.33411 11.4783 3.40355 11.3107 3.52671 11.1866L7.52671 7.18658C7.58868 7.12409 7.66242 7.0745 7.74366 7.04065C7.8249 7.00681 7.91203 6.98938 8.00004 6.98938C8.08805 6.98938 8.17519 7.00681 8.25643 7.04065C8.33767 7.0745 8.4114 7.12409 8.47337 7.18658L12.4734 11.1866C12.5975 11.3115 12.6672 11.4804 12.6672 11.6566C12.6672 11.8327 12.5975 12.0017 12.4734 12.1266C12.4114 12.1891 12.3377 12.2387 12.2564 12.2725C12.1752 12.3063 12.088 12.3238 12 12.3238C11.912 12.3238 11.8249 12.3063 11.7437 12.2725C11.6624 12.2387 11.5887 12.1891 11.5267 12.1266L8.00004 8.59991L4.47337 12.1266C4.4114 12.1891 4.33767 12.2387 4.25643 12.2725C4.17519 12.3063 4.08805 12.3238 4.00004 12.3238C3.91203 12.3238 3.8249 12.3063 3.74366 12.2725C3.66242 12.2387 3.58868 12.1891 3.52671 12.1266C3.46492 12.0643 3.41604 11.9904 3.38286 11.9092C3.34968 11.828 3.33287 11.741 3.33337 11.6532Z" fill="#DC6803"/>
</svg>
