<svg width="14" height="14" viewBox="0 0 14 14" fill="none" xmlns="http://www.w3.org/2000/svg">
<path d="M13.1249 1.49713H0.874878C0.806128 1.49713 0.749878 1.55338 0.749878 1.62213V2.62213C0.749878 2.69088 0.806128 2.74713 0.874878 2.74713H13.1249C13.1936 2.74713 13.2499 2.69088 13.2499 2.62213V1.62213C13.2499 1.55338 13.1936 1.49713 13.1249 1.49713ZM13.1249 11.2471H0.874878C0.806128 11.2471 0.749878 11.3034 0.749878 11.3721V12.3721C0.749878 12.4409 0.806128 12.4971 0.874878 12.4971H13.1249C13.1936 12.4971 13.2499 12.4409 13.2499 12.3721V11.3721C13.2499 11.3034 13.1936 11.2471 13.1249 11.2471ZM13.1249 6.37213H0.874878C0.806128 6.37213 0.749878 6.42838 0.749878 6.49713V7.49713C0.749878 7.56588 0.806128 7.62213 0.874878 7.62213H13.1249C13.1936 7.62213 13.2499 7.56588 13.2499 7.49713V6.49713C13.2499 6.42838 13.1936 6.37213 13.1249 6.37213Z" fill="#F79009"/>
</svg>
