<svg width="16" height="16" viewBox="0 0 16 16" fill="none" xmlns="http://www.w3.org/2000/svg">
<path d="M12.6666 9.0133C12.6659 9.1882 12.5965 9.3558 12.4733 9.47997L9.41329 12.54C9.03829 12.9145 8.52996 13.1249 7.99996 13.1249C7.46996 13.1249 6.96163 12.9145 6.58663 12.54L3.52663 9.47997C3.40246 9.35506 3.33276 9.18609 3.33276 9.00997C3.33276 8.83385 3.40246 8.66488 3.52663 8.53997C3.5886 8.47749 3.66233 8.42789 3.74357 8.39404C3.82481 8.3602 3.91195 8.34277 3.99996 8.34277C4.08797 8.34277 4.1751 8.3602 4.25634 8.39404C4.33758 8.42789 4.41132 8.47749 4.47329 8.53997L7.52663 11.6C7.5886 11.6625 7.66233 11.7121 7.74357 11.7459C7.82481 11.7797 7.91195 11.7972 7.99996 11.7972C8.08797 11.7972 8.1751 11.7797 8.25634 11.7459C8.33758 11.7121 8.41132 11.6625 8.47329 11.6L11.5266 8.53997C11.5886 8.47748 11.6623 8.42789 11.7436 8.39404C11.8248 8.3602 11.912 8.34277 12 8.34277C12.088 8.34277 12.1751 8.3602 12.2563 8.39404C12.3376 8.42789 12.4113 8.47748 12.4733 8.53997C12.5351 8.60226 12.584 8.67614 12.6171 8.75737C12.6503 8.83859 12.6671 8.92557 12.6666 9.0133Z" fill="#0A65E4"/>
<path d="M12.6666 4.34676C12.6659 4.52165 12.5965 4.68925 12.4733 4.81343L8.47329 8.81342C8.41132 8.87591 8.33758 8.9255 8.25634 8.95935C8.1751 8.99319 8.08797 9.01062 7.99996 9.01062C7.91195 9.01062 7.82481 8.99319 7.74357 8.95935C7.66233 8.9255 7.5886 8.87591 7.52663 8.81342L3.52663 4.81343C3.40246 4.68852 3.33276 4.51955 3.33276 4.34343C3.33276 4.1673 3.40246 3.99834 3.52663 3.87343C3.5886 3.81094 3.66233 3.76135 3.74357 3.7275C3.82481 3.69366 3.91195 3.67623 3.99996 3.67623C4.08797 3.67623 4.1751 3.69366 4.25634 3.7275C4.33758 3.76135 4.41132 3.81094 4.47329 3.87343L7.99996 7.40009L11.5266 3.87343C11.5886 3.81094 11.6623 3.76135 11.7436 3.7275C11.8248 3.69366 11.912 3.67623 12 3.67623C12.088 3.67623 12.1751 3.69366 12.2563 3.7275C12.3376 3.76135 12.4113 3.81094 12.4733 3.87343C12.5351 3.93572 12.584 4.0096 12.6171 4.09082C12.6503 4.17205 12.6671 4.25902 12.6666 4.34676Z" fill="#0A65E4"/>
</svg>
